<?xml version="1.0" standalone="no"?>
<!DOCTYPE svg PUBLIC "-//W3C//DTD SVG 1.1//EN" "http://www.w3.org/Graphics/SVG/1.1/DTD/svg11.dtd" >
<svg xmlns="http://www.w3.org/2000/svg">
<metadata></metadata>
<defs>
<font id="boxedthin" horiz-adv-x="1167" >
<font-face units-per-em="2048" ascent="1638" descent="-410" />
<missing-glyph horiz-adv-x="737" />
<glyph unicode="&#xfb01;" horiz-adv-x="1044" d="M68 1075v37h157v109q0 127 92 221t215 94h287v-37h-287q-107 0 -186.5 -83t-79.5 -195v-109h553v-1112h-41v1075h-512v-1075h-41v1075h-157z" />
<glyph unicode="&#xfb02;" horiz-adv-x="1044" d="M68 1075v37h157v109q0 127 92 221t215 94h287v-1536h-41v1499h-246q-107 0 -186.5 -83t-79.5 -195v-109h258v-37h-258v-1075h-41v1075h-157z" />
<glyph horiz-adv-x="0" />
<glyph horiz-adv-x="682" />
<glyph horiz-adv-x="0" />
<glyph horiz-adv-x="0" />
<glyph unicode="&#xd;" horiz-adv-x="737" />
<glyph unicode=" "  horiz-adv-x="737" />
<glyph unicode="&#x09;" horiz-adv-x="737" />
<glyph unicode="&#xa0;" horiz-adv-x="737" />
<glyph unicode="!" horiz-adv-x="487" d="M221 0v213h45v-213h-45zM221 410v1024h45v-1024h-45z" />
<glyph unicode="&#x22;" horiz-adv-x="544" d="M123 1536h49l-6 -430h-35zM373 1536h49l-6 -430h-35z" />
<glyph unicode="#" horiz-adv-x="1413" d="M84 410v41h244l106 565h-276v41h282l72 377h45l-70 -377h584l72 379h45l-70 -379h207v-41h-215l-104 -565h245v-41h-254l-75 -410h-45l75 410h-585l-76 -410h-45l76 410h-238zM375 451h583l107 565h-586z" />
<glyph unicode="$" horiz-adv-x="1249" d="M164 293v110h45v-110q0 -109 93.5 -186.5t229.5 -77.5h82v665q-71 31 -120.5 55.5t-106.5 60.5t-91.5 71t-57.5 82.5t-23 99.5v129q0 103 88 178.5t209 75.5h102v223h41v-223h52q139 0 238 -84t99 -201v-108h-45v108q0 100 -85 172t-207 72h-52v-680q204 -83 279 -128 q151 -90 151 -196v-129q0 -134 -107 -209t-271 -75h-52v-217h-41v217h-82q-152 0 -260 89.5t-108 215.5zM260 1061q0 -55 27.5 -102t82 -86.5t109 -68t135.5 -63.5v664h-102q-104 0 -178 -62.5t-74 -150.5v-131zM655 29h52q145 0 239 66t94 177v129q0 22 -7.5 42.5t-26 40 t-35.5 35.5t-50.5 34.5t-56.5 31t-67 32t-68 29.5t-74 30v-647z" />
<glyph unicode="%" horiz-adv-x="1345" d="M123 946v324q0 72 52 124t124 52h100q73 0 124.5 -52t51.5 -124v-324q0 -72 -51.5 -124t-124.5 -52h-100q-72 0 -124 52t-52 124zM164 946q0 -57 40 -98t95 -41h100q56 0 96 41t40 98v324q0 57 -40 98t-96 41h-100q-55 0 -95 -41t-40 -98v-324zM418 0l452 1434h50 l-457 -1434h-45zM770 164v323q0 72 52 124.5t124 52.5h101q73 0 124.5 -52.5t51.5 -124.5v-323q0 -72 -51.5 -124t-124.5 -52h-101q-72 0 -124 52t-52 124zM811 164q0 -57 40 -98t95 -41h101q55 0 95 41t40 98v323q0 57 -40 98.5t-95 41.5h-101q-55 0 -95 -41.5t-40 -98.5 v-323z" />
<glyph unicode="&#x26;" horiz-adv-x="1314" d="M201 293v231q0 97 56.5 175.5t145.5 111.5q-67 31 -109 93.5t-42 137.5v150q0 103 76.5 178.5t179.5 75.5h270q103 0 179.5 -75.5t76.5 -178.5v-88h-45v88q0 88 -61.5 150.5t-149.5 62.5h-270q-88 0 -149.5 -62.5t-61.5 -150.5v-150q0 -87 59 -150t142 -63h743v-41h-156 v-495q0 -126 -90.5 -215.5t-216.5 -89.5h-270q-126 0 -216.5 89.5t-90.5 215.5zM246 293q0 -109 76.5 -186.5t185.5 -77.5h270q109 0 185.5 77.5t76.5 186.5v495h-532q-109 0 -185.5 -77.5t-76.5 -186.5v-231z" />
<glyph unicode="'" horiz-adv-x="294" d="M123 1536h49l-6 -430h-35z" />
<glyph unicode="(" horiz-adv-x="591" d="M162 88v1053q0 126 90.5 215.5t216.5 89.5h82v-41h-82q-109 0 -185.5 -77.5t-76.5 -186.5v-1053q0 -109 76.5 -186.5t185.5 -77.5h82v-41h-82q-126 0 -216.5 89.5t-90.5 215.5z" />
<glyph unicode=")" horiz-adv-x="591" d="M41 -176h82q109 0 185.5 77.5t76.5 186.5v1053q0 109 -76.5 186.5t-185.5 77.5h-82v41h82q126 0 216.5 -89.5t90.5 -215.5v-1053q0 -126 -90.5 -215.5t-216.5 -89.5h-82v41z" />
<glyph unicode="*" horiz-adv-x="1046" d="M123 1227l12 41l369 -119v387h41v-387l366 119l13 -41l-367 -119l227 -313l-32 -25l-228 315l-229 -315l-33 25l227 313z" />
<glyph unicode="+" horiz-adv-x="823" d="M123 612v41h268v269h41v-269h268v-41h-268v-268h-41v268h-268z" />
<glyph unicode="," horiz-adv-x="454" d="M104 -156q50 27 76.5 69t26.5 87v211h41v-211q0 -136 -144 -199v43z" />
<glyph unicode="-" horiz-adv-x="823" d="M123 612v41h577v-41h-577z" />
<glyph unicode="." horiz-adv-x="454" d="M207 0v211h41v-211h-41z" />
<glyph unicode="/" horiz-adv-x="1175" d="M127 0l829 1434h52l-830 -1434h-51z" />
<glyph unicode="0" horiz-adv-x="1282" d="M221 293v848q0 126 90.5 215.5t216.5 89.5h226q126 0 216.5 -89.5t90.5 -215.5v-848q0 -126 -90.5 -215.5t-216.5 -89.5h-226q-126 0 -216.5 89.5t-90.5 215.5zM266 293q0 -109 76.5 -186.5t185.5 -77.5h226q109 0 185.5 77.5t76.5 186.5v848q0 109 -76.5 186.5 t-185.5 77.5h-226q-109 0 -185.5 -77.5t-76.5 -186.5v-848z" />
<glyph unicode="1" horiz-adv-x="841" d="M84 0v41h311v1352l-311 -164v41l311 164h45v-1393h320v-41h-676z" />
<glyph unicode="2" horiz-adv-x="1208" d="M184 0v156q0 154 113 274q51 53 134 106.5t156.5 90t153.5 88t127 102.5q90 97 90 219v105q0 109 -76.5 186.5t-185.5 77.5h-184q-109 0 -185.5 -77.5t-76.5 -186.5v-115h-45v115q0 126 90.5 215.5t216.5 89.5h184q126 0 217 -89.5t91 -215.5v-105q0 -141 -101 -250 q-41 -43 -101.5 -84.5t-123 -74.5t-124.5 -66.5t-122 -75t-100 -84.5q-99 -106 -99 -245v-115h791v-41h-840z" />
<glyph unicode="3" horiz-adv-x="1241" d="M201 295v94h45v-94q0 -109 76.5 -186.5t185.5 -77.5h225q109 0 185.5 83t76.5 201v164q0 107 -82.5 185.5t-199.5 78.5h-144v41h133q94 0 163 67.5t69 160.5v164q0 94 -64 161.5t-153 67.5h-207q-85 0 -145 -67.5t-60 -161.5v-78h-45v78q0 109 74.5 189.5t175.5 80.5h207 q105 0 183.5 -81t78.5 -189v-164q0 -80 -46.5 -146.5t-119.5 -99.5q98 -31 162.5 -110.5t64.5 -176.5v-164q0 -133 -90.5 -229t-216.5 -96h-225q-126 0 -216.5 89.5t-90.5 215.5z" />
<glyph unicode="4" horiz-adv-x="1064" d="M123 418v41l598 975h45v-975h238v-41h-238v-418h-45v418h-598zM168 459h553v901z" />
<glyph unicode="5" horiz-adv-x="1241" d="M221 295v94h45v-94q0 -109 76.5 -186.5t185.5 -77.5h185q109 0 185.5 83t76.5 201v246q0 109 -68.5 186.5t-163.5 77.5h-477v609h699v-41h-654v-527h432q113 0 195 -89.5t82 -215.5v-246q0 -133 -90.5 -229t-216.5 -96h-185q-126 0 -216.5 89.5t-90.5 215.5z" />
<glyph unicode="6" horiz-adv-x="1282" d="M221 293v848q0 126 90.5 215.5t216.5 89.5h226q126 0 216.5 -89.5t90.5 -215.5v-43h-45v43q0 109 -76.5 186.5t-185.5 77.5h-226q-109 0 -185.5 -77.5t-76.5 -186.5v-396q41 67 110.5 107.5t151.5 40.5h226q126 0 216.5 -89.5t90.5 -215.5v-295q0 -126 -90.5 -215.5 t-216.5 -89.5h-226q-126 0 -216.5 89.5t-90.5 215.5zM266 293q0 -109 76.5 -186.5t185.5 -77.5h226q109 0 185.5 77.5t76.5 186.5v295q0 109 -76.5 186.5t-185.5 77.5h-226q-106 0 -184 -75.5t-78 -178.5v-305z" />
<glyph unicode="7" horiz-adv-x="1038" d="M123 1405v41h823v-41l-694 -1405h-45l694 1405h-778z" />
<glyph unicode="8" horiz-adv-x="1241" d="M201 293v172q0 100 59.5 180t153.5 111q-81 36 -132 111t-51 167v107q0 126 91 215.5t217 89.5h163q126 0 217 -89.5t91 -215.5v-107q0 -92 -51 -167t-134 -111q94 -31 154.5 -111t60.5 -180v-172q0 -126 -90.5 -215.5t-216.5 -89.5h-225q-126 0 -216.5 89.5t-90.5 215.5 zM246 293q0 -109 76.5 -186.5t185.5 -77.5h225q109 0 185.5 77.5t76.5 186.5v172q0 109 -76.5 186.5t-185.5 77.5h-225q-109 0 -185.5 -77.5t-76.5 -186.5v-172zM276 1034q0 -109 77 -186.5t186 -77.5h174q105 0 178.5 78.5t73.5 185.5v107q0 109 -77 186.5t-186 77.5h-163 q-109 0 -186 -77.5t-77 -186.5v-107z" />
<glyph unicode="9" horiz-adv-x="1282" d="M221 293v43h45v-43q0 -109 76.5 -186.5t185.5 -77.5h226q109 0 185.5 77.5t76.5 186.5v393q-42 -67 -111.5 -106t-150.5 -39h-226q-126 0 -216.5 89.5t-90.5 215.5v295q0 126 90.5 215.5t216.5 89.5h226q126 0 216.5 -89.5t90.5 -215.5v-848q0 -126 -90.5 -215.5 t-216.5 -89.5h-226q-126 0 -216.5 89.5t-90.5 215.5zM266 846q0 -109 76.5 -186.5t185.5 -77.5h226q106 0 184 75.5t78 176.5v307q0 109 -76.5 186.5t-185.5 77.5h-226q-109 0 -185.5 -77.5t-76.5 -186.5v-295z" />
<glyph unicode=":" horiz-adv-x="454" d="M207 0v211h41v-211h-41zM207 899v211h41v-211h-41z" />
<glyph unicode=";" horiz-adv-x="454" d="M104 -156v-43q144 63 144 199v211h-41v-211q0 -45 -26.5 -87t-76.5 -69zM207 899v211h41v-211h-41z" />
<glyph unicode="&#x3c;" horiz-adv-x="1153" d="M123 524v45l907 414v-43l-858 -393l858 -375v-45z" />
<glyph unicode="=" horiz-adv-x="905" d="M82 373v41h741v-41h-741zM82 700v41h741v-41h-741z" />
<glyph unicode="&#x3e;" horiz-adv-x="1153" d="M123 127v45l858 375l-858 393v43l907 -414v-45z" />
<glyph unicode="?" horiz-adv-x="1054" d="M51 1026v115q0 126 90.5 215.5t216.5 89.5h185q126 0 216.5 -89.5t90.5 -215.5v-135q0 -87 -64 -164q-39 -48 -139.5 -125.5t-136.5 -116.5q-82 -89 -82 -178v-92h-49v92q0 111 94 205q37 38 142.5 118t142.5 129q47 63 47 132v135q0 109 -76.5 186.5t-185.5 77.5h-185 q-109 0 -185.5 -77.5t-76.5 -186.5v-115h-45zM381 0v211h47v-211h-47z" />
<glyph unicode="@" horiz-adv-x="1935" d="M195 -33v1186q0 126 90.5 215.5t216.5 89.5h932q126 0 216.5 -89.5t90.5 -215.5v-848q0 -126 -90.5 -215.5t-216.5 -89.5h-146l-8 170q-62 -85 -146.5 -133.5t-170.5 -48.5h-152q-103 0 -179.5 73.5t-76.5 171.5v633q0 98 76.5 172t179.5 74h510v-1075h113 q109 0 187.5 79t78.5 189v848q0 110 -78.5 189t-187.5 79h-932q-110 0 -188 -79t-78 -189v-1186q0 -110 78 -189t188 -79h788v-37h-788q-126 0 -216.5 89.5t-90.5 215.5zM596 233q0 -84 64 -146t151 -62h152q89 0 174.5 54t142.5 148v848h-469q-87 0 -151 -62.5t-64 -146.5 v-633z" />
<glyph unicode="A" horiz-adv-x="1329" d="M123 0l520 1446h45l518 -1446h-49l-190 532h-605l-190 -532h-49zM377 573h575l-286 807z" />
<glyph unicode="B" horiz-adv-x="1300" d="M246 0v1434h471q126 0 216.5 -84t90.5 -201v-141q0 -80 -45 -147t-119 -105q115 -23 190.5 -110.5t75.5 -199.5v-141q0 -126 -90.5 -215.5t-216.5 -89.5h-573zM291 41h528q109 0 185.5 77.5t76.5 186.5v141q0 115 -85.5 196t-207.5 81h-497v-682zM291 764h436 q104 0 178 72.5t74 171.5v141q0 100 -77 172t-185 72h-426v-629z" />
<glyph unicode="C" horiz-adv-x="1323" d="M221 293v848q0 126 90.5 215.5t216.5 89.5h267q126 0 216.5 -89.5t90.5 -215.5v-129h-45v129q0 109 -76.5 186.5t-185.5 77.5h-267q-109 0 -185.5 -77.5t-76.5 -186.5v-848q0 -109 76.5 -186.5t185.5 -77.5h267q109 0 185.5 77.5t76.5 186.5v141h45v-141 q0 -126 -90.5 -215.5t-216.5 -89.5h-267q-126 0 -216.5 89.5t-90.5 215.5z" />
<glyph unicode="D" horiz-adv-x="1388" d="M246 0v1434h614q126 0 216.5 -90t90.5 -216v-823q0 -126 -90.5 -215.5t-216.5 -89.5h-614zM291 41h569q109 0 185.5 77.5t76.5 186.5v823q0 109 -77 187t-185 78h-569v-1352z" />
<glyph unicode="E" horiz-adv-x="1239" d="M246 0v1434h764v-41h-719v-615h682v-41h-682v-696h739v-41h-784z" />
<glyph unicode="F" horiz-adv-x="1193" d="M246 0v1434h784v-41h-739v-650h702v-41h-702v-702h-45z" />
<glyph unicode="G" horiz-adv-x="1363" d="M221 293v848q0 126 90.5 215.5t216.5 89.5h308q126 0 216.5 -89.5t90.5 -215.5v-129h-45v129q0 109 -76.5 186.5t-185.5 77.5h-308q-109 0 -185.5 -77.5t-76.5 -186.5v-848q0 -109 76.5 -186.5t185.5 -77.5h308q109 0 185.5 77.5t76.5 186.5v346h-430v41h475v-387 q0 -126 -90.5 -215.5t-216.5 -89.5h-308q-126 0 -216.5 89.5t-90.5 215.5z" />
<glyph unicode="H" horiz-adv-x="1413" d="M246 0v1434h45v-676h831v678h45v-1436h-45v717h-831v-717h-45z" />
<glyph unicode="I" horiz-adv-x="536" d="M246 0v1434h45v-1434h-45z" />
<glyph unicode="J" horiz-adv-x="585" d="M-98 -383h69q135 0 229.5 95.5t94.5 230.5v1491h45v-1491q0 -151 -109 -259t-260 -108h-69v41z" />
<glyph unicode="K" horiz-adv-x="1280" d="M246 0v1434h45v-676h274l465 676h55l-475 -697l578 -737h-55l-566 717h-276v-717h-45z" />
<glyph unicode="L" horiz-adv-x="1005" d="M246 0v1434h45v-1393h653v-41h-698z" />
<glyph unicode="M" horiz-adv-x="1705" d="M246 0v1434h51l557 -1078l555 1078h51v-1434h-45v1346l-538 -1039h-50l-536 1039v-1346h-45z" />
<glyph unicode="N" horiz-adv-x="1413" d="M246 0v1434h51l825 -1360v1362h45v-1436h-51l-825 1360v-1360h-45z" />
<glyph unicode="O" horiz-adv-x="1363" d="M221 293v848q0 126 90.5 215.5t216.5 89.5h308q126 0 216.5 -89.5t90.5 -215.5v-848q0 -126 -90.5 -215.5t-216.5 -89.5h-308q-126 0 -216.5 89.5t-90.5 215.5zM266 293q0 -109 76.5 -186.5t185.5 -77.5h308q109 0 185.5 77.5t76.5 186.5v848q0 109 -76.5 186.5 t-185.5 77.5h-308q-109 0 -185.5 -77.5t-76.5 -186.5v-848z" />
<glyph unicode="P" horiz-adv-x="1236" d="M246 0v1434h485q141 0 239.5 -79t98.5 -198v-289q0 -118 -91.5 -209.5t-215.5 -91.5h-471v-567h-45zM291 608h471q107 0 184.5 78.5t77.5 181.5v289q0 102 -84.5 169t-208.5 67h-440v-785z" />
<glyph unicode="Q" horiz-adv-x="1363" d="M221 293v848q0 126 90.5 215.5t216.5 89.5h308q126 0 216.5 -89.5t90.5 -215.5v-848q0 -126 -90.5 -215.5t-216.5 -89.5h-101l223 -381l-38 -23l-238 404h-154q-126 0 -216.5 89.5t-90.5 215.5zM266 293q0 -109 76.5 -186.5t185.5 -77.5h308q109 0 185.5 77.5t76.5 186.5 v848q0 109 -76.5 186.5t-185.5 77.5h-308q-109 0 -185.5 -77.5t-76.5 -186.5v-848z" />
<glyph unicode="R" horiz-adv-x="1331" d="M246 0v1434h526q141 0 239.5 -79t98.5 -198v-291q0 -100 -92 -184t-215 -84h-12l311 -598h-53l-312 598h-446v-598h-45zM291 639h512q106 0 184 70.5t78 156.5v291q0 102 -84.5 169t-208.5 67h-481v-754z" />
<glyph unicode="S" horiz-adv-x="1249" d="M164 293v110h45v-110q0 -109 93.5 -186.5t229.5 -77.5h175q145 0 239 66t94 177v129q0 51 -45.5 96.5t-118.5 81.5t-161 72.5t-175.5 77t-160.5 86.5t-118.5 110t-45.5 138v129q0 103 88 178.5t209 75.5h195q139 0 238 -84t99 -201v-108h-45v108q0 100 -85 172t-207 72 h-195q-104 0 -178 -62.5t-74 -150.5v-131q0 -67 45.5 -125t118.5 -100t160.5 -80.5t175.5 -76t161 -76.5t118.5 -90.5t45.5 -111.5v-129q0 -134 -107 -209t-271 -75h-175q-152 0 -260 89.5t-108 215.5z" />
<glyph unicode="T" horiz-adv-x="983" d="M51 1393v41h881v-41h-412v-1393h-45v1393h-424z" />
<glyph unicode="U" horiz-adv-x="1357" d="M225 293v1141h45v-1141q0 -109 76.5 -186.5t185.5 -77.5h293q109 0 185.5 77.5t76.5 186.5v1141h46v-1141q0 -126 -91 -215.5t-217 -89.5h-293q-126 0 -216.5 89.5t-90.5 215.5z" />
<glyph unicode="V" horiz-adv-x="1329" d="M123 1434h49l494 -1371l491 1371h49l-518 -1434h-45z" />
<glyph unicode="W" horiz-adv-x="2117" d="M123 1434h49l432 -1364l430 1364h49l433 -1364l430 1364h49l-457 -1434h-45l-434 1356l-432 -1356h-45z" />
<glyph unicode="X" horiz-adv-x="1310" d="M113 0l516 750l-471 684h51l448 -650l445 650h51l-471 -689l516 -745h-51l-492 713l-491 -713h-51z" />
<glyph unicode="Y" horiz-adv-x="1249" d="M123 1434h51l469 -779l432 779h51l-460 -820v-614h-45v614z" />
<glyph unicode="Z" horiz-adv-x="1175" d="M127 0v41l829 1352h-788v41h840v-41l-830 -1352h871v-41h-922z" />
<glyph unicode="[" horiz-adv-x="538" d="M246 -219v1653h211v-41h-168v-1571h188v-41h-231z" />
<glyph unicode="\" horiz-adv-x="1175" d="M127 1434h51l830 -1434h-52z" />
<glyph unicode="]" horiz-adv-x="538" d="M61 -178h189v1571h-168v41h211v-1653h-232v41z" />
<glyph unicode="^" horiz-adv-x="761" d="M123 1188l233 346h50l233 -346h-49l-209 309l-209 -309h-49z" />
<glyph unicode="_" horiz-adv-x="823" d="M0 -125h823v-41h-823v41z" />
<glyph unicode="`" horiz-adv-x="708" d="M123 1499l22 35l441 -260l-23 -35z" />
<glyph unicode="a" horiz-adv-x="1181" d="M201 233v146q0 88 80 148.5t196 78.5l449 68v188q0 92 -69.5 158.5t-166.5 66.5h-158q-94 0 -162.5 -47.5t-68.5 -119.5v-72h-41v72q0 91 80 147.5t192 56.5h158q113 0 195 -76t82 -180v-868h-33l-8 170q-61 -85 -146.5 -133.5t-171.5 -48.5h-151q-103 0 -179.5 73.5 t-76.5 171.5zM242 233q0 -84 64 -146t151 -62h151q90 0 175.5 54.5t142.5 147.5v416l-449 -74q-98 -16 -166.5 -68.5t-68.5 -121.5v-146z" />
<glyph unicode="b" horiz-adv-x="1191" d="M225 0v1536h41v-571q53 75 122.5 117t143.5 42h152q126 0 216.5 -93.5t90.5 -223.5v-502q0 -130 -90.5 -223.5t-216.5 -93.5h-152q-154 0 -268 159l-6 -147h-33zM266 211q108 -186 266 -186h152q109 0 187.5 82.5t78.5 197.5v502q0 115 -78.5 197.5t-187.5 82.5h-152 q-76 0 -145.5 -47t-120.5 -129v-700z" />
<glyph unicode="c" horiz-adv-x="1146" d="M201 293v526q0 126 90.5 215.5t216.5 89.5h131q126 0 216.5 -89.5t90.5 -215.5v-18h-41v18q0 110 -78.5 189t-187.5 79h-131q-110 0 -188 -79t-78 -189v-526q0 -110 78 -189t188 -79h131q109 0 187.5 79t78.5 189v22h41v-22q0 -126 -90.5 -215.5t-216.5 -89.5h-131 q-126 0 -216.5 89.5t-90.5 215.5z" />
<glyph unicode="d" horiz-adv-x="1191" d="M201 305v502q0 130 90.5 223.5t216.5 93.5h151q73 0 142.5 -42t124.5 -117v571h41v-1536h-33l-8 147q-52 -75 -121.5 -117t-145.5 -42h-151q-126 0 -216.5 93.5t-90.5 223.5zM242 305q0 -115 78.5 -197.5t187.5 -82.5h151q78 0 146.5 48.5t120.5 137.5v700 q-50 81 -121 128.5t-146 47.5h-151q-109 0 -187.5 -82.5t-78.5 -197.5v-502z" />
<glyph unicode="e" d="M201 293v526q0 126 90.5 215.5t216.5 89.5h151q126 0 217 -89.5t91 -215.5v-260h-725v-266q0 -110 78 -189t188 -79h151q109 0 188 79t79 189v12h41v-12q0 -126 -91 -215.5t-217 -89.5h-151q-126 0 -216.5 89.5t-90.5 215.5zM242 596h684v223q0 110 -79 189t-188 79h-151 q-110 0 -188 -79t-78 -189v-223z" />
<glyph unicode="f" horiz-adv-x="552" d="M68 1075v37h157v109q0 127 92 221t215 94v-37q-107 0 -186.5 -83t-79.5 -195v-109h258v-37h-258v-1075h-41v1075h-157z" />
<glyph unicode="g" horiz-adv-x="1191" d="M201 -100h41v-19q0 -110 78 -189t188 -79h151q109 0 188 79t79 189v264q-55 -73 -125 -115t-142 -42h-151q-126 0 -216.5 93.5t-90.5 223.5v502q0 130 90.5 223.5t216.5 93.5h151q76 0 145.5 -42t121.5 -117l8 147h33v-1231q0 -126 -91 -215.5t-217 -89.5h-151 q-126 0 -216.5 89.5t-90.5 215.5v19zM242 305q0 -116 78 -198t188 -82h151q75 0 145.5 47t121.5 127v704q-47 87 -117.5 135.5t-149.5 48.5h-151q-110 0 -188 -82t-78 -198v-502z" />
<glyph unicode="h" horiz-adv-x="1165" d="M225 0v1536h41v-580q65 78 156 123t186 45h35q136 0 221.5 -77t85.5 -207v-840h-41v846q0 109 -77 175t-189 66h-35q-98 0 -191 -50t-151 -138v-899h-41z" />
<glyph unicode="i" horiz-adv-x="491" d="M225 0v1112h41v-1112h-41zM225 1325v211h41v-211h-41z" />
<glyph unicode="j" horiz-adv-x="493" d="M-59 -387q120 0 203 64t83 153v1282h41v-1282q0 -104 -94.5 -179t-232.5 -75v37zM225 1325v211h41v-211h-41z" />
<glyph unicode="k" horiz-adv-x="1040" d="M225 0v1536h41v-879h166l440 455h52l-457 -473l532 -639h-49l-518 621h-166v-621h-41z" />
<glyph unicode="l" horiz-adv-x="491" d="M225 0v1536h41v-1536h-41z" />
<glyph unicode="m" horiz-adv-x="1849" d="M225 0v1112h33l8 -158q65 79 155.5 124.5t186.5 45.5h35q107 0 185.5 -49.5t107.5 -136.5q65 85 160.5 135.5t195.5 50.5h35q136 0 221.5 -77t85.5 -207v-840h-41v846q0 109 -77 175t-189 66h-35q-100 0 -194.5 -51.5t-151.5 -142.5q4 -32 4 -53v-840h-41v846 q0 109 -77 175t-189 66h-35q-98 0 -191 -50t-151 -138v-899h-41z" />
<glyph unicode="n" horiz-adv-x="1165" d="M225 0v1112h33l8 -158q65 79 155.5 124.5t186.5 45.5h35q136 0 221.5 -77t85.5 -207v-840h-41v846q0 109 -77 175t-189 66h-35q-98 0 -191 -50t-151 -138v-899h-41z" />
<glyph unicode="o" d="M201 293v526q0 126 90.5 215.5t216.5 89.5h151q126 0 217 -89.5t91 -215.5v-526q0 -126 -91 -215.5t-217 -89.5h-151q-126 0 -216.5 89.5t-90.5 215.5zM242 293q0 -110 78 -189t188 -79h151q109 0 188 79t79 189v526q0 110 -79 189t-188 79h-151q-110 0 -188 -79 t-78 -189v-526z" />
<glyph unicode="p" horiz-adv-x="1191" d="M225 -424v1536h33l6 -147q55 75 124.5 117t143.5 42h152q126 0 216.5 -93.5t90.5 -223.5v-502q0 -130 -90.5 -223.5t-216.5 -93.5h-152q-76 0 -145 41.5t-121 115.5v-569h-41zM266 211q108 -186 266 -186h152q109 0 187.5 82.5t78.5 197.5v502q0 115 -78.5 197.5 t-187.5 82.5h-152q-76 0 -145.5 -47t-120.5 -129v-700z" />
<glyph unicode="q" horiz-adv-x="1191" d="M201 305v502q0 130 90.5 223.5t216.5 93.5h151q74 0 144 -42t123 -117l8 147h33v-1536h-41v569q-53 -75 -122 -116t-145 -41h-151q-126 0 -216.5 93.5t-90.5 223.5zM242 305q0 -115 78.5 -197.5t187.5 -82.5h151q78 0 146.5 48.5t120.5 137.5v700q-50 81 -121 128.5 t-146 47.5h-151q-109 0 -187.5 -82.5t-78.5 -197.5v-502z" />
<glyph unicode="r" horiz-adv-x="737" d="M225 0v1112h33l8 -246q61 114 156 180t192 66h66v-37h-64q-96 0 -194.5 -77t-155.5 -207v-791h-41z" />
<glyph unicode="s" horiz-adv-x="1150" d="M193 193v71h40v-71q0 -66 68 -117t166 -51h233q88 0 153 56t65 126v129q0 47 -38.5 80.5t-99.5 53t-135.5 36t-148.5 36t-135 46.5t-99.5 75t-38.5 113v131q0 87 77 152t189 65h146q117 0 200 -56.5t83 -147.5v-72h-41v72q0 72 -71.5 119.5t-170.5 47.5h-146 q-91 0 -158 -54t-67 -124v-131q0 -58 38.5 -100t99.5 -66t135 -42.5t148 -36.5t135 -40.5t99.5 -62t38.5 -94.5v-129q0 -91 -76.5 -155t-181.5 -64h-233q-113 0 -193.5 62t-80.5 143z" />
<glyph unicode="t" horiz-adv-x="628" d="M70 1075v37h163l11 322h30v-322h261v-37h-261v-823q0 -92 72.5 -159.5t183.5 -67.5v-37q-137 0 -217 75.5t-80 188.5v823h-163z" />
<glyph unicode="u" horiz-adv-x="1144" d="M215 272v840h41v-846q0 -109 77 -175t189 -66h35q91 0 178.5 49t143.5 135v903h41v-1112h-33l-8 152q-62 -77 -147.5 -120.5t-174.5 -43.5h-35q-136 0 -221.5 77t-85.5 207z" />
<glyph unicode="v" horiz-adv-x="978" d="M61 1112h43l392 -1053l376 1053h46l-398 -1112h-45z" />
<glyph unicode="w" horiz-adv-x="1628" d="M61 1112h43l351 -1046l336 1046h45l350 -1049l336 1049h45l-357 -1112h-45l-350 1044l-336 -1044h-45z" />
<glyph unicode="x" horiz-adv-x="1089" d="M123 0l395 571l-375 541h52l350 -504l350 504h51l-377 -541l398 -571h-47l-375 537l-375 -537h-47z" />
<glyph unicode="y" horiz-adv-x="978" d="M61 1112h43l392 -1053l376 1053h46l-549 -1536h-45l151 424z" />
<glyph unicode="z" horiz-adv-x="1052" d="M143 0v37l695 1038h-674v37h725v-37l-694 -1038h735v-37h-787z" />
<glyph unicode="{" horiz-adv-x="712" d="M104 598v41h78q63 1 108.5 49t45.5 113v442q0 83 78.5 143t187.5 60h10v-41h-10q-92 0 -156.5 -48t-64.5 -114v-442q0 -59 -32 -108.5t-85 -74.5q53 -25 85 -74t32 -108v-442q0 -66 64.5 -114t156.5 -48h10v-41h-10q-109 0 -187.5 60t-78.5 143v442q0 66 -47 114t-113 48 h-72z" />
<glyph unicode="|" horiz-adv-x="536" d="M246 -471v2048h45v-2048h-45z" />
<glyph unicode="}" horiz-adv-x="712" d="M104 -168h11q92 0 156.5 48t64.5 114v442q0 59 31.5 108t83.5 74q-52 25 -83.5 74.5t-31.5 108.5v442q0 66 -64.5 114t-156.5 48h-11v41h11q109 0 187.5 -60t78.5 -143v-442q0 -66 47 -114t113 -48h71v-41h-77q-64 0 -109 -48.5t-45 -113.5v-442q0 -83 -78.5 -143 t-187.5 -60h-11v41z" />
<glyph unicode="~" horiz-adv-x="835" d="M123 451v73q0 76 24 112t89 36q39 0 88.5 -25.5t90.5 -56.5t94.5 -56.5t98.5 -25.5q64 0 64 74v98h41v-105q0 -108 -105 -108q-46 0 -103 25.5t-101 56.5t-91 56.5t-77 25.5q-42 0 -57 -25.5t-15 -81.5v-73h-41z" />
<glyph unicode="&#xa1;" horiz-adv-x="487" d="M221 -322v1024h45v-1024h-45zM221 899v213h45v-213h-45z" />
<glyph unicode="&#xa2;" horiz-adv-x="1161" d="M201 293v526q0 126 90.5 215.5t216.5 89.5h65v289h41v-289h45q126 0 217 -89.5t91 -215.5v-18h-41v18q0 110 -79 189t-188 79h-151q-110 0 -188 -79t-78 -189v-526q0 -110 78 -189t188 -79h151q109 0 188 79t79 189v22h41v-22q0 -126 -91 -215.5t-217 -89.5h-45v-295h-41 v295h-65q-126 0 -216.5 89.5t-90.5 215.5z" />
<glyph unicode="&#xa3;" horiz-adv-x="1298" d="M84 0v41h178v676h-178v41h178v383q0 126 90.5 215.5t216.5 89.5h205q126 0 216.5 -89.5t90.5 -215.5v-129h-45v129q0 109 -76.5 186.5t-185.5 77.5h-205q-109 0 -185.5 -77.5t-76.5 -186.5v-383h389v-41h-389v-676h770v238h45v-279h-1038z" />
<glyph unicode="&#xa5;" horiz-adv-x="1249" d="M123 1434h51l469 -779l432 779h51l-448 -795h317v-41h-329v-246h329v-41h-329v-311h-45v311h-367v41h367v246h-367v41h350z" />
<glyph unicode="&#xa7;" horiz-adv-x="1249" d="M164 -70h45v-49q0 -109 93.5 -186.5t229.5 -77.5h175q145 0 239 66t94 178v67q0 51 -45.5 96.5t-118.5 81.5t-161 72.5t-175.5 77t-160.5 86.5t-118.5 110t-45.5 138v129q0 117 111 194q-111 93 -111 209v70q0 103 88 178.5t209 75.5h195q139 0 238 -84t99 -201v-49h-45 v49q0 100 -85 172t-207 72h-195q-104 0 -178 -62.5t-74 -150.5v-72q0 -67 45.5 -125t118.5 -100t160.5 -80.5t175.5 -75.5t161 -76t118.5 -90.5t45.5 -111.5v-129q0 -142 -129 -223q129 -81 129 -181v-67q0 -90 -51.5 -155.5t-136 -97.5t-190.5 -32h-175q-152 0 -260 89.5 t-108 215.5v49zM260 588q0 -67 43 -123.5t120 -101t155 -78.5t178 -76.5t159 -75.5q125 66 125 199v129q0 52 -46.5 98t-126 84.5t-165 73.5t-183.5 81t-161 91q-45 -30 -71.5 -75t-26.5 -95v-131z" />
<glyph unicode="&#xa8;" horiz-adv-x="722" d="M125 1325v211h45v-211h-45zM555 1325v211h45v-211h-45z" />
<glyph unicode="&#xa9;" horiz-adv-x="1748" d="M223 293v848q0 126 90.5 215.5t216.5 89.5h689q126 0 216.5 -89.5t90.5 -215.5v-848q0 -126 -90.5 -215.5t-216.5 -89.5h-689q-126 0 -216.5 89.5t-90.5 215.5zM264 293q0 -110 78 -189t188 -79h689q109 0 187.5 79t78.5 189v848q0 110 -78.5 189t-187.5 79h-689 q-110 0 -188 -79t-78 -189v-848zM553 418v583q0 86 62.5 147.5t148.5 61.5h211q86 0 148.5 -61.5t62.5 -147.5v-90h-41v90q0 69 -50 119.5t-120 50.5h-211q-70 0 -120 -50.5t-50 -119.5v-583q0 -69 50 -119.5t120 -50.5h211q70 0 120 50.5t50 119.5v98h41v-98 q0 -86 -62.5 -147.5t-148.5 -61.5h-211q-86 0 -148.5 61.5t-62.5 147.5z" />
<glyph unicode="&#xaa;" horiz-adv-x="638" d="M113 1008v71q0 43 41.5 73.5t103.5 39.5l211 31v94q0 37 -30.5 63.5t-73.5 26.5h-78q-42 0 -73.5 -17.5t-31.5 -43.5v-35h-41v35q0 44 43 72t103 28h78q59 0 102 -37t43 -88v-428h-27l-12 72q-65 -78 -147 -78h-76q-54 0 -94.5 36.5t-40.5 84.5zM154 1008q0 -33 28 -57.5 t66 -24.5h76q39 0 77.5 22.5t67.5 61.5v176l-211 -33q-43 -6 -73.5 -26.5t-30.5 -47.5v-71z" />
<glyph unicode="&#xab;" horiz-adv-x="1359" d="M139 520v49l621 414v-47l-584 -391l584 -391v-48zM575 520v49l621 414v-47l-584 -391l584 -391v-48z" />
<glyph unicode="&#xad;" horiz-adv-x="823" d="M123 612v41h577v-41h-577z" />
<glyph unicode="&#xae;" horiz-adv-x="1748" d="M223 293v848q0 126 90.5 215.5t216.5 89.5h689q126 0 216.5 -89.5t90.5 -215.5v-848q0 -126 -90.5 -215.5t-216.5 -89.5h-689q-126 0 -216.5 89.5t-90.5 215.5zM264 293q0 -110 78 -189t188 -79h689q109 0 187.5 79t78.5 189v848q0 110 -78.5 189t-187.5 79h-689 q-110 0 -188 -79t-78 -189v-848zM582 207v1003h379q99 0 167 -55t68 -139v-203q0 -70 -64 -129t-151 -59h-8l219 -418h-49l-217 418h-303v-418h-41zM623 664h358q70 0 122 46t52 103v203q0 67 -56 111t-138 44h-338v-507z" />
<glyph unicode="&#xaf;" horiz-adv-x="905" d="M164 1393v41h577v-41h-577z" />
<glyph unicode="&#xb0;" horiz-adv-x="724" d="M113 1012v309q0 51 43 88t102 37h209q59 0 102 -37t43 -88v-309q0 -51 -43 -88t-102 -37h-209q-59 0 -102 37t-43 88zM154 1016q0 -37 30.5 -63.5t73.5 -26.5h209q43 0 73.5 26.5t30.5 63.5v301q0 37 -30.5 63.5t-73.5 26.5h-209q-43 0 -73.5 -26.5t-30.5 -63.5v-301z " />
<glyph unicode="&#xb2;" horiz-adv-x="720" d="M123 635v94q0 89 63 158q42 45 155 104t159 109q49 52 49 112v58q0 57 -40.5 97t-98.5 40h-101q-57 0 -96 -40t-39 -97v-72h-41v72q0 72 52.5 124t123.5 52h101q73 0 125.5 -52t52.5 -124v-58q0 -84 -56 -143q-37 -38 -97 -71.5t-119.5 -67t-96.5 -72.5q-53 -60 -53 -129 v-55h432v-39h-475z" />
<glyph unicode="&#xb3;" horiz-adv-x="722" d="M123 807v57h41v-57q0 -58 39.5 -98.5t95.5 -40.5h123q58 0 98.5 43.5t40.5 103.5v92q0 56 -43.5 96.5t-103.5 40.5h-88v39h90q45 3 77.5 36.5t32.5 78.5v92q0 47 -33 82t-79 35h-103q-42 0 -72 -34.5t-30 -82.5v-51h-41v51q0 62 42.5 109t100.5 47h103q61 0 107 -47 t46 -109v-92q0 -40 -22.5 -75t-57.5 -56q50 -22 81.5 -66t31.5 -94v-92q0 -75 -52.5 -130.5t-125.5 -55.5h-123q-71 0 -123.5 52.5t-52.5 125.5z" />
<glyph unicode="&#xb4;" horiz-adv-x="708" d="M123 1274l440 260l23 -35l-441 -260z" />
<glyph unicode="&#xb5;" horiz-adv-x="1196" d="M225 -424v1536h41v-846q0 -109 77 -175t189 -66h76q91 0 178.5 49t143.5 135v903h41v-1112h-33l-8 152q-62 -77 -147.5 -120.5t-174.5 -43.5h-76q-89 0 -158.5 34t-107.5 97v-543h-41z" />
<glyph unicode="&#xb6;" horiz-adv-x="1423" d="M168 909v248q0 119 98.5 198t239.5 79h754v-41h-146v-1733h-45v1733h-180v-1733h-45v948h-369q-125 0 -216 91t-91 210z" />
<glyph unicode="&#xb7;" horiz-adv-x="454" d="M207 492v210h41v-210h-41z" />
<glyph unicode="&#xb8;" horiz-adv-x="544" d="M133 -387h72q83 0 124.5 30.5t41.5 80.5q0 44 -35.5 82t-89.5 38h-49l65 160h43l-51 -123q70 0 114 -47.5t44 -109.5q0 -68 -49.5 -108t-157.5 -40h-72v37z" />
<glyph unicode="&#xb9;" horiz-adv-x="630" d="M123 635v39h170v723l-170 -92v41l170 94h41v-766h174v-39h-385z" />
<glyph unicode="&#xba;" horiz-adv-x="638" d="M113 1012v309q0 51 43 88t102 37h107q59 0 102 -37t43 -88v-309q0 -51 -43 -88t-102 -37h-107q-59 0 -102 37t-43 88zM154 1016q0 -37 30.5 -63.5t73.5 -26.5h107q43 0 73.5 26.5t30.5 63.5v301q0 37 -30.5 63.5t-73.5 26.5h-107q-43 0 -73.5 -26.5t-30.5 -63.5v-301z " />
<glyph unicode="&#xbb;" horiz-adv-x="1359" d="M164 106v48l584 391l-584 391v47l620 -414v-49zM600 106v48l584 391l-584 391v47l621 -414v-49z" />
<glyph unicode="&#xbc;" horiz-adv-x="1482" d="M123 635v39h170v723l-170 -92v41l170 94h41v-766h174v-39h-385zM502 0l452 1434h50l-457 -1434h-45zM860 229v39l326 537h45v-537h129v-39h-129v-229h-43v229h-328zM903 268h285v465z" />
<glyph unicode="&#xbd;" horiz-adv-x="1579" d="M123 635v39h170v723l-170 -92v41l170 94h41v-766h174v-39h-385zM522 0l453 1434h49l-457 -1434h-45zM981 0v94q0 89 63 158q42 45 155 104t159 109q49 52 49 113v57q0 57 -40.5 97t-98.5 40h-101q-57 0 -96 -40t-39 -97v-72h-41v72q0 72 52.5 124t123.5 52h101 q73 0 125.5 -52t52.5 -124v-57q0 -86 -55 -144q-44 -46 -157 -105t-157 -106q-53 -60 -53 -129v-55h432v-39h-475z" />
<glyph unicode="&#xbe;" horiz-adv-x="1531" d="M123 807v57h41v-57q0 -58 39.5 -98.5t95.5 -40.5h123q58 0 98.5 43.5t40.5 103.5v92q0 56 -43.5 96.5t-103.5 40.5h-88v39h90q45 3 77.5 36.5t32.5 78.5v92q0 47 -33 82t-79 35h-103q-42 0 -72 -34.5t-30 -82.5v-51h-41v51q0 62 42.5 109t100.5 47h103q61 0 107 -47 t46 -109v-92q0 -40 -22.5 -75t-57.5 -56q50 -22 81.5 -66t31.5 -94v-92q0 -75 -52.5 -130.5t-125.5 -55.5h-123q-71 0 -123.5 52.5t-52.5 125.5zM551 0l453 1434h49l-457 -1434h-45zM909 229v39l326 537h45v-537h129v-39h-129v-229h-43v229h-328zM952 268h285v465z" />
<glyph unicode="&#xbf;" horiz-adv-x="1054" d="M205 -29v135q0 88 63 164q39 48 140 125.5t137 116.5q82 89 82 178v92h49v-92q0 -111 -94 -205q-37 -38 -142.5 -118t-142.5 -129q-47 -63 -47 -132v-135q0 -109 76.5 -186.5t185.5 -77.5h184q109 0 185.5 77.5t76.5 186.5v115h46v-115q0 -126 -91 -215.5t-217 -89.5 h-184q-126 0 -216.5 89.5t-90.5 215.5zM627 901v211h47v-211h-47z" />
<glyph unicode="&#xc0;" horiz-adv-x="1329" d="M123 0l520 1446h45l518 -1446h-49l-190 532h-605l-190 -532h-49zM377 573h575l-286 807zM453 1759l20 41l420 -178l-21 -41z" />
<glyph unicode="&#xc1;" horiz-adv-x="1329" d="M123 0l520 1446h45l518 -1446h-49l-190 532h-605l-190 -532h-49zM377 573h575l-286 807zM453 1622l419 178l21 -41l-420 -178z" />
<glyph unicode="&#xc2;" horiz-adv-x="1329" d="M123 0l520 1446h45l518 -1446h-49l-190 532h-605l-190 -532h-49zM377 573h575l-286 807zM385 1616l268 184h25l270 -182l-26 -35l-258 172l-252 -172z" />
<glyph unicode="&#xc3;" horiz-adv-x="1329" d="M123 0l520 1446h45l518 -1446h-49l-190 532h-605l-190 -532h-49zM352 1604v16q0 76 21.5 111.5t81.5 35.5q40 0 91.5 -21t93.5 -45.5t96.5 -45.5t101.5 -21q63 0 63 74v49h41v-55q0 -109 -104 -109q-60 0 -136.5 33.5t-143 66.5t-103.5 33q-36 0 -49 -25t-13 -81v-16h-41 zM377 573h575l-286 807z" />
<glyph unicode="&#xc4;" horiz-adv-x="1329" d="M123 0l520 1446h45l518 -1446h-49l-190 532h-605l-190 -532h-49zM377 573h575l-286 807zM422 1589v211h45v-211h-45zM852 1589v211h45v-211h-45z" />
<glyph unicode="&#xc5;" horiz-adv-x="1329" d="M123 0l514 1430q-65 9 -109.5 59.5t-44.5 116.5v26q0 71 52 123.5t124 52.5h15q72 0 124 -52.5t52 -123.5v-26q0 -66 -46 -117.5t-112 -58.5l514 -1430h-49l-190 532h-605l-190 -532h-49zM377 573h575l-286 807zM524 1606q0 -56 40.5 -98t94.5 -42h15q54 0 94.5 42 t40.5 98v26q0 56 -40.5 98t-94.5 42h-15q-54 0 -94.5 -42t-40.5 -98v-26z" />
<glyph unicode="&#xc6;" horiz-adv-x="1937" d="M123 0l809 1434h776v-41h-719v-615h682v-41h-682v-696h740v-41h-785v532h-469l-299 -532h-53zM498 573h446v795z" />
<glyph unicode="&#xc7;" horiz-adv-x="1323" d="M221 293v848q0 126 90.5 215.5t216.5 89.5h267q126 0 216.5 -89.5t90.5 -215.5v-129h-45v129q0 109 -76.5 186.5t-185.5 77.5h-267q-109 0 -185.5 -77.5t-76.5 -186.5v-848q0 -109 76.5 -186.5t185.5 -77.5h267q109 0 185.5 77.5t76.5 186.5v141h45v-141 q0 -126 -90.5 -215.5t-216.5 -89.5h-101l-43 -107q70 0 114 -47.5t44 -109.5q0 -68 -49.5 -108t-157.5 -40h-72v37h72q83 0 124.5 30.5t41.5 80.5q0 44 -35.5 82t-89.5 38h-49l57 144h-123q-126 0 -216.5 89.5t-90.5 215.5z" />
<glyph unicode="&#xc8;" horiz-adv-x="1239" d="M246 0v1434h764v-41h-719v-615h682v-41h-682v-696h739v-41h-784zM393 1759l21 41l420 -178l-21 -41z" />
<glyph unicode="&#xc9;" horiz-adv-x="1239" d="M246 0v1434h764v-41h-719v-615h682v-41h-682v-696h739v-41h-784zM432 1622l420 178l20 -41l-419 -178z" />
<glyph unicode="&#xca;" horiz-adv-x="1239" d="M246 0v1434h764v-41h-719v-615h682v-41h-682v-696h739v-41h-784zM360 1616l269 184h24l271 -182l-27 -35l-258 172l-252 -172z" />
<glyph unicode="&#xcb;" horiz-adv-x="1239" d="M246 0v1434h764v-41h-719v-615h682v-41h-682v-696h739v-41h-784zM410 1589v211h45v-211h-45zM840 1589v211h45v-211h-45z" />
<glyph unicode="&#xcc;" horiz-adv-x="536" d="M55 1759l21 41l420 -178l-21 -41zM246 0v1434h45v-1434h-45z" />
<glyph unicode="&#xcd;" horiz-adv-x="536" d="M55 1622l420 178l21 -41l-420 -178zM246 0v1434h45v-1434h-45z" />
<glyph unicode="&#xce;" horiz-adv-x="536" d="M-12 1616l268 184h25l270 -182l-27 -35l-258 172l-252 -172zM246 0v1434h45v-1434h-45z" />
<glyph unicode="&#xcf;" horiz-adv-x="536" d="M25 1589v211h45v-211h-45zM246 0v1434h45v-1434h-45zM455 1589v211h45v-211h-45z" />
<glyph unicode="&#xd0;" horiz-adv-x="1388" d="M49 737v41h197v656h614q126 0 216.5 -90t90.5 -216v-823q0 -126 -90.5 -215.5t-216.5 -89.5h-614v737h-197zM291 41h569q109 0 185.5 77.5t76.5 186.5v823q0 109 -77 187t-185 78h-569v-615h422v-41h-422v-696z" />
<glyph unicode="&#xd1;" horiz-adv-x="1413" d="M246 0v1434h51l825 -1360v1362h45v-1436h-51l-825 1360v-1360h-45zM424 1604v16q0 76 21 111.5t81 35.5q40 0 91.5 -21t93.5 -45.5t96.5 -45.5t101.5 -21q64 0 64 74v49h41v-55q0 -109 -105 -109q-60 0 -136.5 33.5t-143 66.5t-103.5 33q-36 0 -48.5 -25t-12.5 -81v-16 h-41z" />
<glyph unicode="&#xd2;" horiz-adv-x="1363" d="M221 293v848q0 126 90.5 215.5t216.5 89.5h308q126 0 216.5 -89.5t90.5 -215.5v-848q0 -126 -90.5 -215.5t-216.5 -89.5h-308q-126 0 -216.5 89.5t-90.5 215.5zM266 293q0 -109 76.5 -186.5t185.5 -77.5h308q109 0 185.5 77.5t76.5 186.5v848q0 109 -76.5 186.5 t-185.5 77.5h-308q-109 0 -185.5 -77.5t-76.5 -186.5v-848zM432 1772l21 40l419 -178l-20 -41z" />
<glyph unicode="&#xd3;" horiz-adv-x="1363" d="M221 293v848q0 126 90.5 215.5t216.5 89.5h308q126 0 216.5 -89.5t90.5 -215.5v-848q0 -126 -90.5 -215.5t-216.5 -89.5h-308q-126 0 -216.5 89.5t-90.5 215.5zM266 293q0 -109 76.5 -186.5t185.5 -77.5h308q109 0 185.5 77.5t76.5 186.5v848q0 109 -76.5 186.5 t-185.5 77.5h-308q-109 0 -185.5 -77.5t-76.5 -186.5v-848zM514 1634l420 178l20 -40l-419 -179z" />
<glyph unicode="&#xd4;" horiz-adv-x="1363" d="M221 293v848q0 126 90.5 215.5t216.5 89.5h308q126 0 216.5 -89.5t90.5 -215.5v-848q0 -126 -90.5 -215.5t-216.5 -89.5h-308q-126 0 -216.5 89.5t-90.5 215.5zM266 293q0 -109 76.5 -186.5t185.5 -77.5h308q109 0 185.5 77.5t76.5 186.5v848q0 109 -76.5 186.5 t-185.5 77.5h-308q-109 0 -185.5 -77.5t-76.5 -186.5v-848zM406 1628l268 184h24l271 -182l-27 -35l-258 172l-252 -172z" />
<glyph unicode="&#xd5;" horiz-adv-x="1363" d="M221 293v848q0 126 90.5 215.5t216.5 89.5h308q126 0 216.5 -89.5t90.5 -215.5v-848q0 -126 -90.5 -215.5t-216.5 -89.5h-308q-126 0 -216.5 89.5t-90.5 215.5zM266 293q0 -109 76.5 -186.5t185.5 -77.5h308q109 0 185.5 77.5t76.5 186.5v848q0 109 -76.5 186.5 t-185.5 77.5h-308q-109 0 -185.5 -77.5t-76.5 -186.5v-848zM373 1616v16q0 76 21.5 112t80.5 36q40 0 91.5 -21t93.5 -45.5t96.5 -45.5t101.5 -21q64 0 64 73v49h41v-55q0 -108 -105 -108q-48 0 -106.5 21t-103.5 45.5t-94 45.5t-79 21q-36 0 -48.5 -25t-12.5 -82v-16h-41z " />
<glyph unicode="&#xd6;" horiz-adv-x="1363" d="M221 293v848q0 126 90.5 215.5t216.5 89.5h308q126 0 216.5 -89.5t90.5 -215.5v-848q0 -126 -90.5 -215.5t-216.5 -89.5h-308q-126 0 -216.5 89.5t-90.5 215.5zM266 293q0 -109 76.5 -186.5t185.5 -77.5h308q109 0 185.5 77.5t76.5 186.5v848q0 109 -76.5 186.5 t-185.5 77.5h-308q-109 0 -185.5 -77.5t-76.5 -186.5v-848zM442 1602v210h45v-210h-45zM872 1602v210h46v-210h-46z" />
<glyph unicode="&#xd7;" horiz-adv-x="905" d="M66 336l370 371l-370 370l30 29l369 -371l371 371l30 -29l-370 -370l370 -371l-30 -29l-371 369l-369 -369z" />
<glyph unicode="&#xd8;" horiz-adv-x="1363" d="M160 -205l153 281q-92 89 -92 217v848q0 126 90.5 215.5t216.5 89.5h308q106 0 192 -70l143 258h52l-160 -291q80 -87 80 -202v-848q0 -126 -90.5 -215.5t-216.5 -89.5h-308q-101 0 -180 57l-137 -250h-51zM266 293q0 -103 70 -180l672 1226q-72 66 -172 66h-308 q-109 0 -185.5 -77.5t-76.5 -186.5v-848zM369 82q72 -53 159 -53h308q109 0 185.5 77.5t76.5 186.5v848q0 93 -58 164z" />
<glyph unicode="&#xd9;" horiz-adv-x="1357" d="M225 293v1141h45v-1141q0 -109 76.5 -186.5t185.5 -77.5h293q109 0 185.5 77.5t76.5 186.5v1141h46v-1141q0 -126 -91 -215.5t-217 -89.5h-293q-126 0 -216.5 89.5t-90.5 215.5zM373 1759l20 41l420 -178l-20 -41z" />
<glyph unicode="&#xda;" horiz-adv-x="1357" d="M225 293v1141h45v-1141q0 -109 76.5 -186.5t185.5 -77.5h293q109 0 185.5 77.5t76.5 186.5v1141h46v-1141q0 -126 -91 -215.5t-217 -89.5h-293q-126 0 -216.5 89.5t-90.5 215.5zM573 1622l420 178l21 -41l-420 -178z" />
<glyph unicode="&#xdb;" horiz-adv-x="1357" d="M225 293v1141h45v-1141q0 -109 76.5 -186.5t185.5 -77.5h293q109 0 185.5 77.5t76.5 186.5v1141h46v-1141q0 -126 -91 -215.5t-217 -89.5h-293q-126 0 -216.5 89.5t-90.5 215.5zM403 1616l269 184h24l271 -182l-27 -35l-258 172l-252 -172z" />
<glyph unicode="&#xdc;" horiz-adv-x="1357" d="M225 293v1141h45v-1141q0 -109 76.5 -186.5t185.5 -77.5h293q109 0 185.5 77.5t76.5 186.5v1141h46v-1141q0 -126 -91 -215.5t-217 -89.5h-293q-126 0 -216.5 89.5t-90.5 215.5zM440 1589v211h45v-211h-45zM870 1589v211h45v-211h-45z" />
<glyph unicode="&#xdd;" horiz-adv-x="1249" d="M123 1434h51l469 -779l432 779h51l-460 -820v-614h-45v614zM432 1622l420 178l20 -41l-419 -178z" />
<glyph unicode="&#xde;" horiz-adv-x="1236" d="M246 0v1434h45v-271h440q141 0 239.5 -78.5t98.5 -197.5v-289q0 -118 -91.5 -209.5t-215.5 -91.5h-471v-297h-45zM291 338h471q107 0 184.5 78.5t77.5 181.5v289q0 102 -84.5 168.5t-208.5 66.5h-440v-784z" />
<glyph unicode="&#xdf;" d="M201 0v1171q0 114 79 194.5t193 80.5h96q114 0 195.5 -80.5t81.5 -194.5v-26q0 -45 -18.5 -83.5t-45.5 -66.5t-54 -55t-45.5 -63t-18.5 -78v-54q0 -45 22.5 -84t56 -66t73 -58.5t73 -61t56 -74t22.5 -96.5v-29q0 -114 -80.5 -195t-194.5 -81h-203v37h203q97 0 167.5 71 t70.5 168v29q0 47 -22.5 88t-56 68t-73 58.5t-73 60t-56 71.5t-22.5 94v54q0 48 18.5 88t44.5 67.5t52 54.5t44.5 61.5t18.5 74.5v26q0 97 -69.5 167.5t-166.5 70.5h-96q-96 0 -163.5 -70.5t-67.5 -167.5v-1171h-41z" />
<glyph unicode="&#xe0;" horiz-adv-x="1181" d="M201 233v146q0 88 80 148.5t196 78.5l449 68v188q0 92 -69.5 158.5t-166.5 66.5h-158q-94 0 -162.5 -47.5t-68.5 -119.5v-72h-41v72q0 91 80 147.5t192 56.5h158q113 0 195 -76t82 -180v-868h-33l-8 170q-61 -85 -146.5 -133.5t-171.5 -48.5h-151q-103 0 -179.5 73.5 t-76.5 171.5zM242 233q0 -84 64 -146t151 -62h151q90 0 175.5 54.5t142.5 147.5v416l-449 -74q-98 -16 -166.5 -68.5t-68.5 -121.5v-146zM371 1499l22 35l441 -260l-23 -35z" />
<glyph unicode="&#xe1;" horiz-adv-x="1181" d="M201 233v146q0 88 80 148.5t196 78.5l449 68v188q0 92 -69.5 158.5t-166.5 66.5h-158q-94 0 -162.5 -47.5t-68.5 -119.5v-72h-41v72q0 91 80 147.5t192 56.5h158q113 0 195 -76t82 -180v-868h-33l-8 170q-61 -85 -146.5 -133.5t-171.5 -48.5h-151q-103 0 -179.5 73.5 t-76.5 171.5zM242 233q0 -84 64 -146t151 -62h151q90 0 175.5 54.5t142.5 147.5v416l-449 -74q-98 -16 -166.5 -68.5t-68.5 -121.5v-146zM412 1274l440 260l22 -35l-440 -260z" />
<glyph unicode="&#xe2;" horiz-adv-x="1181" d="M201 233v146q0 88 80 148.5t196 78.5l449 68v188q0 92 -69.5 158.5t-166.5 66.5h-158q-94 0 -162.5 -47.5t-68.5 -119.5v-72h-41v72q0 91 80 147.5t192 56.5h158q113 0 195 -76t82 -180v-868h-33l-8 170q-61 -85 -146.5 -133.5t-171.5 -48.5h-151q-103 0 -179.5 73.5 t-76.5 171.5zM242 233q0 -84 64 -146t151 -62h151q90 0 175.5 54.5t142.5 147.5v416l-449 -74q-98 -16 -166.5 -68.5t-68.5 -121.5v-146zM373 1272l229 229h25l231 -229l-29 -31l-215 213l-213 -213z" />
<glyph unicode="&#xe3;" horiz-adv-x="1181" d="M201 233v146q0 88 80 148.5t196 78.5l449 68v188q0 92 -69.5 158.5t-166.5 66.5h-158q-94 0 -162.5 -47.5t-68.5 -119.5v-72h-41v72q0 91 80 147.5t192 56.5h158q113 0 195 -76t82 -180v-868h-33l-8 170q-61 -85 -146.5 -133.5t-171.5 -48.5h-151q-103 0 -179.5 73.5 t-76.5 171.5zM242 233q0 -84 64 -146t151 -62h151q90 0 175.5 54.5t142.5 147.5v416l-449 -74q-98 -16 -166.5 -68.5t-68.5 -121.5v-146zM313 1327v16q0 76 21.5 112t81.5 36q40 0 91.5 -21t93.5 -45.5t96.5 -45.5t101.5 -21q63 0 63 74v49h41v-56q0 -108 -104 -108 q-60 0 -136.5 33.5t-143 66.5t-103.5 33q-36 0 -49 -25.5t-13 -81.5v-16h-41z" />
<glyph unicode="&#xe4;" horiz-adv-x="1181" d="M201 233v146q0 88 80 148.5t196 78.5l449 68v188q0 92 -69.5 158.5t-166.5 66.5h-158q-94 0 -162.5 -47.5t-68.5 -119.5v-72h-41v72q0 91 80 147.5t192 56.5h158q113 0 195 -76t82 -180v-868h-33l-8 170q-61 -85 -146.5 -133.5t-171.5 -48.5h-151q-103 0 -179.5 73.5 t-76.5 171.5zM242 233q0 -84 64 -146t151 -62h151q90 0 175.5 54.5t142.5 147.5v416l-449 -74q-98 -16 -166.5 -68.5t-68.5 -121.5v-146zM352 1325v211h45v-211h-45zM782 1325v211h45v-211h-45z" />
<glyph unicode="&#xe5;" horiz-adv-x="1181" d="M201 233v146q0 88 80 148.5t196 78.5l449 68v188q0 92 -69.5 158.5t-166.5 66.5h-158q-94 0 -162.5 -47.5t-68.5 -119.5v-72h-41v72q0 91 80 147.5t192 56.5h158q113 0 195 -76t82 -180v-868h-33l-8 170q-61 -85 -146.5 -133.5t-171.5 -48.5h-151q-103 0 -179.5 73.5 t-76.5 171.5zM242 233q0 -84 64 -146t151 -62h151q90 0 175.5 54.5t142.5 147.5v416l-449 -74q-98 -16 -166.5 -68.5t-68.5 -121.5v-146zM430 1419v27q0 71 52 123.5t124 52.5h15q72 0 124 -52.5t52 -123.5v-27q0 -71 -52 -123.5t-124 -52.5h-15q-72 0 -124 52.5t-52 123.5z M471 1419q0 -56 40.5 -97.5t94.5 -41.5h15q54 0 94.5 41.5t40.5 97.5v27q0 56 -40.5 97.5t-94.5 41.5h-15q-54 0 -94.5 -41.5t-40.5 -97.5v-27z" />
<glyph unicode="&#xe6;" horiz-adv-x="1892" d="M201 233v146q0 88 80 148.5t196 78.5l449 68v188q0 92 -69.5 158.5t-166.5 66.5h-158q-94 0 -162.5 -47.5t-68.5 -119.5v-72h-41v72q0 91 80 147.5t192 56.5h158q89 0 162 -51t100 -129q37 81 113.5 130.5t167.5 49.5h151q126 0 217 -89.5t91 -215.5v-260h-725v-266 q0 -110 78 -189t188 -79h151q109 0 188 79t79 189v12h41v-12q0 -126 -91 -215.5t-217 -89.5h-151q-99 0 -179.5 57.5t-111.5 147.5q-63 -94 -152.5 -149.5t-181.5 -55.5h-151q-103 0 -179.5 73.5t-76.5 171.5zM242 233q0 -84 64 -146t151 -62h151q91 0 179 57.5t143 155.5 q-4 36 -4 55v350l-449 -74q-98 -16 -166.5 -68.5t-68.5 -121.5v-146zM967 596h684v223q0 110 -79 189t-188 79h-151q-110 0 -188 -79t-78 -189v-223z" />
<glyph unicode="&#xe7;" horiz-adv-x="1161" d="M201 293v526q0 126 90.5 215.5t216.5 89.5h131q126 0 216.5 -89.5t90.5 -215.5v-18h-41v18q0 110 -78.5 189t-187.5 79h-131q-110 0 -188 -79t-78 -189v-526q0 -110 78 -189t188 -79h131q109 0 187.5 79t78.5 189v22h41v-22q0 -126 -90.5 -215.5t-216.5 -89.5h-35 l-43 -107q70 0 114 -47.5t44 -109.5q0 -68 -49.5 -108t-157.5 -40h-72v37h72q83 0 124.5 30.5t41.5 80.5q0 44 -35.5 82t-89.5 38h-49l57 144h-53q-126 0 -216.5 89.5t-90.5 215.5z" />
<glyph unicode="&#xe8;" d="M201 293v526q0 126 90.5 215.5t216.5 89.5h151q126 0 217 -89.5t91 -215.5v-260h-725v-266q0 -110 78 -189t188 -79h151q109 0 188 79t79 189v12h41v-12q0 -126 -91 -215.5t-217 -89.5h-151q-126 0 -216.5 89.5t-90.5 215.5zM242 596h684v223q0 110 -79 189t-188 79h-151 q-110 0 -188 -79t-78 -189v-223zM342 1499l23 35l440 -260l-23 -35z" />
<glyph unicode="&#xe9;" d="M201 293v526q0 126 90.5 215.5t216.5 89.5h151q126 0 217 -89.5t91 -215.5v-260h-725v-266q0 -110 78 -189t188 -79h151q109 0 188 79t79 189v12h41v-12q0 -126 -91 -215.5t-217 -89.5h-151q-126 0 -216.5 89.5t-90.5 215.5zM242 596h684v223q0 110 -79 189t-188 79h-151 q-110 0 -188 -79t-78 -189v-223zM362 1274l441 260l22 -35l-440 -260z" />
<glyph unicode="&#xea;" d="M201 293v526q0 126 90.5 215.5t216.5 89.5h151q126 0 217 -89.5t91 -215.5v-260h-725v-266q0 -110 78 -189t188 -79h151q109 0 188 79t79 189v12h41v-12q0 -126 -91 -215.5t-217 -89.5h-151q-126 0 -216.5 89.5t-90.5 215.5zM242 596h684v223q0 110 -79 189t-188 79h-151 q-110 0 -188 -79t-78 -189v-223zM344 1272l229 229h25l231 -229l-28 -31l-215 213l-213 -213z" />
<glyph unicode="&#xeb;" d="M201 293v526q0 126 90.5 215.5t216.5 89.5h151q126 0 217 -89.5t91 -215.5v-260h-725v-266q0 -110 78 -189t188 -79h151q109 0 188 79t79 189v12h41v-12q0 -126 -91 -215.5t-217 -89.5h-151q-126 0 -216.5 89.5t-90.5 215.5zM242 596h684v223q0 110 -79 189t-188 79h-151 q-110 0 -188 -79t-78 -189v-223zM346 1325v211h45v-211h-45zM776 1325v211h45v-211h-45z" />
<glyph unicode="&#xec;" horiz-adv-x="491" d="M25 1499l22 35l440 -260l-22 -35zM225 0v1112h41v-1112h-41z" />
<glyph unicode="&#xed;" horiz-adv-x="491" d="M25 1274l440 260l22 -35l-440 -260zM225 0v1112h41v-1112h-41z" />
<glyph unicode="&#xee;" horiz-adv-x="491" d="M6 1272l230 229h24l232 -229l-29 -31l-215 213l-213 -213zM225 0v1112h41v-1112h-41z" />
<glyph unicode="&#xef;" horiz-adv-x="491" d="M8 1325v211h45v-211h-45zM225 0v1112h41v-1112h-41zM438 1325v211h45v-211h-45z" />
<glyph unicode="&#xf0;" horiz-adv-x="1282" d="M221 293v295q0 126 90.5 215.5t216.5 89.5h226q80 0 150 -40.5t112 -107.5v426q0 82 -51 146l-154 -162l-27 31l152 162q-67 57 -152 57h-430v41h430q102 0 183 -68l147 158l27 -31l-146 -155q66 -76 66 -179v-878q0 -126 -90.5 -215.5t-216.5 -89.5h-226 q-126 0 -216.5 89.5t-90.5 215.5zM266 293q0 -109 76.5 -186.5t185.5 -77.5h226q109 0 185.5 77.5t76.5 186.5v305q0 102 -78.5 178t-183.5 76h-226q-109 0 -185.5 -77.5t-76.5 -186.5v-295z" />
<glyph unicode="&#xf1;" horiz-adv-x="1165" d="M225 0v1112h33l8 -158q65 79 155.5 124.5t186.5 45.5h35q136 0 221.5 -77t85.5 -207v-840h-41v846q0 109 -77 175t-189 66h-35q-98 0 -191 -50t-151 -138v-899h-41zM317 1327v16q0 76 21.5 112t81.5 36q40 0 91.5 -21t93.5 -45.5t96.5 -45.5t101.5 -21q63 0 63 74v49h41 v-56q0 -108 -104 -108q-60 0 -136.5 33.5t-143 66.5t-103.5 33q-36 0 -49 -25.5t-13 -81.5v-16h-41z" />
<glyph unicode="&#xf2;" d="M201 293v526q0 126 90.5 215.5t216.5 89.5h151q126 0 217 -89.5t91 -215.5v-526q0 -126 -91 -215.5t-217 -89.5h-151q-126 0 -216.5 89.5t-90.5 215.5zM242 293q0 -110 78 -189t188 -79h151q109 0 188 79t79 189v526q0 110 -79 189t-188 79h-151q-110 0 -188 -79 t-78 -189v-526zM328 1499l22 35l441 -260l-23 -35z" />
<glyph unicode="&#xf3;" d="M201 293v526q0 126 90.5 215.5t216.5 89.5h151q126 0 217 -89.5t91 -215.5v-526q0 -126 -91 -215.5t-217 -89.5h-151q-126 0 -216.5 89.5t-90.5 215.5zM242 293q0 -110 78 -189t188 -79h151q109 0 188 79t79 189v526q0 110 -79 189t-188 79h-151q-110 0 -188 -79 t-78 -189v-526zM362 1274l441 260l22 -35l-440 -260z" />
<glyph unicode="&#xf4;" d="M201 293v526q0 126 90.5 215.5t216.5 89.5h151q126 0 217 -89.5t91 -215.5v-526q0 -126 -91 -215.5t-217 -89.5h-151q-126 0 -216.5 89.5t-90.5 215.5zM242 293q0 -110 78 -189t188 -79h151q109 0 188 79t79 189v526q0 110 -79 189t-188 79h-151q-110 0 -188 -79 t-78 -189v-526zM344 1272l229 229h25l231 -229l-28 -31l-215 213l-213 -213z" />
<glyph unicode="&#xf5;" d="M201 293v526q0 126 90.5 215.5t216.5 89.5h151q126 0 217 -89.5t91 -215.5v-526q0 -126 -91 -215.5t-217 -89.5h-151q-126 0 -216.5 89.5t-90.5 215.5zM242 293q0 -110 78 -189t188 -79h151q109 0 188 79t79 189v526q0 110 -79 189t-188 79h-151q-110 0 -188 -79 t-78 -189v-526zM285 1327v16q0 76 21.5 112t80.5 36q40 0 91.5 -21t93.5 -45.5t96.5 -45.5t101.5 -21q64 0 64 74v49h40v-56q0 -108 -104 -108q-60 0 -136.5 33.5t-143 66.5t-103.5 33q-36 0 -48.5 -25t-12.5 -82v-16h-41z" />
<glyph unicode="&#xf6;" d="M201 293v526q0 126 90.5 215.5t216.5 89.5h151q126 0 217 -89.5t91 -215.5v-526q0 -126 -91 -215.5t-217 -89.5h-151q-126 0 -216.5 89.5t-90.5 215.5zM242 293q0 -110 78 -189t188 -79h151q109 0 188 79t79 189v526q0 110 -79 189t-188 79h-151q-110 0 -188 -79 t-78 -189v-526zM346 1325v211h45v-211h-45zM776 1325v211h45v-211h-45z" />
<glyph unicode="&#xf8;" d="M117 -205l168 289q-84 84 -84 209v526q0 126 90.5 215.5t216.5 89.5h151q106 0 193 -67l152 260h47l-168 -289q84 -87 84 -209v-526q0 -126 -91 -215.5t-217 -89.5h-151q-110 0 -193 67l-151 -260h-47zM242 293q0 -102 63 -174l526 903q-75 65 -172 65h-151 q-110 0 -188 -79t-78 -189v-526zM334 88q76 -63 174 -63h151q109 0 188 79t79 189v526q0 96 -66 172z" />
<glyph unicode="&#xf9;" horiz-adv-x="1144" d="M215 272v840h41v-846q0 -109 77 -175t189 -66h35q91 0 178.5 49t143.5 135v903h41v-1112h-33l-8 152q-62 -77 -147.5 -120.5t-174.5 -43.5h-35q-136 0 -221.5 77t-85.5 207zM248 1499l22 35l441 -260l-23 -35z" />
<glyph unicode="&#xfa;" horiz-adv-x="1144" d="M215 272v840h41v-846q0 -109 77 -175t189 -66h35q91 0 178.5 49t143.5 135v903h41v-1112h-33l-8 152q-62 -77 -147.5 -120.5t-174.5 -43.5h-35q-136 0 -221.5 77t-85.5 207zM471 1274l440 260l23 -35l-440 -260z" />
<glyph unicode="&#xfb;" horiz-adv-x="1144" d="M215 272v840h41v-846q0 -109 77 -175t189 -66h35q91 0 178.5 49t143.5 135v903h41v-1112h-33l-8 152q-62 -77 -147.5 -120.5t-174.5 -43.5h-35q-136 0 -221.5 77t-85.5 207zM309 1272l230 229h24l232 -229l-29 -31l-215 213l-213 -213z" />
<glyph unicode="&#xfc;" horiz-adv-x="1144" d="M215 272v840h41v-846q0 -109 77 -175t189 -66h35q91 0 178.5 49t143.5 135v903h41v-1112h-33l-8 152q-62 -77 -147.5 -120.5t-174.5 -43.5h-35q-136 0 -221.5 77t-85.5 207zM334 1325v211h45v-211h-45zM764 1325v211h45v-211h-45z" />
<glyph unicode="&#xfd;" horiz-adv-x="978" d="M61 1112h43l392 -1053l376 1053h46l-549 -1536h-45l151 424zM268 1274l441 260l22 -35l-440 -260z" />
<glyph unicode="&#xfe;" horiz-adv-x="1191" d="M225 -424v1960h41v-571q53 75 122.5 117t143.5 42h152q126 0 216.5 -93.5t90.5 -223.5v-502q0 -130 -90.5 -223.5t-216.5 -93.5h-152q-76 0 -145 41.5t-121 115.5v-569h-41zM266 211q108 -186 266 -186h152q109 0 187.5 82.5t78.5 197.5v502q0 115 -78.5 197.5 t-187.5 82.5h-152q-76 0 -145.5 -47t-120.5 -129v-700z" />
<glyph unicode="&#xff;" horiz-adv-x="978" d="M61 1112h43l392 -1053l376 1053h46l-549 -1536h-45l151 424zM252 1325v211h45v-211h-45zM682 1325v211h45v-211h-45z" />
<glyph unicode="&#x152;" horiz-adv-x="2091" d="M221 305v823q0 126 90.5 216t216.5 90h1334v-41h-719v-615h682v-41h-682v-696h739v-41h-1354q-126 0 -216.5 89.5t-90.5 215.5zM266 305q0 -109 76.5 -186.5t185.5 -77.5h570v1352h-570q-108 0 -185 -78t-77 -187v-823z" />
<glyph unicode="&#x153;" horiz-adv-x="1892" d="M201 293v526q0 126 90.5 215.5t216.5 89.5h151q96 0 174.5 -54.5t112.5 -141.5q34 87 112.5 141.5t174.5 54.5h151q126 0 217 -89.5t91 -215.5v-260h-725v-266q0 -110 78 -189t188 -79h151q109 0 188 79t79 189v12h41v-12q0 -126 -91 -215.5t-217 -89.5h-151 q-96 0 -174.5 53.5t-112.5 140.5q-34 -87 -112.5 -140.5t-174.5 -53.5h-151q-126 0 -216.5 89.5t-90.5 215.5zM242 293q0 -110 78 -189t188 -79h151q105 0 186 78t81 178v538q0 110 -79 189t-188 79h-151q-110 0 -188 -79t-78 -189v-526zM967 596h684v223q0 110 -79 189 t-188 79h-151q-108 0 -187 -76.5t-79 -181.5v-233z" />
<glyph unicode="&#x178;" horiz-adv-x="1249" d="M123 1434h51l469 -779l432 779h51l-460 -820v-614h-45v614zM401 1589v211h45v-211h-45zM831 1589v211h46v-211h-46z" />
<glyph unicode="&#x2c6;" horiz-adv-x="731" d="M123 1272l229 229h25l231 -229l-28 -31l-215 213l-213 -213z" />
<glyph unicode="&#x2dc;" horiz-adv-x="835" d="M123 1327v16q0 76 21.5 112t80.5 36q40 0 91.5 -21t93.5 -45.5t96.5 -45.5t101.5 -21q64 0 64 74v49h41v-56q0 -108 -105 -108q-60 0 -136.5 33.5t-143 66.5t-103.5 33q-36 0 -48.5 -25t-12.5 -82v-16h-41z" />
<glyph unicode="&#x2000;" horiz-adv-x="906" />
<glyph unicode="&#x2001;" horiz-adv-x="1812" />
<glyph unicode="&#x2002;" horiz-adv-x="906" />
<glyph unicode="&#x2003;" horiz-adv-x="1812" />
<glyph unicode="&#x2004;" horiz-adv-x="604" />
<glyph unicode="&#x2005;" horiz-adv-x="453" />
<glyph unicode="&#x2006;" horiz-adv-x="302" />
<glyph unicode="&#x2007;" horiz-adv-x="302" />
<glyph unicode="&#x2008;" horiz-adv-x="226" />
<glyph unicode="&#x2009;" horiz-adv-x="362" />
<glyph unicode="&#x200a;" horiz-adv-x="100" />
<glyph unicode="&#x2010;" horiz-adv-x="823" d="M123 612v41h577v-41h-577z" />
<glyph unicode="&#x2011;" horiz-adv-x="823" d="M123 612v41h577v-41h-577z" />
<glyph unicode="&#x2012;" horiz-adv-x="823" d="M123 612v41h577v-41h-577z" />
<glyph unicode="&#x2013;" horiz-adv-x="1028" d="M123 612v41h782v-41h-782z" />
<glyph unicode="&#x2014;" horiz-adv-x="1294" d="M123 612v41h1048v-41h-1048z" />
<glyph unicode="&#x2018;" horiz-adv-x="454" d="M199 1126v211q0 136 143 199v-43q-50 -27 -76 -69t-26 -87v-211h-41z" />
<glyph unicode="&#x2019;" horiz-adv-x="454" d="M113 1126v43q50 27 76 69t26 87v211h41v-211q0 -136 -143 -199z" />
<glyph unicode="&#x201a;" horiz-adv-x="454" d="M104 -156q50 27 76.5 69t26.5 87v211h41v-211q0 -136 -144 -199v43z" />
<glyph unicode="&#x201c;" horiz-adv-x="659" d="M199 1126v211q0 136 143 199v-43q-50 -27 -76 -69t-26 -87v-211h-41zM403 1126v211q0 136 144 199v-43q-50 -27 -76.5 -69t-26.5 -87v-211h-41z" />
<glyph unicode="&#x201d;" horiz-adv-x="659" d="M113 1126v43q50 27 76 69t26 87v211h41v-211q0 -136 -143 -199zM317 1126v43q50 27 76.5 69t26.5 87v211h41v-211q0 -136 -144 -199z" />
<glyph unicode="&#x201e;" horiz-adv-x="659" d="M104 -156q50 27 76.5 69t26.5 87v211h41v-211q0 -136 -144 -199v43zM309 -156q50 27 76.5 69t26.5 87v211h41v-211q0 -136 -144 -199v43z" />
<glyph unicode="&#x2022;" horiz-adv-x="591" d="M123 565v68q0 57 40 98t95 41h76q55 0 95 -41t40 -98v-68q0 -57 -40 -98t-95 -41h-76q-55 0 -95 41t-40 98z" />
<glyph unicode="&#x2026;" horiz-adv-x="1363" d="M207 0v211h41v-211h-41zM662 0v211h40v-211h-40zM1116 0v211h41v-211h-41z" />
<glyph unicode="&#x202f;" horiz-adv-x="362" />
<glyph unicode="&#x2039;" horiz-adv-x="923" d="M139 520v49l621 414v-47l-584 -391l584 -391v-48z" />
<glyph unicode="&#x203a;" horiz-adv-x="923" d="M164 106v48l584 391l-584 391v47l620 -414v-49z" />
<glyph unicode="&#x205f;" horiz-adv-x="453" />
<glyph unicode="&#x20ac;" horiz-adv-x="1363" d="M55 487v41h166v349h-166v41h166v223q0 126 90.5 215.5t216.5 89.5h308q126 0 216.5 -89.5t90.5 -215.5v-129h-45v129q0 109 -76.5 186.5t-185.5 77.5h-308q-109 0 -185.5 -77.5t-76.5 -186.5v-223h490v-41h-490v-349h490v-41h-490v-194q0 -109 76.5 -186.5t185.5 -77.5 h308q109 0 185.5 77.5t76.5 186.5v141h45v-141q0 -126 -90.5 -215.5t-216.5 -89.5h-308q-126 0 -216.5 89.5t-90.5 215.5v194h-166z" />
<glyph unicode="&#x2122;" horiz-adv-x="1302" d="M51 1395v39h430v-39h-190v-662h-41v662h-199zM547 733v701h43l258 -508l248 508h43v-701h-41v617l-230 -465h-43l-239 471v-623h-39z" />
<glyph unicode="&#x25fc;" horiz-adv-x="1116" d="M0 0v1116h1116v-1116h-1116z" />
</font>
</defs>
</svg>
