<?xml version="1.0" standalone="no"?>
<!DOCTYPE svg PUBLIC "-//W3C//DTD SVG 1.1//EN" "http://www.w3.org/Graphics/SVG/1.1/DTD/svg11.dtd" >
<svg xmlns="http://www.w3.org/2000/svg">
<metadata></metadata>
<defs>
<font id="boxedthin_italic" horiz-adv-x="1050" >
<font-face units-per-em="2048" ascent="1638" descent="-410" />
<missing-glyph horiz-adv-x="663" />
<glyph unicode="&#xfb01;" horiz-adv-x="940" d="M-109 -424l7 37q97 0 181 82.5t103 195.5l189 1184h-142l7 37h141l16 109q22 128 120 221.5t210 93.5h260l-6 -37h-260q-95 0 -179.5 -83t-103.5 -195l-18 -109h499l-176 -1112h-41l170 1075h-458l-187 -1184q-22 -127 -120.5 -221t-211.5 -94z" />
<glyph unicode="&#xfb02;" horiz-adv-x="940" d="M-109 -424l7 37q97 0 181 82.5t103 195.5l187 1184h-140l7 37h139l18 109q22 128 120 221.5t210 93.5h260l-244 -1536h-41l238 1499h-219q-95 0 -179.5 -83t-103.5 -195l-18 -109h233l-6 -37h-233l-187 -1184q-22 -127 -120.5 -221t-211.5 -94z" />
<glyph horiz-adv-x="0" />
<glyph horiz-adv-x="682" />
<glyph horiz-adv-x="0" />
<glyph horiz-adv-x="0" />
<glyph unicode="&#xd;" horiz-adv-x="663" />
<glyph unicode=" "  horiz-adv-x="663" />
<glyph unicode="&#x09;" horiz-adv-x="663" />
<glyph unicode="&#xa0;" horiz-adv-x="663" />
<glyph unicode="!" horiz-adv-x="438" d="M197 0l32 213h45l-32 -213h-45zM262 410l162 1024h45l-162 -1024h-45z" />
<glyph unicode="&#x22;" horiz-adv-x="489" d="M293 1106l59 430h49l-73 -430h-35zM516 1106l62 430h47l-72 -430h-37z" />
<glyph unicode="#" horiz-adv-x="1271" d="M139 410l6 41h220l184 565h-248l6 41h256l123 377h45l-123 -377h522l123 379h45l-122 -379h186l-6 -41h-195l-184 -565h223l-6 -41h-229l-134 -410h-45l134 410h-523l-133 -410h-45l133 410h-213zM410 451h522l184 565h-522z" />
<glyph unicode="$" horiz-adv-x="1124" d="M193 293l18 110h45l-18 -110q-17 -109 54.5 -186.5t192.5 -77.5h70l107 667q-59 30 -101 54.5t-87 60t-71 71t-39 82.5t-4 99l21 129q15 103 107 178.5t202 75.5h88l37 223h41l-37 -223h45q127 0 204 -84t58 -201l-16 -108h-45l16 108q15 100 -50 172t-173 72h-45 l-106 -680q8 -6 28 -14q47 -24 71.5 -36.5t65 -36t62 -40t48.5 -41.5t39 -47t19 -50.5t2 -58.5l-20 -129q-21 -134 -130.5 -209t-258.5 -75h-43l-35 -217h-41l35 217h-72q-138 0 -221 89.5t-63 215.5zM403 1061q-7 -44 4.5 -84t33.5 -70t62 -61.5t76 -53t89 -49.5l104 662 h-88q-92 0 -168.5 -62.5t-89.5 -150.5zM596 29h45q129 0 224 66t112 177l20 129q5 33 -8 64.5t-34.5 55.5t-64 52t-76 46t-91.5 47l-25 12z" />
<glyph unicode="%" horiz-adv-x="1210" d="M258 946l51 324q12 72 67.5 124t121.5 52h90q68 0 106.5 -51.5t26.5 -124.5l-51 -324q-11 -73 -65.5 -124.5t-123.5 -51.5h-90q-66 0 -105 52t-28 124zM299 946q-7 -57 22 -98t76 -41h90q50 0 92.5 41t49.5 98l51 324q9 57 -20 98t-78 41h-90q-48 0 -90.5 -41.5 t-51.5 -97.5zM375 0l633 1434h49l-639 -1434h-43zM717 164l51 323q11 72 67 124.5t123 52.5h91q67 0 104.5 -52t26.5 -125l-52 -323q-12 -73 -66.5 -124.5t-121.5 -51.5h-90q-67 0 -106 52t-27 124zM758 164q-9 -57 20 -98t78 -41h90q48 0 90 41t51 98l52 323q9 57 -20 98.5 t-77 41.5h-90q-49 0 -91.5 -41.5t-51.5 -98.5z" />
<glyph unicode="&#x26;" horiz-adv-x="1183" d="M225 293l37 231q15 97 78 175.5t149 111.5q-55 31 -82.5 94t-15.5 137l25 150q15 103 95.5 178.5t174.5 75.5h244q94 0 150.5 -75.5t41.5 -178.5l-14 -88h-43l14 88q13 88 -32.5 150.5t-122.5 62.5h-244q-77 0 -142.5 -63t-78.5 -150l-25 -150q-13 -86 30.5 -149.5 t115.5 -63.5h669l-6 -41h-139l-78 -495q-20 -126 -116.5 -215.5t-211.5 -89.5h-243q-115 0 -182.5 89.5t-47.5 215.5zM270 293q-17 -109 39.5 -186.5t153.5 -77.5h244q96 0 176.5 77.5t97.5 186.5l78 495h-477q-97 0 -177.5 -77.5t-97.5 -186.5z" />
<glyph unicode="'" horiz-adv-x="266" d="M293 1106l59 430h49l-73 -430h-35z" />
<glyph unicode="(" horiz-adv-x="532" d="M158 88l166 1053q20 126 116 215.5t211 89.5h76l-6 -41h-76q-96 0 -176.5 -77.5t-99.5 -186.5l-166 -1053q-17 -109 39 -186.5t153 -77.5h76l-8 -41h-76q-115 0 -182 89.5t-47 215.5z" />
<glyph unicode=")" horiz-adv-x="532" d="M0 -217l6 41h76q96 0 176.5 77.5t99.5 186.5l166 1053q17 109 -39 186.5t-153 77.5h-76l8 41h76q115 0 182 -89.5t47 -215.5l-166 -1053q-20 -126 -116 -215.5t-211 -89.5h-76z" />
<glyph unicode="*" horiz-adv-x="942" d="M303 1227l16 41l314 -119l61 387h41l-61 -385l348 117l6 -41l-348 -117l156 -315l-37 -27l-156 313l-254 -313l-29 27l256 315z" />
<glyph unicode="+" horiz-adv-x="741" d="M205 612l6 41h242l43 269h41l-43 -269h241l-6 -41h-242l-43 -268h-41l43 268h-241z" />
<glyph unicode="," horiz-adv-x="409" d="M61 -199l7 43q49 27 79.5 69t36.5 87l35 211h41l-35 -211q-22 -133 -164 -199z" />
<glyph unicode="-" horiz-adv-x="741" d="M205 612l6 41h524l-6 -41h-524z" />
<glyph unicode="." horiz-adv-x="409" d="M184 0l33 211h41l-33 -211h-41z" />
<glyph unicode="/" horiz-adv-x="1058" d="M113 0l972 1434h52l-975 -1434h-49z" />
<glyph unicode="0" horiz-adv-x="1153" d="M244 293l135 848q20 126 115.5 215.5t210.5 89.5h202q116 0 184 -89.5t48 -215.5l-135 -848q-20 -126 -116.5 -215.5t-211.5 -89.5h-203q-115 0 -182 89.5t-47 215.5zM289 293q-17 -109 39 -186.5t153 -77.5h203q96 0 176.5 77.5t97.5 186.5l136 848q17 109 -39.5 186.5 t-153.5 77.5h-203q-96 0 -176.5 -77.5t-97.5 -186.5z" />
<glyph unicode="1" horiz-adv-x="757" d="M74 0l6 41h280l213 1348l-305 -162l6 43l308 164h43l-222 -1393h289l-6 -41h-612z" />
<glyph unicode="2" horiz-adv-x="1087" d="M164 0l24 156q24 154 144 274q55 54 136 105t151 85.5t151.5 87t138.5 109.5q96 96 115 219l16 105q17 109 -38.5 186.5t-151.5 77.5h-166q-97 0 -178 -77.5t-98 -186.5l-19 -115h-45l18 115q20 126 116.5 215.5t211.5 89.5h166q115 0 182 -89.5t47 -215.5l-16 -105 q-22 -143 -129 -250q-55 -54 -135.5 -105.5t-149 -87t-150.5 -87t-140 -105.5q-106 -109 -127 -245l-19 -115h711l-6 -41h-760z" />
<glyph unicode="3" horiz-adv-x="1116" d="M225 295l15 94h45l-15 -94q-17 -109 39.5 -186.5t153.5 -77.5h203q97 0 177.5 82.5t100.5 201.5l25 164q15 106 -45 183t-162 81h-133l6 41h123q84 0 155 67.5t84 160.5l27 164q15 94 -31.5 161.5t-124.5 67.5h-168q-74 0 -139 -68t-80 -161l-12 -78h-45l12 78 q17 109 98 189.5t173 80.5h167q95 0 153.5 -80.5t41.5 -189.5l-27 -164q-12 -80 -64 -146.5t-124 -99.5q86 -31 130.5 -109.5t29.5 -177.5l-25 -164q-22 -134 -119.5 -229.5t-212.5 -95.5h-202q-115 0 -182.5 89.5t-47.5 215.5z" />
<glyph unicode="4" horiz-adv-x="958" d="M174 418l6 41l694 975h46l-156 -975h213l-6 -41h-213l-66 -418h-45l66 418h-539zM225 459h494l141 893z" />
<glyph unicode="5" horiz-adv-x="1116" d="M244 295l14 94h45l-14 -94q-17 -109 39 -186.5t153 -77.5h166q97 0 178 82.5t101 201.5l39 246q17 108 -31.5 186t-132.5 78h-395l96 609h585l-6 -41h-540l-84 -527h350q102 0 162.5 -90t40.5 -215l-39 -246q-22 -134 -119.5 -229.5t-212.5 -95.5h-166q-115 0 -182 89.5 t-47 215.5z" />
<glyph unicode="6" horiz-adv-x="1153" d="M244 293l135 848q20 126 115.5 215.5t210.5 89.5h202q116 0 184 -89.5t48 -215.5l-9 -43h-45l9 43q17 109 -39.5 186.5t-153.5 77.5h-203q-96 0 -176.5 -77.5t-97.5 -186.5l-62 -387q46 64 113.5 101.5t140.5 37.5h203q116 0 184 -89.5t48 -215.5l-47 -295 q-20 -126 -116.5 -215.5t-211.5 -89.5h-203q-115 0 -182 89.5t-47 215.5zM289 293q-17 -109 39 -186.5t153 -77.5h203q96 0 176.5 77.5t97.5 186.5l48 295q17 109 -39.5 186.5t-153.5 77.5h-203q-96 0 -176.5 -77.5t-97.5 -186.5z" />
<glyph unicode="7" horiz-adv-x="933" d="M184 0l848 1405h-700l6 41h745l-6 -41l-848 -1405h-45z" />
<glyph unicode="8" horiz-adv-x="1116" d="M225 293l27 172q15 100 82 180t158 111q-69 36 -102.5 111t-18.5 167l18 107q20 126 115.5 215.5t210.5 89.5h147q114 0 183 -90t49 -215l-19 -107q-15 -92 -73 -167t-138 -111q80 -31 121.5 -111t26.5 -180l-27 -172q-20 -126 -116.5 -215.5t-211.5 -89.5h-202 q-115 0 -182.5 89.5t-47.5 215.5zM270 293q-17 -109 39.5 -186.5t153.5 -77.5h203q96 0 176.5 77.5t97.5 186.5l27 172q19 109 -37.5 186.5t-153.5 77.5h-203q-96 0 -176.5 -77.5t-99.5 -186.5zM414 1034q-17 -105 37 -182t147 -82h158q96 0 176.5 77.5t97.5 186.5l19 107 q17 109 -39.5 186.5t-153.5 77.5h-147q-97 0 -178.5 -77.5t-98.5 -186.5z" />
<glyph unicode="9" horiz-adv-x="1153" d="M244 293l6 43h45l-6 -43q-17 -109 39 -186.5t153 -77.5h203q96 0 176.5 77.5t97.5 186.5l62 387q-48 -64 -116.5 -101.5t-139.5 -37.5h-203q-115 0 -182 89.5t-47 215.5l47 295q20 126 115.5 215.5t210.5 89.5h202q116 0 184 -89.5t48 -215.5l-135 -848 q-20 -126 -116.5 -215.5t-211.5 -89.5h-203q-115 0 -182 89.5t-47 215.5zM377 846q-17 -109 38.5 -186.5t151.5 -77.5h203q92 0 172.5 68.5t97.5 168.5l54 322q17 109 -39.5 186.5t-153.5 77.5h-203q-96 0 -176.5 -77.5t-97.5 -186.5z" />
<glyph unicode=":" horiz-adv-x="409" d="M184 0l33 211h41l-33 -211h-41zM328 899l32 211h41l-32 -211h-41z" />
<glyph unicode=";" horiz-adv-x="409" d="M66 -199q133 60 155 199l35 211h-33l-35 -211q-6 -44 -37 -86.5t-79 -69.5zM328 899l32 211h41l-32 -211h-41z" />
<glyph unicode="&#x3c;" horiz-adv-x="1038" d="M193 524l6 43l888 418l-8 -43l-835 -393q568 -302 714 -377l-8 -45z" />
<glyph unicode="=" horiz-adv-x="815" d="M131 373l6 41h672l-6 -41h-672zM182 700l8 41h672l-8 -41h-672z" />
<glyph unicode="&#x3e;" horiz-adv-x="1038" d="M129 127l6 45l834 377l-711 393l6 43l756 -416l-6 -45z" />
<glyph unicode="?" horiz-adv-x="948" d="M205 1026l18 115q20 126 116 215.5t210 89.5h166q116 0 183.5 -89.5t47.5 -215.5l-22 -135q-11 -89 -80 -164q-42 -46 -143.5 -120.5t-145.5 -121.5q-87 -87 -102 -178l-15 -92h-49l14 92q18 107 119 205q36 35 141.5 113t153.5 134q56 66 64 132l22 135 q17 109 -40 186.5t-154 77.5h-166q-95 0 -176.5 -77.5t-98.5 -186.5l-18 -115h-45zM340 0l33 211h47l-33 -211h-47z" />
<glyph unicode="@" horiz-adv-x="1740" d="M166 -33l188 1186q20 126 116 215.5t210 89.5h840q116 0 183.5 -89.5t47.5 -215.5l-135 -848q-20 -126 -115.5 -215.5t-210.5 -89.5h-133l19 164q-68 -82 -151 -129t-161 -47h-137q-94 0 -151.5 73.5t-40.5 171.5l100 633q15 98 95.5 172t174.5 74h461l-170 -1075h98 q97 0 180.5 79t100.5 189l135 848q17 110 -41.5 189t-155.5 79h-839q-97 0 -179.5 -79t-99.5 -189l-188 -1186q-17 -110 40 -189t154 -79h713l-6 -37h-713q-114 0 -181.5 89.5t-47.5 215.5zM575 233q-14 -83 33 -145.5t123 -62.5h137q80 0 166 55t150 147l135 848h-420 q-77 0 -144 -63t-79 -146z" />
<glyph unicode="A" horiz-adv-x="1196" d="M109 0l698 1446h43l237 -1446h-49l-86 532h-540l-254 -532h-49zM432 573h514l-129 803z" />
<glyph unicode="B" horiz-adv-x="1169" d="M219 0l227 1434h426q115 0 184 -84q54 -66 54 -152q0 -24 -4 -49l-23 -141q-13 -81 -64 -148t-124 -104q101 -22 155 -110q42 -67 41 -148q0 -25 -4 -52l-22 -141q-20 -126 -116.5 -215.5t-211.5 -89.5h-518zM270 41h473q96 0 177 77.5t100 186.5l22 141q4 24 4 46 q0 86 -51 150q-64 82 -172 81h-444zM385 764h389q95 3 172 74.5t92 169.5l23 141q3 21 3 40q0 75 -45 132q-57 72 -153 72h-381z" />
<glyph unicode="C" horiz-adv-x="1189" d="M244 293l135 848q20 126 115.5 215.5t210.5 89.5h239q116 0 184 -90q53 -69 53 -160q0 -27 -5 -55l-21 -129h-45l20 129q4 25 4 49q0 78 -43 138q-56 78 -153 77h-240q-96 0 -176.5 -77.5t-97.5 -186.5l-135 -848q-4 -25 -4 -49q0 -78 43 -138q56 -78 153 -77h240 q96 0 176.5 77.5t97.5 186.5l23 141h45l-23 -141q-20 -126 -116 -215.5t-211 -89.5h-240q-115 0 -182 90q-52 69 -52 159q0 27 5 56z" />
<glyph unicode="D" horiz-adv-x="1249" d="M219 0l227 1434h555q115 0 183 -90q52 -69 52 -160q0 -27 -5 -56l-129 -823q-20 -126 -116.5 -215.5t-211.5 -89.5h-555zM270 41h510q96 0 177 77.5t100 186.5l129 823q5 27 5 53q-1 76 -43 134q-56 78 -153 78h-510z" />
<glyph unicode="E" horiz-adv-x="1114" d="M219 0l227 1434h693l-6 -41h-648l-98 -615h612l-6 -41h-612l-111 -696h666l-6 -41h-711z" />
<glyph unicode="F" horiz-adv-x="1075" d="M219 0l227 1434h711l-6 -41h-666l-104 -650h631l-6 -41h-631l-111 -702h-45z" />
<glyph unicode="G" horiz-adv-x="1226" d="M244 293l135 848q20 126 115.5 215.5t210.5 89.5h276q116 0 183 -90q53 -69 53 -159q0 -27 -5 -56l-20 -129h-45l20 129q4 25 4 49q0 78 -43 138q-56 77 -153 77h-277q-96 0 -176.5 -77.5t-97.5 -186.5l-135 -848q-4 -25 -4 -49q0 -78 43 -138q56 -77 153 -77h277 q96 0 176.5 77.5t97.5 186.5l53 346h-385l7 41h430l-60 -387q-20 -126 -116 -215.5t-211 -89.5h-277q-115 0 -182 90q-52 68 -52 159q0 27 5 56z" />
<glyph unicode="H" horiz-adv-x="1271" d="M219 0l227 1434h46l-109 -676h743l109 678h45l-227 -1436h-45l112 717h-743l-113 -717h-45z" />
<glyph unicode="I" horiz-adv-x="483" d="M219 0l227 1434h46l-228 -1434h-45z" />
<glyph unicode="J" horiz-adv-x="526" d="M-158 -424l6 41h64q121 0 220.5 95.5t121.5 230.5l238 1491h43l-238 -1491q-23 -151 -138 -259t-253 -108h-64z" />
<glyph unicode="K" horiz-adv-x="1150" d="M219 0l227 1434h46l-109 -676h244l526 676h53l-538 -697l403 -737h-53l-397 717h-244l-113 -717h-45z" />
<glyph unicode="L" horiz-adv-x="905" d="M219 0l227 1434h46l-222 -1393h588l-6 -41h-633z" />
<glyph unicode="M" horiz-adv-x="1536" d="M219 0l227 1434h50l329 -1072l668 1072h51l-227 -1434h-45l211 1337l-643 -1030h-47l-318 1030l-211 -1337h-45z" />
<glyph unicode="N" horiz-adv-x="1271" d="M219 0l227 1434h50l524 -1352l215 1354h45l-227 -1436h-52l-524 1350l-213 -1350h-45z" />
<glyph unicode="O" horiz-adv-x="1226" d="M244 293l135 848q20 126 115.5 215.5t210.5 89.5h276q115 0 183 -90q52 -69 53 -159q0 -27 -5 -56l-135 -848q-20 -126 -116 -215.5t-211 -89.5h-277q-115 0 -182 90q-52 69 -52 159q0 27 5 56zM289 293q-4 -25 -4 -49q0 -78 43 -138q56 -78 153 -77h277q96 0 176.5 77.5 t97.5 186.5l135 848q4 25 4 49q0 78 -43 138q-56 78 -153 77h-277q-96 0 -176.5 -77.5t-97.5 -186.5z" />
<glyph unicode="P" horiz-adv-x="1114" d="M219 0l227 1434h439q129 0 205 -79q61 -63 62 -150q0 -23 -5 -48l-45 -289q-19 -119 -115.5 -210t-210.5 -91h-422l-90 -567h-45zM360 608h422q96 0 178 79t97 181l45 289q4 21 4 41q0 75 -52 128q-65 67 -175 67h-394z" />
<glyph unicode="Q" horiz-adv-x="1226" d="M244 293l135 848q20 126 115.5 215.5t210.5 89.5h276q116 0 183 -90q53 -69 53 -159q0 -27 -5 -56l-135 -848q-20 -126 -116 -215.5t-211 -89.5h-88l141 -381l-43 -25l-152 406h-135q-115 0 -182 90q-52 68 -52 159q0 27 5 56zM289 293q-4 -25 -4 -49q0 -78 43 -138 q56 -77 153 -77h277q96 0 176.5 77.5t97.5 186.5l135 848q4 25 4 49q0 78 -43 138q-56 77 -153 77h-277q-96 0 -176.5 -77.5t-97.5 -186.5z" />
<glyph unicode="R" horiz-adv-x="1198" d="M219 0l227 1434h476q130 0 206 -79q61 -63 61 -150q0 -23 -5 -48l-45 -291q-15 -100 -112.5 -184t-209.5 -84h-8l184 -598h-51l-184 598h-400l-94 -598h-45zM365 639h458q94 0 175.5 70.5t95.5 156.5l45 291q4 21 4 41q-1 75 -53 128q-66 67 -175 67h-430z" />
<glyph unicode="S" horiz-adv-x="1124" d="M193 293l18 110h45l-18 -110q-3 -21 -3 -41q-1 -84 57 -146q72 -78 193 -77h156q129 0 224 66t112 177l20 129q1 9 1 18q0 25 -9 47q-13 32 -34.5 55.5t-64 51.5t-76 46t-91.5 47q-76 38 -115.5 59.5t-100.5 63t-90 77.5t-48 88q-12 34 -12 70q0 19 3 39l21 129 q15 103 107 178.5t202 75.5h174q127 0 204 -84q62 -67 62 -156q0 -22 -4 -45l-16 -108h-45l16 108q3 19 3 37q0 77 -53 135q-65 72 -173 72h-174q-92 0 -168.5 -62.5t-89.5 -150.5l-23 -131q-3 -16 -2 -32q0 -18 3 -36q7 -33 20.5 -59t41 -53t52 -46t65.5 -43t68.5 -38.5 t73.5 -37.5q7 -3 10 -5q47 -24 71.5 -36.5t65 -36t62 -40t48.5 -41.5t39 -47t19 -50.5t2 -58.5l-20 -129q-21 -134 -130.5 -209t-258.5 -75h-156q-138 0 -221 90q-67 72 -67 167q0 24 4 48z" />
<glyph unicode="T" horiz-adv-x="884" d="M264 1393l6 41h797l-6 -41h-369l-221 -1393h-45l221 1393h-383z" />
<glyph unicode="U" horiz-adv-x="1222" d="M248 293l180 1141h45l-180 -1141q-4 -25 -4 -49q0 -78 43 -138q56 -78 153 -77h265q96 0 176.5 77.5t97.5 186.5l180 1141h45l-180 -1141q-20 -126 -117 -215.5t-211 -89.5h-264q-115 0 -182 90q-52 69 -52 159q0 27 5 56z" />
<glyph unicode="V" horiz-adv-x="1196" d="M336 1434h49l225 -1364l656 1364h49l-694 -1434h-43z" />
<glyph unicode="W" horiz-adv-x="1906" d="M336 1434h49l170 -1358l600 1358h49l174 -1354l598 1354h49l-639 -1434h-45l-176 1348l-600 -1348h-43z" />
<glyph unicode="X" horiz-adv-x="1179" d="M98 0l584 750l-315 684h51l297 -648l502 648h51l-533 -689l344 -745h-49l-328 707l-552 -707h-52z" />
<glyph unicode="Y" horiz-adv-x="1124" d="M336 1434h49l297 -777l510 777h51l-547 -822l-96 -612h-43l98 614z" />
<glyph unicode="Z" horiz-adv-x="1058" d="M113 0l6 41l960 1352h-708l6 41h760l-7 -41l-962 -1352h784l-6 -41h-833z" />
<glyph unicode="[" horiz-adv-x="485" d="M184 -219l262 1653h195l-6 -41h-152l-250 -1571h170l-6 -41h-213z" />
<glyph unicode="\" horiz-adv-x="1058" d="M340 1434h49l520 -1434h-51z" />
<glyph unicode="]" horiz-adv-x="485" d="M18 -219l7 41h170l249 1571h-151l6 41h195l-263 -1653h-213z" />
<glyph unicode="^" horiz-adv-x="686" d="M297 1188l266 346h47l156 -346h-49l-137 307l-234 -307h-49z" />
<glyph unicode="_" horiz-adv-x="741" d="M-29 -166l6 41h746l-6 -41h-746z" />
<glyph unicode="`" horiz-adv-x="636" d="M346 1499l29 37l356 -262l-29 -37z" />
<glyph unicode="a" horiz-adv-x="1062" d="M225 305l80 502q22 131 118.5 224t211.5 93h137q67 0 123 -42.5t90 -116.5l35 147h29l-177 -1112h-34l16 141q-58 -73 -126 -113t-136 -40h-137q-115 0 -183 93q-52 72 -52 166q0 28 5 58zM266 305q-4 -26 -4 -51q0 -82 44 -146q58 -82 155 -83h137q69 0 139 50.5 t129 141.5l109 692q-33 81 -88.5 129.5t-120.5 48.5h-137q-97 0 -180.5 -82.5t-102.5 -197.5z" />
<glyph unicode="b" horiz-adv-x="1073" d="M201 0l243 1536h41l-90 -565q60 72 128 112.5t134 40.5h138q113 0 181 -94q51 -71 52 -161q0 -30 -6 -62l-78 -502q-22 -130 -119 -223.5t-211 -93.5h-137q-140 0 -215 153l-29 -141h-32zM274 209q68 -184 209 -184h138q96 0 179.5 82.5t102.5 197.5l78 502q5 28 5 55 q0 80 -44 142q-58 82 -154 83h-137q-66 0 -136 -47.5t-130 -128.5z" />
<glyph unicode="c" horiz-adv-x="1032" d="M225 293l84 526q20 126 115.5 215.5t210.5 89.5h119q116 0 184 -90q52 -69 52 -159q0 -27 -5 -56l-4 -18h-41l4 18q4 25 4 48q0 80 -45 141q-58 79 -155 79h-119q-98 0 -180 -79t-99 -189l-84 -526q-4 -25 -4 -49q0 -79 44 -140q57 -79 155 -79h119q97 0 180 79t100 189 l4 22h41l-4 -22q-20 -126 -116.5 -215.5t-211.5 -89.5h-118q-115 0 -183 90q-52 69 -52 159q0 27 5 56z" />
<glyph unicode="d" horiz-adv-x="1073" d="M225 305l80 502q22 131 118.5 224t211.5 93h137q65 0 121 -41t92 -114l90 567h41l-244 -1536h-34l16 141q-58 -73 -126 -113t-136 -40h-137q-115 0 -183 93q-52 72 -52 166q0 28 5 58zM266 305q-4 -26 -4 -51q0 -82 44 -146q58 -82 155 -83h137q69 0 139 50.5t129 141.5 l109 692q-33 81 -88.5 129.5t-120.5 48.5h-137q-97 0 -180.5 -82.5t-102.5 -197.5z" />
<glyph unicode="e" d="M225 293l84 526q20 126 115.5 215.5t210.5 89.5h137q116 0 184 -90q53 -69 53 -160q0 -27 -5 -55l-41 -260h-656l-41 -266q-4 -25 -4 -49q0 -79 44 -140q57 -79 155 -79h137q97 0 180.5 79t100.5 189l2 12h41l-2 -12q-20 -126 -116.5 -215.5t-211.5 -89.5h-137 q-115 0 -183 90q-52 69 -52 159q0 27 5 56zM313 596h613l37 223q4 25 4 48q1 80 -45 141q-58 79 -156 79h-137q-98 0 -180 -79t-99 -189z" />
<glyph unicode="f" horiz-adv-x="497" d="M-109 -424l7 37q97 0 181 82.5t103 195.5l189 1184h-142l7 37h141l16 109q22 127 120.5 221t211.5 94l-6 -37q-97 0 -181.5 -82.5t-103.5 -195.5l-18 -109h233l-6 -37h-233l-187 -1184q-22 -127 -120.5 -221t-211.5 -94z" />
<glyph unicode="g" horiz-adv-x="1073" d="M160 -119l2 19h41l-2 -19q-4 -26 -4 -50q0 -79 43 -139q57 -79 155 -79h137q97 0 180.5 79t100.5 189l41 260q-61 -72 -129 -112.5t-133 -40.5h-137q-116 0 -183 94q-50 70 -50 161q0 30 5 62l80 502q20 131 116.5 224t211.5 93h137q69 0 124 -41t91 -116l27 145h35 l-195 -1231q-20 -126 -116.5 -215.5t-211.5 -89.5h-137q-115 0 -182 90q-52 68 -52 159q0 27 5 56zM268 305q-5 -29 -5 -55q0 -81 43 -142q57 -83 155 -83h137q65 0 135.5 48.5t130.5 129.5l111 694q-27 90 -83 140t-126 50h-137q-98 0 -181 -82.5t-100 -197.5z" />
<glyph unicode="h" horiz-adv-x="1048" d="M201 0l243 1536h41l-92 -573q71 75 158.5 118t173.5 43h33q124 0 189 -77q49 -58 49 -147q0 -29 -5 -60l-133 -840h-41l133 846q4 26 4 49q0 76 -44 126q-58 66 -158 66h-33q-85 0 -175.5 -49t-158.5 -135l-143 -903h-41z" />
<glyph unicode="i" horiz-adv-x="442" d="M201 0l176 1112h41l-176 -1112h-41zM410 1325l34 211h41l-34 -211h-41z" />
<glyph unicode="j" horiz-adv-x="444" d="M-123 -424l6 37q108 0 193.5 64.5t99.5 152.5l203 1282h41l-203 -1282q-17 -104 -115.5 -179t-224.5 -75zM410 1325l34 211h41l-34 -211h-41z" />
<glyph unicode="k" horiz-adv-x="935" d="M201 0l243 1536h41l-139 -879h146l466 455h52l-488 -473l379 -639h-47l-369 621h-145l-98 -621h-41z" />
<glyph unicode="l" horiz-adv-x="442" d="M201 0l243 1536h41l-243 -1536h-41z" />
<glyph unicode="m" horiz-adv-x="1665" d="M201 0l176 1112h33l-17 -151q70 76 157.5 119.5t174.5 43.5h33q95 0 157.5 -47.5t75.5 -132.5q72 84 165 132t185 48h31q124 0 190 -77q50 -58 49 -147q0 -28 -5 -60l-133 -840h-41l133 846q4 26 4 49q-1 76 -45 126q-58 66 -158 66h-31q-89 0 -181.5 -50.5 t-158.5 -139.5q0 -21 -4 -57l-133 -840h-41l133 846q4 26 4 49q0 76 -44 126q-58 66 -158 66h-33q-87 0 -177.5 -49t-158.5 -137l-141 -901h-41z" />
<glyph unicode="n" horiz-adv-x="1048" d="M201 0l176 1112h33l-17 -151q70 76 157.5 119.5t174.5 43.5h33q124 0 189 -77q49 -58 49 -147q0 -29 -5 -60l-133 -840h-41l133 846q4 26 4 49q0 76 -44 126q-58 66 -158 66h-33q-87 0 -177.5 -49t-158.5 -137l-141 -901h-41z" />
<glyph unicode="o" d="M225 293l84 526q20 126 115.5 215.5t210.5 89.5h137q116 0 184 -90q53 -69 53 -160q0 -27 -5 -55l-84 -526q-20 -126 -116.5 -215.5t-211.5 -89.5h-137q-115 0 -183 90q-52 69 -52 159q0 27 5 56zM266 293q-4 -25 -4 -49q0 -79 44 -140q57 -79 155 -79h137q97 0 180.5 79 t100.5 189l84 526q4 25 4 48q1 80 -45 141q-58 79 -156 79h-137q-98 0 -180 -79t-99 -189z" />
<glyph unicode="p" horiz-adv-x="1073" d="M133 -424l244 1536h33l-17 -141q130 153 264 153h138q114 0 181 -94q51 -70 51 -161q0 -30 -5 -62l-80 -502q-20 -130 -117 -223.5t-211 -93.5h-137q-68 0 -123.5 39.5t-91.5 111.5l-88 -563h-41zM272 207q71 -182 211 -182h138q96 0 179.5 82.5t100.5 197.5l80 502 q5 28 5 55q0 80 -44 142q-58 83 -154 83h-137q-66 0 -136 -47.5t-130 -128.5z" />
<glyph unicode="q" horiz-adv-x="1073" d="M225 305l80 502q22 131 118.5 224t211.5 93h137q66 0 121.5 -42t91.5 -115l29 145h35l-244 -1536h-41l88 563q-122 -151 -260 -151h-137q-115 0 -183 93q-52 72 -52 166q0 28 5 58zM266 305q-4 -26 -4 -51q0 -83 44 -146q58 -83 155 -83h137q69 0 139 50t127 140l111 694 q-33 81 -88.5 129.5t-120.5 48.5h-137q-97 0 -180.5 -82.5t-102.5 -197.5z" />
<glyph unicode="r" horiz-adv-x="663" d="M201 0l176 1112h33l-31 -240q71 111 166.5 175.5t183.5 64.5h62l-7 -37h-59q-85 0 -185 -76.5t-173 -205.5l-125 -793h-41z" />
<glyph unicode="s" horiz-adv-x="1036" d="M203 193l12 71h41l-12 -71q-1 -10 -1 -19q-1 -54 43 -98q52 -51 138 -51h211q77 0 143.5 56t77.5 126l21 129q5 30 -7.5 55t-31.5 41.5t-57.5 33t-67.5 25.5t-80 23q-64 17 -97.5 27.5t-86 34t-77.5 47.5q-26 24 -42 64q-11 27 -11 58q0 15 3 31l22 131q12 87 92 152 t182 65h132q106 0 172 -56q54 -46 54 -115q0 -16 -3 -33l-10 -72h-41l10 72q2 13 2 24q0 56 -46 96q-56 48 -145 47h-131q-81 0 -148.5 -54t-78.5 -124l-20 -131q-3 -18 -3 -34q0 -32 12 -56q18 -38 67 -64t87.5 -39.5t114.5 -33.5q144 -40 194 -68q83 -46 83 -121 q0 -12 -2 -26l-21 -129q-13 -91 -92.5 -155t-175.5 -64h-211q-102 0 -164 62q-52 52 -53 117q0 13 2 26z" />
<glyph unicode="t" horiz-adv-x="565" d="M231 1075l7 37h147l59 322h33l-51 -322h233l-6 -37h-233l-131 -823q-3 -19 -3 -37q0 -69 43 -123q54 -68 154 -67l-6 -37q-125 0 -186 76q-47 58 -47 138q0 24 4 50l131 823h-148z" />
<glyph unicode="u" horiz-adv-x="1030" d="M233 272l134 840h41l-136 -846q-4 -25 -4 -47q0 -77 46 -128q58 -66 157 -66h33q80 0 165 47.5t150 132.5l146 907h41l-177 -1112h-32l14 147q-68 -74 -150 -116.5t-161 -42.5h-33q-123 0 -189 77q-50 58 -50 147q0 28 5 60z" />
<glyph unicode="v" horiz-adv-x="880" d="M229 1112h43l185 -1049l501 1049h46l-533 -1112h-45z" />
<glyph unicode="w" horiz-adv-x="1464" d="M229 1112h43l148 -1038l465 1038h45l147 -1040l467 1040h43l-495 -1112h-45l-148 1036l-465 -1036h-45z" />
<glyph unicode="x" horiz-adv-x="980" d="M109 0l446 573l-252 539h49l234 -502l393 502h51l-426 -541l268 -571h-47l-252 532l-417 -532h-47z" />
<glyph unicode="y" horiz-adv-x="880" d="M219 -424l205 428l-195 1108h43l185 -1044l501 1044h46l-738 -1536h-47z" />
<glyph unicode="z" horiz-adv-x="948" d="M127 0l6 37l789 1038h-607l7 37h657l-6 -37l-791 -1038h664l-6 -37h-713z" />
<glyph unicode="{" horiz-adv-x="641" d="M186 598l7 41h71q57 1 105 49t59 113l70 442q12 83 93 143t181 60h10l-8 -41h-10q-81 0 -146.5 -48t-76.5 -114l-70 -442q-10 -60 -47 -109t-88 -74q43 -25 64 -74.5t12 -107.5l-70 -442q-11 -66 40.5 -114t133.5 -48h10l-6 -41h-10q-99 0 -161 60t-50 143l70 442 q10 64 -22.5 111.5t-88.5 50.5h-72z" />
<glyph unicode="|" horiz-adv-x="483" d="M145 -471l324 2048h45l-324 -2048h-45z" />
<glyph unicode="}" horiz-adv-x="641" d="M59 -209l7 41h10q82 0 148 48t77 114l70 442q7 57 44 106t89 76q-43 25 -64 74.5t-12 108.5l70 442q11 66 -40 114t-132 48h-11l7 41h10q100 0 161.5 -60t47.5 -143l-70 -442q-10 -66 25 -114t94 -48h65l-8 -41h-65q-58 0 -107.5 -48t-60.5 -114l-70 -442 q-14 -83 -94 -143t-180 -60h-11z" />
<glyph unicode="~" horiz-adv-x="751" d="M180 451l13 73q11 76 38 112t86 36q25 0 53 -13t46 -26.5t49 -38.5q33 -28 53 -43t50.5 -29t58.5 -14t45 20t22 54l17 98h41l-17 -105q-19 -108 -114 -108q-33 0 -69 16t-59 32.5t-59 45.5q-85 70 -123 70q-36 0 -53 -25.5t-25 -81.5l-12 -73h-41z" />
<glyph unicode="&#xa1;" horiz-adv-x="438" d="M145 -322l162 1024h45l-162 -1024h-45zM338 899l35 213h45l-35 -213h-45z" />
<glyph unicode="&#xa2;" horiz-adv-x="1044" d="M225 293l84 526q20 126 115.5 215.5t210.5 89.5h57l47 289h41l-47 -289h39q116 0 184 -89.5t48 -215.5l-5 -18h-41l5 18q17 110 -41.5 189t-155.5 79h-137q-98 0 -180 -79t-99 -189l-84 -526q-17 -110 40 -189t155 -79h137q97 0 180.5 79t100.5 189l4 22h41l-4 -22 q-20 -126 -116.5 -215.5t-211.5 -89.5h-39l-45 -295h-41l45 295h-57q-115 0 -182.5 89.5t-47.5 215.5z" />
<glyph unicode="&#xa3;" horiz-adv-x="1169" d="M74 0l6 41h160l106 676h-160l9 41h157l62 383q20 126 116 215.5t211 89.5h185q115 0 182 -89.5t47 -215.5l-20 -129h-45l20 129q17 109 -38.5 186.5t-151.5 77.5h-185q-97 0 -178 -77.5t-98 -186.5l-62 -383h353l-9 -41h-350l-106 -676h688l39 238h45l-45 -279h-938z" />
<glyph unicode="&#xa5;" horiz-adv-x="1124" d="M276 311l7 41h329l37 246h-327l6 41h315l-307 795h49l297 -777l510 777h51l-530 -795h284l-6 -41h-299l-37 -246h297l-6 -41h-297l-49 -311h-43l49 311h-330z" />
<glyph unicode="&#xa7;" horiz-adv-x="1124" d="M127 -119l8 49h45l-8 -49q-17 -109 55 -186.5t193 -77.5h155q129 0 224 66.5t112 177.5l13 67q5 33 -9 64.5t-35.5 55t-64.5 52t-76.5 46.5t-91.5 47q-76 38 -115.5 59.5t-100.5 63t-89.5 77t-47.5 88t-9 109.5l20 129q15 115 131 196q-87 90 -67 207l10 70 q17 103 109 178.5t202 75.5h174q127 0 204 -84t58 -201l-8 -49h-45l8 49q15 100 -50 172t-173 72h-174q-93 0 -170 -63t-90 -150l-10 -72q-6 -35 1 -68t20.5 -59t41.5 -53.5t51.5 -46t65.5 -43t69 -38.5t74 -38q5 -3 8 -4q158 -80 215 -124q109 -85 93 -185l-21 -129 q-23 -141 -153 -221q103 -84 90 -183l-13 -67q-21 -135 -130.5 -210t-258.5 -75h-155q-138 0 -221.5 89.5t-63.5 215.5zM327.5 540q-0.5 -22 8.5 -44t18 -40t27 -37t34.5 -34t40 -31t44.5 -29t48.5 -28t50.5 -27t51 -26l12 -6q152 -80 184 -103q120 65 141 197l21 129 q4 28 -2.5 53.5t-27.5 49.5t-42 42.5t-61 41.5t-67 37.5t-77 39.5q-189 92 -266 162q-46 -30 -77 -74t-38 -94l-20 -131q-2 -26 -2.5 -48z" />
<glyph unicode="&#xa8;" horiz-adv-x="651" d="M319 1325l33 211h45l-32 -211h-46zM707 1325l32 211h45l-32 -211h-45z" />
<glyph unicode="&#xa9;" horiz-adv-x="1574" d="M246 293l135 848q20 126 115.5 215.5t210.5 89.5h618q116 0 183.5 -89.5t47.5 -215.5l-135 -848q-20 -126 -116 -215.5t-211 -89.5h-619q-115 0 -182 89.5t-47 215.5zM287 293q-17 -111 39.5 -189.5t154.5 -78.5h619q97 0 180 79t100 189l136 848q17 110 -41.5 189 t-155.5 79h-619q-98 0 -179.5 -78.5t-98.5 -189.5zM563 418l92 583q13 86 79.5 147.5t146.5 61.5h188q80 0 126.5 -61.5t33.5 -147.5l-15 -90h-40l14 90q11 69 -25.5 119.5t-99.5 50.5h-189q-63 0 -115 -50.5t-63 -119.5l-92 -583q-11 -69 25.5 -119.5t99.5 -50.5h189 q63 0 115 50.5t63 119.5l14 98h41l-14 -98q-13 -86 -80.5 -147.5t-147.5 -61.5h-188q-79 0 -125.5 61.5t-32.5 147.5z" />
<glyph unicode="&#xaa;" horiz-adv-x="575" d="M258 1008l10 71q7 43 50.5 73.5t101.5 39.5l192 31l17 94q6 37 -17.5 63.5t-60.5 26.5h-70q-36 0 -67 -17.5t-35 -43.5l-6 -35h-41l6 35q7 45 50 72.5t99 27.5h70q54 0 87.5 -37t25.5 -88l-68 -428h-29l2 68q-71 -74 -143 -74h-67q-51 0 -83 36.5t-24 84.5zM299 1008 q-5 -32 16.5 -57t55.5 -25h67q33 0 71.5 22.5t70.5 61.5l26 176l-192 -33q-38 -6 -69.5 -27t-35.5 -47z" />
<glyph unicode="&#xab;" horiz-adv-x="1224" d="M205 518l8 51l629 416l-8 -49l-590 -391l467 -391l-9 -50zM598 518l8 51l629 416l-8 -49l-590 -391l467 -391l-8 -50z" />
<glyph unicode="&#xad;" horiz-adv-x="741" d="M205 612l6 41h524l-6 -41h-524z" />
<glyph unicode="&#xae;" horiz-adv-x="1574" d="M246 293l135 848q20 126 115.5 215.5t210.5 89.5h618q116 0 183.5 -89.5t47.5 -215.5l-135 -848q-20 -126 -116 -215.5t-211 -89.5h-619q-115 0 -182 89.5t-47 215.5zM287 293q-17 -111 39.5 -189.5t154.5 -78.5h619q97 0 180 79t100 189l136 848q17 110 -41.5 189 t-155.5 79h-619q-98 0 -179.5 -78.5t-98.5 -189.5zM555 207l160 1003h342q91 0 144 -55t40 -139l-33 -203q-11 -70 -78.5 -129t-146.5 -59h-4l129 -418h-49l-129 418h-268l-66 -418h-41zM668 664h321q62 0 116 46.5t62 102.5l33 203q10 67 -33 111t-116 44h-301z" />
<glyph unicode="&#xaf;" horiz-adv-x="815" d="M367 1393l6 41h524l-6 -41h-524z" />
<glyph unicode="&#xb0;" horiz-adv-x="653" d="M258 1012l49 309q7 51 53.5 88t100.5 37h188q54 0 87.5 -37t25.5 -88l-49 -309q-7 -51 -52.5 -88t-99.5 -37h-188q-54 0 -88 37t-27 88zM301 1016q-6 -37 17.5 -63.5t60.5 -26.5h188q37 0 69 26.5t38 63.5l47 301q6 37 -17.5 63.5t-60.5 26.5h-188q-37 0 -69 -26.5 t-38 -63.5z" />
<glyph unicode="&#xb2;" horiz-adv-x="649" d="M209 635l14 94q15 89 84 158q43 43 155.5 103.5t160.5 109.5q50 50 61 112l8 58q9 57 -20 97t-80 40h-90q-50 0 -92.5 -40t-51.5 -97l-10 -72h-41l10 72q12 72 68.5 124t122.5 52h90q67 0 106 -52t27 -124l-8 -58q-14 -85 -72 -143q-43 -43 -157 -103t-160 -108 q-58 -62 -68 -129l-8 -55h389l-6 -39h-432z" />
<glyph unicode="&#xb3;" horiz-adv-x="651" d="M238 807l8 57h41l-8 -57q-9 -58 19.5 -98.5t76.5 -40.5h110q52 0 95.5 43.5t52.5 103.5l14 92q9 55 -23 94.5t-85 42.5h-82l6 39h84q39 3 73.5 36.5t41.5 78.5l14 92q7 47 -16.5 82t-63.5 35h-92q-37 0 -69 -35t-40 -82l-8 -51h-41l8 51q9 62 55.5 109t100.5 47h92 q56 0 90 -47t25 -109l-15 -92q-6 -40 -31.5 -75t-60.5 -56q41 -24 62 -67.5t14 -92.5l-14 -92q-12 -76 -68.5 -131t-124.5 -55h-110q-65 0 -104 52.5t-27 125.5z" />
<glyph unicode="&#xb4;" horiz-adv-x="636" d="M311 1274l439 262l16 -37l-438 -262z" />
<glyph unicode="&#xb5;" horiz-adv-x="1077" d="M133 -424l244 1536h43l-137 -856q-12 -105 45 -168t155 -63h68q81 0 166.5 49t148.5 135l146 903h41l-176 -1112h-35l16 145q-68 -74 -151 -115.5t-162 -41.5h-68q-78 0 -135.5 32.5t-83.5 92.5l-84 -537h-41z" />
<glyph unicode="&#xb6;" horiz-adv-x="1280" d="M293 909l39 248q20 119 121 198t229 79h680l-8 -41h-127l-277 -1733h-45l277 1733h-158l-276 -1733h-46l152 948h-330q-114 0 -182 91t-49 210z" />
<glyph unicode="&#xb7;" horiz-adv-x="409" d="M262 492l33 210h41l-33 -210h-41z" />
<glyph unicode="&#xb8;" horiz-adv-x="489" d="M49 -424l6 37h68q80 0 123 35t43 90q0 41 -25.5 73.5t-66.5 32.5h-47l83 160h43l-63 -123q54 -3 85.5 -43t31.5 -94q0 -74 -50.5 -121t-162.5 -47h-68z" />
<glyph unicode="&#xb9;" horiz-adv-x="567" d="M209 635l6 39h154l114 721l-168 -92l7 43l167 94h41l-120 -766h155l-6 -39h-350z" />
<glyph unicode="&#xba;" horiz-adv-x="575" d="M258 1012l49 309q7 51 53.5 88t100.5 37h96q54 0 87.5 -37t25.5 -88l-49 -309q-7 -51 -52.5 -88t-99.5 -37h-96q-54 0 -88 37t-27 88zM301 1016q-6 -37 17.5 -63.5t60.5 -26.5h96q37 0 69 26.5t38 63.5l47 301q6 37 -17.5 63.5t-60.5 26.5h-96q-37 0 -69 -26.5t-38 -63.5 z" />
<glyph unicode="&#xbb;" horiz-adv-x="1224" d="M162 104l8 50l588 391l-465 391l8 49l498 -418l-11 -49zM555 104l8 50l586 391l-463 391l8 49l496 -418l-10 -49z" />
<glyph unicode="&#xbc;" horiz-adv-x="1335" d="M209 635l6 39h154l114 721l-168 -92l7 43l167 94h41l-120 -766h155l-6 -39h-350zM449 0l634 1434h50l-639 -1434h-45zM809 229l6 39l377 537h45l-84 -537h117l-6 -39h-117l-37 -229h-43l37 229h-295zM858 268h252l72 457q-45 -64 -156 -219t-168 -238z" />
<glyph unicode="&#xbd;" horiz-adv-x="1421" d="M209 635l6 39h154l114 721l-168 -92l7 43l167 94h41l-120 -766h155l-6 -39h-350zM467 0l635 1434h49l-639 -1434h-45zM881 0l14 94q15 89 84 158q43 43 155 103.5t160 109.5q51 51 62 113l8 57q9 57 -20 97t-80 40h-90q-50 0 -92.5 -40t-51.5 -97l-10 -72h-41l10 72 q12 72 68.5 124t122.5 52h90q67 0 106 -52t27 -124l-8 -57q-14 -86 -72 -144q-43 -43 -157 -103t-160 -108q-58 -62 -68 -129l-8 -55h389l-6 -39h-432z" />
<glyph unicode="&#xbe;" horiz-adv-x="1378" d="M238 807l8 57h41l-8 -57q-9 -58 19.5 -98.5t76.5 -40.5h110q52 0 95.5 43.5t52.5 103.5l14 92q9 55 -23 94.5t-85 42.5h-82l6 39h84q39 3 73.5 36.5t41.5 78.5l14 92q7 47 -16.5 82t-63.5 35h-92q-37 0 -69 -35t-40 -82l-8 -51h-41l8 51q9 62 55.5 109t100.5 47h92 q56 0 90 -47t25 -109l-15 -92q-6 -40 -31.5 -75t-60.5 -56q41 -24 62 -67.5t14 -92.5l-14 -92q-12 -76 -68.5 -131t-124.5 -55h-110q-65 0 -104 52.5t-27 125.5zM494 0l634 1434h50l-639 -1434h-45zM854 229l6 39l377 537h43l-84 -537h117l-6 -39h-117l-37 -229h-41l37 229 h-295zM901 268h254l72 457z" />
<glyph unicode="&#xbf;" horiz-adv-x="948" d="M178 -29l21 135q14 83 84 164q43 49 143 124t143 118q88 88 103 178l14 92h49l-14 -92q-18 -110 -117 -205q-36 -34 -142.5 -112t-154.5 -135q-51 -65 -63 -132l-21 -135q-17 -109 39.5 -186.5t153.5 -77.5h166q96 0 176.5 77.5t97.5 186.5l18 115h46l-19 -115 q-20 -126 -116.5 -215.5t-211.5 -89.5h-165q-115 0 -182.5 89.5t-47.5 215.5zM705 901l32 211h47l-32 -211h-47z" />
<glyph unicode="&#xc0;" horiz-adv-x="1196" d="M109 0l698 1446h43l237 -1446h-49l-86 532h-540l-254 -532h-49zM432 573h514l-129 803zM684 1759l25 41l352 -178l-25 -41z" />
<glyph unicode="&#xc1;" horiz-adv-x="1196" d="M109 0l698 1446h43l237 -1446h-49l-86 532h-540l-254 -532h-49zM432 573h514l-129 803zM662 1622l409 178l12 -41l-409 -178z" />
<glyph unicode="&#xc2;" horiz-adv-x="1196" d="M109 0l698 1446h43l237 -1446h-49l-86 532h-540l-254 -532h-49zM432 573h514l-129 803zM600 1616l270 184h27l213 -182l-31 -37l-205 172l-253 -172z" />
<glyph unicode="&#xc3;" horiz-adv-x="1196" d="M109 0l698 1446h43l237 -1446h-49l-86 532h-540l-254 -532h-49zM432 573h514l-129 803zM569 1604l2 16q13 76 38.5 111.5t80.5 35.5q40 0 83.5 -21t76 -45.5t76.5 -45.5t86 -21q28 0 45 20t22 54l8 49h41l-8 -55q-19 -109 -114 -109q-42 0 -88.5 21t-81 45.5t-76.5 45.5 t-76 21q-32 0 -47 -25t-25 -81l-2 -16h-41z" />
<glyph unicode="&#xc4;" horiz-adv-x="1196" d="M109 0l698 1446h43l237 -1446h-49l-86 532h-540l-254 -532h-49zM432 573h514l-129 803zM629 1589l33 211h45l-33 -211h-45zM1016 1589l33 211h45l-33 -211h-45z" />
<glyph unicode="&#xc5;" horiz-adv-x="1196" d="M109 0l690 1430q-58 7 -91 58.5t-22 117.5l4 26q11 71 67 123.5t122 52.5h14q65 0 103.5 -52.5t27.5 -123.5l-4 -26q-10 -66 -59 -116.5t-109 -59.5l235 -1430h-49l-86 532h-540l-254 -532h-49zM432 573h514l-129 803zM727 1606q-9 -55 20.5 -97.5t75.5 -42.5h15 q46 0 89 42.5t52 97.5l4 26q9 55 -20.5 97.5t-75.5 42.5h-15q-46 0 -89 -42.5t-52 -97.5z" />
<glyph unicode="&#xc6;" horiz-adv-x="1742" d="M109 0l954 1434h704l-6 -41h-647l-98 -615h612l-6 -41h-612l-111 -696h666l-6 -41h-711l84 532h-420l-352 -532h-51zM541 573h397l125 787z" />
<glyph unicode="&#xc7;" horiz-adv-x="1189" d="M244 293l135 848q20 126 115.5 215.5t210.5 89.5h239q116 0 184 -89.5t48 -215.5l-21 -129h-45l20 129q17 109 -39 186.5t-153 77.5h-240q-96 0 -176.5 -77.5t-97.5 -186.5l-135 -848q-17 -109 39 -186.5t153 -77.5h240q96 0 176.5 77.5t97.5 186.5l23 141h45l-23 -141 q-20 -126 -116 -215.5t-211 -89.5h-86l-56 -107q54 -3 85.5 -43t31.5 -94q0 -74 -50.5 -121t-162.5 -47h-67l6 37h67q80 0 123 35t43 90q0 41 -25.5 73.5t-66.5 32.5h-47l76 144h-111q-115 0 -182 89.5t-47 215.5z" />
<glyph unicode="&#xc8;" horiz-adv-x="1114" d="M219 0l227 1434h693l-6 -41h-648l-98 -615h612l-6 -41h-612l-111 -696h666l-6 -41h-711zM631 1759l24 41l353 -178l-25 -41z" />
<glyph unicode="&#xc9;" horiz-adv-x="1114" d="M219 0l227 1434h693l-6 -41h-648l-98 -615h612l-6 -41h-612l-111 -696h666l-6 -41h-711zM643 1622l410 178l12 -41l-410 -178z" />
<glyph unicode="&#xca;" horiz-adv-x="1114" d="M219 0l227 1434h693l-6 -41h-648l-98 -615h612l-6 -41h-612l-111 -696h666l-6 -41h-711zM578 1616l270 184h26l213 -182l-30 -37l-205 172l-254 -172z" />
<glyph unicode="&#xcb;" horiz-adv-x="1114" d="M219 0l227 1434h693l-6 -41h-648l-98 -615h612l-6 -41h-612l-111 -696h666l-6 -41h-711zM618 1589l33 211h45l-32 -211h-46zM1006 1589l32 211h45l-32 -211h-45z" />
<glyph unicode="&#xcc;" horiz-adv-x="483" d="M219 0l227 1434h46l-228 -1434h-45zM326 1759l24 41l352 -178l-24 -41z" />
<glyph unicode="&#xcd;" horiz-adv-x="483" d="M219 0l227 1434h46l-228 -1434h-45zM303 1622l410 178l12 -41l-410 -178z" />
<glyph unicode="&#xce;" horiz-adv-x="483" d="M219 0l227 1434h46l-228 -1434h-45zM244 1616l270 184h27l213 -182l-31 -37l-205 172l-254 -172z" />
<glyph unicode="&#xcf;" horiz-adv-x="483" d="M219 0l227 1434h46l-228 -1434h-45zM272 1589l33 211h45l-33 -211h-45zM659 1589l33 211h45l-32 -211h-46z" />
<glyph unicode="&#xd0;" horiz-adv-x="1249" d="M160 737l6 41h176l104 656h555q115 0 182.5 -90t47.5 -216l-129 -823q-20 -126 -116.5 -215.5t-211.5 -89.5h-555l117 737h-176zM270 41h510q96 0 177 77.5t100 186.5l129 823q17 109 -39 187t-152 78h-510l-98 -615h379l-6 -41h-379z" />
<glyph unicode="&#xd1;" horiz-adv-x="1271" d="M219 0l227 1434h50l524 -1352l215 1354h45l-227 -1436h-52l-524 1350l-213 -1350h-45zM633 1604l2 16q13 76 38.5 111.5t80.5 35.5q40 0 83.5 -21t75.5 -45.5t76 -45.5t86 -21q28 0 45.5 20t22.5 54l8 49h41l-8 -55q-19 -109 -115 -109q-42 0 -88.5 21t-80.5 45.5 t-76 45.5t-76 21q-32 0 -47 -25t-25 -81l-2 -16h-41z" />
<glyph unicode="&#xd2;" horiz-adv-x="1226" d="M244 293l135 848q20 126 115.5 215.5t210.5 89.5h276q116 0 183.5 -89.5t47.5 -215.5l-135 -848q-20 -126 -116 -215.5t-211 -89.5h-277q-115 0 -182 89.5t-47 215.5zM289 293q-17 -109 39 -186.5t153 -77.5h277q96 0 176.5 77.5t97.5 186.5l135 848q17 109 -39 186.5 t-153 77.5h-277q-96 0 -176.5 -77.5t-97.5 -186.5zM668 1772l24 40l352 -178l-24 -41z" />
<glyph unicode="&#xd3;" horiz-adv-x="1226" d="M244 293l135 848q20 126 115.5 215.5t210.5 89.5h276q116 0 183.5 -89.5t47.5 -215.5l-135 -848q-20 -126 -116 -215.5t-211 -89.5h-277q-115 0 -182 89.5t-47 215.5zM289 293q-17 -109 39 -186.5t153 -77.5h277q96 0 176.5 77.5t97.5 186.5l135 848q17 109 -39 186.5 t-153 77.5h-277q-96 0 -176.5 -77.5t-97.5 -186.5zM719 1634l409 178l13 -40l-410 -179z" />
<glyph unicode="&#xd4;" horiz-adv-x="1226" d="M244 293l135 848q20 126 115.5 215.5t210.5 89.5h276q116 0 183.5 -89.5t47.5 -215.5l-135 -848q-20 -126 -116 -215.5t-211 -89.5h-277q-115 0 -182 89.5t-47 215.5zM289 293q-17 -109 39 -186.5t153 -77.5h277q96 0 176.5 77.5t97.5 186.5l135 848q17 109 -39 186.5 t-153 77.5h-277q-96 0 -176.5 -77.5t-97.5 -186.5zM621 1628l270 184h27l212 -182l-30 -37l-205 172l-254 -172z" />
<glyph unicode="&#xd5;" horiz-adv-x="1226" d="M244 293l135 848q20 126 115.5 215.5t210.5 89.5h276q116 0 183.5 -89.5t47.5 -215.5l-135 -848q-20 -126 -116 -215.5t-211 -89.5h-277q-115 0 -182 89.5t-47 215.5zM289 293q-17 -109 39 -186.5t153 -77.5h277q96 0 176.5 77.5t97.5 186.5l135 848q17 109 -39 186.5 t-153 77.5h-277q-96 0 -176.5 -77.5t-97.5 -186.5zM590 1616l2 16q13 77 38.5 112.5t80.5 35.5q40 0 83.5 -21t75.5 -45.5t76 -45.5t86 -21q28 0 45.5 20t22.5 53l8 49h41l-8 -55q-19 -108 -115 -108q-42 0 -88.5 21t-80.5 45.5t-76 45.5t-76 21q-32 0 -47 -25t-25 -82 l-2 -16h-41z" />
<glyph unicode="&#xd6;" horiz-adv-x="1226" d="M244 293l135 848q20 126 115.5 215.5t210.5 89.5h276q116 0 183.5 -89.5t47.5 -215.5l-135 -848q-20 -126 -116 -215.5t-211 -89.5h-277q-115 0 -182 89.5t-47 215.5zM289 293q-17 -109 39 -186.5t153 -77.5h277q96 0 176.5 77.5t97.5 186.5l135 848q17 109 -39 186.5 t-153 77.5h-277q-96 0 -176.5 -77.5t-97.5 -186.5zM649 1602l33 210h45l-33 -210h-45zM1036 1602l33 210h45l-33 -210h-45z" />
<glyph unicode="&#xd7;" horiz-adv-x="815" d="M111 336l391 371l-275 370l35 31l275 -371l391 371l24 -31l-393 -370l277 -371l-35 -31l-275 369l-391 -369z" />
<glyph unicode="&#xd8;" horiz-adv-x="1226" d="M109 -205l182 281q-68 91 -47 217l135 848q20 126 115.5 215.5t210.5 89.5h276q94 0 162 -68l168 256h49l-189 -288q59 -85 41 -205l-135 -848q-20 -126 -116 -215.5t-211 -89.5h-277q-90 0 -151 55l-162 -248h-51zM289 293q-15 -104 30 -174l799 1220q-56 66 -143 66 h-277q-96 0 -176.5 -77.5t-97.5 -186.5zM346 84q55 -55 135 -55h277q96 0 176.5 77.5t97.5 186.5l135 848q13 96 -24 162z" />
<glyph unicode="&#xd9;" horiz-adv-x="1222" d="M248 293l180 1141h45l-180 -1141q-17 -109 39 -186.5t153 -77.5h265q96 0 176.5 77.5t97.5 186.5l180 1141h45l-180 -1141q-20 -126 -117 -215.5t-211 -89.5h-264q-115 0 -182 89.5t-47 215.5zM612 1759l25 41l352 -178l-24 -41z" />
<glyph unicode="&#xda;" horiz-adv-x="1222" d="M248 293l180 1141h45l-180 -1141q-17 -109 39 -186.5t153 -77.5h265q96 0 176.5 77.5t97.5 186.5l180 1141h45l-180 -1141q-20 -126 -117 -215.5t-211 -89.5h-264q-115 0 -182 89.5t-47 215.5zM770 1622l410 178l12 -41l-410 -178z" />
<glyph unicode="&#xdb;" horiz-adv-x="1222" d="M248 293l180 1141h45l-180 -1141q-17 -109 39 -186.5t153 -77.5h265q96 0 176.5 77.5t97.5 186.5l180 1141h45l-180 -1141q-20 -126 -117 -215.5t-211 -89.5h-264q-115 0 -182 89.5t-47 215.5zM616 1616l271 184h26l213 -182l-30 -37l-205 172l-254 -172z" />
<glyph unicode="&#xdc;" horiz-adv-x="1222" d="M248 293l180 1141h45l-180 -1141q-17 -109 39 -186.5t153 -77.5h265q96 0 176.5 77.5t97.5 186.5l180 1141h45l-180 -1141q-20 -126 -117 -215.5t-211 -89.5h-264q-115 0 -182 89.5t-47 215.5zM645 1589l33 211h45l-33 -211h-45zM1032 1589l33 211h45l-33 -211h-45z" />
<glyph unicode="&#xdd;" horiz-adv-x="1124" d="M336 1434h49l297 -777l510 777h51l-545 -820l-98 -614h-43l98 614zM643 1622l410 178l12 -41l-410 -178z" />
<glyph unicode="&#xde;" horiz-adv-x="1114" d="M219 0l227 1434h46l-43 -271h393q129 0 206 -78.5t58 -197.5l-47 -289q-19 -119 -115.5 -210t-210.5 -91h-422l-47 -297h-45zM317 338h422q96 0 178 79t97 181l47 289q15 102 -50 168.5t-175 66.5h-394z" />
<glyph unicode="&#xdf;" d="M178 0l187 1171q17 114 101.5 194.5t188.5 80.5h86q104 0 165 -80.5t44 -194.5l-4 -26q-7 -39 -26 -74.5t-36.5 -55.5t-49.5 -50q-33 -32 -49 -49t-34.5 -49.5t-23.5 -67.5l-8 -54q-7 -43 7.5 -82t33.5 -62t55 -58q32 -32 45.5 -47.5t35 -47.5t27 -66.5t-0.5 -76.5 l-7 -29q-17 -114 -102.5 -195t-189.5 -81h-185l6 37h185q86 0 160.5 71t89.5 168l6 29q5 36 -0.5 66t-24 57.5t-33 43.5t-43.5 44q-32 32 -45.5 47t-34 46t-25.5 63.5t1 72.5l8 54q7 42 27 79.5t38 57.5t50 51q31 30 46.5 46.5t32.5 47t23 64.5l4 26q15 97 -36.5 167.5 t-137.5 70.5h-86q-86 0 -157 -70.5t-86 -167.5l-187 -1171h-41z" />
<glyph unicode="&#xe0;" horiz-adv-x="1062" d="M225 305l80 502q22 131 118.5 224t211.5 93h137q67 0 123 -42.5t90 -116.5l35 147h29l-177 -1112h-34l16 141q-58 -73 -126 -113t-136 -40h-137q-115 0 -182.5 93t-47.5 224zM266 305q-17 -115 40.5 -197.5t154.5 -82.5h137q69 0 139 50.5t129 141.5l109 692 q-33 81 -88.5 129.5t-120.5 48.5h-137q-97 0 -180.5 -82.5t-102.5 -197.5zM569 1499l29 37l356 -262l-28 -37z" />
<glyph unicode="&#xe1;" horiz-adv-x="1062" d="M225 305l80 502q22 131 118.5 224t211.5 93h137q67 0 123 -42.5t90 -116.5l35 147h29l-177 -1112h-34l16 141q-58 -73 -126 -113t-136 -40h-137q-115 0 -182.5 93t-47.5 224zM266 305q-17 -115 40.5 -197.5t154.5 -82.5h137q69 0 139 50.5t129 141.5l109 692 q-33 81 -88.5 129.5t-120.5 48.5h-137q-97 0 -180.5 -82.5t-102.5 -197.5zM571 1274l439 262l16 -37l-438 -262z" />
<glyph unicode="&#xe2;" horiz-adv-x="1062" d="M225 305l80 502q22 131 118.5 224t211.5 93h137q67 0 123 -42.5t90 -116.5l35 147h29l-177 -1112h-34l16 141q-58 -73 -126 -113t-136 -40h-137q-115 0 -182.5 93t-47.5 224zM266 305q-17 -115 40.5 -197.5t154.5 -82.5h137q69 0 139 50.5t129 141.5l109 692 q-33 81 -88.5 129.5t-120.5 48.5h-137q-97 0 -180.5 -82.5t-102.5 -197.5zM535 1272l243 229h27l170 -229l-33 -33l-160 213l-225 -213z" />
<glyph unicode="&#xe3;" horiz-adv-x="1062" d="M225 305l80 502q22 131 118.5 224t211.5 93h137q67 0 123 -42.5t90 -116.5l35 147h29l-177 -1112h-34l16 141q-58 -73 -126 -113t-136 -40h-137q-115 0 -182.5 93t-47.5 224zM266 305q-17 -115 40.5 -197.5t154.5 -82.5h137q69 0 139 50.5t129 141.5l109 692 q-33 81 -88.5 129.5t-120.5 48.5h-137q-97 0 -180.5 -82.5t-102.5 -197.5zM492 1327l2 16q13 77 38 112.5t80 35.5q40 0 83.5 -21t76 -45.5t76.5 -45.5t86 -21q28 0 45 20t22 54l9 49h41l-9 -56q-19 -108 -114 -108q-42 0 -88.5 21t-81 45.5t-76.5 45.5t-76 21 q-32 0 -46.5 -25t-24.5 -82l-3 -16h-40z" />
<glyph unicode="&#xe4;" horiz-adv-x="1062" d="M225 305l80 502q22 131 118.5 224t211.5 93h137q67 0 123 -42.5t90 -116.5l35 147h29l-177 -1112h-34l16 141q-58 -73 -126 -113t-136 -40h-137q-115 0 -182.5 93t-47.5 224zM266 305q-17 -115 40.5 -197.5t154.5 -82.5h137q69 0 139 50.5t129 141.5l109 692 q-33 81 -88.5 129.5t-120.5 48.5h-137q-97 0 -180.5 -82.5t-102.5 -197.5zM524 1325l33 211h45l-33 -211h-45zM911 1325l33 211h45l-33 -211h-45z" />
<glyph unicode="&#xe5;" horiz-adv-x="1062" d="M225 305l80 502q22 131 118.5 224t211.5 93h137q67 0 123 -42.5t90 -116.5l35 147h29l-177 -1112h-34l16 141q-58 -73 -126 -113t-136 -40h-137q-115 0 -182.5 93t-47.5 224zM266 305q-17 -115 40.5 -197.5t154.5 -82.5h137q69 0 139 50.5t129 141.5l109 692 q-33 81 -88.5 129.5t-120.5 48.5h-137q-97 0 -180.5 -82.5t-102.5 -197.5zM608 1415l6 27q11 71 66 123.5t121 52.5h14q65 0 104.5 -52.5t28.5 -123.5l-6 -27q-11 -71 -65.5 -123.5t-120.5 -52.5h-15q-65 0 -104.5 52.5t-28.5 123.5zM649 1415q-7 -55 23 -97t76 -42h14 q46 0 89 42t50 97l6 27q7 55 -22.5 97t-75.5 42h-14q-46 0 -89.5 -42t-50.5 -97z" />
<glyph unicode="&#xe6;" horiz-adv-x="1703" d="M215 233l23 146q14 88 96.5 148.5t191.5 78.5l412 68l31 188q15 92 -37.5 158.5t-138.5 66.5h-142q-84 0 -152.5 -47.5t-80.5 -119.5l-10 -72h-41l10 72q15 91 96.5 147.5t183.5 56.5h142q81 0 138 -49t71 -125q38 76 117 125t163 49h135q115 0 182.5 -89.5t47.5 -215.5 l-41 -260h-651l-41 -266q-19 -110 38.5 -189t155.5 -79h135q97 0 179.5 79t101.5 189l2 12h41l-2 -12q-20 -126 -116.5 -215.5t-211.5 -89.5h-135q-90 0 -152.5 56t-76.5 146q-71 -94 -160 -148t-174 -54h-135q-95 0 -152.5 73t-42.5 172zM256 233q-12 -84 35 -146t125 -62 h135q82 0 170.5 58t152.5 155q0 32 5 55l53 350l-412 -74q-86 -22 -158.5 -75t-82.5 -115zM967 596h610l35 223q19 110 -39.5 189t-155.5 79h-135q-96 0 -178.5 -73.5t-99.5 -179.5z" />
<glyph unicode="&#xe7;" horiz-adv-x="1044" d="M225 293l84 526q20 126 115.5 215.5t210.5 89.5h119q116 0 183.5 -89.5t47.5 -215.5l-4 -18h-41l4 18q17 110 -41 189t-155 79h-119q-98 0 -180 -79t-99 -189l-84 -526q-17 -110 40 -189t155 -79h119q97 0 180 79t100 189l4 22h41l-4 -22q-20 -126 -116.5 -215.5 t-211.5 -89.5h-28l-56 -107q54 -3 85.5 -43t31.5 -94q0 -74 -50.5 -121t-162.5 -47h-67l6 37h67q80 0 123 35t43 90q0 41 -25.5 73.5t-66.5 32.5h-47l76 144h-47q-115 0 -182.5 89.5t-47.5 215.5z" />
<glyph unicode="&#xe8;" d="M225 293l84 526q20 126 115.5 215.5t210.5 89.5h137q116 0 184 -89.5t48 -215.5l-41 -260h-656l-41 -266q-17 -110 40 -189t155 -79h137q97 0 180.5 79t100.5 189l2 12h41l-2 -12q-20 -126 -116.5 -215.5t-211.5 -89.5h-137q-115 0 -182.5 89.5t-47.5 215.5zM313 596h613 l37 223q17 110 -41.5 189t-155.5 79h-137q-98 0 -180 -79t-99 -189zM543 1499l28 37l357 -262l-29 -37z" />
<glyph unicode="&#xe9;" d="M225 293l84 526q20 126 115.5 215.5t210.5 89.5h137q116 0 184 -89.5t48 -215.5l-41 -260h-656l-41 -266q-17 -110 40 -189t155 -79h137q97 0 180.5 79t100.5 189l2 12h41l-2 -12q-20 -126 -116.5 -215.5t-211.5 -89.5h-137q-115 0 -182.5 89.5t-47.5 215.5zM313 596h613 l37 223q17 110 -41.5 189t-155.5 79h-137q-98 0 -180 -79t-99 -189zM526 1274l439 262l16 -37l-438 -262z" />
<glyph unicode="&#xea;" d="M225 293l84 526q20 126 115.5 215.5t210.5 89.5h137q116 0 184 -89.5t48 -215.5l-41 -260h-656l-41 -266q-17 -110 40 -189t155 -79h137q97 0 180.5 79t100.5 189l2 12h41l-2 -12q-20 -126 -116.5 -215.5t-211.5 -89.5h-137q-115 0 -182.5 89.5t-47.5 215.5zM313 596h613 l37 223q17 110 -41.5 189t-155.5 79h-137q-98 0 -180 -79t-99 -189zM508 1272l244 229h26l170 -229l-33 -33l-159 213l-226 -213z" />
<glyph unicode="&#xeb;" d="M225 293l84 526q20 126 115.5 215.5t210.5 89.5h137q116 0 184 -89.5t48 -215.5l-41 -260h-656l-41 -266q-17 -110 40 -189t155 -79h137q97 0 180.5 79t100.5 189l2 12h41l-2 -12q-20 -126 -116.5 -215.5t-211.5 -89.5h-137q-115 0 -182.5 89.5t-47.5 215.5zM313 596h613 l37 223q17 110 -41.5 189t-155.5 79h-137q-98 0 -180 -79t-99 -189zM518 1325l33 211h45l-33 -211h-45zM905 1325l33 211h45l-33 -211h-45z" />
<glyph unicode="&#xec;" horiz-adv-x="442" d="M201 0l176 1112h41l-176 -1112h-41zM258 1499l29 37l356 -262l-29 -37z" />
<glyph unicode="&#xed;" horiz-adv-x="442" d="M201 0l176 1112h41l-176 -1112h-41zM223 1274l439 262l16 -37l-438 -262z" />
<glyph unicode="&#xee;" horiz-adv-x="442" d="M201 0l176 1112h41l-176 -1112h-41zM205 1272l244 229h26l170 -229l-33 -33l-159 213l-226 -213z" />
<glyph unicode="&#xef;" horiz-adv-x="442" d="M201 0l176 1112h41l-176 -1112h-41zM215 1325l33 211h45l-33 -211h-45zM602 1325l33 211h45l-33 -211h-45z" />
<glyph unicode="&#xf0;" horiz-adv-x="1153" d="M244 293l47 295q20 126 115 215.5t210 89.5h203q72 0 128.5 -37.5t84.5 -101.5l66 417q12 81 -23 144l-162 -162l-20 33l162 160q-49 59 -125 59h-389l6 41h389q91 0 151 -66l160 158l21 -33l-156 -155q46 -78 31 -179l-139 -878q-20 -126 -116.5 -215.5t-211.5 -89.5 h-203q-115 0 -182 89.5t-47 215.5zM289 293q-17 -109 39 -186.5t153 -77.5h203q96 0 176.5 77.5t97.5 186.5l48 295q17 109 -39.5 186.5t-153.5 77.5h-203q-96 0 -176.5 -77.5t-97.5 -186.5z" />
<glyph unicode="&#xf1;" horiz-adv-x="1048" d="M201 0l176 1112h33l-17 -151q70 76 157.5 119.5t174.5 43.5h33q124 0 189 -77t44 -207l-133 -840h-41l133 846q18 109 -40.5 175t-157.5 66h-33q-87 0 -177.5 -49t-158.5 -137l-141 -901h-41zM494 1327l2 16q13 77 38 112.5t80 35.5q40 0 83.5 -21t76 -45.5t76.5 -45.5 t86 -21q28 0 45.5 20t22.5 54l8 49h41l-9 -56q-19 -108 -114 -108q-42 0 -88.5 21t-81 45.5t-76.5 45.5t-76 21q-32 0 -46.5 -25t-24.5 -82l-2 -16h-41z" />
<glyph unicode="&#xf2;" d="M225 293l84 526q20 126 115.5 215.5t210.5 89.5h137q116 0 184 -89.5t48 -215.5l-84 -526q-20 -126 -116.5 -215.5t-211.5 -89.5h-137q-115 0 -182.5 89.5t-47.5 215.5zM266 293q-17 -110 40 -189t155 -79h137q97 0 180.5 79t100.5 189l84 526q17 110 -41.5 189 t-155.5 79h-137q-98 0 -180 -79t-99 -189zM530 1499l29 37l356 -262l-28 -37z" />
<glyph unicode="&#xf3;" d="M225 293l84 526q20 126 115.5 215.5t210.5 89.5h137q116 0 184 -89.5t48 -215.5l-84 -526q-20 -126 -116.5 -215.5t-211.5 -89.5h-137q-115 0 -182.5 89.5t-47.5 215.5zM266 293q-17 -110 40 -189t155 -79h137q97 0 180.5 79t100.5 189l84 526q17 110 -41.5 189 t-155.5 79h-137q-98 0 -180 -79t-99 -189zM526 1274l439 262l16 -37l-438 -262z" />
<glyph unicode="&#xf4;" d="M225 293l84 526q20 126 115.5 215.5t210.5 89.5h137q116 0 184 -89.5t48 -215.5l-84 -526q-20 -126 -116.5 -215.5t-211.5 -89.5h-137q-115 0 -182.5 89.5t-47.5 215.5zM266 293q-17 -110 40 -189t155 -79h137q97 0 180.5 79t100.5 189l84 526q17 110 -41.5 189 t-155.5 79h-137q-98 0 -180 -79t-99 -189zM508 1272l244 229h26l170 -229l-33 -33l-159 213l-226 -213z" />
<glyph unicode="&#xf5;" d="M225 293l84 526q20 126 115.5 215.5t210.5 89.5h137q116 0 184 -89.5t48 -215.5l-84 -526q-20 -126 -116.5 -215.5t-211.5 -89.5h-137q-115 0 -182.5 89.5t-47.5 215.5zM266 293q-17 -110 40 -189t155 -79h137q97 0 180.5 79t100.5 189l84 526q17 110 -41.5 189 t-155.5 79h-137q-98 0 -180 -79t-99 -189zM465 1327l2 16q13 77 38.5 112.5t80.5 35.5q40 0 83.5 -21t75.5 -45.5t76 -45.5t86 -21q28 0 45.5 20t22.5 54l8 49h41l-8 -56q-19 -108 -115 -108q-42 0 -88.5 21t-80.5 45.5t-76 45.5t-76 21q-32 0 -47 -25t-25 -82l-2 -16h-41z " />
<glyph unicode="&#xf6;" d="M225 293l84 526q20 126 115.5 215.5t210.5 89.5h137q116 0 184 -89.5t48 -215.5l-84 -526q-20 -126 -116.5 -215.5t-211.5 -89.5h-137q-115 0 -182.5 89.5t-47.5 215.5zM266 293q-17 -110 40 -189t155 -79h137q97 0 180.5 79t100.5 189l84 526q17 110 -41.5 189 t-155.5 79h-137q-98 0 -180 -79t-99 -189zM518 1325l33 211h45l-33 -211h-45zM905 1325l33 211h45l-33 -211h-45z" />
<glyph unicode="&#xf8;" d="M70 -205l196 289q-59 85 -41 209l84 526q20 126 115.5 215.5t210.5 89.5h137q97 0 162 -65l176 258h47l-196 -289q61 -87 43 -209l-84 -526q-20 -126 -116.5 -215.5t-211.5 -89.5h-137q-97 0 -162 65l-176 -258h-47zM266 293q-15 -100 27 -170l616 899q-59 65 -143 65 h-137q-98 0 -180 -79t-99 -189zM317 88q54 -63 144 -63h137q97 0 180.5 79t100.5 189l84 526q15 94 -29 170z" />
<glyph unicode="&#xf9;" horiz-adv-x="1030" d="M233 272l134 840h41l-136 -846q-17 -109 41.5 -175t157.5 -66h33q80 0 165 47.5t150 132.5l146 907h41l-177 -1112h-32l14 147q-68 -74 -150 -116.5t-161 -42.5h-33q-124 0 -189.5 77t-44.5 207zM459 1499l28 37l357 -262l-29 -37z" />
<glyph unicode="&#xfa;" horiz-adv-x="1030" d="M233 272l134 840h41l-136 -846q-17 -109 41.5 -175t157.5 -66h33q80 0 165 47.5t150 132.5l146 907h41l-177 -1112h-32l14 147q-68 -74 -150 -116.5t-161 -42.5h-33q-124 0 -189.5 77t-44.5 207zM625 1274l438 262l16 -37l-438 -262z" />
<glyph unicode="&#xfb;" horiz-adv-x="1030" d="M233 272l134 840h41l-136 -846q-17 -109 41.5 -175t157.5 -66h33q80 0 165 47.5t150 132.5l146 907h41l-177 -1112h-32l14 147q-68 -74 -150 -116.5t-161 -42.5h-33q-124 0 -189.5 77t-44.5 207zM477 1272l244 229h27l170 -229l-33 -33l-160 213l-225 -213z" />
<glyph unicode="&#xfc;" horiz-adv-x="1030" d="M233 272l134 840h41l-136 -846q-17 -109 41.5 -175t157.5 -66h33q80 0 165 47.5t150 132.5l146 907h41l-177 -1112h-32l14 147q-68 -74 -150 -116.5t-161 -42.5h-33q-124 0 -189.5 77t-44.5 207zM508 1325l33 211h45l-33 -211h-45zM895 1325l33 211h45l-33 -211h-45z" />
<glyph unicode="&#xfd;" horiz-adv-x="880" d="M221 -424l205 426l-197 1110h43l185 -1044l501 1044h46l-738 -1536h-45zM442 1274l439 262l16 -37l-438 -262z" />
<glyph unicode="&#xfe;" horiz-adv-x="1073" d="M133 -424l311 1960h41l-88 -561q126 149 260 149h138q114 0 181.5 -93.5t45.5 -223.5l-80 -502q-20 -130 -117 -223.5t-211 -93.5h-137q-68 0 -123.5 39.5t-91.5 109.5l-88 -561h-41zM274 205q72 -180 209 -180h138q96 0 179.5 82.5t100.5 197.5l80 502q19 115 -39 197.5 t-154 82.5h-137q-66 0 -135 -46.5t-129 -127.5z" />
<glyph unicode="&#xff;" horiz-adv-x="880" d="M221 -424l205 426l-197 1110h43l185 -1044l501 1044h46l-738 -1536h-45zM434 1325l33 211h45l-33 -211h-45zM821 1325l33 211h45l-33 -211h-45z" />
<glyph unicode="&#x152;" horiz-adv-x="1882" d="M246 305l131 823q20 126 115 216t210 90h1203l-7 -41h-647l-98 -615h612l-6 -41h-612l-111 -696h666l-6 -41h-1221q-115 0 -182 89.5t-47 215.5zM291 305q-17 -109 39 -186.5t153 -77.5h508l215 1352h-510q-96 0 -176.5 -78t-97.5 -187z" />
<glyph unicode="&#x153;" horiz-adv-x="1703" d="M225 293l84 526q20 126 115.5 215.5t210.5 89.5h137q86 0 148 -52.5t81 -137.5q43 84 121.5 137t165.5 53h137q116 0 184 -89.5t48 -215.5l-41 -260h-655l-41 -266q-17 -111 39.5 -189.5t154.5 -78.5h137q97 0 180.5 79t100.5 189l2 12h41l-2 -12q-20 -126 -116.5 -215.5 t-211.5 -89.5h-137q-87 0 -148.5 52t-78.5 138q-45 -85 -123.5 -137.5t-165.5 -52.5h-137q-115 0 -182.5 89.5t-47.5 215.5zM266 293q-17 -110 40 -189t155 -79h137q97 0 180.5 79t100.5 189l84 526q17 110 -41.5 189t-155.5 79h-137q-98 0 -180 -79t-99 -189zM967 596h612 l37 223q17 110 -41.5 189t-155.5 79h-137q-98 0 -179.5 -78.5t-98.5 -189.5z" />
<glyph unicode="&#x178;" horiz-adv-x="1124" d="M336 1434h49l297 -777l510 777h51l-545 -820l-98 -614h-43l98 614zM610 1589l33 211h45l-33 -211h-45zM997 1589l33 211h45l-33 -211h-45z" />
<glyph unicode="&#x2c6;" horiz-adv-x="657" d="M309 1272l244 229h27l170 -229l-33 -33l-160 213l-225 -213z" />
<glyph unicode="&#x2dc;" horiz-adv-x="751" d="M319 1327l3 16q13 77 38 112.5t80 35.5q40 0 83.5 -21t76 -45.5t76.5 -45.5t86 -21q28 0 45 20t22 54l9 49h41l-9 -56q-19 -108 -114 -108q-42 0 -88.5 21t-81 45.5t-76.5 45.5t-76 21q-32 0 -47 -25t-25 -82l-2 -16h-41z" />
<glyph unicode="&#x2000;" horiz-adv-x="906" />
<glyph unicode="&#x2001;" horiz-adv-x="1812" />
<glyph unicode="&#x2002;" horiz-adv-x="906" />
<glyph unicode="&#x2003;" horiz-adv-x="1812" />
<glyph unicode="&#x2004;" horiz-adv-x="604" />
<glyph unicode="&#x2005;" horiz-adv-x="453" />
<glyph unicode="&#x2006;" horiz-adv-x="302" />
<glyph unicode="&#x2007;" horiz-adv-x="302" />
<glyph unicode="&#x2008;" horiz-adv-x="226" />
<glyph unicode="&#x2009;" horiz-adv-x="362" />
<glyph unicode="&#x200a;" horiz-adv-x="100" />
<glyph unicode="&#x2010;" horiz-adv-x="741" d="M205 612l6 41h524l-6 -41h-524z" />
<glyph unicode="&#x2011;" horiz-adv-x="741" d="M205 612l6 41h524l-6 -41h-524z" />
<glyph unicode="&#x2012;" horiz-adv-x="741" d="M205 612l6 41h524l-6 -41h-524z" />
<glyph unicode="&#x2013;" horiz-adv-x="925" d="M205 612l6 41h709l-7 -41h-708z" />
<glyph unicode="&#x2014;" horiz-adv-x="1165" d="M205 612l6 41h948l-6 -41h-948z" />
<glyph unicode="&#x2018;" horiz-adv-x="409" d="M354 1126l33 211q24 133 166 199l-8 -43q-49 -27 -79 -69t-38 -87l-33 -211h-41z" />
<glyph unicode="&#x2019;" horiz-adv-x="409" d="M276 1126l7 43q50 27 80 69t36 87l35 211h41l-35 -211q-19 -132 -164 -199z" />
<glyph unicode="&#x201a;" horiz-adv-x="409" d="M61 -199l7 43q49 27 79.5 69t36.5 87l35 211h41l-35 -211q-22 -133 -164 -199z" />
<glyph unicode="&#x201c;" horiz-adv-x="593" d="M354 1126l33 211q24 133 166 199l-8 -43q-49 -27 -79 -69t-38 -87l-33 -211h-41zM539 1126l32 211q24 133 166 199l-8 -43q-49 -27 -79 -69t-38 -87l-32 -211h-41z" />
<glyph unicode="&#x201d;" horiz-adv-x="593" d="M276 1126l7 43q50 27 80 69t36 87l35 211h41l-35 -211q-19 -132 -164 -199zM461 1126l6 43q50 27 80.5 69t36.5 87l34 211h41l-34 -211q-19 -132 -164 -199z" />
<glyph unicode="&#x201e;" horiz-adv-x="593" d="M61 -199l7 43q49 27 79.5 69t36.5 87l35 211h41l-35 -211q-22 -133 -164 -199zM246 -199l6 43q49 27 80 69.5t37 86.5l34 211h41l-34 -211q-22 -133 -164 -199z" />
<glyph unicode="&#x2022;" horiz-adv-x="532" d="M199 565l10 68q9 57 51.5 98t93.5 41h70q51 0 80 -41t20 -98l-10 -68q-9 -57 -51.5 -98t-93.5 -41h-70q-51 0 -80 41t-20 98z" />
<glyph unicode="&#x2026;" horiz-adv-x="1226" d="M184 0l33 211h41l-33 -211h-41zM594 0l33 211h41l-33 -211h-41zM1001 0l33 211h41l-33 -211h-41z" />
<glyph unicode="&#x202f;" horiz-adv-x="362" />
<glyph unicode="&#x2039;" horiz-adv-x="831" d="M205 518l8 51l629 416l-8 -49l-590 -391l467 -391l-9 -50z" />
<glyph unicode="&#x203a;" horiz-adv-x="831" d="M162 104l8 50l588 391l-465 391l8 49l498 -416l-8 -49z" />
<glyph unicode="&#x205f;" horiz-adv-x="453" />
<glyph unicode="&#x20ac;" horiz-adv-x="1226" d="M125 487l6 41h150l55 349h-150l7 41h149l37 223q20 126 115.5 215.5t210.5 89.5h276q116 0 183.5 -89.5t47.5 -215.5l-20 -129h-45l20 129q17 109 -39 186.5t-153 77.5h-277q-96 0 -176.5 -77.5t-97.5 -186.5l-37 -223h440l-6 -41h-440l-55 -349h440l-6 -41h-441 l-30 -194q-17 -109 39 -186.5t153 -77.5h277q96 0 176.5 77.5t97.5 186.5l23 141h45l-23 -141q-20 -126 -116 -215.5t-211 -89.5h-277q-115 0 -182 89.5t-47 215.5l30 194h-149z" />
<glyph unicode="&#x2122;" horiz-adv-x="1171" d="M264 1395l6 39h392l-7 -39h-170l-104 -662h-41l104 662h-180zM606 733l111 701h43l149 -504l301 504h43l-110 -701h-41l96 606l-272 -454h-43l-142 463l-96 -615h-39z" />
<glyph unicode="&#x25fc;" horiz-adv-x="1116" d="M0 0v1116h1116v-1116h-1116z" />
</font>
</defs>
</svg>
