<?xml version="1.0" standalone="no"?>
<!DOCTYPE svg PUBLIC "-//W3C//DTD SVG 1.1//EN" "http://www.w3.org/Graphics/SVG/1.1/DTD/svg11.dtd" >
<svg xmlns="http://www.w3.org/2000/svg">
<metadata></metadata>
<defs>
<font id="boxedlight" horiz-adv-x="1146" >
<font-face units-per-em="2048" ascent="1638" descent="-410" />
<missing-glyph horiz-adv-x="696" />
<glyph unicode="&#xfb01;" horiz-adv-x="1067" d="M57 1018v100h138v82q0 148 100.5 242t251.5 94h325v-98h-331q-94 0 -164 -70t-70 -168v-82h565v-1118h-112v1018h-453v-1018h-112v1018h-138z" />
<glyph unicode="&#xfb02;" horiz-adv-x="1067" d="M57 1018v100h138v82q0 148 100.5 242t251.5 94h325v-1536h-112v1438h-213q-97 0 -168.5 -70t-71.5 -168v-82h232v-100h-232v-1018h-112v1018h-138z" />
<glyph horiz-adv-x="0" />
<glyph horiz-adv-x="682" />
<glyph horiz-adv-x="0" />
<glyph horiz-adv-x="0" />
<glyph unicode="&#xd;" horiz-adv-x="696" />
<glyph unicode=" "  horiz-adv-x="696" />
<glyph unicode="&#x09;" horiz-adv-x="696" />
<glyph unicode="&#xa0;" horiz-adv-x="696" />
<glyph unicode="!" horiz-adv-x="499" d="M193 0v238h114v-238h-114zM193 420v1055h114v-1055h-114z" />
<glyph unicode="&#x22;" horiz-adv-x="624" d="M109 1552h118l-12 -436h-92zM395 1552h119l-10 -436h-94z" />
<glyph unicode="#" horiz-adv-x="1456" d="M74 375v106h248l86 486h-265v106h283l63 361h117l-63 -361h508l63 363h119l-64 -363h211v-106h-229l-84 -486h244v-106h-262l-66 -375h-119l66 375h-508l-66 -375h-118l65 375h-229zM440 481h508l84 486h-508z" />
<glyph unicode="$" horiz-adv-x="1247" d="M143 299v111h119v-93q0 -95 78.5 -159t194.5 -64h67v565q-71 30 -121.5 54.5t-109 61.5t-94 74t-60 88t-24.5 107v130q0 111 92.5 191.5t228.5 80.5h88v223h62v-223h41q153 0 255.5 -87t102.5 -208v-129h-119v108q0 89 -72.5 149t-177.5 60h-30v-575q49 -20 71.5 -29.5 t68.5 -29.5t69 -32t60.5 -33t57.5 -37t45 -39t37.5 -44t21.5 -47t9 -53v-137q0 -133 -109.5 -214t-279.5 -81h-51v-217h-62v217h-72q-165 0 -276 91.5t-111 219.5zM311 1051q0 -42 22 -79t66 -69.5t89.5 -57t113.5 -54.5v548h-72q-91 0 -155 -53t-64 -131v-104zM664 94h41 q122 0 201 56t79 153v100q0 28 -18.5 54.5t-43.5 47t-74 45.5t-84.5 40.5t-100.5 42.5v-539z" />
<glyph unicode="%" horiz-adv-x="1437" d="M109 965v286q0 80 60 137.5t150 57.5h87q89 0 146.5 -57.5t57.5 -137.5v-286q0 -80 -57.5 -137.5t-146.5 -57.5h-87q-90 0 -150 57.5t-60 137.5zM213 975q0 -47 32 -79t77 -32h77q45 0 77 32t32 79v266q0 46 -32.5 78.5t-76.5 32.5h-77q-44 0 -76.5 -32.5t-32.5 -78.5 v-266zM412 0l499 1434h113l-502 -1434h-110zM831 182v287q0 80 60 137.5t149 57.5h86q90 0 148.5 -57.5t58.5 -137.5v-287q0 -80 -58.5 -137t-148.5 -57h-86q-89 0 -149 57.5t-60 136.5zM934 193q0 -47 32 -79t78 -32h76q46 0 78.5 32t32.5 79v266q0 46 -32.5 78t-78.5 32 h-76q-46 0 -78 -32t-32 -78v-266z" />
<glyph unicode="&#x26;" horiz-adv-x="1312" d="M170 299v240q0 83 47 152t127 106q-57 38 -89 96.5t-32 124.5v156q0 111 85.5 191.5t211.5 80.5h223q124 0 207.5 -80.5t83.5 -191.5v-89h-114v72q0 79 -54.5 132.5t-130.5 53.5h-213q-76 0 -130 -53.5t-54 -132.5v-123q0 -78 54 -131t130 -53h715v-105h-152v-446 q0 -128 -94.5 -219.5t-234.5 -91.5h-250q-143 0 -239.5 91.5t-96.5 219.5zM287 315q0 -95 64 -160t157 -65h240q93 0 157 65t64 160v430h-461q-93 0 -157 -64t-64 -159v-207z" />
<glyph unicode="'" horiz-adv-x="335" d="M109 1552h118l-12 -436h-92z" />
<glyph unicode="(" horiz-adv-x="616" d="M152 111v1007q0 146 99 237t251 91h63v-103h-63q-97 0 -166.5 -65t-69.5 -160v-1007q0 -95 69.5 -160.5t166.5 -65.5h63v-102h-63q-152 0 -251 91t-99 237z" />
<glyph unicode=")" horiz-adv-x="616" d="M57 -115h64q97 0 166 65.5t69 160.5v1007q0 95 -69 160t-166 65h-64v103h64q154 0 253 -91t99 -237v-1007q0 -146 -99 -237t-253 -91h-64v102z" />
<glyph unicode="*" horiz-adv-x="1021" d="M106 1200l33 105l318 -103v334h108v-334l318 103l32 -105l-313 -102l193 -271l-86 -65l-199 272l-197 -272l-86 65l195 271z" />
<glyph unicode="+" horiz-adv-x="882" d="M113 565v109h274v274h109v-274h274v-109h-274v-274h-109v274h-274z" />
<glyph unicode="," horiz-adv-x="475" d="M78 -145q49 19 76.5 60t27.5 85v236h113v-236q0 -101 -60.5 -167t-156.5 -89v111z" />
<glyph unicode="-" horiz-adv-x="823" d="M119 571v105h586v-105h-586z" />
<glyph unicode="." horiz-adv-x="475" d="M182 0v236h113v-236h-113z" />
<glyph unicode="/" horiz-adv-x="1157" d="M100 0l799 1434h127l-799 -1434h-127z" />
<glyph unicode="0" horiz-adv-x="1251" d="M186 299v836q0 128 97.5 219.5t242.5 91.5h205q143 0 238.5 -91.5t95.5 -219.5v-836q0 -128 -95.5 -219.5t-238.5 -91.5h-205q-145 0 -242.5 91.5t-97.5 219.5zM305 317q0 -95 65.5 -159t161.5 -64h189q94 0 159.5 64t65.5 159v799q0 95 -65.5 159t-159.5 64h-189 q-96 0 -161.5 -64t-65.5 -159v-799z" />
<glyph unicode="1" horiz-adv-x="864" d="M78 0v106h295v1221l-295 -153v104l295 156h119v-1328h299v-106h-713z" />
<glyph unicode="2" horiz-adv-x="1189" d="M160 0v217q0 152 125 270q49 47 160 111t218 127t152 111q84 87 84 192v88q0 95 -65.5 159t-161.5 64h-142q-96 0 -161.5 -64t-65.5 -159v-94h-119v113q0 128 97 219.5t241 91.5h158q144 0 241 -94.5t97 -227.5v-129q0 -133 -109 -237q-48 -48 -161 -113t-224.5 -130 t-158.5 -114q-82 -82 -82 -204v-93h757v-104h-880z" />
<glyph unicode="3" horiz-adv-x="1220" d="M170 301v94h119v-76q0 -96 66 -160.5t161 -64.5h189q94 0 160.5 69.5t66.5 170.5v143q0 94 -73 158.5t-177 64.5h-135v107h125q86 0 145.5 56.5t59.5 140.5v139q0 84 -56.5 140t-136.5 56h-143q-76 0 -130.5 -56t-54.5 -140v-66h-116v84q0 116 85 200.5t212 84.5h157 q127 0 214 -84.5t87 -200.5v-174q0 -68 -36.5 -128t-100.5 -99q88 -37 140.5 -108.5t52.5 -155.5v-181q0 -134 -96 -229.5t-240 -95.5h-203q-146 0 -244 91.5t-98 219.5z" />
<glyph unicode="4" horiz-adv-x="1071" d="M102 385v107l586 942h119v-942h203v-107h-203v-385h-119v385h-586zM221 492h467v749z" />
<glyph unicode="5" horiz-adv-x="1220" d="M186 301v94h119v-76q0 -96 65.5 -160.5t161.5 -64.5h158q94 0 159.5 69.5t65.5 170.5v221q0 95 -58.5 159t-143.5 64h-451v656h707v-107h-588v-442h342q133 0 222 -92.5t89 -219.5v-258q0 -134 -95.5 -229.5t-238.5 -95.5h-174q-145 0 -242.5 91.5t-97.5 219.5z" />
<glyph unicode="6" horiz-adv-x="1251" d="M186 299v836q0 128 97.5 219.5t242.5 91.5h205q143 0 238.5 -91.5t95.5 -219.5v-62h-119v43q0 95 -65.5 159t-159.5 64h-189q-96 0 -161.5 -64t-65.5 -159v-317q108 94 221 94h205q143 0 238.5 -91.5t95.5 -219.5v-283q0 -128 -95.5 -219.5t-238.5 -91.5h-205 q-145 0 -242.5 91.5t-97.5 219.5zM305 317q0 -95 65.5 -159t161.5 -64h189q94 0 159.5 64t65.5 159v246q0 95 -65.5 159t-159.5 64h-189q-96 0 -161.5 -64t-65.5 -159v-246z" />
<glyph unicode="7" horiz-adv-x="1034" d="M109 1337v107h843v-107l-663 -1337h-119l664 1337h-725z" />
<glyph unicode="8" horiz-adv-x="1220" d="M170 299v182q0 89 53.5 163.5t143.5 111.5q-75 40 -118.5 110.5t-43.5 153.5v115q0 128 95.5 219.5t236.5 91.5h147q143 0 239.5 -91.5t96.5 -219.5v-115q0 -82 -44.5 -153t-119.5 -111q88 -37 141.5 -111.5t53.5 -163.5v-182q0 -128 -96 -219.5t-240 -91.5h-203 q-146 0 -244 91.5t-98 219.5zM289 317q0 -95 66.5 -159t160.5 -64h189q94 0 160.5 64t66.5 159v156q0 95 -66.5 159t-160.5 64h-189q-94 0 -160.5 -64t-66.5 -159v-156zM324 1026q0 -95 64 -159t155 -64h139q91 0 155 64t64 159v90q0 95 -64 159t-155 64h-139 q-91 0 -155 -64t-64 -159v-90z" />
<glyph unicode="9" horiz-adv-x="1251" d="M186 299v61h119v-43q0 -95 65.5 -159t161.5 -64h189q94 0 159.5 64t65.5 159v312q-101 -88 -221 -88h-203q-144 0 -240 91.5t-96 219.5v283q0 128 96 219.5t240 91.5h203q145 0 242.5 -91.5t97.5 -219.5v-836q0 -128 -97.5 -219.5t-242.5 -91.5h-203q-144 0 -240 91.5 t-96 219.5zM305 870q0 -95 65.5 -159t161.5 -64h189q92 0 158.5 61.5t66.5 151.5v256q0 95 -65.5 159t-159.5 64h-189q-96 0 -161.5 -64t-65.5 -159v-246z" />
<glyph unicode=":" horiz-adv-x="475" d="M182 0v236h113v-236h-113zM182 874v236h113v-236h-113z" />
<glyph unicode=";" horiz-adv-x="475" d="M78 -145v-111q96 23 156.5 89t60.5 167v236h-113v-236q0 -44 -27.5 -85t-76.5 -60zM182 874v236h113v-236h-113z" />
<glyph unicode="&#x3c;" horiz-adv-x="1122" d="M113 489v127l897 390v-117l-777 -336l777 -322v-118z" />
<glyph unicode="=" horiz-adv-x="927" d="M82 322v102h764v-102h-764zM82 690v103h764v-103h-764z" />
<glyph unicode="&#x3e;" horiz-adv-x="1122" d="M113 113v118l776 322l-776 336v117l897 -390v-127z" />
<glyph unicode="?" horiz-adv-x="1081" d="M70 1004v131q0 128 96.5 219.5t239.5 91.5h161q145 0 242.5 -91.5t97.5 -219.5v-154q0 -103 -76 -182q-30 -37 -131 -114.5t-127 -104.5q-69 -72 -69 -152v-84h-119v115q0 119 94 200q27 27 134.5 107t134.5 119q43 49 43 114v117q0 94 -66.5 158.5t-161.5 64.5h-147 q-95 0 -161.5 -64.5t-66.5 -158.5v-112h-118zM385 0v236h119v-236h-119z" />
<glyph unicode="@" horiz-adv-x="1986" d="M172 -72v1268q0 126 89 214.5t222 88.5h1018q134 0 224 -88.5t90 -214.5v-893q0 -125 -90.5 -214t-223.5 -89h-211l-20 137q-62 -71 -139 -110t-156 -39h-133q-116 0 -195.5 77t-79.5 181v614q0 105 79.5 181.5t195.5 76.5h530v-1018h115q89 0 152 63t63 154v867 q0 90 -63.5 152.5t-151.5 62.5h-987q-90 0 -152.5 -62.5t-62.5 -152.5v-1241q0 -92 62.5 -154.5t152.5 -62.5h899v-101h-916q-132 0 -221.5 89t-89.5 214zM680 260q0 -70 52.5 -121t123.5 -51h125q78 0 154 45t125 121v764h-404q-71 0 -123.5 -51t-52.5 -121v-586z" />
<glyph unicode="A" horiz-adv-x="1337" d="M102 0l508 1444h119l506 -1444h-121l-160 461h-573l-158 -461h-121zM418 567h500l-250 723z" />
<glyph unicode="B" horiz-adv-x="1286" d="M211 0v1434h498q143 0 239 -92t96 -220v-125q0 -72 -37.5 -135.5t-103.5 -105.5q106 -34 172 -117.5t66 -187.5v-117q0 -139 -96 -236.5t-240 -97.5h-594zM330 106h465q96 0 161.5 64.5t65.5 159.5v125q0 99 -72.5 166t-177.5 67h-442v-582zM330 795h368q95 0 161.5 59.5 t66.5 146.5v117q0 88 -66.5 148.5t-161.5 60.5h-368v-532z" />
<glyph unicode="C" horiz-adv-x="1300" d="M186 299v836q0 128 97.5 219.5t242.5 91.5h252q143 0 239.5 -91.5t96.5 -219.5v-144h-119v125q0 95 -65.5 159t-161.5 64h-236q-96 0 -161.5 -64t-65.5 -159v-799q0 -95 65.5 -159t161.5 -64h236q96 0 161.5 64t65.5 159v136h119v-154q0 -128 -96.5 -219.5t-239.5 -91.5 h-252q-145 0 -242.5 91.5t-97.5 219.5z" />
<glyph unicode="D" horiz-adv-x="1357" d="M211 0v1434h625q144 0 239.5 -92t95.5 -220v-811q0 -128 -95.5 -219.5t-239.5 -91.5h-625zM330 106h495q96 0 162 64.5t66 159.5v774q0 95 -66 159t-162 64h-495v-1221z" />
<glyph unicode="E" horiz-adv-x="1214" d="M211 0v1434h799v-105h-680v-528h633v-105h-633v-590h700v-106h-819z" />
<glyph unicode="F" horiz-adv-x="1173" d="M211 0v1434h815v-105h-696v-563h659v-104h-659v-662h-119z" />
<glyph unicode="G" horiz-adv-x="1333" d="M186 299v836q0 128 97.5 219.5t242.5 91.5h285q144 0 240 -91.5t96 -219.5v-144h-119v125q0 95 -65.5 159t-161.5 64h-269q-96 0 -161.5 -64t-65.5 -159v-799q0 -95 65.5 -159t161.5 -64h269q96 0 161.5 64t65.5 159v289h-373v105h492v-412q0 -128 -96 -219.5t-240 -91.5 h-285q-145 0 -242.5 91.5t-97.5 219.5z" />
<glyph unicode="H" horiz-adv-x="1382" d="M211 0v1434h119v-641h723v643h118v-1436h-118v686h-723v-686h-119z" />
<glyph unicode="I" horiz-adv-x="540" d="M211 0v1434h119v-1434h-119z" />
<glyph unicode="J" horiz-adv-x="579" d="M-106 -319h77q117 0 198 78.5t81 195.5v1479h119v-1479q0 -166 -114 -272.5t-284 -106.5h-77v105z" />
<glyph unicode="K" horiz-adv-x="1273" d="M211 0v1434h119v-650h233l404 650h133l-434 -697l530 -737h-137l-484 678h-245v-678h-119z" />
<glyph unicode="L" horiz-adv-x="1015" d="M211 0v1434h119v-1328h624v-106h-743z" />
<glyph unicode="M" horiz-adv-x="1654" d="M211 0v1434h127l491 -998l494 998h123v-1434h-119v1210l-446 -903h-107l-444 899v-1206h-119z" />
<glyph unicode="N" horiz-adv-x="1382" d="M211 0v1434h123l719 -1225v1227h118v-1436h-122l-719 1227v-1227h-119z" />
<glyph unicode="O" horiz-adv-x="1333" d="M186 299v836q0 128 97.5 219.5t242.5 91.5h285q144 0 240 -91.5t96 -219.5v-836q0 -128 -96 -219.5t-240 -91.5h-285q-145 0 -242.5 91.5t-97.5 219.5zM305 317q0 -95 65.5 -159t161.5 -64h269q96 0 161.5 64t65.5 159v799q0 95 -65.5 159t-161.5 64h-269 q-96 0 -161.5 -64t-65.5 -159v-799z" />
<glyph unicode="P" horiz-adv-x="1239" d="M211 0v1434h522q155 0 257 -83t102 -206v-295q0 -122 -96.5 -214.5t-237.5 -92.5h-428v-543h-119zM330 649h418q94 0 160.5 65t66.5 156v256q0 89 -72 145t-180 56h-393v-678z" />
<glyph unicode="Q" horiz-adv-x="1333" d="M186 299v836q0 128 97.5 219.5t242.5 91.5h285q144 0 240 -91.5t96 -219.5v-836q0 -128 -96 -219.5t-240 -91.5h-39l197 -357l-107 -49l-221 406h-115q-145 0 -242.5 91.5t-97.5 219.5zM305 317q0 -95 65.5 -159t161.5 -64h269q96 0 161.5 64t65.5 159v799 q0 95 -65.5 159t-161.5 64h-269q-96 0 -161.5 -64t-65.5 -159v-799z" />
<glyph unicode="R" horiz-adv-x="1312" d="M211 0v1434h553q155 0 256.5 -83t101.5 -206v-295q0 -96 -79 -178.5t-199 -100.5l282 -571h-127l-282 567h-387v-567h-119zM330 672h448q93 0 160.5 59.5t67.5 136.5v258q0 89 -72 145t-180 56h-424v-655z" />
<glyph unicode="S" horiz-adv-x="1247" d="M143 299v111h119v-93q0 -95 78.5 -159t194.5 -64h170q122 0 201 56t79 153v100q0 44 -43.5 84.5t-113.5 73.5t-154.5 67t-169 74.5t-154.5 87t-113.5 112t-43.5 142.5v130q0 111 92.5 191.5t228.5 80.5h191q153 0 255.5 -87t102.5 -208v-129h-119v108q0 89 -72.5 149 t-177.5 60h-164q-91 0 -155 -53t-64 -131v-104q0 -57 43.5 -107t113.5 -88t155 -74t169.5 -73t154.5 -77t113.5 -94.5t43.5 -117.5v-137q0 -133 -109.5 -214t-279.5 -81h-185q-165 0 -276 91.5t-111 219.5z" />
<glyph unicode="T" horiz-adv-x="1011" d="M53 1329v105h903v-105h-383v-1329h-118v1329h-402z" />
<glyph unicode="U" horiz-adv-x="1341" d="M195 299v1135h118v-1117q0 -94 66.5 -158.5t161.5 -64.5h260q94 0 159.5 64t65.5 159v1117h119v-1135q0 -128 -95.5 -219.5t-238.5 -91.5h-274q-146 0 -244 91.5t-98 219.5z" />
<glyph unicode="V" horiz-adv-x="1337" d="M102 1434h121l447 -1282l444 1282h121l-506 -1434h-119z" />
<glyph unicode="W" horiz-adv-x="2064" d="M102 1434h125l371 -1268l373 1268h123l372 -1264l371 1264h125l-436 -1434h-119l-375 1231l-375 -1231h-118z" />
<glyph unicode="X" horiz-adv-x="1312" d="M98 0l494 750l-447 684h134l385 -590l378 590h134l-445 -695l486 -739h-134l-424 649l-430 -649h-131z" />
<glyph unicode="Y" horiz-adv-x="1261" d="M102 1434h125l416 -729l395 729h121l-454 -836v-598h-119v598z" />
<glyph unicode="Z" horiz-adv-x="1189" d="M123 0v106l782 1223h-751v105h882v-105l-774 -1223h805v-106h-944z" />
<glyph unicode="[" horiz-adv-x="585" d="M211 -233v1667h297v-107h-180v-1454h196v-106h-313z" />
<glyph unicode="\" horiz-adv-x="1157" d="M100 1434h127l799 -1434h-127z" />
<glyph unicode="]" horiz-adv-x="585" d="M61 -127h197v1454h-180v107h297v-1667h-314v106z" />
<glyph unicode="^" horiz-adv-x="804" d="M102 1145l238 389h119l243 -389h-120l-183 291l-176 -291h-121z" />
<glyph unicode="_" horiz-adv-x="862" d="M0 -125h862v-102h-862v102z" />
<glyph unicode="`" horiz-adv-x="714" d="M106 1462l44 94l458 -245l-39 -84z" />
<glyph unicode="a" horiz-adv-x="1161" d="M168 246v129q0 103 89.5 169t219.5 85l383 53v149q0 84 -60.5 141.5t-144.5 57.5h-116q-84 0 -143.5 -46t-59.5 -116v-51h-113v57q0 109 87 182.5t216 73.5h140q130 0 218.5 -85t88.5 -205v-840h-80l-23 135q-62 -70 -138.5 -108.5t-153.5 -38.5h-136q-115 0 -194.5 77.5 t-79.5 180.5zM281 256q0 -69 52.5 -118.5t123.5 -49.5h125q77 0 152 44t126 118v342l-373 -62q-85 -13 -145.5 -58.5t-60.5 -106.5v-109z" />
<glyph unicode="b" horiz-adv-x="1171" d="M195 0v1536h112v-526q111 120 250 120h135q131 0 219 -98t88 -235v-473q0 -139 -88 -237.5t-219 -98.5h-141q-144 0 -256 131l-19 -119h-81zM307 240q45 -71 107.5 -111.5t132.5 -40.5h117q93 0 158 68.5t65 167.5v471q0 99 -65.5 167t-157.5 68h-119q-69 0 -130.5 -38.5 t-107.5 -104.5v-647z" />
<glyph unicode="c" horiz-adv-x="1126" d="M170 305v504q0 132 94.5 226.5t235.5 94.5h131q138 0 230.5 -94.5t92.5 -226.5v-35h-112v29q0 96 -66.5 161.5t-159.5 65.5h-108q-93 0 -159 -65.5t-66 -161.5v-488q0 -96 66 -161.5t159 -65.5h108q93 0 159.5 65.5t66.5 161.5v31h112v-41q0 -131 -92.5 -224t-230.5 -93 h-131q-141 0 -235.5 93t-94.5 224z" />
<glyph unicode="d" horiz-adv-x="1171" d="M170 324v473q0 137 88.5 235t218.5 98h137q133 0 248 -118v524h113v-1536h-80l-21 119q-112 -131 -256 -131h-141q-130 0 -218.5 99t-88.5 237zM283 324q0 -99 65.5 -167.5t157.5 -68.5h119q67 0 129 39.5t108 110.5v651q-44 64 -106.5 102.5t-128.5 38.5h-119 q-93 0 -159 -68t-66 -167v-471z" />
<glyph unicode="e" d="M170 305v504q0 132 94.5 226.5t235.5 94.5h151q138 0 231 -94.5t93 -226.5v-283h-692v-211q0 -96 66 -161.5t159 -65.5h129q93 0 159 65.5t66 161.5v9h113v-19q0 -131 -93 -224t-231 -93h-151q-141 0 -235.5 93t-94.5 224zM283 618h579v185q0 96 -66 161.5t-159 65.5 h-129q-93 0 -159 -65.5t-66 -161.5v-185z" />
<glyph unicode="f" horiz-adv-x="563" d="M57 1018v100h138v82q0 148 100.5 242t251.5 94v-98q-97 0 -168.5 -70t-71.5 -168v-82h232v-100h-232v-1018h-112v1018h-138z" />
<glyph unicode="g" horiz-adv-x="1171" d="M170 324v473q0 137 88.5 235t218.5 98h137q143 0 260 -133l21 121h80v-1231q0 -128 -96 -219.5t-240 -91.5h-127q-139 0 -236.5 85t-103.5 206v16l111 11l2 -17q6 -87 71.5 -146t157.5 -59h119q95 0 162 65t67 161v206q-110 -116 -244 -116h-141q-130 0 -218.5 99 t-88.5 237zM283 324q0 -99 65 -167.5t158 -68.5h119q67 0 129.5 38t107.5 105v654q-43 68 -105 106.5t-130 38.5h-119q-93 0 -159 -68t-66 -167v-471z" />
<glyph unicode="h" horiz-adv-x="1155" d="M195 0v1536h112v-539q62 62 140 97.5t159 35.5h51q138 0 224 -85t86 -220v-825h-113v823q0 95 -63.5 151t-159.5 56h-41q-80 0 -157 -40.5t-126 -110.5v-879h-112z" />
<glyph unicode="i" horiz-adv-x="503" d="M195 0v1118h112v-1118h-112zM195 1300v236h112v-236h-112z" />
<glyph unicode="j" horiz-adv-x="505" d="M-57 -326q107 0 180.5 57.5t73.5 139.5v1247h112v-1247q0 -132 -102 -213.5t-264 -81.5v98zM195 1300v236h112v-236h-112z" />
<glyph unicode="k" horiz-adv-x="1062" d="M195 0v1536h112v-848h150l366 430h138l-420 -475l487 -643h-129l-442 588h-150v-588h-112z" />
<glyph unicode="l" horiz-adv-x="503" d="M195 0v1536h112v-1536h-112z" />
<glyph unicode="m" horiz-adv-x="1812" d="M195 0v1118h81l21 -131q64 67 144.5 105t164.5 38h51q96 0 169 -43.5t110 -119.5q65 76 151.5 119.5t176.5 43.5h51q139 0 224 -84.5t85 -220.5v-825h-113v823q0 95 -63.5 151t-159.5 56h-39q-84 0 -160.5 -41.5t-125.5 -114.5q4 -32 4 -49v-825h-113v823q0 95 -63.5 151 t-159.5 56h-41q-80 0 -157 -40.5t-126 -110.5v-879h-112z" />
<glyph unicode="n" horiz-adv-x="1155" d="M195 0v1118h81l21 -131q64 67 144.5 105t164.5 38h51q138 0 224 -85t86 -220v-825h-113v823q0 95 -63.5 151t-159.5 56h-41q-80 0 -157 -40.5t-126 -110.5v-879h-112z" />
<glyph unicode="o" d="M170 305v504q0 132 94.5 226.5t235.5 94.5h151q138 0 231 -94.5t93 -226.5v-504q0 -131 -93 -224t-231 -93h-151q-141 0 -235.5 93t-94.5 224zM283 315q0 -96 66 -161.5t159 -65.5h129q93 0 159 65.5t66 161.5v488q0 96 -66 161.5t-159 65.5h-129q-93 0 -159 -65.5 t-66 -161.5v-488z" />
<glyph unicode="p" horiz-adv-x="1171" d="M195 -424v1542h81l19 -123q116 135 262 135h135q131 0 219 -98t88 -235v-473q0 -139 -88 -237.5t-219 -98.5h-141q-136 0 -244 118v-530h-112zM307 240q45 -71 107.5 -111.5t132.5 -40.5h117q93 0 158 68.5t65 167.5v471q0 99 -65.5 167t-157.5 68h-119 q-69 0 -130.5 -38.5t-107.5 -104.5v-647z" />
<glyph unicode="q" horiz-adv-x="1171" d="M170 324v473q0 137 88.5 235t218.5 98h137q143 0 260 -133l21 121h80v-1542h-113v528q-110 -116 -244 -116h-141q-130 0 -218.5 99t-88.5 237zM283 324q0 -99 65.5 -167.5t157.5 -68.5h119q67 0 129 39.5t108 110.5v651q-44 64 -106.5 102.5t-128.5 38.5h-119 q-93 0 -159 -68t-66 -167v-471z" />
<glyph unicode="r" horiz-adv-x="755" d="M195 0v1118h81l21 -186q66 89 153 139.5t175 50.5h86v-100h-97q-84 0 -170 -60.5t-137 -162.5v-799h-112z" />
<glyph unicode="s" horiz-adv-x="1128" d="M166 229v64h113v-60q0 -59 57.5 -102t142.5 -43h189q74 0 129 45.5t55 104.5v94q0 40 -36 70t-94 49.5t-127.5 37.5t-139.5 41t-128 53t-94 80t-36 115v113q0 97 81.5 168t206.5 71h138q128 0 214.5 -69t86.5 -174v-60h-107v58q0 64 -59.5 104.5t-141.5 40.5h-120 q-75 0 -130 -43t-55 -100v-96q0 -48 36 -84t93.5 -58.5t127 -42t139 -41.5t127 -49.5t93.5 -73t36 -104.5v-107q0 -100 -84 -171.5t-207 -71.5h-203q-130 0 -216.5 72t-86.5 169z" />
<glyph unicode="t" horiz-adv-x="632" d="M51 1018v100h154l33 316h79v-316h234v-100h-234v-727q0 -85 66 -145t164 -60v-98q-160 0 -251 82t-91 221v727h-154z" />
<glyph unicode="u" horiz-adv-x="1138" d="M188 293v825h113v-823q0 -95 63.5 -151t159.5 -56h39q75 0 146 37t120 104v889h113v-1118h-80l-20 123q-132 -135 -295 -135h-49q-139 0 -224.5 84.5t-85.5 220.5z" />
<glyph unicode="v" horiz-adv-x="993" d="M47 1118h117l338 -981l325 981h119l-379 -1118h-127z" />
<glyph unicode="w" horiz-adv-x="1630" d="M47 1118h117l295 -973l295 973h120l306 -973l286 973h117l-338 -1118h-127l-303 954l-291 -954h-125z" />
<glyph unicode="x" horiz-adv-x="1089" d="M90 0l389 575l-366 543h131l303 -450l297 450h133l-363 -549l385 -569h-129l-325 477l-328 -477h-127z" />
<glyph unicode="y" horiz-adv-x="1019" d="M49 1118h117l348 -956l340 956h117l-547 -1542h-117l150 426z" />
<glyph unicode="z" horiz-adv-x="1036" d="M127 0v100l629 918h-606v100h739v-100l-631 -918h666v-100h-797z" />
<glyph unicode="{" horiz-adv-x="720" d="M86 561v103h68q60 0 103.5 44t43.5 105v381q0 114 90 183t230 69h10v-103h-10q-85 0 -144 -42.5t-59 -106.5v-387q0 -55 -32 -106.5t-85 -88.5q53 -36 85 -88t32 -106v-387q0 -63 59 -106.5t144 -43.5h10v-102h-10q-140 0 -230 69t-90 183v383q0 61 -46.5 104t-111.5 43 h-57z" />
<glyph unicode="|" horiz-adv-x="536" d="M211 -471v2048h117v-2048h-117z" />
<glyph unicode="}" horiz-adv-x="720" d="M92 -119h10q85 0 144 43.5t59 106.5v387q0 54 32 106t85 88q-53 37 -85 88.5t-32 106.5v387q0 64 -59 106.5t-144 42.5h-10v103h10q140 0 230 -69t90 -183v-381q0 -61 43.5 -105t103.5 -44h68v-103h-57q-65 0 -111.5 -43t-46.5 -104v-383q0 -114 -90 -183t-230 -69h-10 v102z" />
<glyph unicode="~" horiz-adv-x="880" d="M109 446v86q0 86 27.5 127t101.5 41q44 0 98.5 -22.5t98 -50t96.5 -50t94 -22.5q55 0 55 61v86h92v-114q0 -131 -123 -131q-51 0 -112 22.5t-106 49t-92.5 49t-76.5 22.5q-35 0 -48 -21t-13 -67v-66h-92z" />
<glyph unicode="&#xa1;" horiz-adv-x="499" d="M193 -348v1046h114v-1046h-114zM193 881v237h114v-237h-114z" />
<glyph unicode="&#xa2;" horiz-adv-x="1140" d="M170 299v520q0 128 96.5 219.5t239.5 91.5h29v302h98v-302h12q140 0 235 -91.5t95 -219.5v-45h-113v29q0 96 -66 161.5t-159 65.5h-129q-93 0 -159 -65.5t-66 -161.5v-488q0 -96 66 -161.5t159 -65.5h129q93 0 159 65.5t66 161.5v31h113v-47q0 -128 -95 -219.5 t-235 -91.5h-12v-303h-98v303h-29q-143 0 -239.5 91.5t-96.5 219.5z" />
<glyph unicode="&#xa3;" horiz-adv-x="1277" d="M66 0v106h176v574h-176v106h176v349q0 128 97.5 219.5t242.5 91.5h174q143 0 239.5 -91.5t96.5 -219.5v-144h-119v125q0 94 -66.5 158.5t-161.5 64.5h-157q-96 0 -162 -64t-66 -159v-330h338v-106h-338v-574h654v230h119v-336h-1067z" />
<glyph unicode="&#xa5;" horiz-adv-x="1261" d="M102 1434h125l416 -715l395 715h121l-414 -748h289v-104h-329v-209h329v-103h-329v-270h-119v270h-357v103h357v209h-357v104h314z" />
<glyph unicode="&#xa7;" horiz-adv-x="1247" d="M137 -47h119v-47q0 -95 78 -159t194 -64h170q122 0 201.5 53.5t79.5 146.5v56q0 39 -34 75.5t-90 65t-127 60.5t-145.5 61.5t-145.5 69t-127 82t-90 102t-34 127.5v114q0 114 97 201q-97 90 -97 201v76q0 111 94.5 191.5t233.5 80.5h176q155 0 259 -87t104 -208v-66h-117 v45q0 89 -73 149t-179 60h-160q-92 0 -155.5 -51t-63.5 -127v-59q0 -56 43.5 -105.5t113 -87t154 -73t168.5 -73.5t153.5 -79t113 -98t43.5 -123v-115q0 -138 -107 -221q111 -80 111 -180v-76q0 -133 -109 -214t-280 -81h-185q-165 0 -276 91.5t-111 219.5v66zM303 580 q0 -52 35 -97.5t101.5 -84t131.5 -67.5t158 -68.5t148 -67.5q98 56 98 165v103q0 53 -63 102t-145 82.5t-199.5 84t-188.5 93.5q-76 -59 -76 -141v-104z" />
<glyph unicode="&#xa8;" horiz-adv-x="765" d="M109 1307v237h114v-237h-114zM543 1307v237h116v-237h-116z" />
<glyph unicode="&#xa9;" horiz-adv-x="1683" d="M188 301v829q0 130 93.5 223t222.5 93h676q129 0 222 -93t93 -223v-829q0 -129 -93 -221t-222 -92h-676q-129 0 -222.5 92t-93.5 221zM264 301q0 -99 70.5 -169.5t169.5 -70.5h676q98 0 168.5 71t70.5 169v829q0 100 -70.5 172t-168.5 72h-676q-99 0 -169.5 -72 t-70.5 -172v-829zM518 446v529q0 91 65 156t156 65h195q91 0 156 -65t65 -156v-92h-76v92q0 59 -42 102t-103 43h-195q-60 0 -102.5 -43t-42.5 -102v-529q0 -60 42.5 -103.5t102.5 -43.5h195q61 0 103 43t42 104v97h76v-97q0 -92 -65 -156.5t-156 -64.5h-195 q-91 0 -156 64.5t-65 156.5z" />
<glyph unicode="&#xaa;" horiz-adv-x="634" d="M96 997v64q0 49 45.5 83t112.5 44l184 26v78q0 29 -22.5 49.5t-53.5 20.5h-81q-30 0 -52 -14t-22 -33v-29h-84v37q0 52 47.5 85.5t114.5 33.5h75q65 0 113.5 -43t48.5 -101v-432h-59l-14 60q-72 -66 -146 -66h-55q-61 0 -106.5 41.5t-45.5 95.5zM178 1004q0 -26 21.5 -45 t52.5 -19h59q64 0 127 66v135l-182 -31q-33 -5 -55.5 -20.5t-22.5 -36.5v-49z" />
<glyph unicode="&#xab;" horiz-adv-x="1400" d="M125 489v123l620 394v-121l-524 -334l524 -332v-121zM637 489v123l620 394v-121l-524 -334l524 -332v-121z" />
<glyph unicode="&#xad;" horiz-adv-x="823" d="M119 571v105h586v-105h-586z" />
<glyph unicode="&#xae;" horiz-adv-x="1683" d="M188 301v829q0 130 93.5 223t222.5 93h676q129 0 222 -93t93 -223v-829q0 -129 -93 -221t-222 -92h-676q-129 0 -222.5 92t-93.5 221zM264 301q0 -99 70.5 -169.5t169.5 -70.5h676q98 0 168.5 71t70.5 169v829q0 100 -70.5 172t-168.5 72h-676q-99 0 -169.5 -72 t-70.5 -172v-829zM541 225v971h370q104 0 175 -59.5t71 -149.5v-166q0 -69 -57 -128.5t-139 -69.5l204 -398h-88l-203 396h-256v-396h-77zM618 694h314q60 0 104.5 40t44.5 87v166q0 58 -48.5 95.5t-121.5 37.5h-293v-426z" />
<glyph unicode="&#xaf;" horiz-adv-x="884" d="M150 1372v103h585v-103h-585z" />
<glyph unicode="&#xb0;" horiz-adv-x="796" d="M100 1008v256q0 74 60.5 128t152.5 54h174q91 0 150 -54t59 -128v-256q0 -76 -59 -130.5t-150 -54.5h-174q-92 0 -152.5 55t-60.5 130zM213 1018q0 -39 30.5 -65.5t73.5 -26.5h164q42 0 72.5 26.5t30.5 65.5v233q0 41 -30.5 68t-72.5 27h-164q-43 0 -73.5 -27t-30.5 -68 v-233z" />
<glyph unicode="&#xb2;" horiz-adv-x="716" d="M109 637v133q0 90 71 158q38 37 141 91t144 97q41 41 41 88v49q0 44 -32 74.5t-77 30.5h-78q-44 0 -74 -30.5t-30 -74.5v-67h-94v76q0 76 56 130t138 54h86q85 0 141 -55.5t56 -133.5v-69q0 -84 -63 -141q-31 -32 -119.5 -79.5t-126.5 -82.5q-73 -63 -78 -109 q-3 -3 -5.5 -23.5t-2.5 -27.5h405v-88h-499z" />
<glyph unicode="&#xb3;" horiz-adv-x="720" d="M109 813v68h94v-58q0 -45 31.5 -75.5t74.5 -30.5h103q44 0 76 33t32 79v76q0 43 -35 74t-82 31h-92v90h90q36 0 62 25t26 63v80q0 37 -26.5 63.5t-63.5 26.5h-75q-35 0 -58.5 -26.5t-23.5 -63.5v-51h-97v61q0 66 50.5 117t123.5 51h87q75 0 126.5 -51t51.5 -117v-100 q0 -69 -74 -119q45 -22 73.5 -62t28.5 -82v-94q0 -78 -56 -135t-140 -57h-109q-83 0 -140.5 54.5t-57.5 129.5z" />
<glyph unicode="&#xb4;" horiz-adv-x="714" d="M106 1311l459 245l43 -94l-463 -235z" />
<glyph unicode="&#xb5;" horiz-adv-x="1179" d="M195 -424v1542h112v-823q0 -95 64.5 -151t158.5 -56h68q76 0 150.5 40t123.5 110v880h113v-1118h-80l-20 129q-65 -67 -145.5 -104t-164.5 -37h-77q-116 0 -191 57v-469h-112z" />
<glyph unicode="&#xb6;" horiz-adv-x="1521" d="M147 866v279q0 123 102 206t257 83h883v-105h-146v-1689h-119v1689h-174v-1689h-116v919h-353q-141 0 -237.5 92.5t-96.5 214.5z" />
<glyph unicode="&#xb7;" horiz-adv-x="475" d="M182 475v236h113v-236h-113z" />
<glyph unicode="&#xb8;" horiz-adv-x="536" d="M115 -350h90q72 0 106.5 24t34.5 64q0 37 -29.5 67.5t-80.5 30.5h-68l70 172h81l-45 -108q68 -7 109 -54t41 -108q0 -74 -53 -118t-168 -44h-88v74z" />
<glyph unicode="&#xb9;" horiz-adv-x="628" d="M109 637v88h157v614l-157 -84v93l165 90h86v-713h160v-88h-411z" />
<glyph unicode="&#xba;" horiz-adv-x="634" d="M96 1001v297q0 59 48 101.5t114 42.5h102q65 0 113.5 -43t48.5 -101v-297q0 -57 -48.5 -99t-113.5 -42h-102q-66 0 -114 42t-48 99zM178 1010q0 -28 23.5 -48t56.5 -20h102q32 0 55 20t23 48v282q0 28 -23 49t-55 21h-102q-33 0 -56.5 -21t-23.5 -49v-282z" />
<glyph unicode="&#xbb;" horiz-adv-x="1400" d="M143 98v121l525 332l-525 334v121l621 -394v-123zM655 98v121l525 332l-525 334v121l621 -394v-123z" />
<glyph unicode="&#xbc;" horiz-adv-x="1490" d="M109 637v88h157v614l-157 -84v93l165 90h86v-713h160v-88h-411zM442 0l519 1434h112l-518 -1434h-113zM858 207v80l324 514h92v-506h108v-88h-108v-207h-96v207h-320zM963 295h215v346z" />
<glyph unicode="&#xbd;" horiz-adv-x="1570" d="M109 637v88h157v614l-157 -84v93l165 90h86v-713h160v-88h-411zM457 0l516 1434h112l-518 -1434h-110zM963 0v133q0 90 71 158q38 37 141 91t144 97q41 41 41 88v49q0 44 -32 74.5t-77 30.5h-77q-44 0 -74.5 -30.5t-30.5 -74.5v-67h-94v76q0 76 56 130t138 54h86 q85 0 141 -55t56 -133v-70q0 -84 -63 -141q-31 -32 -119.5 -79.5t-126.5 -82.5q-73 -63 -78 -109q-3 -3 -5.5 -23.5t-2.5 -27.5h405v-88h-499z" />
<glyph unicode="&#xbe;" horiz-adv-x="1550" d="M109 813v68h94v-58q0 -45 31.5 -75.5t74.5 -30.5h103q44 0 76 33t32 79v76q0 43 -35 74t-82 31h-92v90h90q36 0 62 25t26 63v80q0 37 -26.5 63.5t-63.5 26.5h-75q-35 0 -58.5 -26.5t-23.5 -63.5v-51h-97v61q0 66 50.5 117t123.5 51h87q75 0 126.5 -51t51.5 -117v-100 q0 -69 -74 -119q45 -22 73.5 -62t28.5 -82v-94q0 -78 -56 -135t-140 -57h-109q-83 0 -140.5 54.5t-57.5 129.5zM502 0l518 1434h113l-519 -1434h-112zM918 207v80l323 514h92v-506h109v-88h-109v-207h-96v207h-319zM1022 295h215v346z" />
<glyph unicode="&#xbf;" horiz-adv-x="1081" d="M174 -16v153q0 103 76 182q31 37 131 115t127 105q70 73 70 151v84h120v-115q0 -115 -94 -202q-26 -26 -134 -104.5t-136 -116.5q-41 -50 -41 -117v-117q0 -95 65.5 -159t161.5 -64h146q96 0 161.5 64t65.5 159v113h119v-131q0 -128 -96 -220t-240 -92h-162 q-145 0 -242.5 92t-97.5 220zM578 883v235h118v-235h-118z" />
<glyph unicode="&#xc0;" horiz-adv-x="1337" d="M102 0l508 1444h119l506 -1444h-121l-160 461h-573l-158 -461h-121zM418 567h500l-250 723zM430 1741l45 106l443 -184l-41 -96z" />
<glyph unicode="&#xc1;" horiz-adv-x="1337" d="M102 0l508 1444h119l506 -1444h-121l-160 461h-573l-158 -461h-121zM418 567h500l-250 723zM438 1663l443 184l45 -106l-447 -174z" />
<glyph unicode="&#xc2;" horiz-adv-x="1337" d="M102 0l508 1444h119l506 -1444h-121l-160 461h-573l-158 -461h-121zM367 1665l288 182h29l289 -176l-45 -98l-260 160l-256 -160zM418 567h500l-250 723z" />
<glyph unicode="&#xc3;" horiz-adv-x="1337" d="M102 0l508 1444h119l506 -1444h-121l-160 461h-573l-158 -461h-121zM342 1591v47q0 87 27 128.5t98 41.5q48 0 109.5 -30t125 -60t115.5 -30q51 0 51 57v53h99v-84q0 -62 -31.5 -96.5t-95.5 -34.5q-44 0 -97.5 18.5t-94 41t-85.5 41t-74 18.5q-28 0 -38.5 -20.5 t-10.5 -63.5v-27h-98zM418 567h500l-250 723z" />
<glyph unicode="&#xc4;" horiz-adv-x="1337" d="M102 0l508 1444h119l506 -1444h-121l-160 461h-573l-158 -461h-121zM391 1589v236h123v-236h-123zM418 567h500l-250 723zM819 1589v236h121v-236h-121z" />
<glyph unicode="&#xc5;" horiz-adv-x="1337" d="M102 0l486 1380q-60 22 -95.5 72.5t-35.5 112.5v32q0 81 60 140t149 59h20q88 0 147.5 -59t59.5 -140v-32q0 -64 -39 -116.5t-102 -72.5l483 -1376h-121l-160 461h-573l-158 -461h-121zM418 567h500l-250 723zM547 1569q0 -50 36.5 -86.5t84.5 -36.5h12q50 0 85.5 36 t35.5 87v22q0 52 -35.5 88.5t-85.5 36.5h-12q-48 0 -84.5 -36.5t-36.5 -88.5v-22z" />
<glyph unicode="&#xc6;" horiz-adv-x="1916" d="M98 0l791 1434h823v-105h-680v-528h633v-105h-633v-590h701v-106h-820v457h-436l-250 -457h-129zM537 563h376v686z" />
<glyph unicode="&#xc7;" horiz-adv-x="1300" d="M186 299v836q0 128 97.5 219.5t242.5 91.5h252q143 0 239.5 -91.5t96.5 -219.5v-144h-119v125q0 95 -65.5 159t-161.5 64h-236q-96 0 -161.5 -64t-65.5 -159v-799q0 -95 65.5 -159t161.5 -64h236q96 0 161.5 64t65.5 159v136h119v-154q0 -128 -96.5 -219.5t-239.5 -91.5 h-78l-36 -88q68 -7 108.5 -54t40.5 -108q0 -74 -53 -118t-168 -44h-88v74h90q72 0 106.5 24t34.5 64q0 37 -29.5 67.5t-80.5 30.5h-68l61 152h-92q-145 0 -242.5 91.5t-97.5 219.5z" />
<glyph unicode="&#xc8;" horiz-adv-x="1214" d="M211 0v1434h799v-105h-680v-528h633v-105h-633v-590h700v-106h-819zM360 1741l46 106l442 -184l-41 -96z" />
<glyph unicode="&#xc9;" horiz-adv-x="1214" d="M211 0v1434h799v-105h-680v-528h633v-105h-633v-590h700v-106h-819zM391 1663l443 184l45 -106l-447 -174z" />
<glyph unicode="&#xca;" horiz-adv-x="1214" d="M211 0v1434h799v-105h-680v-528h633v-105h-633v-590h700v-106h-819zM317 1665l289 182h29l289 -176l-45 -98l-261 160l-256 -160z" />
<glyph unicode="&#xcb;" horiz-adv-x="1214" d="M211 0v1434h799v-105h-680v-528h633v-105h-633v-590h700v-106h-819zM350 1589v236h123v-236h-123zM778 1589v236h121v-236h-121z" />
<glyph unicode="&#xcc;" horiz-adv-x="540" d="M33 1741l45 106l442 -184l-41 -96zM211 0v1434h119v-1434h-119z" />
<glyph unicode="&#xcd;" horiz-adv-x="540" d="M41 1663l442 184l45 -106l-446 -174zM211 0v1434h119v-1434h-119z" />
<glyph unicode="&#xce;" horiz-adv-x="540" d="M-31 1665l289 182h29l288 -176l-45 -98l-260 160l-256 -160zM211 0v1434h119v-1434h-119z" />
<glyph unicode="&#xcf;" horiz-adv-x="540" d="M-8 1589v236h123v-236h-123zM211 0v1434h119v-1434h-119zM420 1589v236h121v-236h-121z" />
<glyph unicode="&#xd0;" horiz-adv-x="1357" d="M39 700v105h172v629h625q144 0 239.5 -92t95.5 -220v-811q0 -128 -95.5 -219.5t-239.5 -91.5h-625v700h-172zM330 106h495q96 0 162 64.5t66 159.5v774q0 95 -66 159t-162 64h-495v-522h368v-105h-368v-594z" />
<glyph unicode="&#xd1;" horiz-adv-x="1382" d="M211 0v1434h123l719 -1225v1227h118v-1436h-122l-719 1227v-1227h-119zM385 1591v47q0 87 27 128.5t98 41.5q48 0 109.5 -30t125 -60t115.5 -30q51 0 51 57v53h99v-84q0 -62 -31.5 -96.5t-95.5 -34.5q-44 0 -97.5 18.5t-94 41t-85.5 41t-74 18.5q-28 0 -38.5 -20.5 t-10.5 -63.5v-27h-98z" />
<glyph unicode="&#xd2;" horiz-adv-x="1333" d="M186 299v836q0 128 97.5 219.5t242.5 91.5h285q144 0 240 -91.5t96 -219.5v-836q0 -128 -96 -219.5t-240 -91.5h-285q-145 0 -242.5 91.5t-97.5 219.5zM305 317q0 -95 65.5 -159t161.5 -64h269q96 0 161.5 64t65.5 159v799q0 95 -65.5 159t-161.5 64h-269 q-96 0 -161.5 -64t-65.5 -159v-799zM406 1747l45 106l442 -184l-41 -96z" />
<glyph unicode="&#xd3;" horiz-adv-x="1333" d="M186 299v836q0 128 97.5 219.5t242.5 91.5h285q144 0 240 -91.5t96 -219.5v-836q0 -128 -96 -219.5t-240 -91.5h-285q-145 0 -242.5 91.5t-97.5 219.5zM305 317q0 -95 65.5 -159t161.5 -64h269q96 0 161.5 64t65.5 159v799q0 95 -65.5 159t-161.5 64h-269 q-96 0 -161.5 -64t-65.5 -159v-799zM465 1669l442 184l45 -106l-446 -174z" />
<glyph unicode="&#xd4;" horiz-adv-x="1333" d="M186 299v836q0 128 97.5 219.5t242.5 91.5h285q144 0 240 -91.5t96 -219.5v-836q0 -128 -96 -219.5t-240 -91.5h-285q-145 0 -242.5 91.5t-97.5 219.5zM305 317q0 -95 65.5 -159t161.5 -64h269q96 0 161.5 64t65.5 159v799q0 95 -65.5 159t-161.5 64h-269 q-96 0 -161.5 -64t-65.5 -159v-799zM367 1671l288 182h29l289 -176l-45 -98l-260 160l-256 -160z" />
<glyph unicode="&#xd5;" horiz-adv-x="1333" d="M186 299v836q0 128 97.5 219.5t242.5 91.5h285q144 0 240 -91.5t96 -219.5v-836q0 -128 -96 -219.5t-240 -91.5h-285q-145 0 -242.5 91.5t-97.5 219.5zM305 317q0 -95 65.5 -159t161.5 -64h269q96 0 161.5 64t65.5 159v799q0 95 -65.5 159t-161.5 64h-269 q-96 0 -161.5 -64t-65.5 -159v-799zM342 1597v48q0 87 27 128.5t98 41.5q38 0 85.5 -19t85.5 -41.5t87.5 -41.5t91.5 -19q51 0 51 57v53h99v-84q0 -62 -31.5 -96.5t-95.5 -34.5q-44 0 -97.5 18.5t-94 41t-85.5 41t-74 18.5q-28 0 -38.5 -20.5t-10.5 -63.5v-27h-98z" />
<glyph unicode="&#xd6;" horiz-adv-x="1333" d="M186 299v836q0 128 97.5 219.5t242.5 91.5h285q144 0 240 -91.5t96 -219.5v-836q0 -128 -96 -219.5t-240 -91.5h-285q-145 0 -242.5 91.5t-97.5 219.5zM305 317q0 -95 65.5 -159t161.5 -64h269q96 0 161.5 64t65.5 159v799q0 95 -65.5 159t-161.5 64h-269 q-96 0 -161.5 -64t-65.5 -159v-799zM391 1595v236h123v-236h-123zM819 1595v236h121v-236h-121z" />
<glyph unicode="&#xd7;" horiz-adv-x="956" d="M66 358l348 349l-348 348l73 73l348 -348l349 348l73 -73l-348 -348l348 -349l-73 -71l-349 346l-348 -346z" />
<glyph unicode="&#xd8;" horiz-adv-x="1333" d="M121 -205l160 287q-95 92 -95 217v836q0 128 97.5 219.5t242.5 91.5h285q110 0 193 -55l137 243h88l-164 -295q82 -88 82 -204v-836q0 -128 -96 -219.5t-240 -91.5h-285q-106 0 -186 47l-133 -240h-86zM305 317q0 -72 37 -124l606 1095q-63 51 -147 51h-269 q-96 0 -161.5 -64t-65.5 -159v-799zM397 135q56 -41 135 -41h269q96 0 161.5 64t65.5 159v799q0 57 -29 107z" />
<glyph unicode="&#xd9;" horiz-adv-x="1341" d="M195 299v1135h118v-1117q0 -94 66.5 -158.5t161.5 -64.5h260q94 0 159.5 64t65.5 159v1117h119v-1135q0 -128 -95.5 -219.5t-238.5 -91.5h-274q-146 0 -244 91.5t-98 219.5zM373 1741l45 106l442 -184l-41 -96z" />
<glyph unicode="&#xda;" horiz-adv-x="1341" d="M195 299v1135h118v-1117q0 -94 66.5 -158.5t161.5 -64.5h260q94 0 159.5 64t65.5 159v1117h119v-1135q0 -128 -95.5 -219.5t-238.5 -91.5h-274q-146 0 -244 91.5t-98 219.5zM508 1663l442 184l45 -106l-446 -174z" />
<glyph unicode="&#xdb;" horiz-adv-x="1341" d="M195 299v1135h118v-1117q0 -94 66.5 -158.5t161.5 -64.5h260q94 0 159.5 64t65.5 159v1117h119v-1135q0 -128 -95.5 -219.5t-238.5 -91.5h-274q-146 0 -244 91.5t-98 219.5zM371 1665l288 182h29l289 -176l-45 -98l-260 160l-256 -160z" />
<glyph unicode="&#xdc;" horiz-adv-x="1341" d="M195 299v1135h118v-1117q0 -94 66.5 -158.5t161.5 -64.5h260q94 0 159.5 64t65.5 159v1117h119v-1135q0 -128 -95.5 -219.5t-238.5 -91.5h-274q-146 0 -244 91.5t-98 219.5zM395 1589v236h123v-236h-123zM823 1589v236h121v-236h-121z" />
<glyph unicode="&#xdd;" horiz-adv-x="1261" d="M102 1434h125l416 -729l395 729h121l-454 -836v-598h-119v598zM414 1663l442 184l45 -106l-446 -174z" />
<glyph unicode="&#xde;" horiz-adv-x="1239" d="M211 0v1434h119v-258h403q155 0 257 -83t102 -206v-293q0 -123 -96 -215t-238 -92h-428v-287h-119zM330 391h418q93 0 160 65.5t67 155.5v256q0 89 -72.5 146t-179.5 57h-393v-680z" />
<glyph unicode="&#xdf;" horiz-adv-x="1155" d="M174 0v1149q0 123 86 210t209 87h106q123 0 211 -87t88 -210v-25q0 -47 -17.5 -86t-42 -66t-49.5 -52.5t-42.5 -58t-17.5 -70.5v-46q0 -39 21 -73t53 -59t69 -55.5t69 -60t53 -75.5t21 -100v-33q0 -119 -88 -204t-211 -85h-194v100h194q76 0 132.5 57t56.5 134v24 q0 45 -29.5 84.5t-71.5 72t-84.5 68t-72 86.5t-29.5 113v47q0 49 17.5 91t42 71t49 55.5t42 57.5t17.5 65v23q0 80 -58 138.5t-139 58.5h-80q-82 0 -140 -60t-58 -145v-1141h-113z" />
<glyph unicode="&#xe0;" horiz-adv-x="1161" d="M168 246v129q0 103 89.5 169t219.5 85l383 53v149q0 84 -60.5 141.5t-144.5 57.5h-116q-84 0 -143.5 -46t-59.5 -116v-51h-113v57q0 109 87 182.5t216 73.5h140q130 0 218.5 -85t88.5 -205v-840h-80l-23 135q-62 -70 -138.5 -108.5t-153.5 -38.5h-136q-115 0 -194.5 77.5 t-79.5 180.5zM281 256q0 -69 52.5 -118.5t123.5 -49.5h125q77 0 152 44t126 118v342l-373 -62q-85 -13 -145.5 -58.5t-60.5 -106.5v-109zM336 1462l43 94l459 -245l-39 -84z" />
<glyph unicode="&#xe1;" horiz-adv-x="1161" d="M168 246v129q0 103 89.5 169t219.5 85l383 53v149q0 84 -60.5 141.5t-144.5 57.5h-116q-84 0 -143.5 -46t-59.5 -116v-51h-113v57q0 109 87 182.5t216 73.5h140q130 0 218.5 -85t88.5 -205v-840h-80l-23 135q-62 -70 -138.5 -108.5t-153.5 -38.5h-136q-115 0 -194.5 77.5 t-79.5 180.5zM281 256q0 -69 52.5 -118.5t123.5 -49.5h125q77 0 152 44t126 118v342l-373 -62q-85 -13 -145.5 -58.5t-60.5 -106.5v-109zM362 1311l459 245l43 -94l-463 -235z" />
<glyph unicode="&#xe2;" horiz-adv-x="1161" d="M168 246v129q0 103 89.5 169t219.5 85l383 53v149q0 84 -60.5 141.5t-144.5 57.5h-116q-84 0 -143.5 -46t-59.5 -116v-51h-113v57q0 109 87 182.5t216 73.5h140q130 0 218.5 -85t88.5 -205v-840h-80l-23 135q-62 -70 -138.5 -108.5t-153.5 -38.5h-136q-115 0 -194.5 77.5 t-79.5 180.5zM281 256q0 -69 52.5 -118.5t123.5 -49.5h125q77 0 152 44t126 118v342l-373 -62q-85 -13 -145.5 -58.5t-60.5 -106.5v-109zM326 1309l256 219h28l256 -215l-43 -84l-227 186l-225 -186z" />
<glyph unicode="&#xe3;" horiz-adv-x="1161" d="M168 246v129q0 103 89.5 169t219.5 85l383 53v149q0 84 -60.5 141.5t-144.5 57.5h-116q-84 0 -143.5 -46t-59.5 -116v-51h-113v57q0 109 87 182.5t216 73.5h140q130 0 218.5 -85t88.5 -205v-840h-80l-23 135q-62 -70 -138.5 -108.5t-153.5 -38.5h-136q-115 0 -194.5 77.5 t-79.5 180.5zM281 256q0 -69 52.5 -118.5t123.5 -49.5h125q77 0 152 44t126 118v342l-373 -62q-85 -13 -145.5 -58.5t-60.5 -106.5v-109zM281 1298v43q0 86 25.5 127t94.5 41q49 0 112.5 -30l127 -60t113.5 -30q55 0 55 59v51h92v-80q0 -129 -123 -129q-59 0 -129.5 30 t-130 59.5t-92.5 29.5q-31 0 -42 -21t-11 -67v-23h-92z" />
<glyph unicode="&#xe4;" horiz-adv-x="1161" d="M168 246v129q0 103 89.5 169t219.5 85l383 53v149q0 84 -60.5 141.5t-144.5 57.5h-116q-84 0 -143.5 -46t-59.5 -116v-51h-113v57q0 109 87 182.5t216 73.5h140q130 0 218.5 -85t88.5 -205v-840h-80l-23 135q-62 -70 -138.5 -108.5t-153.5 -38.5h-136q-115 0 -194.5 77.5 t-79.5 180.5zM281 256q0 -69 52.5 -118.5t123.5 -49.5h125q77 0 152 44t126 118v342l-373 -62q-85 -13 -145.5 -58.5t-60.5 -106.5v-109zM303 1307v237h115v-237h-115zM737 1307v237h117v-237h-117z" />
<glyph unicode="&#xe5;" horiz-adv-x="1161" d="M168 246v129q0 103 89.5 169t219.5 85l383 53v149q0 84 -60.5 141.5t-144.5 57.5h-116q-84 0 -143.5 -46t-59.5 -116v-51h-113v57q0 109 87 182.5t216 73.5h140q130 0 218.5 -85t88.5 -205v-840h-80l-23 135q-62 -70 -138.5 -108.5t-153.5 -38.5h-136q-115 0 -194.5 77.5 t-79.5 180.5zM281 256q0 -69 52.5 -118.5t123.5 -49.5h125q77 0 152 44t126 118v342l-373 -62q-85 -13 -145.5 -58.5t-60.5 -106.5v-109zM377 1440v33q0 81 60 140.5t149 59.5h20q88 0 147.5 -59.5t59.5 -140.5v-33q0 -80 -60 -139.5t-147 -59.5h-20q-89 0 -149 59.5 t-60 139.5zM467 1446q0 -52 36.5 -88.5t84.5 -36.5h12q50 0 85.5 36.5t35.5 88.5v22q0 52 -35.5 87.5t-85.5 35.5h-12q-48 0 -84.5 -36t-36.5 -87v-22z" />
<glyph unicode="&#xe6;" horiz-adv-x="1835" d="M168 246v129q0 103 89.5 169t219.5 85l383 53v154q0 82 -57.5 138t-138.5 56h-136q-79 0 -135.5 -40.5t-56.5 -104.5v-58h-113v60q0 105 87.5 174t217.5 69h140q78 0 145 -38.5t109 -98.5q47 62 117.5 99.5t154.5 37.5h139q140 0 235 -91.5t95 -219.5v-293h-690v-211 q0 -96 65.5 -161.5t159.5 -65.5h127q93 0 159 64.5t66 158.5v13h113v-29q0 -126 -94.5 -216.5t-235.5 -90.5h-139q-101 0 -181.5 48t-119.5 126q-63 -82 -146.5 -128t-168.5 -46h-136q-115 0 -194.5 77.5t-79.5 180.5zM281 256q0 -69 52.5 -118.5t123.5 -49.5h125 q78 0 154 45.5t126 122.5q-2 14 -2 43v293l-373 -62q-85 -13 -145.5 -58.5t-60.5 -106.5v-109zM973 625h577v178q0 96 -66 161.5t-159 65.5h-127q-93 0 -159 -63t-66 -156v-186z" />
<glyph unicode="&#xe7;" horiz-adv-x="1134" d="M170 305v504q0 132 94.5 226.5t235.5 94.5h131q138 0 230.5 -94.5t92.5 -226.5v-35h-112v29q0 96 -66.5 161.5t-159.5 65.5h-108q-93 0 -159 -65.5t-66 -161.5v-488q0 -96 66 -161.5t159 -65.5h108q93 0 159.5 65.5t66.5 161.5v31h112v-41q0 -131 -92.5 -224t-230.5 -93 h-23l-37 -88q68 -7 109 -54t41 -108q0 -74 -53 -118t-168 -44h-88v74h90q72 0 106.5 24t34.5 64q0 37 -30 67.5t-81 30.5h-67l61 152h-26q-141 0 -235.5 93t-94.5 224z" />
<glyph unicode="&#xe8;" d="M170 305v504q0 132 94.5 226.5t235.5 94.5h151q138 0 231 -94.5t93 -226.5v-283h-692v-211q0 -96 66 -161.5t159 -65.5h129q93 0 159 65.5t66 161.5v9h113v-19q0 -131 -93 -224t-231 -93h-151q-141 0 -235.5 93t-94.5 224zM283 618h579v185q0 96 -66 161.5t-159 65.5 h-129q-93 0 -159 -65.5t-66 -161.5v-185zM315 1462l43 94l459 -245l-39 -84z" />
<glyph unicode="&#xe9;" d="M170 305v504q0 132 94.5 226.5t235.5 94.5h151q138 0 231 -94.5t93 -226.5v-283h-692v-211q0 -96 66 -161.5t159 -65.5h129q93 0 159 65.5t66 161.5v9h113v-19q0 -131 -93 -224t-231 -93h-151q-141 0 -235.5 93t-94.5 224zM283 618h579v185q0 96 -66 161.5t-159 65.5 h-129q-93 0 -159 -65.5t-66 -161.5v-185zM328 1311l458 245l43 -94l-462 -235z" />
<glyph unicode="&#xea;" d="M170 305v504q0 132 94.5 226.5t235.5 94.5h151q138 0 231 -94.5t93 -226.5v-283h-692v-211q0 -96 66 -161.5t159 -65.5h129q93 0 159 65.5t66 161.5v9h113v-19q0 -131 -93 -224t-231 -93h-151q-141 0 -235.5 93t-94.5 224zM283 618h579v185q0 96 -66 161.5t-159 65.5 h-129q-93 0 -159 -65.5t-66 -161.5v-185zM303 1309l256 219h29l256 -215l-43 -84l-228 186l-225 -186z" />
<glyph unicode="&#xeb;" d="M170 305v504q0 132 94.5 226.5t235.5 94.5h151q138 0 231 -94.5t93 -226.5v-283h-692v-211q0 -96 66 -161.5t159 -65.5h129q93 0 159 65.5t66 161.5v9h113v-19q0 -131 -93 -224t-231 -93h-151q-141 0 -235.5 93t-94.5 224zM283 618h579v185q0 96 -66 161.5t-159 65.5 h-129q-93 0 -159 -65.5t-66 -161.5v-185zM297 1307v237h115v-237h-115zM731 1307v237h117v-237h-117z" />
<glyph unicode="&#xec;" horiz-adv-x="503" d="M8 1462l43 94l459 -245l-39 -84zM195 0v1118h112v-1118h-112z" />
<glyph unicode="&#xed;" horiz-adv-x="503" d="M8 1311l459 245l43 -94l-463 -235zM195 0v1118h112v-1118h-112z" />
<glyph unicode="&#xee;" horiz-adv-x="503" d="M-16 1309l256 219h28l256 -215l-43 -84l-227 186l-225 -186zM195 0v1118h112v-1118h-112z" />
<glyph unicode="&#xef;" horiz-adv-x="503" d="M-23 1307v237h115v-237h-115zM195 0v1118h112v-1118h-112zM412 1307v237h116v-237h-116z" />
<glyph unicode="&#xf0;" horiz-adv-x="1251" d="M186 299v283q0 128 96 219.5t240 91.5h203q113 0 221 -94v340q0 67 -39 118l-147 -157l-39 41l147 157q-53 41 -125 41h-426v107h431q113 0 200 -64l142 150l38 -41l-137 -145q74 -80 74 -187v-860q0 -128 -97.5 -219.5t-242.5 -91.5h-203q-144 0 -240 91.5t-96 219.5z M305 317q0 -95 65.5 -159t161.5 -64h189q94 0 159.5 64t65.5 159v246q0 95 -65.5 159t-159.5 64h-189q-96 0 -161.5 -64t-65.5 -159v-246z" />
<glyph unicode="&#xf1;" horiz-adv-x="1155" d="M195 0v1118h81l21 -131q64 67 144.5 105t164.5 38h51q138 0 224 -85t86 -220v-825h-113v823q0 95 -63.5 151t-159.5 56h-41q-80 0 -157 -40.5t-126 -110.5v-879h-112zM289 1298v43q0 86 25.5 127t95.5 41q49 0 112 -30t126.5 -60t113.5 -30q55 0 55 59v51h92v-80 q0 -129 -123 -129q-59 0 -129.5 30t-130 59.5t-92.5 29.5q-31 0 -42 -21t-11 -67v-23h-92z" />
<glyph unicode="&#xf2;" d="M170 305v504q0 132 94.5 226.5t235.5 94.5h151q138 0 231 -94.5t93 -226.5v-504q0 -131 -93 -224t-231 -93h-151q-141 0 -235.5 93t-94.5 224zM283 315q0 -96 66 -161.5t159 -65.5h129q93 0 159 65.5t66 161.5v488q0 96 -66 161.5t-159 65.5h-129q-93 0 -159 -65.5 t-66 -161.5v-488zM305 1462l43 94l459 -245l-39 -84z" />
<glyph unicode="&#xf3;" d="M170 305v504q0 132 94.5 226.5t235.5 94.5h151q138 0 231 -94.5t93 -226.5v-504q0 -131 -93 -224t-231 -93h-151q-141 0 -235.5 93t-94.5 224zM283 315q0 -96 66 -161.5t159 -65.5h129q93 0 159 65.5t66 161.5v488q0 96 -66 161.5t-159 65.5h-129q-93 0 -159 -65.5 t-66 -161.5v-488zM328 1311l458 245l43 -94l-462 -235z" />
<glyph unicode="&#xf4;" d="M170 305v504q0 132 94.5 226.5t235.5 94.5h151q138 0 231 -94.5t93 -226.5v-504q0 -131 -93 -224t-231 -93h-151q-141 0 -235.5 93t-94.5 224zM283 315q0 -96 66 -161.5t159 -65.5h129q93 0 159 65.5t66 161.5v488q0 96 -66 161.5t-159 65.5h-129q-93 0 -159 -65.5 t-66 -161.5v-488zM303 1309l256 219h29l256 -215l-43 -84l-228 186l-225 -186z" />
<glyph unicode="&#xf5;" d="M170 305v504q0 132 94.5 226.5t235.5 94.5h151q138 0 231 -94.5t93 -226.5v-504q0 -131 -93 -224t-231 -93h-151q-141 0 -235.5 93t-94.5 224zM260 1298v43q0 86 25.5 127t95.5 41q49 0 112 -30t126.5 -60t113.5 -30q55 0 55 59v51h93v-80q0 -129 -123 -129 q-59 0 -129.5 30t-130 59.5t-92.5 29.5q-31 0 -42.5 -21.5t-11.5 -66.5v-23h-92zM283 315q0 -96 66 -161.5t159 -65.5h129q93 0 159 65.5t66 161.5v488q0 96 -66 161.5t-159 65.5h-129q-93 0 -159 -65.5t-66 -161.5v-488z" />
<glyph unicode="&#xf6;" d="M170 305v504q0 132 94.5 226.5t235.5 94.5h151q138 0 231 -94.5t93 -226.5v-504q0 -131 -93 -224t-231 -93h-151q-141 0 -235.5 93t-94.5 224zM283 315q0 -96 66 -161.5t159 -65.5h129q93 0 159 65.5t66 161.5v488q0 96 -66 161.5t-159 65.5h-129q-93 0 -159 -65.5 t-66 -161.5v-488zM297 1307v237h115v-237h-115zM731 1307v237h117v-237h-117z" />
<glyph unicode="&#xf8;" d="M98 -205l166 285q-94 94 -94 225v504q0 132 94.5 226.5t235.5 94.5h151q101 0 187 -57l141 244h70l-164 -285q90 -93 90 -223v-504q0 -131 -93 -224t-231 -93h-151q-109 0 -189 55l-143 -248h-70zM283 315q0 -77 41 -133l458 795q-66 53 -145 53h-129q-93 0 -159 -65.5 t-66 -161.5v-488zM367 137q62 -49 141 -49h129q93 0 159 65.5t66 161.5v488q0 69 -39 127z" />
<glyph unicode="&#xf9;" horiz-adv-x="1138" d="M188 293v825h113v-823q0 -95 63.5 -151t159.5 -56h39q75 0 146 37t120 104v889h113v-1118h-80l-20 123q-132 -135 -295 -135h-49q-139 0 -224.5 84.5t-85.5 220.5zM254 1462l43 94l459 -245l-39 -84z" />
<glyph unicode="&#xfa;" horiz-adv-x="1138" d="M188 293v825h113v-823q0 -95 63.5 -151t159.5 -56h39q75 0 146 37t120 104v889h113v-1118h-80l-20 123q-132 -135 -295 -135h-49q-139 0 -224.5 84.5t-85.5 220.5zM397 1311l459 245l43 -94l-463 -235z" />
<glyph unicode="&#xfb;" horiz-adv-x="1138" d="M188 293v825h113v-823q0 -95 63.5 -151t159.5 -56h39q75 0 146 37t120 104v889h113v-1118h-80l-20 123q-132 -135 -295 -135h-49q-139 0 -224.5 84.5t-85.5 220.5zM281 1309l256 219h28l256 -215l-43 -84l-227 186l-225 -186z" />
<glyph unicode="&#xfc;" horiz-adv-x="1138" d="M188 293v825h113v-823q0 -95 63.5 -151t159.5 -56h39q75 0 146 37t120 104v889h113v-1118h-80l-20 123q-132 -135 -295 -135h-49q-139 0 -224.5 84.5t-85.5 220.5zM289 1307v237h114v-237h-114zM723 1307v237h117v-237h-117z" />
<glyph unicode="&#xfd;" horiz-adv-x="1019" d="M49 1118h117l348 -956l340 956h117l-547 -1542h-117l150 426zM264 1311l459 245l43 -94l-463 -235z" />
<glyph unicode="&#xfe;" horiz-adv-x="1171" d="M195 -424v1960h112v-526q111 120 250 120h135q131 0 219 -94t88 -225v-504q0 -131 -88 -225t-219 -94h-141q-136 0 -244 118v-530h-112zM307 240q43 -71 103 -111.5t127 -40.5h127q93 0 158 68.5t65 167.5v471q0 99 -65.5 167t-157.5 68h-132q-64 0 -122.5 -38 t-102.5 -103v-649z" />
<glyph unicode="&#xff;" horiz-adv-x="1019" d="M49 1118h117l348 -956l340 956h117l-547 -1542h-117l150 426zM233 1307v237h115v-237h-115zM668 1307v237h116v-237h-116z" />
<glyph unicode="&#x152;" horiz-adv-x="2031" d="M186 311v813q0 128 97 219t243 91h1301v-105h-680v-528h633v-105h-633v-590h700v-106h-1321q-145 0 -242.5 91.5t-97.5 219.5zM305 330q0 -95 65.5 -159.5t161.5 -64.5h496v1223h-496q-96 0 -161.5 -64.5t-65.5 -160.5v-774z" />
<glyph unicode="&#x153;" horiz-adv-x="1839" d="M170 305v504q0 132 94.5 226.5t235.5 94.5h151q83 0 153 -37.5t114 -101.5q44 64 115 101.5t157 37.5h151q138 0 231 -94.5t93 -226.5v-283h-690v-237q0 -82 67.5 -141.5t155.5 -59.5h129q93 0 159 65.5t66 161.5v9h113v-19q0 -131 -93 -224t-231 -93h-151q-86 0 -157 36 t-115 99q-44 -63 -114 -99t-153 -36h-151q-141 0 -235.5 93t-94.5 224zM283 315q0 -96 66 -161.5t159 -65.5h129q87 0 155 60t68 141v538q0 82 -68 142.5t-155 60.5h-129q-93 0 -159 -65.5t-66 -161.5v-488zM975 618h577v185q0 96 -66 161.5t-159 65.5h-129q-87 0 -155 -61 t-68 -142v-209z" />
<glyph unicode="&#x178;" horiz-adv-x="1261" d="M102 1434h125l416 -729l395 729h121l-454 -836v-598h-119v598zM365 1589v236h122v-236h-122zM793 1589v236h120v-236h-120z" />
<glyph unicode="&#x2c6;" horiz-adv-x="753" d="M106 1309l256 219h29l256 -215l-43 -84l-227 186l-225 -186z" />
<glyph unicode="&#x2dc;" horiz-adv-x="835" d="M109 1298v43q0 86 25.5 127t94.5 41q49 0 112.5 -30l127 -60t113.5 -30q55 0 55 59v51h92v-80q0 -129 -123 -129q-59 0 -129.5 30t-130 59.5t-92.5 29.5q-31 0 -42 -21t-11 -67v-23h-92z" />
<glyph unicode="&#x2000;" horiz-adv-x="926" />
<glyph unicode="&#x2001;" horiz-adv-x="1853" />
<glyph unicode="&#x2002;" horiz-adv-x="926" />
<glyph unicode="&#x2003;" horiz-adv-x="1853" />
<glyph unicode="&#x2004;" horiz-adv-x="617" />
<glyph unicode="&#x2005;" horiz-adv-x="463" />
<glyph unicode="&#x2006;" horiz-adv-x="308" />
<glyph unicode="&#x2007;" horiz-adv-x="308" />
<glyph unicode="&#x2008;" horiz-adv-x="231" />
<glyph unicode="&#x2009;" horiz-adv-x="370" />
<glyph unicode="&#x200a;" horiz-adv-x="102" />
<glyph unicode="&#x2010;" horiz-adv-x="823" d="M119 571v105h586v-105h-586z" />
<glyph unicode="&#x2011;" horiz-adv-x="823" d="M119 571v105h586v-105h-586z" />
<glyph unicode="&#x2012;" horiz-adv-x="823" d="M119 571v105h586v-105h-586z" />
<glyph unicode="&#x2013;" horiz-adv-x="1085" d="M119 571v105h846v-105h-846z" />
<glyph unicode="&#x2014;" horiz-adv-x="1523" d="M119 571v105h1286v-105h-1286z" />
<glyph unicode="&#x2018;" horiz-adv-x="475" d="M162 1047v235q0 101 60.5 167t156.5 87v-109q-50 -19 -77.5 -60t-27.5 -85v-235h-112z" />
<glyph unicode="&#x2019;" horiz-adv-x="475" d="M96 1047v108q49 19 77 60.5t28 84.5v236h112v-236q0 -101 -61 -166t-156 -87z" />
<glyph unicode="&#x201a;" horiz-adv-x="475" d="M78 -145q49 19 76.5 60t27.5 85v236h113v-236q0 -101 -60.5 -167t-156.5 -89v111z" />
<glyph unicode="&#x201c;" horiz-adv-x="729" d="M152 1047v235q0 101 60.5 167t156.5 87v-109q-50 -19 -77.5 -60t-27.5 -85v-235h-112zM428 1047v235q0 101 60.5 167t156.5 87v-109q-50 -19 -77 -60t-27 -85v-235h-113z" />
<glyph unicode="&#x201d;" horiz-adv-x="729" d="M96 1047v108q49 19 77 60.5t28 84.5v236h112v-236q0 -101 -61 -166t-156 -87zM373 1047v108q49 19 76.5 60t27.5 85v236h113v-236q0 -101 -61 -166t-156 -87z" />
<glyph unicode="&#x201e;" horiz-adv-x="761" d="M78 -145q49 19 76.5 60t27.5 85v236h113v-236q0 -101 -60.5 -167t-156.5 -89v111zM365 -145q49 19 76.5 60t27.5 85v236h113v-236q0 -101 -60.5 -167t-156.5 -89v111z" />
<glyph unicode="&#x2022;" horiz-adv-x="624" d="M109 592v80q0 66 46.5 115t112.5 49h88q66 0 114 -49t48 -115v-80q0 -68 -48 -117t-114 -49h-88q-66 0 -112.5 49t-46.5 117z" />
<glyph unicode="&#x2026;" horiz-adv-x="1427" d="M182 0v236h113v-236h-113zM657 0v236h113v-236h-113zM1135 0v236h112v-236h-112z" />
<glyph unicode="&#x202f;" horiz-adv-x="370" />
<glyph unicode="&#x2039;" horiz-adv-x="888" d="M125 489v123l620 394v-121l-524 -334l524 -332v-121z" />
<glyph unicode="&#x203a;" horiz-adv-x="888" d="M143 98v121l525 332l-525 334v121l621 -394v-123z" />
<glyph unicode="&#x205f;" horiz-adv-x="463" />
<glyph unicode="&#x20ac;" horiz-adv-x="1368" d="M51 477v88h170v287h-170v88h170v195q0 128 97.5 219.5t242.5 91.5h285q144 0 240 -91.5t96 -219.5v-144h-119v125q0 95 -66.5 159t-160.5 64h-269q-96 0 -162.5 -64t-66.5 -159v-176h436v-88h-436v-287h436v-88h-436v-160q0 -95 66.5 -159t162.5 -64h269q94 0 160.5 64 t66.5 159v136h119v-154q0 -128 -96 -219.5t-240 -91.5h-285q-145 0 -242.5 91.5t-97.5 219.5v178h-170z" />
<glyph unicode="&#x2122;" horiz-adv-x="1388" d="M57 1350v73h453v-73h-184v-639h-76v639h-193zM594 711v712h82l248 -489l239 489h82v-712h-76v557l-202 -412h-84l-215 422v-567h-74z" />
<glyph unicode="&#x25fc;" horiz-adv-x="1116" d="M0 0v1116h1116v-1116h-1116z" />
</font>
</defs>
</svg>
