<?xml version="1.0" standalone="no"?>
<!DOCTYPE svg PUBLIC "-//W3C//DTD SVG 1.1//EN" "http://www.w3.org/Graphics/SVG/1.1/DTD/svg11.dtd" >
<svg xmlns="http://www.w3.org/2000/svg">
<metadata></metadata>
<defs>
<font id="boxedmedium" horiz-adv-x="1114" >
<font-face units-per-em="2048" ascent="1638" descent="-410" />
<missing-glyph horiz-adv-x="634" />
<glyph unicode="&#xfb01;" horiz-adv-x="1103" d="M43 930v196h107v45q0 176 112.5 270.5t304.5 94.5h383v-193h-395q-75 0 -129.5 -49t-54.5 -123v-45h579v-1126h-219v930h-360v-930h-221v930h-107z" />
<glyph unicode="&#xfb02;" horiz-adv-x="1103" d="M43 930v196h107v45q0 176 112.5 270.5t304.5 94.5h383v-1536h-219v1343h-164q-80 0 -138 -49t-58 -123v-45h188v-196h-188v-930h-221v930h-107z" />
<glyph horiz-adv-x="0" />
<glyph horiz-adv-x="682" />
<glyph horiz-adv-x="0" />
<glyph horiz-adv-x="0" />
<glyph unicode="&#xd;" horiz-adv-x="634" />
<glyph unicode=" "  horiz-adv-x="634" />
<glyph unicode="&#x09;" horiz-adv-x="634" />
<glyph unicode="&#xa0;" horiz-adv-x="634" />
<glyph unicode="!" horiz-adv-x="520" d="M150 0v272h221v-272h-221zM150 436v1102h221v-1102h-221z" />
<glyph unicode="&#x22;" horiz-adv-x="741" d="M86 1577h225l-22 -444h-180zM432 1577h221l-20 -444h-178z" />
<glyph unicode="#" horiz-adv-x="1523" d="M57 322v204h252l58 365h-244v205h276l54 340h229l-55 -340h393l53 340h227l-53 -340h217v-205h-250l-57 -365h242v-204h-275l-51 -322h-227l51 322h-393l-51 -322h-228l51 322h-219zM537 526h393l57 365h-393z" />
<glyph unicode="$" horiz-adv-x="1243" d="M113 307v113h227v-66q0 -74 57.5 -119t143.5 -45h43v416q-71 29 -123.5 53.5t-113 63.5t-99 79t-64.5 95.5t-26 118.5v131q0 122 100.5 210.5t261.5 88.5h64v223h92v-223h24q174 0 282 -91.5t108 -219.5v-158h-228v108q0 72 -53.5 115t-132.5 43v-422q195 -80 272 -126 q182 -110 182 -251v-145q0 -134 -110.5 -222.5t-292.5 -88.5h-51v-217h-92v217h-58q-184 0 -298.5 94t-114.5 225zM387 1034q0 -50 50.5 -90t146.5 -84v383h-27q-73 0 -121.5 -39.5t-48.5 -105.5v-64zM676 190h24q90 0 146.5 41.5t56.5 116.5v62q0 22 -16 42.5t-51 40.5 t-69.5 36t-90.5 38v-377z" />
<glyph unicode="%" horiz-adv-x="1576" d="M88 989v236q0 90 72 155.5t188 65.5h64q114 0 183 -65t69 -156v-236q0 -90 -69 -154.5t-183 -64.5h-64q-116 0 -188 64.5t-72 154.5zM285 1020q0 -33 19.5 -52.5t49.5 -19.5h43q30 0 51 19.5t21 52.5v176q0 31 -21 50.5t-51 19.5h-43q-30 0 -49.5 -19t-19.5 -51v-176z M403 0l568 1436h211l-570 -1436h-209zM924 207v235q0 90 72 156t188 66h63q114 0 183 -65.5t69 -156.5v-235q0 -90 -69 -154.5t-183 -64.5h-63q-116 0 -188 64.5t-72 154.5zM1120 238q0 -33 20 -52.5t50 -19.5h43q30 0 51 19.5t21 52.5v176q0 31 -21 50t-51 19h-43 q-30 0 -50 -19t-20 -50v-176z" />
<glyph unicode="&#x26;" horiz-adv-x="1310" d="M125 307v254q0 64 37 122t104 97q-88 85 -88 203v166q0 122 100 210.5t259 88.5h153q154 0 250 -88.5t96 -210.5v-90h-223v47q0 66 -40.5 104.5t-102.5 38.5h-125q-61 0 -102.5 -39t-41.5 -104v-82q0 -66 41.5 -105.5t102.5 -39.5h688v-197h-150v-375q0 -131 -100.5 -225 t-263.5 -94h-215q-168 0 -273.5 94t-105.5 225zM348 348q0 -73 47 -118.5t115 -45.5h190q69 0 115.5 45.5t46.5 118.5v334h-352q-68 0 -115 -45t-47 -119v-170z" />
<glyph unicode="'" horiz-adv-x="397" d="M86 1577h225l-22 -444h-180z" />
<glyph unicode="(" horiz-adv-x="653" d="M135 143v940q0 176 111 269.5t303 93.5h37v-193h-37q-80 0 -136.5 -48t-56.5 -122v-940q0 -73 56.5 -120.5t136.5 -47.5h37v-194h-37q-192 0 -303 93.5t-111 268.5z" />
<glyph unicode=")" horiz-adv-x="653" d="M84 -25h35q81 0 137.5 47t56.5 121v940q0 74 -56.5 122t-137.5 48h-35v193h35q194 0 306 -93.5t112 -269.5v-940q0 -175 -112.5 -268.5t-305.5 -93.5h-35v194z" />
<glyph unicode="*" horiz-adv-x="985" d="M82 1159l63 201l242 -78v254h211v-254l240 78l63 -201l-237 -78l147 -202l-168 -127l-151 206l-152 -210l-164 131l146 200z" />
<glyph unicode="+" horiz-adv-x="968" d="M98 494v208h283v283h209v-283h282v-208h-282v-283h-209v283h-283z" />
<glyph unicode="," horiz-adv-x="507" d="M39 -131q47 8 76.5 48.5t29.5 82.5v272h220v-272q0 -146 -94.5 -237.5t-231.5 -102.5v209z" />
<glyph unicode="-" horiz-adv-x="821" d="M115 512v199h594v-199h-594z" />
<glyph unicode="." horiz-adv-x="507" d="M145 0v272h220v-272h-220z" />
<glyph unicode="/" horiz-adv-x="1132" d="M61 0l752 1434h240l-752 -1434h-240z" />
<glyph unicode="0" horiz-adv-x="1206" d="M133 307v819q0 131 108.5 225.5t282.5 94.5h170q169 0 273 -94.5t104 -225.5v-819q0 -131 -104 -225t-273 -94h-170q-174 0 -282.5 94t-108.5 225zM362 354q0 -73 51 -118.5t124 -45.5h133q74 0 124 45.5t50 118.5v725q0 73 -50 118.5t-124 45.5h-133q-73 0 -124 -45.5 t-51 -118.5v-725z" />
<glyph unicode="1" horiz-adv-x="901" d="M68 0v203h272v1028l-272 -144v205l272 142h229v-1231h267v-203h-768z" />
<glyph unicode="2" horiz-adv-x="1165" d="M125 -8v315q0 80 36.5 149.5t104.5 116.5q29 30 237 147t234 144q76 66 76 152v63q0 73 -51 118.5t-125 45.5h-80q-74 0 -125 -45.5t-51 -118.5v-63h-227v110q0 131 106.5 225.5t278.5 94.5h116q172 0 278.5 -101.5t106.5 -244.5v-166q0 -133 -120 -221 q-27 -28 -251.5 -154t-252.5 -156q-62 -52 -62 -143v-63h709v-205h-938z" />
<glyph unicode="3" horiz-adv-x="1191" d="M125 307v99h231v-52q0 -73 50 -117t124 -44h132q74 0 124 46.5t50 122.5v111q0 75 -53.5 119.5t-133.5 44.5h-135v205h113q70 0 117 40t47 107v105q0 67 -45 108t-111 41h-78q-64 0 -109 -41t-45 -108v-45h-227v90q0 125 103 216t266 91h114q160 0 260.5 -91t100.5 -216 v-189q0 -116 -105 -200q70 -40 110 -101t40 -127v-207q0 -133 -105 -230t-272 -97h-172q-173 0 -282 94t-109 225z" />
<glyph unicode="4" horiz-adv-x="1079" d="M72 336v203l567 895h227v-895h154v-203h-154v-336h-227v336h-567zM299 539h340v536z" />
<glyph unicode="5" horiz-adv-x="1191" d="M133 307v99h229v-52q0 -73 51 -117t124 -44h116q74 0 125 46.5t51 122.5v185q0 73 -47 117.5t-116 44.5h-471v725h796v-203h-567v-320h266q109 0 194.5 -46t129 -117.5t43.5 -153.5v-279q0 -133 -105 -230t-272 -97h-156q-174 0 -282.5 94t-108.5 225z" />
<glyph unicode="6" horiz-adv-x="1206" d="M133 307v819q0 131 108.5 225.5t282.5 94.5h170q169 0 273 -94.5t104 -225.5v-88h-227v41q0 73 -50 118.5t-124 45.5h-133q-73 0 -124 -45.5t-51 -118.5v-243q90 57 162 57h170q169 0 273 -94.5t104 -225.5v-266q0 -131 -104 -225t-273 -94h-170q-174 0 -282.5 94 t-108.5 225zM362 354q0 -73 51 -118.5t124 -45.5h133q74 0 124 45.5t50 118.5v172q0 73 -50 118.5t-124 45.5h-133q-73 0 -124 -45.5t-51 -118.5v-172z" />
<glyph unicode="7" horiz-adv-x="1026" d="M84 1235v203h877v-203l-619 -1235h-229l620 1235h-649z" />
<glyph unicode="8" horiz-adv-x="1191" d="M125 307v201q0 75 46 142t128 108q-64 43 -99.5 106t-35.5 135v127q0 131 103 225.5t268 94.5h120q168 0 273.5 -94.5t105.5 -225.5v-127q0 -72 -36 -135t-101 -106q79 -41 123.5 -108.5t44.5 -141.5v-201q0 -131 -104.5 -225t-272.5 -94h-172q-173 0 -282 94t-109 225z M356 354q0 -73 50 -118.5t124 -45.5h132q74 0 124 45.5t50 118.5v131q0 73 -50 117.5t-124 44.5h-132q-74 0 -124 -44.5t-50 -117.5v-131zM391 1014q0 -73 45.5 -118.5t110.5 -45.5h102q66 0 111 45.5t45 118.5v65q0 73 -45 118.5t-111 45.5h-102q-65 0 -110.5 -45.5 t-45.5 -118.5v-65z" />
<glyph unicode="9" horiz-adv-x="1206" d="M133 307v88h229v-41q0 -73 51 -118.5t124 -45.5h133q74 0 124 45.5t50 118.5v234q-86 -47 -162 -47h-170q-168 0 -273.5 94t-105.5 225v266q0 131 105.5 225.5t273.5 94.5h170q174 0 281.5 -94.5t107.5 -225.5v-819q0 -131 -107.5 -225t-281.5 -94h-170q-168 0 -273.5 94 t-105.5 225zM362 907q0 -73 51 -118.5t124 -45.5h133q74 0 124 45.5t50 118.5v172q0 73 -50 118.5t-124 45.5h-133q-73 0 -124 -45.5t-51 -118.5v-172z" />
<glyph unicode=":" horiz-adv-x="507" d="M145 0v272h220v-272h-220zM145 838v272h220v-272h-220z" />
<glyph unicode=";" horiz-adv-x="507" d="M39 -131v-209q137 11 231.5 102.5t94.5 237.5v272h-220v-272q0 -42 -29.5 -82.5t-76.5 -48.5zM145 838v272h220v-272h-220z" />
<glyph unicode="&#x3c;" horiz-adv-x="1077" d="M98 438v248l883 356v-229l-653 -252l653 -244v-227z" />
<glyph unicode="=" horiz-adv-x="962" d="M82 244v196h799v-196h-799zM82 674v196h799v-196h-799z" />
<glyph unicode="&#x3e;" horiz-adv-x="1077" d="M98 90v227l650 244l-650 252v229l883 -356v-248z" />
<glyph unicode="?" horiz-adv-x="1122" d="M98 969v157q0 131 105.5 225.5t273.5 94.5h127q174 0 282.5 -94.5t108.5 -225.5v-184q0 -123 -98 -209q-14 -17 -112.5 -93.5t-112.5 -92.5q-54 -47 -54 -109v-71h-227v149q0 123 94 195q13 13 123.5 90t124.5 98q33 33 33 90v90q0 73 -50 118.5t-124 45.5h-88 q-75 0 -125.5 -45.5t-50.5 -118.5v-110h-230zM391 0v272h227v-272h-227z" />
<glyph unicode="@" horiz-adv-x="2062" d="M137 -129v1393q0 124 88 211.5t234 87.5h1145q143 0 231 -88t88 -211v-965q0 -123 -88 -211t-231 -88h-308l-30 106q-60 -57 -131 -87.5t-140 -30.5h-108q-134 0 -217.5 82t-83.5 194v588q0 112 83.5 194t217.5 82h561v-931h117q57 0 98 38.5t41 98.5v895q0 60 -41 98.5 t-98 38.5h-1069q-58 0 -98 -38.5t-40 -98.5v-1323q0 -61 40.5 -100t97.5 -39h1065v-197h-1102q-145 0 -233.5 88t-88.5 213zM807 299q0 -50 35 -82.5t82 -32.5h82q62 0 121.5 27.5t99.5 73.5v647h-303q-47 0 -82 -33t-35 -84v-516z" />
<glyph unicode="A" horiz-adv-x="1349" d="M72 0l489 1440h227l490 -1440h-231l-115 354h-518l-113 -354h-229zM479 559h385l-192 596z" />
<glyph unicode="B" horiz-adv-x="1265" d="M158 0v1434h536q169 0 274 -103t105 -248v-100q0 -136 -115 -225q95 -42 150 -124t55 -177v-80q0 -157 -105 -267t-274 -110h-626zM387 203h373q74 0 125 45.5t51 118.5v102q0 75 -54 120.5t-134 45.5h-361v-432zM387 840h283q75 0 125.5 42t50.5 111v80q0 72 -50 115 t-126 43h-283v-391z" />
<glyph unicode="C" horiz-adv-x="1263" d="M133 307v819q0 131 108.5 225.5t282.5 94.5h228q169 0 273.5 -94.5t104.5 -225.5v-163h-227v116q0 73 -50.5 118.5t-125.5 45.5h-190q-73 0 -124 -45.5t-51 -118.5v-725q0 -73 51 -118.5t124 -45.5h190q75 0 125.5 45.5t50.5 118.5v123h227v-170q0 -131 -104.5 -225 t-273.5 -94h-228q-174 0 -282.5 94t-108.5 225z" />
<glyph unicode="D" horiz-adv-x="1312" d="M158 0v1434h643q168 0 272.5 -94.5t104.5 -225.5v-795q0 -131 -104.5 -225t-272.5 -94h-643zM387 203h387q75 0 125.5 45.5t50.5 118.5v700q0 73 -50.5 118.5t-125.5 45.5h-387v-1028z" />
<glyph unicode="E" horiz-adv-x="1175" d="M158 0v1436h852v-205h-623v-393h561v-205h-561v-430h643v-203h-872z" />
<glyph unicode="F" horiz-adv-x="1140" d="M158 0v1436h860v-205h-631v-428h594v-205h-594v-598h-229z" />
<glyph unicode="G" horiz-adv-x="1288" d="M133 307v819q0 131 108.5 225.5t282.5 94.5h252q168 0 272.5 -94.5t104.5 -225.5v-163h-227v116q0 73 -50.5 118.5t-125.5 45.5h-213q-73 0 -124 -45.5t-51 -118.5v-725q0 -73 51 -118.5t124 -45.5h213q75 0 125.5 45.5t50.5 118.5v201h-291v203h518v-451 q0 -131 -104.5 -225t-272.5 -94h-252q-174 0 -282.5 94t-108.5 225z" />
<glyph unicode="H" horiz-adv-x="1337" d="M158 0v1436h229v-590h563v590h228v-1436h-228v641h-563v-641h-229z" />
<glyph unicode="I" horiz-adv-x="544" d="M158 0v1436h229v-1436h-229z" />
<glyph unicode="J" horiz-adv-x="569" d="M-119 -223h90q91 0 151 54.5t60 143.5v1459h230v-1459q0 -191 -120 -295t-321 -104h-90v201z" />
<glyph unicode="K" horiz-adv-x="1263" d="M158 0v1434h229v-613h164l317 613h254l-374 -699l458 -735h-258l-370 618h-191v-618h-229z" />
<glyph unicode="L" horiz-adv-x="1032" d="M158 0v1436h229v-1233h584v-203h-813z" />
<glyph unicode="M" horiz-adv-x="1579" d="M158 0v1436h239l398 -875l397 875h229v-1436h-227v979l-307 -672h-195l-305 668v-975h-229z" />
<glyph unicode="N" horiz-adv-x="1337" d="M158 0v1436h231l561 -1014v1014h228v-1436h-232l-559 1008v-1008h-229z" />
<glyph unicode="O" horiz-adv-x="1288" d="M133 307v819q0 131 108.5 225.5t282.5 94.5h252q168 0 272.5 -94.5t104.5 -225.5v-819q0 -131 -104.5 -225t-272.5 -94h-252q-174 0 -282.5 94t-108.5 225zM362 354q0 -73 51 -118.5t124 -45.5h213q75 0 125.5 45.5t50.5 118.5v725q0 73 -50.5 118.5t-125.5 45.5h-213 q-73 0 -124 -45.5t-51 -118.5v-725z" />
<glyph unicode="P" horiz-adv-x="1243" d="M158 0v1436h581q173 0 281 -91t108 -219v-301q0 -129 -104.5 -223t-271.5 -94h-365v-508h-229zM387 711h338q73 0 123.5 45t50.5 116v207q0 70 -53 111t-133 41h-326v-520z" />
<glyph unicode="Q" horiz-adv-x="1288" d="M133 307v819q0 131 108.5 225.5t282.5 94.5h252q168 0 272.5 -94.5t104.5 -225.5v-819q0 -121 -90 -212.5t-238 -104.5l158 -320l-207 -94l-203 412h-49q-174 0 -282.5 94t-108.5 225zM362 354q0 -73 51 -118.5t124 -45.5h213q75 0 125.5 45.5t50.5 118.5v725 q0 73 -50.5 118.5t-125.5 45.5h-213q-73 0 -124 -45.5t-51 -118.5v-725z" />
<glyph unicode="R" horiz-adv-x="1286" d="M158 0v1436h596q174 0 281.5 -91t107.5 -219v-303q0 -89 -62 -166.5t-168 -113.5l250 -543h-239l-240 520h-297v-520h-229zM387 723h354q74 0 124 41.5t50 107.5v207q0 70 -53.5 111t-132.5 41h-342v-508z" />
<glyph unicode="S" horiz-adv-x="1243" d="M113 307v113h227v-66q0 -74 57.5 -119t143.5 -45h159q90 0 146.5 41.5t56.5 116.5v62q0 30 -32 58.5t-84.5 52t-119.5 52t-136.5 56t-136.5 67t-119.5 83t-84.5 105t-32 132.5v131q0 122 100.5 210.5t261.5 88.5h180q174 0 282 -91.5t108 -219.5v-158h-228v108 q0 72 -53.5 115t-132.5 43h-119q-73 0 -121.5 -39.5t-48.5 -105.5v-64q0 -42 41 -80.5t106.5 -70t144.5 -63.5t158.5 -69t145 -79t106.5 -100.5t41 -127.5v-145q0 -134 -110.5 -222.5t-292.5 -88.5h-201q-184 0 -298.5 94t-114.5 225z" />
<glyph unicode="T" horiz-adv-x="1052" d="M59 1231v205h934v-205h-340v-1231h-227v1231h-367z" />
<glyph unicode="U" horiz-adv-x="1314" d="M150 307v1129h231v-1082q0 -73 50 -118.5t124 -45.5h207q74 0 124 45.5t50 118.5v1082h229v-1129q0 -131 -105 -225t-274 -94h-245q-173 0 -282 94t-109 225z" />
<glyph unicode="V" horiz-adv-x="1349" d="M72 1434h229l375 -1139l371 1139h231l-490 -1434h-227z" />
<glyph unicode="W" horiz-adv-x="1982" d="M72 1434h239l279 -1102l287 1102h231l287 -1102l278 1102h238l-402 -1434h-229l-289 1022l-286 -1022h-230z" />
<glyph unicode="X" horiz-adv-x="1318" d="M76 0l459 748l-410 686h256l295 -492l280 492h252l-405 -703l438 -731h-256l-323 539l-334 -539h-252z" />
<glyph unicode="Y" horiz-adv-x="1282" d="M72 1436h235l340 -645l334 645h229l-448 -865v-571h-227v571z" />
<glyph unicode="Z" horiz-adv-x="1210" d="M115 0v203l712 1028h-698v205h952v-205l-690 -1028h705v-203h-981z" />
<glyph unicode="[" horiz-adv-x="653" d="M158 -256v1692h428v-205h-201v-1282h207v-205h-434z" />
<glyph unicode="\" horiz-adv-x="1132" d="M61 1434h240l752 -1434h-240z" />
<glyph unicode="]" horiz-adv-x="653" d="M61 -51h207v1282h-198v203h426v-1690h-435v205z" />
<glyph unicode="^" horiz-adv-x="872" d="M72 1081l241 455h228l260 -455h-230l-141 248l-131 -248h-227z" />
<glyph unicode="_" horiz-adv-x="917" d="M0 -125h918v-197h-918v197z" />
<glyph unicode="`" horiz-adv-x="722" d="M82 1407l74 186l485 -227l-66 -158z" />
<glyph unicode="a" horiz-adv-x="1128" d="M121 264v105q0 64 29.5 117.5t80.5 88.5t112.5 57.5t131.5 31.5l287 34v86q0 72 -47 116t-115 44h-51q-67 0 -113.5 -41.5t-46.5 -111.5v-19h-221v33q0 139 96.5 236.5t251.5 97.5h113q158 0 255 -99.5t97 -240.5v-799h-152l-28 106q-60 -57 -131 -87.5t-140 -30.5h-110 q-133 0 -216 82t-83 194zM340 291q0 -46 36 -76.5t83 -30.5h82q62 0 120.5 27t100.5 74v229l-258 -39q-69 -11 -116.5 -47t-47.5 -84v-53z" />
<glyph unicode="b" horiz-adv-x="1138" d="M150 0v1536h221v-477q104 80 221 80h115q137 0 222 -104.5t85 -254.5v-432q0 -96 -37 -177.5t-108 -132t-162 -50.5h-127q-137 0 -250 110l-27 -98h-153zM371 281q37 -45 89.5 -71t108.5 -26h66q67 0 112.5 46t45.5 122v424q0 74 -46.5 121t-113.5 47h-72 q-55 0 -104.5 -25.5t-85.5 -70.5v-567z" />
<glyph unicode="c" horiz-adv-x="1093" d="M125 326v469q0 143 99.5 243.5t260.5 100.5h136q155 0 251.5 -100.5t96.5 -243.5v-62h-221v45q0 75 -47.5 120.5t-116.5 45.5h-74q-69 0 -116.5 -45.5t-47.5 -120.5v-430q0 -74 47 -119t117 -45h74q70 0 117 45t47 119v45h221v-67q0 -139 -96.5 -238.5t-251.5 -99.5h-136 q-160 0 -260 99.5t-100 238.5z" />
<glyph unicode="d" horiz-adv-x="1138" d="M125 348v432q0 150 85 254.5t222 104.5h115q114 0 221 -80v477h221v-1536h-151l-29 98q-113 -110 -250 -110h-127q-91 0 -162 50.5t-108 132t-37 177.5zM346 352q0 -76 45.5 -122t112.5 -46h65q55 0 108.5 26t90.5 71v567q-36 45 -85.5 70.5t-104.5 25.5h-72 q-65 0 -112.5 -47t-47.5 -121v-424z" />
<glyph unicode="e" d="M125 326v469q0 143 99.5 243.5t260.5 100.5h156q155 0 251.5 -100.5t96.5 -243.5v-320h-643v-127q0 -74 47 -119t117 -45h94q70 0 117 45t47 119v2h221v-24q0 -139 -96.5 -238.5t-251.5 -99.5h-156q-160 0 -260 99.5t-100 238.5zM346 651h422v127q0 75 -47.5 120.5 t-116.5 45.5h-94q-69 0 -116.5 -45.5t-47.5 -120.5v-127z" />
<glyph unicode="f" horiz-adv-x="579" d="M43 930v196h107v45q0 176 112.5 270.5t304.5 94.5v-193q-80 0 -138 -49t-58 -123v-45h188v-196h-188v-930h-221v930h-107z" />
<glyph unicode="g" horiz-adv-x="1138" d="M125 348v432q0 150 85 254.5t222 104.5h115q141 0 262 -115l29 102h151v-1230q0 -131 -105.5 -225.5t-273.5 -94.5h-94q-158 0 -263.5 78t-123.5 190l-2 13l219 26l4 -10q15 -50 62.5 -82.5t109.5 -32.5h70q74 0 125 45.5t51 120.5v139q-101 -75 -209 -75h-127 q-91 0 -162 50.5t-108 132t-37 177.5zM346 352q0 -76 45.5 -122t112.5 -46h65q55 0 108.5 26t90.5 71v569q-75 94 -190 94h-72q-66 0 -113 -47t-47 -121v-424z" />
<glyph unicode="h" horiz-adv-x="1138" d="M150 0v1536h221v-479q113 82 233 82h74q144 0 228.5 -96t84.5 -242v-801h-221v788q0 74 -45 115t-113 41h-47q-120 0 -194 -96v-848h-221z" />
<glyph unicode="i" horiz-adv-x="522" d="M150 0v1126h221v-1126h-221zM150 1264v272h221v-272h-221z" />
<glyph unicode="j" horiz-adv-x="522" d="M-51 -231q85 0 144 46t59 119v1192h221v-1192q0 -175 -113.5 -266.5t-310.5 -91.5v193zM150 1264v272h221v-272h-221z" />
<glyph unicode="k" horiz-adv-x="1095" d="M150 0v1536h221v-801h112l267 391h264l-363 -477l420 -649h-250l-340 541h-110v-541h-221z" />
<glyph unicode="l" horiz-adv-x="522" d="M150 0v1536h221v-1536h-221z" />
<glyph unicode="m" horiz-adv-x="1755" d="M150 0v1126h153l29 -102q125 115 272 115h74q169 0 256 -131q131 131 289 131h73q144 0 229 -96.5t85 -241.5v-801h-221v788q0 74 -45 115t-113 41h-49q-55 0 -106.5 -26t-86.5 -72q2 -14 2 -45v-801h-221v788q0 74 -45 115t-113 41h-47q-120 0 -194 -96v-848h-221z" />
<glyph unicode="n" horiz-adv-x="1138" d="M150 0v1126h153l29 -102q125 115 272 115h74q144 0 228.5 -96t84.5 -242v-801h-221v788q0 74 -45 115t-113 41h-47q-120 0 -194 -96v-848h-221z" />
<glyph unicode="o" d="M125 326v469q0 143 99.5 243.5t260.5 100.5h156q155 0 251.5 -100.5t96.5 -243.5v-469q0 -139 -96.5 -238.5t-251.5 -99.5h-156q-160 0 -260 99.5t-100 238.5zM346 348q0 -74 47 -119t117 -45h94q70 0 117 45t47 119v430q0 75 -47.5 120.5t-116.5 45.5h-94 q-69 0 -116.5 -45.5t-47.5 -120.5v-430z" />
<glyph unicode="p" horiz-adv-x="1138" d="M150 -424v1550h153l27 -100q123 113 262 113h115q137 0 222 -104.5t85 -254.5v-432q0 -96 -37 -177.5t-108 -132t-162 -50.5h-127q-114 0 -209 73v-485h-221zM371 281q37 -45 89.5 -71t108.5 -26h66q67 0 112.5 46t45.5 122v424q0 74 -46.5 121t-113.5 47h-72 q-55 0 -104.5 -25.5t-85.5 -70.5v-567z" />
<glyph unicode="q" horiz-adv-x="1138" d="M125 348v432q0 150 85 254.5t222 104.5h115q141 0 262 -115l29 102h151v-1550h-221v485q-98 -73 -209 -73h-127q-91 0 -162 50.5t-108 132t-37 177.5zM346 352q0 -76 45.5 -122t112.5 -46h65q55 0 108.5 26t90.5 71v567q-36 45 -85.5 70.5t-104.5 25.5h-72 q-65 0 -112.5 -47t-47.5 -121v-424z" />
<glyph unicode="r" horiz-adv-x="782" d="M150 0v1126h153l31 -131q142 142 307 142h115v-197h-146q-67 0 -132 -36.5t-107 -98.5v-805h-221z" />
<glyph unicode="s" horiz-adv-x="1091" d="M127 283v53h217v-39q0 -50 44 -81.5t110 -31.5h118q58 0 99 28.5t41 72.5v43q0 26 -26 48.5t-68 39t-96 36t-110 38t-110 47t-96 61t-68 80.5t-26 106v82q0 112 89 192.5t236 80.5h123q148 0 239 -87t91 -212v-43h-207v32q0 53 -39.5 84t-95.5 31h-86q-51 0 -87 -26 t-36 -66v-43q0 -28 25 -52t66 -42t93.5 -38t107.5 -39t107.5 -47.5t93.5 -61t66 -81t25 -106.5v-74q0 -113 -94.5 -196.5t-243.5 -83.5h-156q-157 0 -251.5 87t-94.5 208z" />
<glyph unicode="t" horiz-adv-x="638" d="M25 932v194h137l67 308h152v-308h197v-194h-197v-584q0 -73 55 -120.5t137 -47.5v-192q-197 0 -305 91.5t-108 268.5v584h-135z" />
<glyph unicode="u" horiz-adv-x="1130" d="M147 326v800h220v-788q0 -74 45 -115t114 -41h47q51 0 100.5 23t84.5 63v858h221v-1126h-152l-28 98q-119 -110 -267 -110h-71q-144 0 -229 97t-85 241z" />
<glyph unicode="v" horiz-adv-x="1013" d="M25 1126h225l262 -862l250 862h227l-352 -1126h-248z" />
<glyph unicode="w" horiz-adv-x="1634" d="M25 1126h225l217 -837l229 837h238l233 -839l215 839h228l-314 -1126h-249l-230 801l-225 -801h-248z" />
<glyph unicode="x" horiz-adv-x="1089" d="M41 0l381 580l-354 546h251l232 -358l217 358h254l-344 -555l371 -571h-250l-252 385l-258 -385h-248z" />
<glyph unicode="y" horiz-adv-x="1083" d="M31 1126h225l287 -809l284 809h226l-545 -1550h-225l149 428z" />
<glyph unicode="z" horiz-adv-x="1011" d="M100 0v197l533 735h-508v194h766v-194l-537 -735h561v-197h-815z" />
<glyph unicode="{" horiz-adv-x="733" d="M61 506v194h43q60 3 102 39.5t42 89.5v293q0 159 107.5 241.5t293.5 82.5h8v-193h-8q-74 0 -126 -36.5t-52 -94.5v-305q0 -55 -33.5 -112t-89.5 -103q56 -46 89.5 -101.5t33.5 -109.5v-305q0 -58 52 -94.5t126 -36.5h8v-193h-8q-186 0 -293.5 82.5t-107.5 241.5v291 q0 57 -45.5 93t-110.5 36h-31z" />
<glyph unicode="|" horiz-adv-x="538" d="M158 -471v2048h223v-2048h-223z" />
<glyph unicode="}" horiz-adv-x="733" d="M76 -45h8q74 0 126 36.5t52 94.5v305q0 54 33.5 109.5t89.5 101.5q-56 46 -89.5 103t-33.5 112v305q0 58 -52 94.5t-126 36.5h-8v193h8q186 0 293.5 -82.5t107.5 -241.5v-293q0 -53 42 -89.5t102 -39.5h43v-194h-31q-65 0 -110.5 -36t-45.5 -93v-291 q0 -159 -107.5 -241.5t-293.5 -82.5h-8v193z" />
<glyph unicode="~" horiz-adv-x="948" d="M86 440v107q0 100 33.5 148t122.5 48q65 0 144.5 -29t150 -58t112.5 -29q43 0 43 43v69h168v-133q0 -77 -37 -120.5t-114 -43.5q-74 0 -158 28t-150.5 55.5t-99.5 27.5q-24 0 -33.5 -14t-9.5 -43v-56h-172z" />
<glyph unicode="&#xa1;" horiz-adv-x="520" d="M150 -385v1077h221v-1077h-221zM150 856v270h221v-270h-221z" />
<glyph unicode="&#xa2;" horiz-adv-x="1112" d="M125 307v514q0 126 97 217.5t255 98.5v321h180v-321q149 -10 240.5 -101.5t91.5 -214.5v-88h-221v45q0 75 -47.5 120.5t-116.5 45.5h-94q-69 0 -116.5 -45.5t-47.5 -120.5v-430q0 -74 47 -119t117 -45h94q70 0 117 45t47 119v45h221v-86q0 -124 -91 -215.5t-241 -101.5 v-316h-180v316q-158 7 -255 99t-97 218z" />
<glyph unicode="&#xa3;" horiz-adv-x="1249" d="M39 625v204h172v297q0 131 108 225.5t283 94.5h125q168 0 273.5 -94.5t105.5 -225.5v-163h-229v116q0 73 -51 118.5t-126 45.5h-86q-74 0 -125 -45.5t-51 -118.5v-250h262v-204h-262v-422h480v217h229v-420h-1106v203h170v422h-172z" />
<glyph unicode="&#xa5;" horiz-adv-x="1282" d="M72 1436h235l340 -617l334 617h229l-370 -680h252v-199h-330v-151h330v-199h-330v-207h-227v207h-342v199h342v151h-342v199h260z" />
<glyph unicode="&#xa7;" horiz-adv-x="1243" d="M98 -12h228v-45q0 -73 56 -117.5t142 -44.5h162q90 0 146.5 36t56.5 101v37q0 35 -41.5 67.5t-107 61t-145.5 60t-160 71.5t-145.5 87.5t-107 116.5t-41.5 150v93q0 120 82 208q-80 83 -80 191v86q0 122 104.5 210.5t270.5 88.5h146q180 0 291.5 -91.5t111.5 -219.5v-91 h-229v41q0 72 -53.5 115t-133.5 43h-108q-73 0 -122.5 -35t-49.5 -92v-39q0 -36 31.5 -69.5t83.5 -59.5t118 -55.5t134.5 -57.5t134.5 -66t118 -79.5t83.5 -99.5t31.5 -125v-92q0 -127 -82 -215q92 -85 92 -187v-84q0 -132 -111 -220.5t-292 -88.5h-203q-183 0 -297.5 93.5 t-114.5 224.5v92zM371 569q0 -35 24.5 -65.5t75.5 -59.5t98 -50.5t125.5 -54t124.5 -54.5q58 45 58 116v64q0 30 -26.5 58t-77 54t-103 48t-126.5 54t-126 58q-47 -38 -47 -104v-64z" />
<glyph unicode="&#xa8;" horiz-adv-x="829" d="M82 1282v272h223v-272h-223zM526 1282v272h222v-272h-222z" />
<glyph unicode="&#xa9;" horiz-adv-x="1585" d="M135 315v801q0 136 97.5 233t232.5 97h655q134 0 232 -97t98 -233v-801q0 -134 -98 -230.5t-232 -96.5h-655q-135 0 -232.5 96t-97.5 231zM264 315q0 -83 58.5 -140.5t142.5 -57.5h655q82 0 140.5 57.5t58.5 140.5v801q0 84 -58.5 143.5t-140.5 59.5h-655q-83 0 -142 -59 t-59 -144v-801zM465 487v447q0 97 71 167t169 70h165q98 0 169 -70t71 -167v-92h-129v92q0 44 -32.5 77t-78.5 33h-165q-45 0 -78 -33.5t-33 -76.5v-447q0 -46 32.5 -78t78.5 -32h165q47 0 79 32t32 78v97h129v-97q0 -98 -70.5 -167.5t-169.5 -69.5h-165q-99 0 -169.5 69.5 t-70.5 167.5z" />
<glyph unicode="&#xaa;" horiz-adv-x="628" d="M70 983v53q0 56 52.5 96.5t127.5 51.5l143 20v53q0 14 -10 24.5t-27 10.5h-86q-11 0 -19.5 -7t-8.5 -15v-19h-146v37q0 65 55.5 106.5t131.5 41.5h69q75 0 131 -50.5t56 -119.5v-439h-107l-14 47q-74 -53 -146 -53h-24q-72 0 -125 48.5t-53 113.5zM215 997 q0 -17 11.5 -26.5t29.5 -9.5h35q44 0 102 47v61l-141 -25q-17 -3 -27 -12t-10 -18v-17z" />
<glyph unicode="&#xab;" horiz-adv-x="1462" d="M102 444v236l621 360v-231l-420 -248l420 -244v-231zM729 444v236l621 360v-231l-420 -248l420 -244v-231z" />
<glyph unicode="&#xad;" horiz-adv-x="821" d="M115 512v199h594v-199h-594z" />
<glyph unicode="&#xae;" horiz-adv-x="1585" d="M135 315v801q0 136 97.5 233t232.5 97h655q134 0 232 -97t98 -233v-801q0 -134 -98 -230.5t-232 -96.5h-655q-135 0 -232.5 96t-97.5 231zM264 315q0 -83 58.5 -140.5t142.5 -57.5h655q82 0 140.5 57.5t58.5 140.5v801q0 84 -58.5 143.5t-140.5 59.5h-655q-83 0 -142 -59 t-59 -144v-801zM481 252v919h357q110 0 187 -64t77 -161v-112q0 -63 -47 -122t-119 -85l190 -375h-149l-184 362h-181v-362h-131zM612 741h244q46 0 80.5 29t34.5 64v112q0 41 -38 69.5t-95 28.5h-226v-303z" />
<glyph unicode="&#xaf;" horiz-adv-x="851" d="M129 1341v197h596v-197h-596z" />
<glyph unicode="&#xb0;" horiz-adv-x="905" d="M82 1001v175q0 112 86.5 192t228.5 80h123q137 0 221 -80t84 -192v-175q0 -112 -84 -192t-221 -80h-123q-142 0 -228.5 80t-86.5 192zM301 1024q0 -47 29 -72.5t73 -25.5h99q44 0 73 25.5t29 72.5v129q0 47 -29 72.5t-73 25.5h-99q-44 0 -73 -25.5t-29 -72.5v-129z" />
<glyph unicode="&#xb2;" horiz-adv-x="712" d="M86 641v188q0 95 84 160q31 24 120 71t122 79q28 25 28 55v33q0 26 -18 41.5t-45 15.5h-41q-27 0 -44.5 -15.5t-17.5 -41.5v-62h-174v86q0 79 63 137t163 58h61q103 0 165 -60.5t62 -148.5v-84q0 -84 -73 -139q-14 -13 -69 -43.5t-81 -48.5q-104 -59 -115 -76 q-16 -13 -16 -43h365v-162h-539z" />
<glyph unicode="&#xb3;" horiz-adv-x="718" d="M86 823v80h176v-55q0 -26 18.5 -41.5t45.5 -15.5h69q26 0 44 17t18 44v47q0 27 -19.5 43t-48.5 16h-100v164h88q55 0 55 49v62q0 22 -15 35.5t-38 13.5h-39q-22 0 -36.5 -13.5t-14.5 -35.5v-53h-178v77q0 76 62 132.5t161 56.5h59q96 0 156.5 -56.5t60.5 -132.5v-108 q0 -53 -65 -102q39 -24 63.5 -57.5t24.5 -63.5v-99q0 -82 -62 -141t-163 -59h-91q-101 0 -166 58.5t-65 137.5z" />
<glyph unicode="&#xb4;" horiz-adv-x="722" d="M82 1366l485 227l74 -186l-494 -199z" />
<glyph unicode="&#xb5;" horiz-adv-x="1155" d="M150 -422v1548h221v-788q0 -73 45 -113.5t112 -40.5h54q57 0 110.5 25.5t91.5 69.5v847h222v-1126h-152l-31 109q-137 -121 -299 -121h-80q-27 0 -73 8v-418h-221z" />
<glyph unicode="&#xb6;" horiz-adv-x="1669" d="M115 803v323q0 129 107 219.5t282 90.5h1077v-205h-145v-1622h-228v1622h-164v-1622h-227v876h-325q-167 0 -272 95.5t-105 222.5z" />
<glyph unicode="&#xb7;" horiz-adv-x="507" d="M145 451v274h220v-274h-220z" />
<glyph unicode="&#xb8;" horiz-adv-x="522" d="M86 -295h121q102 0 102 55q0 24 -23 45t-65 21h-98l76 188h143l-39 -90q66 -15 101.5 -59t35.5 -105q0 -84 -57.5 -134t-183.5 -50h-113v129z" />
<glyph unicode="&#xb9;" horiz-adv-x="624" d="M86 641v162h141v450l-141 -73v170l164 84h151v-631h138v-162h-453z" />
<glyph unicode="&#xba;" horiz-adv-x="628" d="M70 987v279q0 69 56 119.5t132 50.5h94q75 0 131 -50.5t56 -119.5v-279q0 -67 -56 -116.5t-131 -49.5h-94q-76 0 -132 49t-56 117zM215 999q0 -14 12 -23t31 -9h94q18 0 29.5 9t11.5 23v254q0 16 -11.5 27.5t-29.5 11.5h-94q-18 0 -30.5 -12t-12.5 -27v-254z" />
<glyph unicode="&#xbb;" horiz-adv-x="1462" d="M113 86v231l419 244l-419 248v231l620 -360v-236zM739 86v231l420 244l-420 248v231l621 -360v-236z" />
<glyph unicode="&#xbc;" horiz-adv-x="1505" d="M86 641v162h141v450l-141 -73v170l164 84h151v-631h138v-162h-453zM356 0l611 1434h211l-613 -1434h-209zM854 170v141l324 484h161v-463h80v-162h-80v-170h-176v170h-309zM1051 332h112v170z" />
<glyph unicode="&#xbd;" horiz-adv-x="1560" d="M86 641v162h141v450l-141 -73v170l164 84h151v-631h138v-162h-453zM358 0l611 1434h211l-613 -1434h-209zM934 2v188q0 95 84 160q31 24 120 71t122 79q28 24 28 55v33q0 26 -18 41.5t-45 15.5h-41q-27 0 -44.5 -15.5t-17.5 -41.5v-62h-174v86q0 79 63 137t163 58h61 q103 0 165 -60.5t62 -148.5v-84q0 -84 -73 -139q-14 -13 -69 -43.5t-81 -48.5q-104 -59 -115 -76q-16 -13 -16 -43h365v-162h-539z" />
<glyph unicode="&#xbe;" horiz-adv-x="1579" d="M86 823v80h176v-55q0 -26 18.5 -41.5t45.5 -15.5h69q26 0 44 17t18 44v47q0 27 -19.5 43t-48.5 16h-100v164h88q55 0 55 49v62q0 22 -15 35.5t-38 13.5h-39q-22 0 -36.5 -13.5t-14.5 -35.5v-53h-178v77q0 76 62 132.5t161 56.5h59q96 0 156.5 -56.5t60.5 -132.5v-108 q0 -53 -65 -102q39 -24 63.5 -57.5t24.5 -63.5v-99q0 -82 -62 -141t-163 -59h-91q-101 0 -166 58.5t-65 137.5zM430 0l612 1434h209l-612 -1434h-209zM930 170v141l321 484h162v-463h80v-162h-80v-170h-174v170h-309zM1126 332h113v170z" />
<glyph unicode="&#xbf;" horiz-adv-x="1122" d="M129 0v184q0 125 96 209q15 18 114 95.5t112 91.5q53 50 53 108v74h227v-150q0 -120 -94 -196q-13 -13 -123.5 -90.5t-124.5 -96.5q-33 -33 -33 -90v-90q0 -75 50 -119.5t126 -44.5h89q74 0 125 45t51 119v111h227v-160q0 -131 -104.5 -225t-272.5 -94h-127 q-175 0 -283 94t-108 225zM504 856v270h227v-270h-227z" />
<glyph unicode="&#xc0;" horiz-adv-x="1349" d="M72 0l489 1440h227l490 -1440h-231l-115 354h-518l-113 -354h-229zM399 1716l80 203l479 -195l-71 -180zM479 559h385l-192 596z" />
<glyph unicode="&#xc1;" horiz-adv-x="1349" d="M72 0l489 1440h227l490 -1440h-231l-115 354h-518l-113 -354h-229zM418 1724l479 195l78 -203l-486 -172zM479 559h385l-192 596z" />
<glyph unicode="&#xc2;" horiz-adv-x="1349" d="M72 0l489 1440h227l490 -1440h-231l-115 354h-518l-113 -354h-229zM340 1737l315 182h37l316 -170l-70 -190l-264 137l-262 -137zM479 559h385l-192 596z" />
<glyph unicode="&#xc3;" horiz-adv-x="1349" d="M72 0l489 1440h227l490 -1440h-231l-115 354h-518l-113 -354h-229zM332 1573v92q0 104 33.5 153.5t123.5 49.5q56 0 153 -51.5t146 -51.5q33 0 33 33v60h185v-123q0 -78 -39.5 -122t-118.5 -44q-49 0 -107 23.5t-109.5 47t-84.5 23.5q-29 0 -29 -47v-43h-186zM479 559 h385l-192 596z" />
<glyph unicode="&#xc4;" horiz-adv-x="1349" d="M72 0l489 1440h227l490 -1440h-231l-115 354h-518l-113 -354h-229zM344 1591v271h238v-271h-238zM479 559h385l-192 596zM768 1591v271h240v-271h-240z" />
<glyph unicode="&#xc5;" horiz-adv-x="1349" d="M72 0l446 1313q-47 34 -73.5 83.5t-26.5 106.5v41q0 96 71 165t187 69h31q110 0 178.5 -69t68.5 -165v-41q0 -63 -31.5 -118t-86.5 -87l442 -1298h-231l-115 354h-518l-113 -354h-229zM479 559h385l-192 596zM582 1513q0 -46 30 -73h148q31 28 31 73v19q0 44 -29 72 t-70 28h-12q-41 0 -69.5 -27.5t-28.5 -72.5v-19z" />
<glyph unicode="&#xc6;" horiz-adv-x="1884" d="M59 0l764 1436h895v-205h-620v-393h559v-205h-559v-430h641v-203h-871v342h-385l-180 -342h-244zM592 547h276v518z" />
<glyph unicode="&#xc7;" horiz-adv-x="1263" d="M133 307v819q0 131 108.5 225.5t282.5 94.5h228q169 0 273.5 -94.5t104.5 -225.5v-163h-227v116q0 73 -50.5 118.5t-125.5 45.5h-190q-73 0 -124 -45.5t-51 -118.5v-725q0 -73 51 -118.5t124 -45.5h190q75 0 125.5 45.5t50.5 118.5v123h227v-170q0 -131 -104.5 -225 t-273.5 -94h-43l-27 -64q66 -15 101.5 -59t35.5 -105q0 -84 -57.5 -134t-183.5 -50h-113v129h121q102 0 102 55q0 24 -23 45t-65 21h-98l65 162h-43q-174 0 -282.5 94t-108.5 225z" />
<glyph unicode="&#xc8;" horiz-adv-x="1175" d="M158 0v1436h852v-205h-623v-393h561v-205h-561v-430h643v-203h-872zM311 1716l80 203l479 -195l-71 -180z" />
<glyph unicode="&#xc9;" horiz-adv-x="1175" d="M158 0v1436h852v-205h-623v-393h561v-205h-561v-430h643v-203h-872zM332 1724l479 195l78 -203l-486 -172z" />
<glyph unicode="&#xca;" horiz-adv-x="1175" d="M158 0v1436h852v-205h-623v-393h561v-205h-561v-430h643v-203h-872zM256 1737l315 182h37l316 -170l-70 -190l-264 137l-262 -137z" />
<glyph unicode="&#xcb;" horiz-adv-x="1175" d="M158 0v1436h852v-205h-623v-393h561v-205h-561v-430h643v-203h-872zM260 1591v271h238v-271h-238zM684 1591v271h240v-271h-240z" />
<glyph unicode="&#xcc;" horiz-adv-x="544" d="M-2 1716l80 203l479 -195l-72 -180zM158 0v1436h229v-1436h-229z" />
<glyph unicode="&#xcd;" horiz-adv-x="544" d="M16 1724l480 195l77 -203l-485 -172zM158 0v1436h229v-1436h-229z" />
<glyph unicode="&#xce;" horiz-adv-x="544" d="M-61 1737l315 182h37l315 -170l-69 -190l-265 137l-262 -137zM158 0v1436h229v-1436h-229z" />
<glyph unicode="&#xcf;" horiz-adv-x="544" d="M-57 1591v271h237v-271h-237zM158 0v1436h229v-1436h-229zM367 1591v271h239v-271h-239z" />
<glyph unicode="&#xd0;" horiz-adv-x="1312" d="M23 645v197h135v592h643q168 0 272.5 -94.5t104.5 -225.5v-795q0 -131 -104.5 -225t-272.5 -94h-643v645h-135zM387 203h387q75 0 125.5 45.5t50.5 118.5v700q0 73 -50.5 118.5t-125.5 45.5h-387v-389h287v-197h-287v-442z" />
<glyph unicode="&#xd1;" horiz-adv-x="1337" d="M158 0v1436h231l561 -1014v1014h228v-1436h-232l-559 1008v-1008h-229zM328 1573v92q0 104 33.5 153.5t123.5 49.5q56 0 153 -51.5t146 -51.5q33 0 33 33v60h184v-123q0 -78 -39 -122t-118 -44q-49 0 -107 23.5t-109.5 47t-84.5 23.5q-29 0 -29 -47v-43h-186z" />
<glyph unicode="&#xd2;" horiz-adv-x="1288" d="M133 307v819q0 131 108.5 225.5t282.5 94.5h252q168 0 272.5 -94.5t104.5 -225.5v-819q0 -131 -104.5 -225t-272.5 -94h-252q-174 0 -282.5 94t-108.5 225zM362 354q0 -73 51 -118.5t124 -45.5h213q75 0 125.5 45.5t50.5 118.5v725q0 73 -50.5 118.5t-125.5 45.5h-213 q-73 0 -124 -45.5t-51 -118.5v-725zM365 1716l79 203l480 -195l-72 -180z" />
<glyph unicode="&#xd3;" horiz-adv-x="1288" d="M133 307v819q0 131 108.5 225.5t282.5 94.5h252q168 0 272.5 -94.5t104.5 -225.5v-819q0 -131 -104.5 -225t-272.5 -94h-252q-174 0 -282.5 94t-108.5 225zM362 354q0 -73 51 -118.5t124 -45.5h213q75 0 125.5 45.5t50.5 118.5v725q0 73 -50.5 118.5t-125.5 45.5h-213 q-73 0 -124 -45.5t-51 -118.5v-725zM391 1724l479 195l78 -203l-485 -172z" />
<glyph unicode="&#xd4;" horiz-adv-x="1288" d="M133 307v819q0 131 108.5 225.5t282.5 94.5h252q168 0 272.5 -94.5t104.5 -225.5v-819q0 -131 -104.5 -225t-272.5 -94h-252q-174 0 -282.5 94t-108.5 225zM309 1737l316 182h37l315 -170l-70 -190l-264 137l-262 -137zM362 354q0 -73 51 -118.5t124 -45.5h213 q75 0 125.5 45.5t50.5 118.5v725q0 73 -50.5 118.5t-125.5 45.5h-213q-73 0 -124 -45.5t-51 -118.5v-725z" />
<glyph unicode="&#xd5;" horiz-adv-x="1288" d="M133 307v819q0 131 108.5 225.5t282.5 94.5h252q168 0 272.5 -94.5t104.5 -225.5v-819q0 -131 -104.5 -225t-272.5 -94h-252q-174 0 -282.5 94t-108.5 225zM301 1573v92q0 104 34 153.5t124 49.5q56 0 153 -51.5t146 -51.5q33 0 33 33v60h184v-123q0 -78 -39.5 -122 t-118.5 -44q-49 0 -107 23.5t-109.5 47t-84.5 23.5q-29 0 -29 -47v-43h-186zM362 354q0 -73 51 -118.5t124 -45.5h213q75 0 125.5 45.5t50.5 118.5v725q0 73 -50.5 118.5t-125.5 45.5h-213q-73 0 -124 -45.5t-51 -118.5v-725z" />
<glyph unicode="&#xd6;" horiz-adv-x="1288" d="M133 307v819q0 131 108.5 225.5t282.5 94.5h252q168 0 272.5 -94.5t104.5 -225.5v-819q0 -131 -104.5 -225t-272.5 -94h-252q-174 0 -282.5 94t-108.5 225zM313 1591v271h238v-271h-238zM362 354q0 -73 51 -118.5t124 -45.5h213q75 0 125.5 45.5t50.5 118.5v725 q0 73 -50.5 118.5t-125.5 45.5h-213q-73 0 -124 -45.5t-51 -118.5v-725zM737 1591v271h240v-271h-240z" />
<glyph unicode="&#xd7;" horiz-adv-x="1034" d="M63 393l316 314l-316 315l140 139l315 -315l316 315l139 -139l-316 -315l316 -314l-139 -139l-316 313l-315 -313z" />
<glyph unicode="&#xd8;" horiz-adv-x="1288" d="M63 -205l166 297q-96 90 -96 215v819q0 131 108.5 225.5t282.5 94.5h252q107 0 191 -41l129 229h139l-168 -301q86 -89 86 -207v-819q0 -131 -104.5 -225t-272.5 -94h-252q-114 0 -192 37l-129 -230h-140zM362 330l496 880q-51 33 -108 33h-213q-73 0 -124 -45.5 t-51 -118.5v-749zM438 215q45 -25 99 -25h213q75 0 125.5 45.5t50.5 118.5v729z" />
<glyph unicode="&#xd9;" horiz-adv-x="1314" d="M150 307v1129h231v-1082q0 -73 50 -118.5t124 -45.5h207q74 0 124 45.5t50 118.5v1082h229v-1129q0 -131 -105 -225t-274 -94h-245q-173 0 -282 94t-109 225zM373 1716l80 203l479 -195l-72 -180z" />
<glyph unicode="&#xda;" horiz-adv-x="1314" d="M150 307v1129h231v-1082q0 -73 50 -118.5t124 -45.5h207q74 0 124 45.5t50 118.5v1082h229v-1129q0 -131 -105 -225t-274 -94h-245q-173 0 -282 94t-109 225zM412 1724l479 195l78 -203l-486 -172z" />
<glyph unicode="&#xdb;" horiz-adv-x="1314" d="M150 307v1129h231v-1082q0 -73 50 -118.5t124 -45.5h207q74 0 124 45.5t50 118.5v1082h229v-1129q0 -131 -105 -225t-274 -94h-245q-173 0 -282 94t-109 225zM324 1737l315 182h37l315 -170l-69 -190l-265 137l-262 -137z" />
<glyph unicode="&#xdc;" horiz-adv-x="1314" d="M150 307v1129h231v-1082q0 -73 50 -118.5t124 -45.5h207q74 0 124 45.5t50 118.5v1082h229v-1129q0 -131 -105 -225t-274 -94h-245q-173 0 -282 94t-109 225zM328 1591v271h237v-271h-237zM752 1591v271h239v-271h-239z" />
<glyph unicode="&#xdd;" horiz-adv-x="1282" d="M72 1436h235l340 -645l334 645h229l-448 -865v-571h-227v571zM385 1724l479 195l78 -203l-485 -172z" />
<glyph unicode="&#xde;" horiz-adv-x="1243" d="M158 0v1436h229v-240h352q174 0 281.5 -89.5t107.5 -217.5v-301q0 -129 -104.5 -223.5t-271.5 -94.5h-365v-270h-229zM387 473h338q73 0 123.5 45.5t50.5 116.5v207q0 70 -52.5 110.5t-133.5 40.5h-326v-520z" />
<glyph unicode="&#xdf;" horiz-adv-x="1136" d="M133 0v1114q0 137 97 234.5t235 97.5h119q138 0 236 -97.5t98 -234.5v-22q0 -49 -16 -89t-38.5 -66t-45 -49.5t-38.5 -51.5t-16 -60v-28q0 -30 19.5 -58.5t49 -50t63.5 -50.5t63.5 -59.5t49 -78.5t19.5 -105v-39q0 -126 -98.5 -216.5t-235.5 -90.5h-182v197h182 q46 0 80.5 34.5t34.5 81.5v19q0 29 -27 59t-65.5 61t-77 67t-65.5 91t-27 119v39q0 62 23.5 116t51 85.5t51 67t23.5 63.5v14q0 57 -40 96t-97 39h-57q-57 0 -103.5 -45t-46.5 -108v-1096h-219z" />
<glyph unicode="&#xe0;" horiz-adv-x="1128" d="M121 264v105q0 64 29.5 117.5t80.5 88.5t112.5 57.5t131.5 31.5l287 34v86q0 72 -47 116t-115 44h-51q-67 0 -113.5 -41.5t-46.5 -111.5v-19h-221v33q0 139 96.5 236.5t251.5 97.5h113q158 0 255 -99.5t97 -240.5v-799h-152l-28 106q-60 -57 -131 -87.5t-140 -30.5h-110 q-133 0 -216 82t-83 194zM285 1407l73 186l486 -227l-66 -158zM340 291q0 -46 36 -76.5t83 -30.5h82q62 0 120.5 27t100.5 74v229l-258 -39q-69 -11 -116.5 -47t-47.5 -84v-53z" />
<glyph unicode="&#xe1;" horiz-adv-x="1128" d="M121 264v105q0 64 29.5 117.5t80.5 88.5t112.5 57.5t131.5 31.5l287 34v86q0 72 -47 116t-115 44h-51q-67 0 -113.5 -41.5t-46.5 -111.5v-19h-221v33q0 139 96.5 236.5t251.5 97.5h113q158 0 255 -99.5t97 -240.5v-799h-152l-28 106q-60 -57 -131 -87.5t-140 -30.5h-110 q-133 0 -216 82t-83 194zM289 1366l485 227l74 -186l-494 -199zM340 291q0 -46 36 -76.5t83 -30.5h82q62 0 120.5 27t100.5 74v229l-258 -39q-69 -11 -116.5 -47t-47.5 -84v-53z" />
<glyph unicode="&#xe2;" horiz-adv-x="1128" d="M121 264v105q0 64 29.5 117.5t80.5 88.5t112.5 57.5t131.5 31.5l287 34v86q0 72 -47 116t-115 44h-51q-67 0 -113.5 -41.5t-46.5 -111.5v-19h-221v33q0 139 96.5 236.5t251.5 97.5h113q158 0 255 -99.5t97 -240.5v-799h-152l-28 106q-60 -57 -131 -87.5t-140 -30.5h-110 q-133 0 -216 82t-83 194zM254 1366l295 199h37l291 -189l-64 -168l-248 152l-243 -152zM340 291q0 -46 36 -76.5t83 -30.5h82q62 0 120.5 27t100.5 74v229l-258 -39q-69 -11 -116.5 -47t-47.5 -84v-53z" />
<glyph unicode="&#xe3;" horiz-adv-x="1128" d="M121 264v105q0 64 29.5 117.5t80.5 88.5t112.5 57.5t131.5 31.5l287 34v86q0 72 -47 116t-115 44h-51q-67 0 -113.5 -41.5t-46.5 -111.5v-19h-221v33q0 139 96.5 236.5t251.5 97.5h113q158 0 255 -99.5t97 -240.5v-799h-152l-28 106q-60 -57 -131 -87.5t-140 -30.5h-110 q-133 0 -216 82t-83 194zM231 1253v86q0 100 32.5 148.5t117.5 48.5q48 0 106 -25.5t111 -51t88 -25.5q19 0 31 10.5t12 30.5v51h170v-115q0 -75 -38.5 -118.5t-115.5 -43.5q-56 0 -118 24.5t-111.5 48.5t-73.5 24q-39 0 -39 -58v-35h-172zM340 291q0 -46 36 -76.5t83 -30.5 h82q62 0 120.5 27t100.5 74v229l-258 -39q-69 -11 -116.5 -47t-47.5 -84v-53z" />
<glyph unicode="&#xe4;" horiz-adv-x="1128" d="M121 264v105q0 64 29.5 117.5t80.5 88.5t112.5 57.5t131.5 31.5l287 34v86q0 72 -47 116t-115 44h-51q-67 0 -113.5 -41.5t-46.5 -111.5v-19h-221v33q0 139 96.5 236.5t251.5 97.5h113q158 0 255 -99.5t97 -240.5v-799h-152l-28 106q-60 -57 -131 -87.5t-140 -30.5h-110 q-133 0 -216 82t-83 194zM229 1282v272h224v-272h-224zM340 291q0 -46 36 -76.5t83 -30.5h82q62 0 120.5 27t100.5 74v229l-258 -39q-69 -11 -116.5 -47t-47.5 -84v-53zM674 1282v272h221v-272h-221z" />
<glyph unicode="&#xe5;" horiz-adv-x="1128" d="M121 264v105q0 64 29.5 117.5t80.5 88.5t112.5 57.5t131.5 31.5l287 34v86q0 72 -47 116t-115 44h-51q-67 0 -113.5 -41.5t-46.5 -111.5v-19h-221v33q0 139 96.5 236.5t251.5 97.5h113q158 0 255 -99.5t97 -240.5v-799h-152l-28 106q-60 -57 -131 -87.5t-140 -30.5h-110 q-133 0 -216 82t-83 194zM297 1475v41q0 96 71.5 164.5t186.5 68.5h31q112 0 181 -68.5t69 -164.5v-41q0 -97 -69 -166.5t-181 -69.5h-31q-115 0 -186.5 69.5t-71.5 166.5zM340 291q0 -46 36 -76.5t83 -30.5h82q62 0 120.5 27t100.5 74v229l-258 -39q-69 -11 -116.5 -47 t-47.5 -84v-53zM463 1487q0 -46 28.5 -73.5t69.5 -27.5h10q41 0 70 27.5t29 73.5v16q0 45 -29 73t-70 28h-10q-41 0 -69.5 -28t-28.5 -73v-16z" />
<glyph unicode="&#xe6;" horiz-adv-x="1746" d="M121 264v105q0 64 29.5 117.5t80.5 88.5t112.5 57.5t131.5 31.5l285 34v121q0 52 -42 88.5t-95 36.5h-103q-55 0 -93 -31t-38 -84v-34h-221v45q0 125 97.5 212t254.5 87h115q134 0 239 -105q112 105 265 105h118q162 0 263.5 -93.5t101.5 -224.5v-346h-641v-127 q0 -74 47 -119t115 -45h96q68 0 116 43t48 113v10h219v-49q0 -129 -101.5 -221t-263.5 -92h-118q-105 0 -187 37t-131 102q-63 -66 -139.5 -102.5t-151.5 -36.5h-110q-133 0 -216 82t-83 194zM340 291q0 -46 36 -76.5t83 -30.5h82q62 0 120.5 27.5t98.5 73.5v229l-256 -39 q-69 -11 -116.5 -47t-47.5 -84v-53zM981 670h422v108q0 74 -48 120t-116 46h-96q-64 0 -113 -38t-49 -99v-137z" />
<glyph unicode="&#xe7;" horiz-adv-x="1095" d="M125 326v469q0 143 99.5 243.5t260.5 100.5h136q155 0 251.5 -100.5t96.5 -243.5v-62h-221v45q0 75 -47.5 120.5t-116.5 45.5h-74q-69 0 -116.5 -45.5t-47.5 -120.5v-430q0 -74 47 -119t117 -45h74q70 0 117 45t47 119v45h221v-67q0 -139 -96.5 -238.5t-251.5 -99.5h-9 l-26 -64q66 -15 101.5 -59t35.5 -105q0 -84 -58 -134t-184 -50h-112v129h120q103 0 103 55q0 24 -23 45t-65 21h-98l65 162q-155 6 -250.5 104.5t-95.5 233.5z" />
<glyph unicode="&#xe8;" d="M125 326v469q0 143 99.5 243.5t260.5 100.5h156q155 0 251.5 -100.5t96.5 -243.5v-320h-643v-127q0 -74 47 -119t117 -45h94q70 0 117 45t47 119v2h221v-24q0 -139 -96.5 -238.5t-251.5 -99.5h-156q-160 0 -260 99.5t-100 238.5zM276 1407l74 186l486 -227l-66 -158z M346 651h422v127q0 75 -47.5 120.5t-116.5 45.5h-94q-69 0 -116.5 -45.5t-47.5 -120.5v-127z" />
<glyph unicode="&#xe9;" d="M125 326v469q0 143 99.5 243.5t260.5 100.5h156q155 0 251.5 -100.5t96.5 -243.5v-320h-643v-127q0 -74 47 -119t117 -45h94q70 0 117 45t47 119v2h221v-24q0 -139 -96.5 -238.5t-251.5 -99.5h-156q-160 0 -260 99.5t-100 238.5zM279 1366l485 227l74 -186l-494 -199z M346 651h422v127q0 75 -47.5 120.5t-116.5 45.5h-94q-69 0 -116.5 -45.5t-47.5 -120.5v-127z" />
<glyph unicode="&#xea;" d="M125 326v469q0 143 99.5 243.5t260.5 100.5h156q155 0 251.5 -100.5t96.5 -243.5v-320h-643v-127q0 -74 47 -119t117 -45h94q70 0 117 45t47 119v2h221v-24q0 -139 -96.5 -238.5t-251.5 -99.5h-156q-160 0 -260 99.5t-100 238.5zM246 1366l295 199h37l290 -189l-63 -168 l-248 152l-244 -152zM346 651h422v127q0 75 -47.5 120.5t-116.5 45.5h-94q-69 0 -116.5 -45.5t-47.5 -120.5v-127z" />
<glyph unicode="&#xeb;" d="M125 326v469q0 143 99.5 243.5t260.5 100.5h156q155 0 251.5 -100.5t96.5 -243.5v-320h-643v-127q0 -74 47 -119t117 -45h94q70 0 117 45t47 119v2h221v-24q0 -139 -96.5 -238.5t-251.5 -99.5h-156q-160 0 -260 99.5t-100 238.5zM223 1282v272h223v-272h-223zM346 651 h422v127q0 75 -47.5 120.5t-116.5 45.5h-94q-69 0 -116.5 -45.5t-47.5 -120.5v-127zM668 1282v272h221v-272h-221z" />
<glyph unicode="&#xec;" horiz-adv-x="522" d="M-16 1407l73 186l486 -227l-66 -158zM150 0v1126h221v-1126h-221z" />
<glyph unicode="&#xed;" horiz-adv-x="522" d="M-16 1366l485 227l74 -186l-494 -199zM150 0v1126h221v-1126h-221z" />
<glyph unicode="&#xee;" horiz-adv-x="522" d="M-51 1366l295 199h37l290 -189l-63 -168l-248 152l-244 -152zM150 0v1126h221v-1126h-221z" />
<glyph unicode="&#xef;" horiz-adv-x="522" d="M-72 1282v272h224v-272h-224zM150 0v1126h221v-1126h-221zM373 1282v272h221v-272h-221z" />
<glyph unicode="&#xf0;" horiz-adv-x="1206" d="M133 307v266q0 131 105.5 225.5t273.5 94.5h170q69 0 162 -57v256q0 35 -19 73l-141 -149l-57 57l139 148q-39 22 -86 22h-420v203h432q134 0 230 -60l131 138l55 -58l-123 -129q86 -86 86 -198v-832q0 -131 -107.5 -225t-281.5 -94h-170q-168 0 -273.5 94t-105.5 225z M362 354q0 -73 51 -118.5t124 -45.5h133q74 0 124 45.5t50 118.5v172q0 73 -50 118.5t-124 45.5h-133q-73 0 -124 -45.5t-51 -118.5v-172z" />
<glyph unicode="&#xf1;" horiz-adv-x="1138" d="M150 0v1126h153l29 -102q125 115 272 115h74q144 0 228.5 -96t84.5 -242v-801h-221v788q0 74 -45 115t-113 41h-47q-120 0 -194 -96v-848h-221zM246 1253v86q0 100 32 148.5t117 48.5q48 0 106 -25.5t111 -51t88 -25.5q19 0 31 10.5t12 30.5v51h170v-115 q0 -75 -38 -118.5t-115 -43.5q-56 0 -118 24.5t-111.5 48.5t-73.5 24q-39 0 -39 -58v-35h-172z" />
<glyph unicode="&#xf2;" d="M125 326v469q0 143 99.5 243.5t260.5 100.5h156q155 0 251.5 -100.5t96.5 -243.5v-469q0 -139 -96.5 -238.5t-251.5 -99.5h-156q-160 0 -260 99.5t-100 238.5zM274 1407l74 186l486 -227l-66 -158zM346 348q0 -74 47 -119t117 -45h94q70 0 117 45t47 119v430 q0 75 -47.5 120.5t-116.5 45.5h-94q-69 0 -116.5 -45.5t-47.5 -120.5v-430z" />
<glyph unicode="&#xf3;" d="M125 326v469q0 143 99.5 243.5t260.5 100.5h156q155 0 251.5 -100.5t96.5 -243.5v-469q0 -139 -96.5 -238.5t-251.5 -99.5h-156q-160 0 -260 99.5t-100 238.5zM279 1366l485 227l74 -186l-494 -199zM346 348q0 -74 47 -119t117 -45h94q70 0 117 45t47 119v430 q0 75 -47.5 120.5t-116.5 45.5h-94q-69 0 -116.5 -45.5t-47.5 -120.5v-430z" />
<glyph unicode="&#xf4;" d="M125 326v469q0 143 99.5 243.5t260.5 100.5h156q155 0 251.5 -100.5t96.5 -243.5v-469q0 -139 -96.5 -238.5t-251.5 -99.5h-156q-160 0 -260 99.5t-100 238.5zM246 1366l295 199h37l290 -189l-63 -168l-248 152l-244 -152zM346 348q0 -74 47 -119t117 -45h94q70 0 117 45 t47 119v430q0 75 -47.5 120.5t-116.5 45.5h-94q-69 0 -116.5 -45.5t-47.5 -120.5v-430z" />
<glyph unicode="&#xf5;" d="M125 326v469q0 143 99.5 243.5t260.5 100.5h156q155 0 251.5 -100.5t96.5 -243.5v-469q0 -139 -96.5 -238.5t-251.5 -99.5h-156q-160 0 -260 99.5t-100 238.5zM223 1253v86q0 100 32.5 148.5t117.5 48.5q48 0 106 -25.5t111 -51t88 -25.5q19 0 31 10.5t12 30.5v51h170 v-115q0 -75 -38.5 -118.5t-115.5 -43.5q-56 0 -118 24.5t-111.5 48.5t-73.5 24q-39 0 -39 -58v-35h-172zM346 348q0 -74 47 -119t117 -45h94q70 0 117 45t47 119v430q0 75 -47.5 120.5t-116.5 45.5h-94q-69 0 -116.5 -45.5t-47.5 -120.5v-430z" />
<glyph unicode="&#xf6;" d="M125 326v469q0 143 99.5 243.5t260.5 100.5h156q155 0 251.5 -100.5t96.5 -243.5v-469q0 -139 -96.5 -238.5t-251.5 -99.5h-156q-160 0 -260 99.5t-100 238.5zM223 1282v272h223v-272h-223zM346 348q0 -74 47 -119t117 -45h94q70 0 117 45t47 119v430q0 75 -47.5 120.5 t-116.5 45.5h-94q-69 0 -116.5 -45.5t-47.5 -120.5v-430zM668 1282v272h221v-272h-221z" />
<glyph unicode="&#xf8;" d="M72 -205l161 283q-52 47 -80 112t-28 136v469q0 143 99.5 243.5t260.5 100.5h156q94 0 172 -43l127 221h102l-155 -273q102 -97 102 -249v-469q0 -139 -96.5 -238.5t-251.5 -99.5h-156q-101 0 -178 41l-133 -234h-102zM346 348q0 -36 8 -57l353 618q-44 35 -103 35h-94 q-69 0 -116.5 -45.5t-47.5 -120.5v-430zM412 213q47 -29 98 -29h94q70 0 117 45t47 119v430q0 26 -6 47z" />
<glyph unicode="&#xf9;" horiz-adv-x="1130" d="M147 326v800h220v-788q0 -74 45 -115t114 -41h47q51 0 100.5 23t84.5 63v858h221v-1126h-152l-28 98q-119 -110 -267 -110h-71q-144 0 -229 97t-85 241zM264 1407l74 186l485 -227l-65 -158z" />
<glyph unicode="&#xfa;" horiz-adv-x="1130" d="M147 326v800h220v-788q0 -74 45 -115t114 -41h47q51 0 100.5 23t84.5 63v858h221v-1126h-152l-28 98q-119 -110 -267 -110h-71q-144 0 -229 97t-85 241zM289 1366l485 227l74 -186l-494 -199z" />
<glyph unicode="&#xfb;" horiz-adv-x="1130" d="M147 326v800h220v-788q0 -74 45 -115t114 -41h47q51 0 100.5 23t84.5 63v858h221v-1126h-152l-28 98q-119 -110 -267 -110h-71q-144 0 -229 97t-85 241zM240 1366l295 199h36l291 -189l-63 -168l-248 152l-244 -152z" />
<glyph unicode="&#xfc;" horiz-adv-x="1130" d="M147 326v800h220v-788q0 -74 45 -115t114 -41h47q51 0 100.5 23t84.5 63v858h221v-1126h-152l-28 98q-119 -110 -267 -110h-71q-144 0 -229 97t-85 241zM221 1282v272h223v-272h-223zM666 1282v272h221v-272h-221z" />
<glyph unicode="&#xfd;" horiz-adv-x="1083" d="M31 1126h225l287 -809l284 809h226l-545 -1550h-225l149 428zM260 1366l485 227l74 -186l-493 -199z" />
<glyph unicode="&#xfe;" horiz-adv-x="1138" d="M150 -424v1960h221v-477q104 80 221 80h115q137 0 222 -95t85 -229v-502q0 -134 -85 -229.5t-222 -95.5h-127q-114 0 -209 73v-485h-221zM371 279q33 -43 78 -69t92 -26h94q67 0 112.5 46t45.5 122v424q0 74 -46.5 121t-113.5 47h-98q-96 0 -164 -94v-571z" />
<glyph unicode="&#xff;" horiz-adv-x="1083" d="M31 1126h225l287 -809l284 809h226l-545 -1550h-225l149 428zM207 1282v272h223v-272h-223zM651 1282v272h221v-272h-221z" />
<glyph unicode="&#x152;" horiz-adv-x="1941" d="M133 319v797q0 131 108.5 225.5t282.5 94.5h1252v-205h-623v-393h561v-205h-561v-430h643v-203h-1272q-174 0 -282.5 94t-108.5 225zM362 367q0 -73 51 -118.5t124 -45.5h387v1028h-387q-73 0 -124 -44.5t-51 -117.5v-702z" />
<glyph unicode="&#x153;" horiz-adv-x="1757" d="M125 326v469q0 143 99.5 243.5t260.5 100.5h156q144 0 238 -88q98 88 247 88h156q155 0 251.5 -100.5t96.5 -243.5v-320h-641v-158q0 -57 49 -95t113 -38h94q70 0 117 45t47 119v2h221v-24q0 -139 -96.5 -238.5t-251.5 -99.5h-156q-148 0 -247 86q-96 -86 -238 -86h-156 q-160 0 -260 99.5t-100 238.5zM346 348q0 -74 47 -119t117 -45h94q62 0 112 39.5t50 93.5v490q0 57 -50 97t-112 40h-94q-69 0 -116.5 -45.5t-47.5 -120.5v-430zM989 651h420v127q0 75 -47.5 120.5t-116.5 45.5h-94q-62 0 -112 -41t-50 -96v-156z" />
<glyph unicode="&#x178;" horiz-adv-x="1282" d="M72 1436h235l340 -645l334 645h229l-448 -865v-571h-227v571zM311 1591v271h238v-271h-238zM735 1591v271h240v-271h-240z" />
<glyph unicode="&#x2c6;" horiz-adv-x="788" d="M82 1366l295 199h37l291 -189l-64 -168l-248 152l-243 -152z" />
<glyph unicode="&#x2dc;" horiz-adv-x="835" d="M86 1253v86q0 100 32.5 148.5t117.5 48.5q48 0 106 -25.5t111 -51t88 -25.5q19 0 31 10.5t12 30.5v51h170v-115q0 -75 -38.5 -118.5t-115.5 -43.5q-56 0 -118 24.5t-111.5 48.5t-73.5 24q-39 0 -39 -58v-35h-172z" />
<glyph unicode="&#x2000;" horiz-adv-x="959" />
<glyph unicode="&#x2001;" horiz-adv-x="1919" />
<glyph unicode="&#x2002;" horiz-adv-x="959" />
<glyph unicode="&#x2003;" horiz-adv-x="1919" />
<glyph unicode="&#x2004;" horiz-adv-x="639" />
<glyph unicode="&#x2005;" horiz-adv-x="479" />
<glyph unicode="&#x2006;" horiz-adv-x="319" />
<glyph unicode="&#x2007;" horiz-adv-x="319" />
<glyph unicode="&#x2008;" horiz-adv-x="239" />
<glyph unicode="&#x2009;" horiz-adv-x="383" />
<glyph unicode="&#x200a;" horiz-adv-x="106" />
<glyph unicode="&#x2010;" horiz-adv-x="821" d="M115 512v199h594v-199h-594z" />
<glyph unicode="&#x2011;" horiz-adv-x="821" d="M115 512v199h594v-199h-594z" />
<glyph unicode="&#x2012;" horiz-adv-x="821" d="M115 512v199h594v-199h-594z" />
<glyph unicode="&#x2013;" horiz-adv-x="1169" d="M115 512v199h940v-199h-940z" />
<glyph unicode="&#x2014;" horiz-adv-x="1867" d="M115 512v199h1642v-199h-1642z" />
<glyph unicode="&#x2018;" horiz-adv-x="505" d="M106 926v272q0 146 95 237.5t231 102.5v-207q-47 -10 -75.5 -50.5t-28.5 -82.5v-272h-222z" />
<glyph unicode="&#x2019;" horiz-adv-x="505" d="M72 926v207q48 10 76 50t28 83v272h221v-272q0 -146 -94.5 -237.5t-230.5 -102.5z" />
<glyph unicode="&#x201a;" horiz-adv-x="507" d="M39 -131q47 8 76.5 48.5t29.5 82.5v272h220v-272q0 -146 -94.5 -237.5t-231.5 -102.5v209z" />
<glyph unicode="&#x201c;" horiz-adv-x="833" d="M82 926v272q0 146 94 237.5t230 102.5v-207q-47 -10 -76 -50.5t-29 -82.5v-272h-219zM463 926v272q0 146 95 237.5t233 102.5v-207q-47 -10 -77 -51t-30 -82v-272h-221z" />
<glyph unicode="&#x201d;" horiz-adv-x="833" d="M72 926v207q48 10 76 50t28 83v272h221v-272q0 -146 -94.5 -237.5t-230.5 -102.5zM455 926v207q47 10 76.5 50t29.5 83v272h219v-272q0 -146 -94.5 -237.5t-230.5 -102.5z" />
<glyph unicode="&#x201e;" horiz-adv-x="917" d="M39 -131q47 8 76.5 48.5t29.5 82.5v272h220v-272q0 -146 -94.5 -237.5t-231.5 -102.5v209zM449 -131q47 8 76.5 48.5t29.5 82.5v272h219v-272q0 -146 -94 -237.5t-231 -102.5v209z" />
<glyph unicode="&#x2022;" horiz-adv-x="673" d="M84 629v98q0 83 58.5 144t140.5 61h110q80 0 138.5 -61t58.5 -144v-98q0 -83 -58.5 -143t-138.5 -60h-110q-82 0 -140.5 60t-58.5 143z" />
<glyph unicode="&#x2026;" horiz-adv-x="1525" d="M145 0v272h220v-272h-220zM653 0v272h219v-272h-219zM1161 0v272h221v-272h-221z" />
<glyph unicode="&#x202f;" horiz-adv-x="383" />
<glyph unicode="&#x2039;" horiz-adv-x="835" d="M102 444v236l621 360v-231l-420 -248l420 -244v-231z" />
<glyph unicode="&#x203a;" horiz-adv-x="835" d="M113 86v231l419 244l-419 248v231l620 -360v-236z" />
<glyph unicode="&#x205f;" horiz-adv-x="479" />
<glyph unicode="&#x20ac;" horiz-adv-x="1372" d="M47 461v157h172v199h-172v160h172v149q0 131 108.5 225.5t282.5 94.5h252q168 0 272.5 -94.5t104.5 -225.5v-163h-229v116q0 73 -50 118.5t-124 45.5h-213q-74 0 -125.5 -45.5t-51.5 -118.5v-102h357v-160h-357v-199h357v-157h-357v-107q0 -73 51.5 -118.5t125.5 -45.5 h213q74 0 124 45.5t50 118.5v123h229v-170q0 -131 -104.5 -225t-272.5 -94h-252q-174 0 -282.5 94t-108.5 225v154h-172z" />
<glyph unicode="&#x2122;" horiz-adv-x="1517" d="M66 1282v127h489v-127h-176v-608h-131v608h-182zM662 674v735h143l233 -461l224 461h143v-735h-129v471l-162 -332h-147l-176 344v-483h-129z" />
<glyph unicode="&#x25fc;" horiz-adv-x="1126" d="M0 0v1126h1126v-1126h-1126z" />
</font>
</defs>
</svg>
