<?xml version="1.0" standalone="no"?>
<!DOCTYPE svg PUBLIC "-//W3C//DTD SVG 1.1//EN" "http://www.w3.org/Graphics/SVG/1.1/DTD/svg11.dtd" >
<svg xmlns="http://www.w3.org/2000/svg">
<metadata></metadata>
<defs>
<font id="boxedheavy_italic" horiz-adv-x="514" >
<font-face units-per-em="2048" ascent="1638" descent="-410" />
<missing-glyph horiz-adv-x="544" />
<glyph unicode="&#xfb01;" horiz-adv-x="1079" d="M-125 -424l45 285q62 0 109.5 29t56.5 81l139 873h-71l47 293h71q64 399 531 399h428l-45 -285h-449q-49 0 -89 -30t-50 -84h569l-180 -1137h-328l134 844h-240l-139 -873q-63 -395 -539 -395z" />
<glyph unicode="&#xfb02;" horiz-adv-x="1079" d="M-125 -424l45 285q62 0 109.5 29t56.5 81l139 873h-71l47 293h71q64 399 531 399h428l-244 -1536h-328l199 1251h-100q-59 0 -104.5 -30t-55.5 -84h141l-47 -293h-139l-139 -873q-63 -395 -539 -395z" />
<glyph horiz-adv-x="0" />
<glyph horiz-adv-x="682" />
<glyph horiz-adv-x="0" />
<glyph horiz-adv-x="0" />
<glyph unicode="&#xd;" horiz-adv-x="544" />
<glyph unicode=" "  horiz-adv-x="544" />
<glyph unicode="&#x09;" horiz-adv-x="544" />
<glyph unicode="&#xa0;" horiz-adv-x="544" />
<glyph unicode="!" d="M92 0l49 309h328l-49 -309h-328zM164 451l182 1151h328l-182 -1151h-328z" />
<glyph unicode="&#x22;" horiz-adv-x="817" d="M266 1149l41 453h328l-100 -453h-269zM647 1149l43 453h328l-103 -453h-268z" />
<glyph unicode="#" horiz-adv-x="1509" d="M74 268l47 301h239l74 248h-217l49 301h256l94 318h338l-94 -318h246l94 318h338l-94 -318h213l-49 -301h-252l-74 -248h229l-47 -301h-270l-78 -268h-338l78 268h-246l-78 -268h-337l77 268h-198zM698 569h246l74 248h-246z" />
<glyph unicode="$" horiz-adv-x="1179" d="M119 315l18 115h338l-6 -39q-9 -53 17 -77.5t75 -24.5h10l43 268q-62 28 -109 53.5t-100.5 66t-85.5 83t-49 101.5t-6 126l21 131q22 134 140.5 231t297.5 97h33l35 223h133l-33 -223q95 0 169.5 -27.5t117.5 -73.5t61 -104.5t8 -122.5l-28 -184h-338l16 108 q12 82 -57 99l-41 -264q49 -22 81 -37t80 -40.5t79 -48t65 -55t52 -65t26.5 -74t1.5 -86.5l-25 -156q-22 -134 -146.5 -230.5t-312.5 -96.5h-43l-34 -217h-134l35 217h-30q-196 0 -296 96.5t-79 230.5zM606 1018q-8 -37 68 -82l33 207q-38 -6 -64 -31.5t-33 -69.5zM709 289 q48 0 82.5 25t42.5 77l4 23q3 23 -23 44t-76 44z" />
<glyph unicode="%" horiz-adv-x="1632" d="M207 1006l33 202q14 96 105.5 167t227.5 71h43q130 0 195 -70.5t51 -167.5l-33 -202q-14 -96 -101.5 -166t-217.5 -70h-43q-136 0 -205 70t-55 166zM367 0l831 1438h307l-829 -1438h-309zM457 1055q-6 -38 8.5 -57t42.5 -19h14q28 0 49 19t27 57l16 106q11 74 -51 74h-14 q-28 0 -49 -18t-27 -56zM995 223l33 203q14 97 105 167.5t229 70.5h43q130 0 195 -70.5t51 -167.5l-33 -203q-16 -97 -103 -166t-217 -69h-43q-138 0 -207 69.5t-53 165.5zM1243 272q-6 -38 8.5 -56.5t42.5 -18.5h15q28 0 48.5 18.5t26.5 56.5l17 107q11 74 -51 74h-15 q-28 0 -48.5 -18t-26.5 -56z" />
<glyph unicode="&#x26;" horiz-adv-x="1243" d="M119 315l43 267q16 107 139 186q-47 80 -31 178l27 174q22 134 147 231t312 97h78q121 0 203.5 -47.5t114 -121t17.5 -159.5l-14 -90h-328l4 25q8 52 -12.5 77t-60.5 25h-39q-39 0 -68 -25t-37 -77l-6 -43q-8 -52 12.5 -77.5t59.5 -25.5h637l-47 -291h-135l-48 -303 q-22 -134 -141 -230.5t-299 -96.5h-172q-96 0 -170.5 27.5t-117.5 73.5t-60.5 104t-7.5 122zM457 381q-8 -52 12.5 -77t58.5 -25h136q40 0 69 25t37 77l37 237h-225q-39 0 -67.5 -25t-35.5 -77z" />
<glyph unicode="'" horiz-adv-x="436" d="M266 1149l41 453h328l-100 -453h-269z" />
<glyph unicode="(" horiz-adv-x="606" d="M109 176l137 875q63 395 528 395h17l-46 -285h-16q-58 0 -102.5 -29t-53.5 -81l-137 -875q-9 -52 26 -81t93 -29h16l-45 -285h-16q-227 0 -330.5 95t-70.5 300z" />
<glyph unicode=")" horiz-adv-x="606" d="M6 -219l51 285h6q62 0 109.5 29t56.5 81l138 875q9 52 -30.5 81t-105.5 29h-4l52 285h4q231 0 337.5 -95t73.5 -300l-137 -875q-63 -395 -545 -395h-6z" />
<glyph unicode="*" horiz-adv-x="899" d="M225 1120l135 295l150 -53l27 174h315l-29 -172l166 51l41 -295l-162 -53l74 -137l-276 -197l-76 141l-121 -145l-209 201l115 135z" />
<glyph unicode="+" horiz-adv-x="1003" d="M137 422l49 311h277l47 291h311l-47 -291h277l-50 -311h-276l-45 -291h-311l45 291h-277z" />
<glyph unicode="," d="M-76 -424l49 305q41 0 76.5 39t42.5 80l49 309h328l-49 -309q-21 -127 -98 -225.5t-181.5 -148.5t-216.5 -50z" />
<glyph unicode="-" horiz-adv-x="780" d="M166 453l45 290h594l-45 -290h-594z" />
<glyph unicode="." d="M92 0l49 309h328l-49 -309h-328z" />
<glyph unicode="/" horiz-adv-x="1050" d="M10 0l899 1434h355l-899 -1434h-355z" />
<glyph unicode="0" horiz-adv-x="1103" d="M119 315l127 803q22 134 151.5 231t325.5 97h131q95 0 169.5 -27.5t117.5 -73.5t61 -104.5t8 -122.5l-127 -803q-22 -134 -146.5 -230.5t-311.5 -96.5h-131q-196 0 -296 96.5t-79 230.5zM469 391q-9 -53 17 -77.5t75 -24.5h72q48 0 82.5 25t42.5 77l102 651 q8 52 -18 77.5t-74 25.5h-72q-108 0 -125 -103z" />
<glyph unicode="1" horiz-adv-x="888" d="M47 0l47 301h236l131 823l-256 -127l49 306l256 131h338l-180 -1133h223l-47 -301h-797z" />
<glyph unicode="2" horiz-adv-x="1081" d="M76 0l63 399q11 73 63 144t132 114l428 236q63 35 76 111l6 38q7 53 -19 78t-75 25h-15q-49 0 -82.5 -25t-40.5 -78l-6 -34h-338l17 110q22 134 149.5 231t319.5 97h75q129 0 217 -52.5t122 -135t18 -181.5l-33 -205q-8 -56 -49.5 -109.5t-110.5 -92.5l-483 -267 q-36 -14 -45 -79l-4 -23h622l-47 -301h-960z" />
<glyph unicode="3" horiz-adv-x="1103" d="M119 315l16 101h338l-4 -25q-9 -53 17 -77.5t75 -24.5h72q48 0 82.5 25t42.5 77l12 80q8 52 -18 77t-74 25h-139l47 301h106q48 0 82 25.5t43 77.5l10 65q8 52 -18 77.5t-74 25.5h-8q-48 0 -82 -25.5t-43 -77.5l-4 -24h-338l16 100q22 134 152 231t326 97h67 q126 0 213 -47.5t121.5 -121t20.5 -159.5l-33 -207q-16 -97 -103 -172q96 -81 80 -192l-37 -232q-22 -134 -146.5 -230.5t-311.5 -96.5h-131q-196 0 -296 96.5t-79 230.5z" />
<glyph unicode="4" horiz-adv-x="1034" d="M76 287l47 301l657 846h336l-135 -846h98l-47 -301h-98l-45 -287h-336l45 287h-522zM459 588h186l49 303z" />
<glyph unicode="5" horiz-adv-x="1103" d="M119 315l16 101h338l-4 -25q-9 -53 17 -77.5t75 -24.5h72q48 0 82.5 25t42.5 77l22 146q8 52 -18 77t-74 25h-475l125 795h856l-47 -301h-516l-31 -193h174q95 0 169.5 -29t117 -76t61 -105t8.5 -118l-47 -297q-22 -134 -146.5 -230.5t-311.5 -96.5h-131 q-196 0 -296 96.5t-79 230.5z" />
<glyph unicode="6" horiz-adv-x="1103" d="M119 315l127 803q22 134 151.5 231t325.5 97h131q95 0 169.5 -27.5t117.5 -73.5t61 -104.5t8 -122.5l-18 -117h-338l6 41q8 52 -18 77.5t-74 25.5h-72q-108 0 -125 -103l-26 -174q63 25 92 25h131q187 0 281.5 -97t72.5 -231l-39 -250q-22 -134 -146.5 -230.5 t-311.5 -96.5h-131q-196 0 -296 96.5t-79 230.5zM469 391q-9 -53 17 -77.5t75 -24.5h72q48 0 82.5 25t42.5 77l14 98q8 52 -18 77.5t-74 25.5h-72q-108 0 -125 -103z" />
<glyph unicode="7" horiz-adv-x="966" d="M47 0l725 1133h-543l47 301h879l-47 -301l-725 -1133h-336z" />
<glyph unicode="8" horiz-adv-x="1103" d="M119 315l33 205q9 61 53.5 119t116.5 102q-50 42 -71.5 101.5t-10.5 124.5l24 151q22 134 144 231t305 97h129q96 0 170.5 -27.5t117.5 -73.5t60.5 -104.5t7.5 -122.5l-24 -151q-23 -139 -154 -226q56 -43 80.5 -101.5t15.5 -119.5l-33 -205q-22 -134 -146.5 -230.5 t-311.5 -96.5h-131q-196 0 -296 96.5t-79 230.5zM469 391q-9 -53 17 -77.5t75 -24.5h72q48 0 82.5 25t42.5 77l14 94q8 52 -18 77.5t-74 25.5h-72q-108 0 -125 -103zM582 991q-7 -53 10.5 -77.5t52.5 -24.5h98q36 0 63 25t34 77l8 51q8 52 -10.5 77.5t-53.5 25.5h-98 q-35 0 -61.5 -25.5t-34.5 -77.5z" />
<glyph unicode="9" horiz-adv-x="1103" d="M119 315l18 117h338l-6 -41q-9 -53 17 -77.5t75 -24.5h72q48 0 82.5 25t42.5 77l26 168q-50 -18 -94 -18h-129q-96 0 -170 27.5t-116.5 73.5t-60 104t-7.5 122l39 250q22 134 146 231t313 97h129q196 0 296.5 -97t79.5 -231l-127 -803q-21 -134 -152 -230.5t-327 -96.5 h-129q-96 0 -170.5 27.5t-117.5 73.5t-60.5 104t-7.5 122zM557 944q-9 -53 17 -77.5t75 -24.5h72q48 0 82.5 25t42.5 77l14 98q8 52 -18 77.5t-74 25.5h-72q-108 0 -125 -103z" />
<glyph unicode=":" d="M92 0l49 309h328l-49 -309h-328zM219 801l49 309h328l-49 -309h-328z" />
<glyph unicode=";" d="M-59 -424q163 2 297.5 118.5t164.5 305.5l50 309h-295l-49 -309q-7 -39 -41.5 -77.5t-77.5 -41.5zM219 801l49 309h328l-49 -309h-328z" />
<glyph unicode="&#x3c;" horiz-adv-x="983" d="M131 389l57 367l895 323l-53 -338l-512 -170q67 -24 221.5 -81.5t237.5 -86.5l-53 -337z" />
<glyph unicode="=" horiz-adv-x="946" d="M96 166l45 291h807l-45 -291h-807zM174 657l47 291h807l-47 -291h-807z" />
<glyph unicode="&#x3e;" horiz-adv-x="983" d="M80 66l53 337l510 168l-457 170l54 338l792 -323l-57 -367z" />
<glyph unicode="?" horiz-adv-x="1042" d="M197 934l28 184q22 134 147.5 231t313.5 97h90q99 0 177 -27.5t123 -73.5t64 -104.5t9 -122.5l-33 -215q-11 -65 -50 -127.5t-99 -105.5l-213 -154q-31 -18 -41 -67l-8 -62h-334l28 184q18 123 125 191l236 149q21 13 28 68l11 63q9 53 -17 78t-75 25h-31 q-48 0 -82 -25.5t-43 -77.5l-16 -108h-338zM309 0l49 309h334l-49 -309h-334z" />
<glyph unicode="@" horiz-adv-x="2029" d="M61 -188l238 1517q20 122 119 208.5t248 86.5h1212q101 0 168.5 -42.5t92 -108.5t11.5 -144l-163 -1034q-20 -122 -118.5 -208.5t-248.5 -86.5h-393l-15 78q-129 -90 -249 -90h-80q-101 0 -169 42.5t-92.5 108.5t-11.5 144l88 559q20 122 118.5 208.5t248.5 86.5h571 l-135 -846h109q48 0 59 61l146 920q4 31 -8 46t-33 15h-1096q-21 0 -38.5 -15t-21.5 -46l-221 -1403q-4 -31 8 -46.5t33 -15.5h1178l-45 -290h-1237q-149 0 -221 87t-52 208zM948 340q-6 -32 6.5 -46.5t34.5 -14.5h37q89 0 154 47l82 520h-183q-22 0 -39.5 -15t-21.5 -47z " />
<glyph unicode="A" horiz-adv-x="1292" d="M31 0l674 1436h337l220 -1436h-338l-33 248h-416l-106 -248h-338zM606 549h246l-55 432z" />
<glyph unicode="B" horiz-adv-x="1183" d="M92 0l227 1434h555q96 0 169.5 -32t115.5 -86t58 -124q9 -40 10 -83q0 -32 -6 -65l-13 -73q-19 -124 -127 -215q75 -48 107 -126q22 -54 22 -112q0 -26 -4 -53l-8 -45q-28 -176 -155.5 -298t-317.5 -122h-633zM477 301h256q108 0 125 102l12 78q2 14 2 25q0 34 -19 53 q-26 25 -75 25h-256zM569 883h179q107 0 124 102l9 45q2 11 2 22q-1 37 -21 56q-26 25 -74 25h-178z" />
<glyph unicode="C" horiz-adv-x="1179" d="M119 315l127 803q22 134 151.5 231t325.5 97h207q95 0 169.5 -27.5t117.5 -73.5q43 -47 61 -105q12 -38 12 -77q0 -22 -4 -45l-29 -184h-337l16 108q2 12 2 23q0 35 -20 55q-26 26 -74 25h-148q-108 0 -125 -103l-102 -651q-2 -14 -3 -25q0 -34 20 -52q26 -24 75 -25h148 q48 0 82.5 25t42.5 77l18 113h338l-31 -189q-22 -134 -146.5 -230.5t-312.5 -96.5h-206q-196 0 -296 96q-83 80 -83 186q0 22 4 45z" />
<glyph unicode="D" horiz-adv-x="1202" d="M92 0l227 1434h633q127 0 214 -48q88 -46 122 -120q25 -52 26 -111q0 -24 -5 -49l-125 -778q-22 -134 -146 -231t-313 -97h-633zM477 301h256q108 0 125 102l100 627q2 12 2 22q0 37 -20 56q-25 25 -74 25h-258z" />
<glyph unicode="E" horiz-adv-x="1079" d="M92 0l227 1436h875l-47 -301h-539l-41 -263h463l-47 -301h-463l-43 -270h557l-47 -301h-895z" />
<glyph unicode="F" horiz-adv-x="1021" d="M92 0l227 1436h875l-47 -301h-539l-47 -299h504l-49 -301h-502l-84 -535h-338z" />
<glyph unicode="G" horiz-adv-x="1181" d="M119 315l127 803q22 134 151.5 231t325.5 97h207q95 0 169.5 -27.5t117.5 -73.5t61 -105q12 -37 12 -77q0 -22 -4 -45l-29 -184h-337l16 108q2 12 2 23q0 35 -20 55q-26 25 -74 25h-148q-108 0 -125 -103l-102 -651q-2 -14 -2 -25q0 -34 19 -52q26 -25 75 -25h148 q48 0 82.5 25t42.5 77l18 113h-197l47 301h535l-78 -490q-22 -134 -146.5 -230.5t-312.5 -96.5h-206q-196 0 -296 96q-83 80 -83 186q0 22 4 45z" />
<glyph unicode="H" horiz-adv-x="1224" d="M92 0l227 1436h338l-86 -539h365l86 539h338l-227 -1436h-338l94 596h-365l-94 -596h-338z" />
<glyph unicode="I" horiz-adv-x="524" d="M92 0l227 1436h338l-227 -1436h-338z" />
<glyph unicode="J" horiz-adv-x="530" d="M-201 -424l47 295h107q59 0 97.5 31t47.5 94l230 1438h338l-230 -1438q-64 -420 -530 -420h-107z" />
<glyph unicode="K" horiz-adv-x="1189" d="M92 0l227 1434h338l-92 -574h70l317 574h371l-410 -699l250 -735h-377l-168 559h-100l-88 -559h-338z" />
<glyph unicode="L" horiz-adv-x="993" d="M92 0l227 1436h338l-180 -1135h518l-47 -301h-856z" />
<glyph unicode="M" horiz-adv-x="1540" d="M92 0l227 1436h353l219 -715l446 715h338l-227 -1436h-338l109 684l-230 -375h-340l-110 379l-109 -688h-338z" />
<glyph unicode="N" horiz-adv-x="1224" d="M92 0l227 1436h336l254 -707l113 707h338l-227 -1436h-338l-254 700l-111 -700h-338z" />
<glyph unicode="O" horiz-adv-x="1179" d="M119 315l127 803q22 134 151.5 231t325.5 97h207q95 0 169.5 -27.5t117.5 -73.5q43 -47 61 -105q12 -38 12 -77q0 -22 -4 -45l-127 -803q-22 -134 -146.5 -230.5t-312.5 -96.5h-206q-196 0 -296 96q-83 80 -83 186q0 22 4 45zM469 391q-2 -14 -3 -25q0 -34 20 -52 q26 -24 75 -25h148q48 0 82.5 25t42.5 77l102 651q2 12 2 23q0 35 -20 55q-26 26 -74 25h-148q-108 0 -125 -103z" />
<glyph unicode="P" horiz-adv-x="1183" d="M92 0l227 1436h615q186 0 282 -98q78 -80 79 -183q0 -24 -5 -49l-49 -307q-22 -134 -147.5 -231t-313.5 -97h-276l-74 -471h-338zM553 772h238q48 0 82 25t42 77l25 156q2 11 2 22q0 37 -20 56q-26 25 -74 25h-240z" />
<glyph unicode="Q" horiz-adv-x="1179" d="M119 315l127 803q22 134 151.5 231t325.5 97h207q95 0 169.5 -27.5t117.5 -73.5t61 -105q12 -37 12 -77q0 -22 -4 -45l-127 -803q-18 -108 -105.5 -195t-222.5 -118l78 -291l-329 -143l-111 420q-94 4 -167 32.5t-115.5 73.5t-60.5 102q-11 36 -11 75q0 21 4 44zM469 391 q-2 -14 -2 -25q0 -34 19 -52q26 -25 75 -25h148q48 0 82.5 25t42.5 77l102 651q2 12 2 23q0 35 -20 55q-26 25 -74 25h-148q-108 0 -125 -103z" />
<glyph unicode="R" horiz-adv-x="1220" d="M92 0l227 1436h615q186 0 282 -98q78 -80 79 -183q0 -24 -5 -49l-49 -307q-14 -85 -71.5 -158.5t-149.5 -118.5l131 -522h-352l-117 471h-178l-74 -471h-338zM553 772h238q48 0 82 25t42 77l25 156q2 11 2 22q0 37 -20 56q-26 25 -74 25h-240z" />
<glyph unicode="S" horiz-adv-x="1179" d="M119 315l18 115h338l-6 -39q-2 -14 -3 -25q0 -34 20 -52q26 -24 75 -25h148q48 0 82.5 25t42.5 77l4 23q2 16 -8.5 30.5t-41 31.5t-49.5 26t-67 30q-52 23 -84 37.5t-83.5 42.5t-84 52.5t-70 61t-56.5 73.5t-29 86q-5 26 -5 53q0 24 4 49l21 131q22 134 140.5 231 t297.5 97h168q95 0 169.5 -27.5t117.5 -73.5q43 -47 61 -105q12 -38 12 -77q0 -22 -4 -45l-28 -184h-338l16 108q2 12 2 23q0 35 -20 55q-26 26 -74 25h-70q-108 0 -125 -103l-4 -24v-5q0 -39 86 -85q28 -14 105 -49q71 -31 115.5 -53t107.5 -62.5t97 -79.5q33 -38 55 -94 q15 -39 15 -80q0 -19 -3 -39l-25 -156q-22 -134 -146.5 -230.5t-312.5 -96.5h-206q-196 0 -296 96q-83 80 -83 186q0 22 4 45z" />
<glyph unicode="T" horiz-adv-x="1038" d="M229 1135l47 301h941l-48 -301h-284l-180 -1135h-338l180 1135h-318z" />
<glyph unicode="U" horiz-adv-x="1224" d="M141 315l178 1121h338l-165 -1045q-2 -12 -1 -23q0 -35 19 -54q26 -25 74 -25h147q108 0 125 102l166 1045h338l-178 -1121q-22 -134 -146 -230.5t-313 -96.5h-205q-99 0 -177.5 27.5t-124.5 73t-66 103.5q-13 39 -12 80q0 21 3 43z" />
<glyph unicode="V" horiz-adv-x="1292" d="M258 1434h338l125 -965l430 965h338l-674 -1434h-338z" />
<glyph unicode="W" horiz-adv-x="2029" d="M258 1434h338l90 -938l387 938h338l90 -938l387 938h338l-635 -1434h-338l-106 840l-371 -840h-338z" />
<glyph unicode="X" horiz-adv-x="1280" d="M0 0l551 750l-272 684h370l150 -375l256 375h368l-489 -713l289 -721h-373l-170 424l-313 -424h-367z" />
<glyph unicode="Y" horiz-adv-x="1236" d="M258 1436h346l160 -529l334 529h336l-560 -889l-86 -547h-337l86 547z" />
<glyph unicode="Z" horiz-adv-x="1167" d="M92 0l47 301l744 834h-611l47 301h984l-48 -301l-710 -834h577l-47 -301h-983z" />
<glyph unicode="[" horiz-adv-x="686" d="M49 -276l270 1712h545l-47 -303h-209l-174 -1108h207l-47 -301h-545z" />
<glyph unicode="\" horiz-adv-x="1050" d="M238 1434h354l444 -1434h-354z" />
<glyph unicode="]" horiz-adv-x="686" d="M6 -276l47 301h207l174 1108h-205l47 303h545l-270 -1712h-545z" />
<glyph unicode="^" horiz-adv-x="888" d="M193 1018l317 518h332l178 -518h-334l-57 170l-105 -170h-331z" />
<glyph unicode="_" horiz-adv-x="925" d="M-74 -416l45 291h942l-45 -291h-942z" />
<glyph unicode="`" horiz-adv-x="694" d="M262 1356l144 274l468 -211l-124 -233z" />
<glyph unicode="a" horiz-adv-x="1042" d="M110 193q-6 28 -6 58q0 32 7 64l79 506q22 136 116 232t235 96h86q135 0 235 -94l47 82h221l-178 -1137h-229l-14 76q-120 -88 -244 -88h-107q-72 0 -126.5 27.5t-82 73t-39.5 104.5zM449 381q-2 -16 -3 -29q0 -30 13 -48q18 -25 53 -25h55q51 0 107 43l78 493 q-32 43 -82 43h-62q-36 0 -64 -25t-36 -77z" />
<glyph unicode="b" horiz-adv-x="1052" d="M92 0l244 1536h328l-70 -432q92 45 186 45h84q95 0 157.5 -47.5t84.5 -120.5q13 -45 13 -96q0 -31 -5 -64l-82 -506q-22 -135 -116 -231t-236 -96h-105q-126 0 -217 88l-36 -76h-230zM471 322q37 -43 94 -43h56q35 0 61 25t33 77l59 375q2 15 2 28q0 31 -14 49 q-20 25 -55 25h-62q-48 0 -96 -41z" />
<glyph unicode="c" horiz-adv-x="1009" d="M119 315l80 506q22 134 145.5 231t312.5 97h76q91 0 161.5 -27.5t111 -73.5t56.5 -104q10 -36 11 -75q0 -23 -4 -48l-20 -129h-328l10 64q2 15 2 27q-1 32 -15 50q-20 25 -59 25h-38q-39 0 -68 -25t-37 -77l-59 -375q-2 -15 -3 -27q0 -32 16 -50q20 -25 58 -25h39 q39 0 68 25t37 77l8 57h328l-19 -123q-22 -134 -140.5 -230.5t-297.5 -96.5h-76q-96 0 -170.5 27.5t-117.5 73.5t-61 104q-11 37 -11 76q0 23 4 46z" />
<glyph unicode="d" horiz-adv-x="1052" d="M119 315l80 506q22 136 115.5 232t234.5 96h86q93 0 170 -47l69 434h328l-241 -1536h-230l-14 76q-120 -88 -244 -88h-106q-95 0 -157 48q-63 48 -84 120q-13 44 -13 92q0 32 6 67zM457 381q-2 -16 -3 -29q0 -30 13 -48q18 -25 53 -25h55q51 0 107 43l78 493 q-32 43 -82 43h-62q-36 0 -64 -25t-36 -77z" />
<glyph unicode="e" horiz-adv-x="1030" d="M119 315l80 506q22 134 145.5 231t312.5 97h95q91 0 162 -27.5t112 -73.5q42 -46 58 -104q10 -36 10 -75q0 -23 -4 -48l-56 -350h-563l-14 -90q-2 -15 -3 -27q0 -32 16 -50q20 -25 58 -25h58q90 0 104 90l2 8h328l-12 -74q-20 -129 -139.5 -222t-299.5 -93h-94 q-96 0 -170.5 27.5t-117.5 73.5t-61 104q-11 37 -11 76q0 23 4 46zM508 713h235l9 43q2 14 2 27q0 32 -15 50q-21 25 -61 25h-57q-39 0 -68 -25t-37 -77z" />
<glyph unicode="f" horiz-adv-x="565" d="M-125 -424l45 285q62 0 109.5 29t56.5 81l139 873h-71l47 293h69q66 399 541 399l-45 -285q-62 0 -110 -30t-58 -84h141l-47 -293h-139l-139 -873q-63 -395 -539 -395z" />
<glyph unicode="g" horiz-adv-x="1052" d="M51 -117l6 35h328l-2 -10q-4 -31 23.5 -46.5t74.5 -15.5h19q48 0 82 25.5t43 77.5l12 78q-83 -39 -164 -39h-106q-95 0 -157.5 47.5t-83.5 120.5q-13 43 -13 92q0 32 6 67l82 506q22 136 115.5 232t234.5 96h86q133 0 233 -94l41 82h230l-195 -1233q-22 -134 -147.5 -231 t-313.5 -97h-57q-99 0 -177.5 26t-124 69t-64.5 98q-14 38 -14 77q0 18 3 37zM459 381q-2 -16 -2 -29q0 -31 12 -48q18 -25 53 -25h56q50 0 106 43l78 495q-38 41 -84 41h-62q-36 0 -63.5 -25t-34.5 -77z" />
<glyph unicode="h" horiz-adv-x="1075" d="M92 0l244 1536h328l-70 -440q103 53 215 53h76q89 0 146.5 -47.5t76.5 -120.5q11 -43 11 -92q0 -33 -5 -68l-131 -821h-328l119 756q2 16 2 29q0 30 -12 48q-18 25 -53 25h-37q-68 0 -125 -45l-129 -813h-328z" />
<glyph unicode="i" d="M92 0l180 1137h328l-180 -1137h-328zM287 1227l49 309h328l-50 -309h-327z" />
<glyph unicode="j" d="M-121 -424l45 285q62 0 109.5 36t56.5 99l182 1141h328l-182 -1141q-64 -420 -539 -420zM287 1227l49 309h328l-50 -309h-327z" />
<glyph unicode="k" horiz-adv-x="1071" d="M92 0l244 1536h328l-121 -754h43l227 355h387l-358 -480l229 -657h-369l-147 492h-57l-78 -492h-328z" />
<glyph unicode="l" d="M92 0l244 1536h328l-244 -1536h-328z" />
<glyph unicode="m" horiz-adv-x="1638" d="M92 0l180 1137h230l14 -88q143 100 293 100h76q129 0 192 -100q146 100 293 100h76q133 0 191 -96q43 -71 43 -165q0 -32 -5 -67l-131 -821h-327l118 756q3 18 3 32q0 28 -12 45q-18 25 -52 25h-37q-66 0 -125 -43l-129 -815h-328l119 756q2 16 2 29q0 30 -12 48 q-18 25 -53 25h-37q-67 0 -127 -47l-127 -811h-328z" />
<glyph unicode="n" horiz-adv-x="1075" d="M92 0l180 1137h230l14 -88q143 100 293 100h76q89 0 146.5 -47.5t76.5 -120.5q11 -43 11 -92q0 -33 -5 -68l-131 -821h-328l119 756q2 16 2 29q0 30 -12 48q-18 25 -53 25h-37q-67 0 -127 -47l-127 -811h-328z" />
<glyph unicode="o" horiz-adv-x="1030" d="M119 315l80 506q22 134 145.5 231t312.5 97h95q91 0 162 -27.5t112 -73.5q42 -46 58 -104q10 -36 10 -75q0 -23 -4 -48l-80 -506q-22 -134 -141.5 -230.5t-299.5 -96.5h-94q-96 0 -170.5 27.5t-117.5 73.5t-61 104q-11 37 -11 76q0 23 4 46zM457 381q-2 -15 -3 -27 q0 -32 16 -50q20 -25 58 -25h58q40 0 69 25t37 77l60 375q2 14 2 27q0 32 -15 50q-21 25 -61 25h-57q-39 0 -68 -25t-37 -77z" />
<glyph unicode="p" horiz-adv-x="1052" d="M25 -424l247 1561h230l12 -76q125 88 246 88h104q95 0 157.5 -47.5t83.5 -120.5q13 -44 13 -93q0 -32 -6 -67l-80 -506q-22 -135 -116 -231t-236 -96h-84q-93 0 -172 45l-72 -457h-327zM469 319q30 -40 84 -40h61q36 0 65 25t36 77l59 375q2 16 2 29q0 31 -12 48 q-18 25 -53 25h-56q-55 0 -106 -45z" />
<glyph unicode="q" horiz-adv-x="1052" d="M119 315l80 506q22 136 115.5 232t234.5 96h106q121 0 217 -90l37 78h230l-246 -1561h-328l72 457q-92 -45 -184 -45h-86q-95 0 -157.5 47.5t-83.5 120.5q-13 43 -13 92q0 32 6 67zM457 381q-2 -15 -2 -28q0 -31 13 -49q20 -25 56 -25h62q53 0 96 40l78 494 q-39 45 -92 45h-56q-35 0 -61.5 -25t-34.5 -77z" />
<glyph unicode="r" horiz-adv-x="720" d="M92 0l180 1137h230l14 -88q146 100 293 100h84l-49 -311h-133q-85 0 -166 -50l-125 -788h-328z" />
<glyph unicode="s" horiz-adv-x="1007" d="M127 336l6 41h328l-2 -17q-2 -9 -2 -18q-1 -26 17 -42q22 -20 61 -21h47q80 0 86 51l4 20q2 13 -5.5 24.5t-28 23t-37 18.5t-50.5 20q-60 23 -94.5 38.5t-89.5 49.5t-84 68t-47 88q-12 36 -12 75q0 20 3 40l9 47q20 127 127 217t270 90h106q109 0 182 -51.5t99 -131.5 q16 -50 16 -105q0 -34 -6 -70l-4 -25h-309l2 10q6 40 -8 61t-39 21h-47q-48 0 -56 -41l-2 -18q-4 -24 24 -40.5t89 -37.5q50 -17 89.5 -34.5t88 -50t78.5 -70.5q32 -38 48 -94q10 -34 9 -71q0 -25 -4 -51l-6 -43q-22 -129 -139 -224t-289 -95h-106q-117 0 -197 50t-110 128 q-20 52 -20 110q0 29 5 60z" />
<glyph unicode="t" horiz-adv-x="612" d="M123 846l45 291h119l141 299h229l-47 -299h150l-45 -291h-152l-67 -438q-2 -14 -2 -26q0 -46 28 -74q36 -36 99 -36l-48 -284q-413 0 -413 323q0 45 8 97l70 438h-115z" />
<glyph unicode="u" horiz-adv-x="1075" d="M141 315l129 822h328l-119 -756q-2 -16 -3 -29q0 -31 14 -48q18 -25 53 -25h37q67 0 125 43l129 815h327l-178 -1137h-229l-17 86q-140 -98 -291 -98h-75q-89 0 -147 47.5t-78 120.5q-11 42 -11 89q0 34 6 70z" />
<glyph unicode="v" horiz-adv-x="1052" d="M182 1137h336l76 -707l301 707h336l-520 -1137h-369z" />
<glyph unicode="w" horiz-adv-x="1626" d="M182 1137h336l39 -684l256 684h346l47 -697l264 697h334l-481 -1137h-369l-49 582l-233 -582h-369z" />
<glyph unicode="x" horiz-adv-x="1083" d="M10 0l436 569l-253 568h370l121 -271l197 271h370l-428 -578l252 -559h-370l-121 264l-205 -264h-369z" />
<glyph unicode="y" horiz-adv-x="1087" d="M172 -424l207 428l-197 1133h336l107 -629l305 629h336l-764 -1561h-330z" />
<glyph unicode="z" horiz-adv-x="952" d="M72 0l45 291l508 555h-420l47 291h811l-47 -291l-514 -555h426l-45 -291h-811z" />
<glyph unicode="{" horiz-adv-x="706" d="M90 453l51 284h19q59 3 101.5 32t51.5 79l33 203q63 395 543 395h6l-51 -285h-6q-62 0 -108.5 -29t-55.5 -81l-37 -224q-21 -117 -166 -233q105 -112 90 -232l-33 -223q-9 -52 29.5 -81t104.5 -29h6l-54 -285h-4q-229 0 -335.5 95t-73.5 300l28 203q9 52 -30 81.5 t-109 29.5z" />
<glyph unicode="|" d="M18 -471l324 2048h328l-324 -2048h-328z" />
<glyph unicode="}" horiz-adv-x="706" d="M2 -256l49 285h6q62 0 109.5 29t56.5 81l37 223q18 116 164 232q-108 115 -90 233l33 224q9 52 -30 81t-104 29h-6l47 285h9q231 0 337.5 -95t73.5 -300l-30 -203q-7 -52 31 -81.5t104 -29.5h6l-49 -284h-8q-62 0 -108.5 -29.5t-55.5 -81.5l-33 -203q-63 -395 -543 -395 h-6z" />
<glyph unicode="~" horiz-adv-x="964" d="M121 432l20 127q18 116 65 170.5t148 54.5q98 0 264 -53q101 -33 134 -33q7 0 14 6t8 17l8 53h250l-22 -149q-14 -91 -67 -143t-144 -52q-40 0 -84 6t-67.5 11t-71 17.5t-56.5 14.5q-13 3 -34 8.5t-32.5 8.5t-26 5.5t-24.5 2.5q-17 0 -24 -27l-6 -45h-252z" />
<glyph unicode="&#xa1;" d="M25 -424l176 1110h327l-176 -1110h-327zM223 827l49 310h328l-49 -310h-328z" />
<glyph unicode="&#xa2;" horiz-adv-x="1030" d="M119 315l80 506q18 116 116.5 207t251.5 115l56 342h268l-55 -344q139 -22 205.5 -113t48.5 -207l-21 -129h-328l11 64q8 52 -13 77t-61 25h-57q-39 0 -68 -25t-37 -77l-59 -375q-8 -52 12.5 -77t58.5 -25h58q40 0 69 25t37 77l8 57h328l-18 -123q-20 -116 -114.5 -206.5 t-240.5 -112.5l-51 -332h-268l51 330q-147 22 -217.5 113t-50.5 208z" />
<glyph unicode="&#xa3;" horiz-adv-x="1159" d="M4 0l47 301h160l43 270h-162l47 301h162l39 246q22 134 152.5 231t326.5 97h74q187 0 281.5 -97t72.5 -231l-28 -184h-338l18 108q7 53 -18.5 78t-73.5 25h-16q-48 0 -83 -25.5t-42 -77.5l-27 -170h174l-47 -301h-176l-43 -270h272l33 203h338l-80 -504h-1106z" />
<glyph unicode="&#xa5;" horiz-adv-x="1236" d="M160 145l45 291h313l17 99h-314l47 290h203l-213 611h346l166 -492l328 492h336l-406 -611h203l-47 -290h-312l-16 -99h311l-45 -291h-311l-23 -145h-337l22 145h-313z" />
<glyph unicode="&#xa7;" horiz-adv-x="1179" d="M33 -94l18 114h336l-6 -38q-8 -52 18 -77.5t74 -25.5h150q48 0 81 18t37 54l4 22q5 32 -35 57.5t-130 63.5q-75 31 -120 52.5t-113 65.5t-104.5 88t-58.5 112t-10 145l12 70q19 120 105 215q-55 81 -41 182l16 94q22 134 146 231t311 97h113q196 0 296.5 -97t79.5 -231 l-18 -114h-338l6 38q8 52 -18 77.5t-74 25.5h-55q-48 0 -81.5 -18t-39.5 -54l-2 -22q-5 -32 33.5 -58t126.5 -63q75 -33 116.5 -53.5t109 -65.5t101 -88.5t55 -111t9.5 -144.5l-10 -70q-18 -110 -97 -204q65 -89 49 -193l-14 -94q-22 -134 -146 -231t-311 -97h-206 q-196 0 -296 97t-79 231zM510 557q-5 -34 43 -66.5t145 -76.5q9 -5 78 -35q19 22 25 63l4 25q2 13 -2.5 25.5t-19 25.5t-27.5 22.5t-40 23.5t-43 22t-50 24q-30 11 -80 37q-23 -27 -29 -65z" />
<glyph unicode="&#xa8;" horiz-adv-x="847" d="M246 1255l49 310h328l-50 -310h-327zM674 1255l49 310h328l-50 -310h-327z" />
<glyph unicode="&#xa9;" horiz-adv-x="1411" d="M121 328l123 776q23 141 137 241.5t252 100.5h604q137 0 219.5 -100.5t59.5 -241.5l-123 -776q-22 -139 -136 -239.5t-251 -100.5h-605q-138 0 -220 100t-60 240zM311 328q-9 -65 25.5 -111.5t93.5 -46.5h604q59 0 108 47t58 111l123 776q11 66 -23 114t-92 48h-604 q-60 0 -109.5 -48t-60.5 -114zM467 528l57 365q17 105 103 180.5t190 75.5h133q104 0 167 -76t46 -180l-14 -92h-193l15 92q5 29 -8.5 51.5t-40.5 22.5h-134q-26 0 -48 -23t-27 -51l-58 -365q-5 -31 10.5 -53t41.5 -22h133q27 0 47.5 22t25.5 53l15 97h192l-14 -97 q-17 -106 -104 -181t-191 -75h-133q-104 0 -166 75t-45 181z" />
<glyph unicode="&#xaa;" horiz-adv-x="591" d="M223 995l10 64q9 62 66.5 104t134.5 51l133 21l6 37q6 33 -22 33h-80q-7 0 -15 -6.5t-10 -14.5l-6 -37h-153l8 53q10 65 70.5 105.5t136.5 40.5h65q75 0 123 -50t39 -118l-70 -438h-137v39q-67 -45 -125 -45h-24q-71 0 -115.5 48.5t-34.5 112.5zM379 1012q-3 -16 6 -26.5 t21 -10.5h14q36 0 112 45l13 74l-137 -25q-20 -3 -25 -31z" />
<glyph unicode="&#xab;" horiz-adv-x="1447" d="M141 399l47 344l660 336l-55 -346l-312 -160l260 -159l-53 -346zM844 399l47 344l659 336l-55 -346l-311 -160l260 -159l-53 -346z" />
<glyph unicode="&#xad;" horiz-adv-x="780" d="M166 453l45 290h594l-45 -290h-594z" />
<glyph unicode="&#xae;" horiz-adv-x="1411" d="M121 328l123 776q23 141 137 241.5t252 100.5h604q137 0 219.5 -100.5t59.5 -241.5l-123 -776q-22 -139 -136 -239.5t-251 -100.5h-605q-138 0 -220 100t-60 240zM311 328q-9 -65 25.5 -111.5t93.5 -46.5h604q59 0 108 47t58 111l123 776q11 66 -23 114t-92 48h-604 q-60 0 -109.5 -48t-60.5 -114zM438 279l137 870h332q117 0 185 -70t51 -176l-10 -57q-9 -59 -53.5 -115t-108.5 -90l112 -362h-213l-104 327h-88l-51 -327h-189zM707 788h161q27 0 49 18t25 40l10 57q5 28 -15.5 46t-57.5 18h-144z" />
<glyph unicode="&#xaf;" horiz-adv-x="780" d="M301 1270l45 291h594l-45 -291h-594z" />
<glyph unicode="&#xb0;" horiz-adv-x="962" d="M205 993l16 97q23 147 150 252.5t315 105.5h68q180 0 267 -105t64 -253l-16 -97q-11 -71 -46.5 -135t-91 -114t-135 -79.5t-171.5 -29.5h-68q-95 0 -169 29.5t-116.5 79.5t-60 114.5t-6.5 134.5zM539 1028q-8 -52 12.5 -77t60.5 -25h29q40 0 69.5 25t37.5 77l4 27 q8 52 -13 77t-61 25h-29q-40 0 -69 -25t-37 -77z" />
<glyph unicode="&#xb2;" horiz-adv-x="675" d="M172 641l33 201q6 43 36 85t74 74q29 20 115 64t127 78q29 24 33 49l4 31q3 21 -7.5 34t-29.5 13h-31q-20 0 -34 -12.5t-17 -34.5l-10 -62h-197l15 88q13 81 84 139t174 58h55q103 0 157 -62t40 -151l-15 -88q-13 -77 -100 -137q-36 -31 -127.5 -72.5t-130.5 -75.5 q-18 -14 -23 -35l-2 -8h342l-28 -176h-537z" />
<glyph unicode="&#xb3;" horiz-adv-x="681" d="M201 825l12 82h199l-9 -55q-3 -21 7 -34t28 -13h60q19 0 33.5 14t17.5 37l8 43q3 23 -8.5 36t-32.5 13h-104l28 178h92q40 0 46 41l10 60q3 18 -6 29.5t-25 11.5h-29q-34 0 -41 -41l-8 -53h-203l13 79q13 77 85.5 135t174.5 58h51q99 0 151.5 -58t39.5 -135l-19 -110 q-5 -44 -78 -99q32 -27 51 -58.5t15 -57.5l-17 -99q-13 -82 -84 -142t-174 -60h-82q-102 0 -158.5 59t-43.5 139z" />
<glyph unicode="&#xb4;" horiz-adv-x="694" d="M272 1440l533 211l59 -275l-542 -170z" />
<glyph unicode="&#xb5;" horiz-adv-x="1075" d="M25 -422l247 1559h328l-121 -756q-8 -52 10.5 -77t53.5 -25h37q67 0 125 43l131 815h327l-180 -1137h-229l-17 86q-140 -98 -291 -98h-30l-64 -410h-327z" />
<glyph unicode="&#xb6;" horiz-adv-x="1724" d="M186 739l58 369q22 134 147 231t314 97h1216l-47 -301h-139l-246 -1557h-338l246 1557h-129l-246 -1557h-338l133 834h-274q-96 0 -170.5 27.5t-117.5 73.5t-61 104t-8 122z" />
<glyph unicode="&#xb7;" d="M160 428l49 309h328l-50 -309h-327z" />
<glyph unicode="&#xb8;" horiz-adv-x="485" d="M-20 -424l28 182h150q55 0 55 29t-45 29h-129l106 204h209l-37 -67q95 -51 95 -146q0 -47 -16 -87t-49 -73t-91.5 -52t-136.5 -19h-139z" />
<glyph unicode="&#xb9;" horiz-adv-x="593" d="M172 641l29 176h131l65 414l-143 -72l31 189l170 86h170l-97 -617h127l-28 -176h-455z" />
<glyph unicode="&#xba;" horiz-adv-x="591" d="M223 997l45 281q9 67 72.5 117.5t138.5 50.5h88q75 0 123 -50t39 -118l-45 -281q-10 -66 -74 -114.5t-139 -48.5h-88q-75 0 -122.5 48.5t-37.5 114.5zM377 1001q-2 -11 6 -18.5t23 -7.5h88q15 0 24.5 7.5t11.5 18.5l43 273q2 13 -5 22t-21 9h-88q-15 0 -26 -9.5 t-13 -21.5z" />
<glyph unicode="&#xbb;" horiz-adv-x="1447" d="M80 68l55 346l311 159l-262 160l56 346l546 -331l-47 -345zM782 68l56 346l311 159l-262 160l55 346l547 -331l-47 -345z" />
<glyph unicode="&#xbc;" horiz-adv-x="1431" d="M172 641l29 176h131l65 414l-143 -72l31 189l170 86h170l-97 -617h127l-28 -176h-455zM313 0l826 1434h235l-827 -1434h-234zM829 164l23 149l383 480h182l-71 -453h69l-26 -176h-70l-27 -164h-196l26 164h-293zM1075 340h74l18 113z" />
<glyph unicode="&#xbd;" horiz-adv-x="1480" d="M172 641l29 176h131l65 414l-143 -72l31 189l170 86h170l-97 -617h127l-28 -176h-455zM313 0l826 1434h235l-827 -1434h-234zM874 0l33 201q6 43 36 85t75 74q29 20 115 64t127 78q27 23 32 49l4 31q3 22 -7 34.5t-29 12.5h-31q-20 0 -34 -12.5t-17 -34.5l-11 -62h-196 l14 88q13 81 84 139t174 58h55q103 0 157 -62t40 -151l-14 -88q-12 -76 -101 -137q-36 -31 -127.5 -72.5t-130.5 -75.5q-17 -13 -22 -35l-2 -8h342l-29 -176h-537z" />
<glyph unicode="&#xbe;" horiz-adv-x="1505" d="M201 825l12 82h199l-9 -55q-3 -21 7 -34t28 -13h60q19 0 33.5 14t17.5 37l8 43q3 23 -8.5 36t-32.5 13h-104l28 178h92q40 0 46 41l10 60q3 18 -6 29.5t-25 11.5h-29q-34 0 -41 -41l-8 -53h-203l13 79q13 77 85.5 135t174.5 58h51q99 0 151.5 -58t39.5 -135l-19 -110 q-5 -44 -78 -99q32 -27 51 -58.5t15 -57.5l-17 -99q-13 -82 -84 -142t-174 -60h-82q-102 0 -158.5 59t-43.5 139zM387 0l825 1434h236l-827 -1434h-234zM903 164l23 149l383 480h182l-72 -453h70l-27 -176h-69l-27 -164h-197l27 164h-293zM1149 340h74l18 113z" />
<glyph unicode="&#xbf;" horiz-adv-x="1042" d="M72 18l34 215q9 66 48.5 128t101.5 106l211 154q35 22 41 67l10 62h334l-31 -185q-17 -122 -121 -190l-239 -150q-22 -16 -29 -67l-10 -64q-9 -53 17 -77.5t75 -24.5h31q48 0 82.5 25t42.5 77l16 109h338l-29 -185q-22 -134 -146.5 -230.5t-311.5 -96.5h-91 q-196 0 -295.5 96.5t-78.5 230.5zM530 827l48 310h333l-47 -310h-334z" />
<glyph unicode="&#xc0;" horiz-adv-x="1292" d="M31 0l674 1436h337l220 -1436h-338l-33 248h-416l-106 -248h-338zM606 549h246l-55 432zM623 1690l145 274l467 -211l-125 -233z" />
<glyph unicode="&#xc1;" horiz-adv-x="1292" d="M31 0l674 1436h337l220 -1436h-338l-33 248h-416l-106 -248h-338zM606 549h246l-55 432zM633 1753l532 211l60 -274l-543 -170z" />
<glyph unicode="&#xc2;" horiz-adv-x="1292" d="M31 0l674 1436h337l220 -1436h-338l-33 248h-416l-106 -248h-338zM582 1778l350 184h49l291 -166l-121 -254l-244 117l-274 -117zM606 549h246l-55 432z" />
<glyph unicode="&#xc3;" horiz-adv-x="1292" d="M31 0l674 1436h337l220 -1436h-338l-33 248h-416l-106 -248h-338zM557 1610l21 127q18 116 64.5 170.5t148.5 54.5q50 0 94.5 -21.5t78.5 -43t56 -21.5q21 0 24 22l9 54h250l-23 -150q-14 -91 -67 -142.5t-144 -51.5q-43 0 -80.5 11.5t-59 25t-46.5 25t-45 11.5 q-16 0 -23 -26l-6 -45h-252zM606 549h246l-55 432z" />
<glyph unicode="&#xc4;" horiz-adv-x="1292" d="M31 0l674 1436h337l220 -1436h-338l-33 248h-416l-106 -248h-338zM516 1591l49 310h328l-49 -310h-328zM606 549h246l-55 432zM944 1591l49 310h328l-49 -310h-328z" />
<glyph unicode="&#xc5;" horiz-adv-x="1292" d="M31 0l610 1300q-47 38 -66 95t-8 121l6 49q18 112 111 191t231 79h39q133 0 197.5 -79t46.5 -191l-6 -49q-23 -132 -131 -209l201 -1307h-338l-33 248h-416l-106 -248h-338zM606 549h246l-55 432zM813 1534q-11 -76 51 -76h10q29 0 49.5 18.5t26.5 57.5l2 12 q11 76 -51 76h-10q-29 0 -49.5 -18.5t-26.5 -57.5z" />
<glyph unicode="&#xc6;" horiz-adv-x="1761" d="M10 0l928 1436h938l-47 -301h-539l-41 -263h463l-47 -301h-463l-43 -270h555l-47 -301h-893l35 227h-295l-145 -227h-359zM709 528h149l47 303z" />
<glyph unicode="&#xc7;" horiz-adv-x="1179" d="M119 315l127 803q22 134 151.5 231t325.5 97h207q95 0 169.5 -27.5t117.5 -73.5t61 -104.5t8 -122.5l-29 -184h-337l16 108q8 52 -18 77.5t-74 25.5h-148q-108 0 -125 -103l-102 -651q-9 -53 17 -77.5t75 -24.5h148q48 0 82.5 25t42.5 77l18 113h338l-31 -189 q-22 -134 -146.5 -230.5t-312.5 -96.5h-20l-18 -35q94 -51 94 -146q0 -47 -16 -87t-49 -73t-91.5 -52t-136.5 -19h-139l28 182h150q55 0 55 29t-45 29h-129l88 172q-187 6 -280 101.5t-72 225.5z" />
<glyph unicode="&#xc8;" horiz-adv-x="1079" d="M92 0l227 1436h875l-47 -301h-539l-41 -263h463l-47 -301h-463l-43 -270h557l-47 -301h-895zM520 1690l146 274l467 -211l-125 -233z" />
<glyph unicode="&#xc9;" horiz-adv-x="1079" d="M92 0l227 1436h875l-47 -301h-539l-41 -263h463l-47 -301h-463l-43 -270h557l-47 -301h-895zM532 1753l533 211l59 -274l-542 -170z" />
<glyph unicode="&#xca;" horiz-adv-x="1079" d="M92 0l227 1436h875l-47 -301h-539l-41 -263h463l-47 -301h-463l-43 -270h557l-47 -301h-895zM481 1778l350 184h50l290 -166l-120 -254l-244 117l-275 -117z" />
<glyph unicode="&#xcb;" horiz-adv-x="1079" d="M92 0l227 1436h875l-47 -301h-539l-41 -263h463l-47 -301h-463l-43 -270h557l-47 -301h-895zM414 1591l49 310h328l-50 -310h-327zM842 1591l49 310h328l-50 -310h-327z" />
<glyph unicode="&#xcc;" horiz-adv-x="524" d="M92 0l227 1436h338l-227 -1436h-338zM242 1690l145 274l467 -211l-125 -233z" />
<glyph unicode="&#xcd;" horiz-adv-x="524" d="M92 0l227 1436h338l-227 -1436h-338zM254 1753l532 211l60 -274l-543 -170z" />
<glyph unicode="&#xce;" horiz-adv-x="524" d="M92 0l227 1436h338l-227 -1436h-338zM203 1778l350 184h49l291 -166l-121 -254l-244 117l-274 -117z" />
<glyph unicode="&#xcf;" horiz-adv-x="524" d="M92 0l227 1436h338l-227 -1436h-338zM137 1591l49 310h328l-49 -310h-328zM565 1591l49 310h328l-49 -310h-328z" />
<glyph unicode="&#xd0;" horiz-adv-x="1202" d="M90 590l45 291h96l88 553h633q127 0 214.5 -47.5t122 -121t20.5 -159.5l-123 -778q-22 -134 -147 -231t-314 -97h-633l92 590h-94zM477 301h258q108 0 125 102l98 627q9 53 -17 78t-75 25h-256l-41 -252h197l-45 -291h-197z" />
<glyph unicode="&#xd1;" horiz-adv-x="1224" d="M92 0l227 1436h336l254 -707l113 707h338l-227 -1436h-338l-254 700l-111 -700h-338zM532 1610l21 127q18 116 64.5 170.5t148.5 54.5q50 0 94.5 -21.5t78.5 -43t56 -21.5t25 22l8 54h250l-23 -150q-14 -91 -67 -142.5t-144 -51.5q-43 0 -80.5 11.5t-59 25t-46.5 25 t-45 11.5q-15 0 -22 -26l-7 -45h-252z" />
<glyph unicode="&#xd2;" horiz-adv-x="1179" d="M119 315l127 803q22 134 151.5 231t325.5 97h207q95 0 169.5 -27.5t117.5 -73.5t61 -104.5t8 -122.5l-127 -803q-22 -134 -146.5 -230.5t-312.5 -96.5h-206q-196 0 -296 96.5t-79 230.5zM469 391q-9 -53 17 -77.5t75 -24.5h148q48 0 82.5 25t42.5 77l102 651 q8 52 -18 77.5t-74 25.5h-148q-108 0 -125 -103zM573 1690l146 274l467 -211l-125 -233z" />
<glyph unicode="&#xd3;" horiz-adv-x="1179" d="M119 315l127 803q22 134 151.5 231t325.5 97h207q95 0 169.5 -27.5t117.5 -73.5t61 -104.5t8 -122.5l-127 -803q-22 -134 -146.5 -230.5t-312.5 -96.5h-206q-196 0 -296 96.5t-79 230.5zM469 391q-9 -53 17 -77.5t75 -24.5h148q48 0 82.5 25t42.5 77l102 651 q8 52 -18 77.5t-74 25.5h-148q-108 0 -125 -103zM584 1753l532 211l60 -274l-543 -170z" />
<glyph unicode="&#xd4;" horiz-adv-x="1179" d="M119 315l127 803q22 134 151.5 231t325.5 97h207q95 0 169.5 -27.5t117.5 -73.5t61 -104.5t8 -122.5l-127 -803q-22 -134 -146.5 -230.5t-312.5 -96.5h-206q-196 0 -296 96.5t-79 230.5zM469 391q-9 -53 17 -77.5t75 -24.5h148q48 0 82.5 25t42.5 77l102 651 q8 52 -18 77.5t-74 25.5h-148q-108 0 -125 -103zM530 1778l351 184h49l291 -166l-121 -254l-244 117l-274 -117z" />
<glyph unicode="&#xd5;" horiz-adv-x="1179" d="M119 315l127 803q22 134 151.5 231t325.5 97h207q95 0 169.5 -27.5t117.5 -73.5t61 -104.5t8 -122.5l-127 -803q-22 -134 -146.5 -230.5t-312.5 -96.5h-206q-196 0 -296 96.5t-79 230.5zM469 391q-9 -53 17 -77.5t75 -24.5h148q48 0 82.5 25t42.5 77l102 651 q8 52 -18 77.5t-74 25.5h-148q-108 0 -125 -103zM506 1610l20 127q18 116 64.5 170.5t148.5 54.5q50 0 95 -21.5t79 -43t56 -21.5q21 0 24 22l8 54h250l-22 -150q-14 -91 -67 -142.5t-144 -51.5q-43 0 -80.5 11.5t-59.5 25t-47 25t-45 11.5q-16 0 -22 -26l-6 -45h-252z" />
<glyph unicode="&#xd6;" horiz-adv-x="1179" d="M119 315l127 803q22 134 151.5 231t325.5 97h207q95 0 169.5 -27.5t117.5 -73.5t61 -104.5t8 -122.5l-127 -803q-22 -134 -146.5 -230.5t-312.5 -96.5h-206q-196 0 -296 96.5t-79 230.5zM467 1591l49 310h328l-49 -310h-328zM469 391q-9 -53 17 -77.5t75 -24.5h148 q48 0 82.5 25t42.5 77l102 651q8 52 -18 77.5t-74 25.5h-148q-108 0 -125 -103zM895 1591l49 310h328l-49 -310h-328z" />
<glyph unicode="&#xd7;" horiz-adv-x="954" d="M131 483l258 232l-184 231l233 211l185 -231l258 231l168 -211l-258 -231l184 -232l-234 -211l-184 232l-258 -232z" />
<glyph unicode="&#xd8;" horiz-adv-x="1179" d="M-35 -205l219 301q-84 93 -65 219l127 803q22 134 151.5 231t325.5 97h207q123 0 207 -43l170 231h139l-219 -301q78 -90 59 -215l-127 -803q-22 -134 -146.5 -230.5t-312.5 -96.5h-206q-127 0 -218 43l-172 -236h-139zM483 315q23 -26 78 -26h148q48 0 82.5 25t42.5 77 l79 516zM487 512l437 598q-22 35 -80 35h-148q-108 0 -125 -103z" />
<glyph unicode="&#xd9;" horiz-adv-x="1224" d="M141 315l178 1121h338l-165 -1045q-8 -52 18 -77t74 -25h147q108 0 125 102l166 1045h338l-178 -1121q-22 -134 -146 -230.5t-313 -96.5h-205q-99 0 -177.5 27.5t-124.5 73t-65.5 104t-9.5 122.5zM592 1690l145 274l467 -211l-125 -233z" />
<glyph unicode="&#xda;" horiz-adv-x="1224" d="M141 315l178 1121h338l-165 -1045q-8 -52 18 -77t74 -25h147q108 0 125 102l166 1045h338l-178 -1121q-22 -134 -146 -230.5t-313 -96.5h-205q-99 0 -177.5 27.5t-124.5 73t-65.5 104t-9.5 122.5zM604 1753l533 211l59 -274l-543 -170z" />
<glyph unicode="&#xdb;" horiz-adv-x="1224" d="M141 315l178 1121h338l-165 -1045q-8 -52 18 -77t74 -25h147q108 0 125 102l166 1045h338l-178 -1121q-22 -134 -146 -230.5t-313 -96.5h-205q-99 0 -177.5 27.5t-124.5 73t-65.5 104t-9.5 122.5zM551 1778l350 184h49l291 -166l-121 -254l-243 117l-275 -117z" />
<glyph unicode="&#xdc;" horiz-adv-x="1224" d="M141 315l178 1121h338l-165 -1045q-8 -52 18 -77t74 -25h147q108 0 125 102l166 1045h338l-178 -1121q-22 -134 -146 -230.5t-313 -96.5h-205q-99 0 -177.5 27.5t-124.5 73t-65.5 104t-9.5 122.5zM487 1591l50 310h327l-49 -310h-328zM915 1591l50 310h327l-49 -310h-328 z" />
<glyph unicode="&#xdd;" horiz-adv-x="1236" d="M258 1436h346l160 -529l334 529h336l-560 -889l-86 -547h-337l86 547zM610 1753l533 211l59 -274l-543 -170z" />
<glyph unicode="&#xde;" horiz-adv-x="1183" d="M92 0l227 1436h338l-34 -219h276q95 0 169.5 -27.5t117.5 -73.5t61 -104.5t8 -122.5l-49 -307q-22 -134 -146.5 -231t-311.5 -97h-279l-39 -254h-338zM518 555h238q48 0 82.5 25t42.5 77l24 156q8 52 -18 77t-74 25h-238z" />
<glyph unicode="&#xdf;" horiz-adv-x="1060" d="M80 0l172 1081q23 148 145.5 256.5t268.5 108.5h127q148 0 235 -108t64 -257l-5 -22q-11 -71 -39.5 -115t-72.5 -84q-19 -18 -28.5 -28.5t-19.5 -28.5t-14 -39l-2 -14q-4 -27 9.5 -47t44.5 -48q15 -13 23.5 -21t22.5 -23t22.5 -28t19.5 -31t16.5 -36.5t10 -41.5 t4.5 -49.5t-5 -55.5l-8 -43q-22 -133 -144 -229.5t-268 -96.5h-170l46 291h170q12 0 24.5 13t15.5 30l3 12q2 15 -43 60q-31 31 -49 52.5t-43.5 62.5t-34 91t1.5 107l4 31q8 56 35.5 111t46 79.5t53.5 65.5q3 4 10.5 12.5t10.5 11.5t7.5 9.5t7 10.5t4.5 9.5t3 11.5l2 10 q4 31 -12.5 52.5t-44.5 21.5h-31q-30 0 -63 -31t-40 -73l-165 -1051h-328z" />
<glyph unicode="&#xe0;" horiz-adv-x="1042" d="M110 193q-12 59 1 122l79 506q22 136 116 232t235 96h86q135 0 235 -94l47 82h221l-178 -1137h-229l-14 76q-120 -88 -244 -88h-107q-72 0 -126.5 27.5t-82 73t-39.5 104.5zM449 381q-8 -52 10 -77t53 -25h55q51 0 107 43l78 493q-32 43 -82 43h-62q-36 0 -64 -25 t-36 -77zM449 1356l143 274l469 -211l-125 -233z" />
<glyph unicode="&#xe1;" horiz-adv-x="1042" d="M110 193q-12 59 1 122l79 506q22 136 116 232t235 96h86q135 0 235 -94l47 82h221l-178 -1137h-229l-14 76q-120 -88 -244 -88h-107q-72 0 -126.5 27.5t-82 73t-39.5 104.5zM449 381q-8 -52 10 -77t53 -25h55q51 0 107 43l78 493q-32 43 -82 43h-62q-36 0 -64 -25 t-36 -77zM457 1440l532 211l60 -275l-543 -170z" />
<glyph unicode="&#xe2;" horiz-adv-x="1042" d="M110 193q-12 59 1 122l79 506q22 136 116 232t235 96h86q135 0 235 -94l47 82h221l-178 -1137h-229l-14 76q-120 -88 -244 -88h-107q-72 0 -126.5 27.5t-82 73t-39.5 104.5zM412 1419l348 185h49l291 -166l-121 -254l-242 116l-276 -116zM449 381q-8 -52 10 -77t53 -25 h55q51 0 107 43l78 493q-32 43 -82 43h-62q-36 0 -64 -25t-36 -77z" />
<glyph unicode="&#xe3;" horiz-adv-x="1042" d="M110 193q-12 59 1 122l79 506q22 136 116 232t235 96h86q135 0 235 -94l47 82h221l-178 -1137h-229l-14 76q-120 -88 -244 -88h-107q-72 0 -126.5 27.5t-82 73t-39.5 104.5zM373 1210l20 127q18 116 65 171t148 55q40 0 85 -21.5t83.5 -43t63.5 -21.5q19 0 22 22l8 53 h250l-22 -149q-14 -91 -67 -143t-144 -52q-41 0 -89 18.5t-86 37t-55 18.5t-24 -27l-6 -45h-252zM449 381q-8 -52 10 -77t53 -25h55q51 0 107 43l78 493q-32 43 -82 43h-62q-36 0 -64 -25t-36 -77z" />
<glyph unicode="&#xe4;" horiz-adv-x="1042" d="M110 193q-12 59 1 122l79 506q22 136 116 232t235 96h86q135 0 235 -94l47 82h221l-178 -1137h-229l-14 76q-120 -88 -244 -88h-107q-72 0 -126.5 27.5t-82 73t-39.5 104.5zM352 1255l49 310h328l-49 -310h-328zM449 381q-8 -52 10 -77t53 -25h55q51 0 107 43l78 493 q-32 43 -82 43h-62q-36 0 -64 -25t-36 -77zM780 1255l49 310h328l-49 -310h-328z" />
<glyph unicode="&#xe5;" horiz-adv-x="1042" d="M110 193q-12 59 1 122l79 506q22 136 116 232t235 96h86q135 0 235 -94l47 82h221l-178 -1137h-229l-14 76q-120 -88 -244 -88h-107q-72 0 -126.5 27.5t-82 73t-39.5 104.5zM449 381q-8 -52 10 -77t53 -25h55q51 0 107 43l78 493q-32 43 -82 43h-62q-36 0 -64 -25 t-36 -77zM457 1509l8 50q16 112 108.5 191t231.5 79h39q133 0 197.5 -79t48.5 -191l-9 -50q-18 -112 -107 -191t-222 -79h-39q-139 0 -206.5 79t-49.5 191zM702 1528q-11 -76 52 -76h10q29 0 49.5 18.5t26.5 57.5l2 12q11 76 -51 76h-11q-28 0 -48.5 -18.5t-26.5 -57.5z" />
<glyph unicode="&#xe6;" horiz-adv-x="1581" d="M104 283l13 79q11 70 52.5 126t104 92.5t133 59t148.5 32.5l176 20l12 80q7 42 -10 64t-45 22h-67q-25 0 -45.5 -21t-26.5 -61l-2 -14h-328l4 29q23 148 144.5 253t300.5 105h84q104 0 202 -88q138 88 258 88h95q121 0 203 -47.5t113 -121t17 -159.5l-55 -350h-561 l-14 -90q-7 -52 13 -77t58 -25h58q39 0 67 22t35 68l2 8h328l-12 -74q-20 -129 -138.5 -222t-298.5 -93h-94q-202 0 -295 108q-140 -108 -276 -108h-80q-101 0 -169 42.5t-92.5 108.5t-11.5 144zM440 340q-4 -31 13 -46t43 -15h22q88 0 156 47l22 145l-127 -16 q-48 -6 -83.5 -30t-41.5 -58zM1061 713h235l9 43q8 52 -13 77t-61 25h-57q-39 0 -68 -25t-37 -77z" />
<glyph unicode="&#xe7;" horiz-adv-x="1009" d="M119 315l80 506q22 134 145.5 231t312.5 97h76q91 0 161.5 -27.5t111 -73.5t57 -104.5t6.5 -122.5l-20 -129h-328l10 64q8 52 -12.5 77t-59.5 25h-38q-39 0 -68 -25t-37 -77l-59 -375q-8 -52 12.5 -77t58.5 -25h39q39 0 68 25t37 77l8 57h328l-19 -123 q-20 -121 -119.5 -213t-253.5 -110l-20 -39q94 -51 94 -146q0 -47 -16 -87t-49 -73t-91.5 -52t-136.5 -19h-139l29 182h149q56 0 56 29t-46 29h-129l91 176q-157 18 -233 110t-56 213z" />
<glyph unicode="&#xe8;" horiz-adv-x="1030" d="M119 315l80 506q22 134 145.5 231t312.5 97h95q91 0 162 -27.5t112 -73.5t57.5 -104.5t6.5 -122.5l-56 -350h-563l-14 -90q-8 -52 12.5 -77t58.5 -25h58q90 0 104 90l2 8h328l-12 -74q-20 -129 -139.5 -222t-299.5 -93h-94q-96 0 -170.5 27.5t-117.5 73.5t-60.5 104 t-7.5 122zM440 1356l144 274l469 -211l-125 -233zM508 713h235l9 43q8 52 -13 77t-61 25h-57q-39 0 -68 -25t-37 -77z" />
<glyph unicode="&#xe9;" horiz-adv-x="1030" d="M119 315l80 506q22 134 145.5 231t312.5 97h95q91 0 162 -27.5t112 -73.5t57.5 -104.5t6.5 -122.5l-56 -350h-563l-14 -90q-8 -52 12.5 -77t58.5 -25h58q90 0 104 90l2 8h328l-12 -74q-20 -129 -139.5 -222t-299.5 -93h-94q-96 0 -170.5 27.5t-117.5 73.5t-60.5 104 t-7.5 122zM449 1440l532 211l59 -275l-542 -170zM508 713h235l9 43q8 52 -13 77t-61 25h-57q-39 0 -68 -25t-37 -77z" />
<glyph unicode="&#xea;" horiz-adv-x="1030" d="M119 315l80 506q22 134 145.5 231t312.5 97h95q91 0 162 -27.5t112 -73.5t57.5 -104.5t6.5 -122.5l-56 -350h-563l-14 -90q-8 -52 12.5 -77t58.5 -25h58q90 0 104 90l2 8h328l-12 -74q-20 -129 -139.5 -222t-299.5 -93h-94q-96 0 -170.5 27.5t-117.5 73.5t-60.5 104 t-7.5 122zM406 1419l348 185h49l291 -166l-121 -254l-242 116l-276 -116zM508 713h235l9 43q8 52 -13 77t-61 25h-57q-39 0 -68 -25t-37 -77z" />
<glyph unicode="&#xeb;" horiz-adv-x="1030" d="M119 315l80 506q22 134 145.5 231t312.5 97h95q91 0 162 -27.5t112 -73.5t57.5 -104.5t6.5 -122.5l-56 -350h-563l-14 -90q-8 -52 12.5 -77t58.5 -25h58q90 0 104 90l2 8h328l-12 -74q-20 -129 -139.5 -222t-299.5 -93h-94q-96 0 -170.5 27.5t-117.5 73.5t-60.5 104 t-7.5 122zM344 1255l49 310h328l-49 -310h-328zM508 713h235l9 43q8 52 -13 77t-61 25h-57q-39 0 -68 -25t-37 -77zM772 1255l49 310h328l-49 -310h-328z" />
<glyph unicode="&#xec;" d="M92 0l180 1137h328l-180 -1137h-328zM172 1356l143 274l469 -211l-125 -233z" />
<glyph unicode="&#xed;" d="M92 0l180 1137h328l-180 -1137h-328zM182 1440l533 211l59 -275l-543 -170z" />
<glyph unicode="&#xee;" d="M92 0l180 1137h328l-180 -1137h-328zM139 1419l348 185h50l290 -166l-120 -254l-242 116l-277 -116z" />
<glyph unicode="&#xef;" d="M78 1255l49 310h328l-49 -310h-328zM92 0l180 1137h328l-180 -1137h-328zM506 1255l49 310h328l-49 -310h-328z" />
<glyph unicode="&#xf0;" horiz-adv-x="1103" d="M119 315l39 250q22 134 146.5 231t313.5 97h130q31 0 86 -25l26 174q0 3 1 9.5t1 9.5l-141 -133l-64 78l144 135q-20 4 -33 4h-401l47 301h420q138 0 233 -53l135 129l64 -78l-119 -113q82 -88 63 -213l-127 -803q-21 -134 -152 -230.5t-327 -96.5h-129 q-96 0 -170.5 27.5t-117.5 73.5t-60.5 104t-7.5 122zM469 391q-9 -53 17 -77.5t75 -24.5h72q48 0 82.5 25t42.5 77l14 98q8 52 -18 77.5t-74 25.5h-72q-108 0 -125 -103z" />
<glyph unicode="&#xf1;" horiz-adv-x="1075" d="M92 0l180 1137h230l14 -88q143 100 293 100h76q89 0 146.5 -47.5t76.5 -120.5t6 -160l-131 -821h-328l119 756q8 52 -10 77t-53 25h-37q-67 0 -127 -47l-127 -811h-328zM381 1210l20 127q18 116 65 171t148 55q40 0 85 -21.5t84 -43t63 -21.5q19 0 22 22l9 53h249 l-22 -149q-14 -91 -67 -143t-144 -52q-41 0 -88.5 18.5t-86 37t-54.5 18.5q-18 0 -25 -27l-6 -45h-252z" />
<glyph unicode="&#xf2;" horiz-adv-x="1030" d="M119 315l80 506q22 134 145.5 231t312.5 97h95q91 0 162 -27.5t112 -73.5t57.5 -104.5t6.5 -122.5l-80 -506q-22 -134 -141.5 -230.5t-299.5 -96.5h-94q-96 0 -170.5 27.5t-117.5 73.5t-60.5 104t-7.5 122zM438 1356l144 274l469 -211l-125 -233zM457 381 q-8 -52 12.5 -77t58.5 -25h58q40 0 69 25t37 77l60 375q8 52 -13 77t-61 25h-57q-39 0 -68 -25t-37 -77z" />
<glyph unicode="&#xf3;" horiz-adv-x="1030" d="M119 315l80 506q22 134 145.5 231t312.5 97h95q91 0 162 -27.5t112 -73.5t57.5 -104.5t6.5 -122.5l-80 -506q-22 -134 -141.5 -230.5t-299.5 -96.5h-94q-96 0 -170.5 27.5t-117.5 73.5t-60.5 104t-7.5 122zM446 1440l533 211l59 -275l-542 -170zM457 381q-8 -52 12.5 -77 t58.5 -25h58q40 0 69 25t37 77l60 375q8 52 -13 77t-61 25h-57q-39 0 -68 -25t-37 -77z" />
<glyph unicode="&#xf4;" horiz-adv-x="1030" d="M119 315l80 506q22 134 145.5 231t312.5 97h95q91 0 162 -27.5t112 -73.5t57.5 -104.5t6.5 -122.5l-80 -506q-22 -134 -141.5 -230.5t-299.5 -96.5h-94q-96 0 -170.5 27.5t-117.5 73.5t-60.5 104t-7.5 122zM403 1419l349 185h49l291 -166l-121 -254l-242 116l-276 -116z M457 381q-8 -52 12.5 -77t58.5 -25h58q40 0 69 25t37 77l60 375q8 52 -13 77t-61 25h-57q-39 0 -68 -25t-37 -77z" />
<glyph unicode="&#xf5;" horiz-adv-x="1030" d="M119 315l80 506q22 134 145.5 231t312.5 97h95q91 0 162 -27.5t112 -73.5t57.5 -104.5t6.5 -122.5l-80 -506q-22 -134 -141.5 -230.5t-299.5 -96.5h-94q-96 0 -170.5 27.5t-117.5 73.5t-60.5 104t-7.5 122zM362 1210l21 127q18 116 65 171t148 55q40 0 85 -21.5t83 -43 t63 -21.5q20 0 23 22l8 53h250l-23 -149q-14 -91 -67 -143t-144 -52q-41 0 -88.5 18.5t-85.5 37t-55 18.5t-24 -27l-7 -45h-252zM457 381q-8 -52 12.5 -77t58.5 -25h58q40 0 69 25t37 77l60 375q8 52 -13 77t-61 25h-57q-39 0 -68 -25t-37 -77z" />
<glyph unicode="&#xf6;" horiz-adv-x="1030" d="M119 315l80 506q22 134 145.5 231t312.5 97h95q91 0 162 -27.5t112 -73.5t57.5 -104.5t6.5 -122.5l-80 -506q-22 -134 -141.5 -230.5t-299.5 -96.5h-94q-96 0 -170.5 27.5t-117.5 73.5t-60.5 104t-7.5 122zM342 1255l49 310h328l-49 -310h-328zM457 381q-8 -52 12.5 -77 t58.5 -25h58q40 0 69 25t37 77l60 375q8 52 -13 77t-61 25h-57q-39 0 -68 -25t-37 -77zM770 1255l49 310h328l-49 -310h-328z" />
<glyph unicode="&#xf8;" horiz-adv-x="1030" d="M2 -205l199 281q-51 45 -72 107.5t-10 131.5l80 506q22 134 145.5 231t312.5 97h95q110 0 186 -39l147 207h117l-186 -260q47 -45 66 -107t8 -129l-80 -506q-22 -134 -141.5 -230.5t-299.5 -96.5h-94q-119 0 -194 37l-164 -230h-115zM467 449l272 382q-18 27 -61 27h-57 q-39 0 -68 -25t-37 -77zM473 297q18 -18 55 -18h58q40 0 69 25t37 77l45 285z" />
<glyph unicode="&#xf9;" horiz-adv-x="1075" d="M141 315l129 822h328l-119 -756q-8 -52 10.5 -77t53.5 -25h37q67 0 125 43l129 815h327l-178 -1137h-229l-17 86q-140 -98 -291 -98h-75q-89 0 -147 47.5t-77.5 120.5t-5.5 159zM455 1356l143 274l469 -211l-125 -233z" />
<glyph unicode="&#xfa;" horiz-adv-x="1075" d="M141 315l129 822h328l-119 -756q-8 -52 10.5 -77t53.5 -25h37q67 0 125 43l129 815h327l-178 -1137h-229l-17 86q-140 -98 -291 -98h-75q-89 0 -147 47.5t-77.5 120.5t-5.5 159zM463 1440l532 211l60 -275l-543 -170z" />
<glyph unicode="&#xfb;" horiz-adv-x="1075" d="M141 315l129 822h328l-119 -756q-8 -52 10.5 -77t53.5 -25h37q67 0 125 43l129 815h327l-178 -1137h-229l-17 86q-140 -98 -291 -98h-75q-89 0 -147 47.5t-77.5 120.5t-5.5 159zM418 1419l348 185h49l291 -166l-121 -254l-242 116l-276 -116z" />
<glyph unicode="&#xfc;" horiz-adv-x="1075" d="M141 315l129 822h328l-119 -756q-8 -52 10.5 -77t53.5 -25h37q67 0 125 43l129 815h327l-178 -1137h-229l-17 86q-140 -98 -291 -98h-75q-89 0 -147 47.5t-77.5 120.5t-5.5 159zM358 1255l50 310h327l-49 -310h-328zM786 1255l50 310h327l-49 -310h-328z" />
<glyph unicode="&#xfd;" horiz-adv-x="1087" d="M172 -424l207 428l-197 1133h336l107 -629l305 629h336l-764 -1561h-330zM467 1440l532 211l60 -275l-543 -170z" />
<glyph unicode="&#xfe;" horiz-adv-x="1052" d="M25 -424l311 1960h328l-70 -432q92 45 186 45h84q95 0 157.5 -47.5t83.5 -120.5t7 -160l-80 -506q-22 -135 -116 -231t-236 -96h-105q-81 0 -151 39l-72 -451h-327zM471 322q40 -43 92 -43h55q36 0 63 25t34 77l59 375q8 52 -11.5 77t-55.5 25h-62q-48 0 -96 -41z" />
<glyph unicode="&#xff;" horiz-adv-x="1087" d="M172 -424l207 428l-197 1133h336l107 -629l305 629h336l-764 -1561h-330zM362 1255l50 310h327l-49 -310h-328zM791 1255l49 310h327l-49 -310h-327z" />
<glyph unicode="&#x152;" horiz-adv-x="1759" d="M121 328l123 780q22 134 152.5 231t326.5 97h1151l-47 -301h-539l-41 -263h463l-47 -301h-463l-43 -270h557l-47 -301h-1171q-196 0 -296 97t-79 231zM471 403q-9 -53 17 -77.5t75 -24.5h256l133 834h-258q-108 0 -125 -103z" />
<glyph unicode="&#x153;" horiz-adv-x="1591" d="M119 315l80 506q22 134 145.5 231t312.5 97h95q129 0 219 -57q114 57 250 57h94q91 0 162 -27.5t112 -73.5t57.5 -104.5t6.5 -122.5l-56 -350h-563l-14 -90q-8 -52 12.5 -77t59.5 -25h57q90 0 104 90l2 8h328l-12 -74q-20 -129 -139 -222t-299 -93h-95q-141 0 -231 55 q-104 -55 -238 -55h-94q-96 0 -170.5 27.5t-117.5 73.5t-60.5 104t-7.5 122zM457 381q-8 -52 12.5 -77t58.5 -25h58q40 0 69 25t37 77l60 375q8 52 -13 77t-61 25h-57q-39 0 -68 -25t-37 -77zM1071 713h236l8 43q8 52 -13 77t-61 25h-57q-39 0 -68 -25t-37 -77z" />
<glyph unicode="&#x178;" horiz-adv-x="1236" d="M258 1436h346l160 -529l334 529h336l-560 -889l-86 -547h-337l86 547zM492 1591l49 310h327l-49 -310h-327zM920 1591l49 310h327l-49 -310h-327z" />
<glyph unicode="&#x2c6;" horiz-adv-x="780" d="M272 1419l349 185h49l291 -166l-121 -254l-242 116l-276 -116z" />
<glyph unicode="&#x2dc;" horiz-adv-x="794" d="M248 1210l18 127q16 115 64 170.5t149 55.5q40 0 85 -21.5t83.5 -43t63.5 -21.5q19 0 22 22l8 53h250l-22 -149q-14 -91 -67 -143t-144 -52q-41 0 -89 18.5t-86 37t-55 18.5t-24 -27l-6 -45h-250z" />
<glyph unicode="&#x2000;" horiz-adv-x="982" />
<glyph unicode="&#x2001;" horiz-adv-x="1964" />
<glyph unicode="&#x2002;" horiz-adv-x="982" />
<glyph unicode="&#x2003;" horiz-adv-x="1964" />
<glyph unicode="&#x2004;" horiz-adv-x="654" />
<glyph unicode="&#x2005;" horiz-adv-x="491" />
<glyph unicode="&#x2006;" horiz-adv-x="327" />
<glyph unicode="&#x2007;" horiz-adv-x="327" />
<glyph unicode="&#x2008;" horiz-adv-x="245" />
<glyph unicode="&#x2009;" horiz-adv-x="392" />
<glyph unicode="&#x200a;" horiz-adv-x="109" />
<glyph unicode="&#x2010;" horiz-adv-x="780" d="M166 453l45 290h594l-45 -290h-594z" />
<glyph unicode="&#x2011;" horiz-adv-x="780" d="M166 453l45 290h594l-45 -290h-594z" />
<glyph unicode="&#x2012;" horiz-adv-x="780" d="M166 453l45 290h594l-45 -290h-594z" />
<glyph unicode="&#x2013;" horiz-adv-x="1189" d="M166 453l45 290h1001l-45 -290h-1001z" />
<glyph unicode="&#x2014;" horiz-adv-x="2103" d="M166 453l45 290h1917l-45 -290h-1917z" />
<glyph unicode="&#x2018;" horiz-adv-x="509" d="M168 805l49 309q30 190 176 307t320 117l-49 -305q-41 0 -76.5 -39t-42.5 -80l-49 -309h-328z" />
<glyph unicode="&#x2019;" horiz-adv-x="509" d="M168 805l49 305q41 0 76.5 39t42.5 80l49 309h328l-49 -309q-21 -127 -98 -225.5t-181.5 -148.5t-216.5 -50z" />
<glyph unicode="&#x201a;" d="M-76 -424l49 305q41 0 76.5 39t42.5 80l49 309h328l-49 -309q-21 -127 -98 -225.5t-181.5 -148.5t-216.5 -50z" />
<glyph unicode="&#x201c;" horiz-adv-x="974" d="M168 805l49 309q30 190 176 307t320 117l-49 -305q-41 0 -76.5 -39t-42.5 -80l-49 -309h-328zM633 805l49 309q30 190 176 307t320 117l-50 -305q-41 0 -76 -39t-42 -80l-49 -309h-328z" />
<glyph unicode="&#x201d;" horiz-adv-x="974" d="M168 805l49 305q41 0 76.5 39t42.5 80l49 309h328l-49 -309q-21 -127 -98 -225.5t-181.5 -148.5t-216.5 -50zM633 805l49 305q41 0 76.5 39t42.5 80l49 309h328l-50 -309q-21 -127 -97.5 -225.5t-181 -148.5t-216.5 -50z" />
<glyph unicode="&#x201e;" horiz-adv-x="1019" d="M-76 -424l49 305q41 0 76.5 39t42.5 80l49 309h328l-49 -309q-21 -127 -98 -225.5t-181.5 -148.5t-216.5 -50zM430 -424l49 305q41 0 76.5 39t42.5 80l49 309h328l-49 -309q-21 -127 -98 -225.5t-181.5 -148.5t-216.5 -50z" />
<glyph unicode="&#x2022;" horiz-adv-x="686" d="M154 668l18 116q15 98 95.5 170t174.5 72h125q94 0 151 -72t42 -170l-19 -116q-15 -98 -95.5 -170t-174.5 -72h-125q-94 0 -150.5 72t-41.5 170z" />
<glyph unicode="&#x2026;" horiz-adv-x="1540" d="M92 0l49 309h328l-49 -309h-328zM606 0l49 309h328l-49 -309h-328zM1120 0l49 309h328l-49 -309h-328z" />
<glyph unicode="&#x202f;" horiz-adv-x="392" />
<glyph unicode="&#x2039;" horiz-adv-x="745" d="M141 399l47 344l660 336l-55 -346l-312 -160l260 -159l-53 -346z" />
<glyph unicode="&#x203a;" horiz-adv-x="745" d="M80 68l55 346l311 159l-262 160l56 346l546 -331l-47 -345z" />
<glyph unicode="&#x205f;" horiz-adv-x="491" />
<glyph unicode="&#x20ac;" horiz-adv-x="1308" d="M100 442l37 230h168l19 108h-170l36 230h168l19 108q22 134 152.5 231t326.5 97h207q187 0 280.5 -97t71.5 -231l-29 -184h-335l16 108q8 52 -18 77.5t-74 25.5h-150q-48 0 -82 -25.5t-43 -77.5l-6 -32h264l-36 -230h-263l-18 -108h264l-37 -230h-262l-8 -51 q-8 -52 18 -77t74 -25h150q48 0 82.5 25t42.5 77l18 113h336l-31 -189q-22 -134 -146 -230.5t-311 -96.5h-206q-196 0 -296 96.5t-79 230.5l20 127h-170z" />
<glyph unicode="&#x2122;" horiz-adv-x="1564" d="M256 1212l29 183h512l-29 -183h-158l-90 -573h-190l90 573h-164zM788 639l119 756h211l133 -412l256 412h209l-119 -756h-192l53 340l-129 -209h-217l-76 231l-57 -362h-191z" />
<glyph unicode="&#x25fc;" horiz-adv-x="1136" d="M0 0v1137h1137v-1137h-1137z" />
</font>
</defs>
</svg>
