<?xml version="1.0" standalone="no"?>
<!DOCTYPE svg PUBLIC "-//W3C//DTD SVG 1.1//EN" "http://www.w3.org/Graphics/SVG/1.1/DTD/svg11.dtd" >
<svg xmlns="http://www.w3.org/2000/svg">
<metadata></metadata>
<defs>
<font id="boxedsemibold" horiz-adv-x="1103" >
<font-face units-per-em="2048" ascent="1638" descent="-410" />
<missing-glyph horiz-adv-x="614" />
<glyph unicode="&#xfb01;" horiz-adv-x="1114" d="M39 901v229h96v31q0 186 116.5 280.5t321.5 94.5h404v-223h-418q-68 0 -118 -43t-50 -109v-31h586v-1130h-256v901h-330v-901h-256v901h-96z" />
<glyph unicode="&#xfb02;" horiz-adv-x="1114" d="M39 901v229h96v31q0 186 116.5 280.5t321.5 94.5h404v-1536h-256v1313h-148q-74 0 -128 -43t-54 -109v-31h174v-229h-174v-901h-256v901h-96z" />
<glyph horiz-adv-x="0" />
<glyph horiz-adv-x="682" />
<glyph horiz-adv-x="0" />
<glyph horiz-adv-x="0" />
<glyph unicode="&#xd;" horiz-adv-x="614" />
<glyph unicode=" "  horiz-adv-x="614" />
<glyph unicode="&#x09;" horiz-adv-x="614" />
<glyph unicode="&#xa0;" horiz-adv-x="614" />
<glyph unicode="!" horiz-adv-x="526" d="M135 0v285h256v-285h-256zM135 440v1119h256v-1119h-256z" />
<glyph unicode="&#x22;" horiz-adv-x="782" d="M80 1585h258l-25 -446h-209zM442 1585h258l-22 -446h-209z" />
<glyph unicode="#" horiz-adv-x="1544" d="M51 305v236h252l51 325h-237v238h274l51 332h265l-52 -332h353l51 332h266l-51 -332h219v-238h-256l-51 -325h244v-236h-279l-47 -305h-264l45 305h-353l-47 -305h-264l47 305h-217zM567 541h355l49 325h-353z" />
<glyph unicode="$" horiz-adv-x="1243" d="M102 311v113h265v-57q0 -67 49.5 -105.5t124.5 -38.5h37v365q-72 29 -124 53.5t-114 64t-101 80t-65.5 98t-26.5 122.5v131q0 126 102.5 217.5t270.5 91.5h58v223h102v-223h20q181 0 290.5 -94t109.5 -224v-165h-264v108q0 62 -44.5 99t-111.5 40v-370q195 -79 273 -125 q188 -112 188 -260v-150q0 -133 -112.5 -225t-297.5 -92h-51v-217h-102v217h-52q-191 0 -307.5 95.5t-116.5 227.5zM412 1028q0 -40 42.5 -73.5t123.5 -69.5v325h-11q-67 0 -111 -35t-44 -96v-51zM680 223h20q78 0 127.5 35.5t49.5 103.5v48q0 36 -48.5 66t-148.5 71v-324z " />
<glyph unicode="%" horiz-adv-x="1624" d="M80 997v220q0 94 76 161.5t200 67.5h58q121 0 192.5 -67.5t71.5 -161.5v-220q0 -94 -71.5 -160.5t-192.5 -66.5h-58q-124 0 -200 67t-76 160zM299 1032q0 -31 18 -48t45 -17h33q29 0 47.5 17t18.5 48v152q0 30 -18.5 46.5t-47.5 16.5h-33q-27 0 -45 -16.5t-18 -46.5v-152 zM401 0l590 1436h242l-590 -1436h-242zM954 215v219q0 94 76.5 162t200.5 68h57q121 0 192.5 -68t71.5 -162v-219q0 -94 -71.5 -160.5t-192.5 -66.5h-57q-124 0 -200.5 67t-76.5 160zM1174 250q0 -31 18 -48.5t45 -17.5h33q29 0 47 17.5t18 48.5v151q0 30 -18 47t-47 17h-33 q-27 0 -45 -17t-18 -47v-151z" />
<glyph unicode="&#x26;" horiz-adv-x="1310" d="M111 311v256q0 61 34.5 116t96.5 93q-78 84 -78 195v168q0 126 104.5 217.5t274.5 91.5h131q164 0 263 -91.5t99 -217.5v-90h-258v41q0 61 -37 95t-92 34h-98q-55 0 -92 -34t-37 -95v-70q0 -62 37 -96.5t92 -34.5h680v-227h-148v-351q0 -133 -102 -228t-272 -95h-205 q-177 0 -285 95.5t-108 227.5zM369 358q0 -66 40.5 -104.5t100.5 -38.5h174q62 0 102.5 38.5t40.5 104.5v304h-317q-61 0 -101 -38.5t-40 -105.5v-160z" />
<glyph unicode="'" horiz-adv-x="417" d="M80 1585h258l-25 -446h-209z" />
<glyph unicode="(" horiz-adv-x="657" d="M125 154v919q0 186 115.5 279.5t320.5 93.5h27v-223h-27q-74 0 -126 -42t-52 -108v-919q0 -66 52 -107t126 -41h27v-225h-27q-205 0 -320.5 94t-115.5 279z" />
<glyph unicode=")" horiz-adv-x="657" d="M84 6h27q74 0 127 41t53 107v919q0 66 -53 108t-127 42h-27v223h27q207 0 322.5 -93.5t115.5 -279.5v-919q0 -185 -116 -279t-322 -94h-27v225z" />
<glyph unicode="*" horiz-adv-x="972" d="M74 1145l73 233l218 -69v227h243v-227l215 69l74 -233l-211 -68l131 -182l-194 -147l-138 186l-135 -191l-190 152l129 180z" />
<glyph unicode="+" horiz-adv-x="999" d="M92 469v244h287v286h242v-286h286v-244h-286v-285h-242v285h-287z" />
<glyph unicode="," horiz-adv-x="518" d="M27 -127q45 6 75.5 46t30.5 81v285h256v-285q0 -108 -51.5 -191.5t-132.5 -128t-178 -49.5v242z" />
<glyph unicode="-" horiz-adv-x="821" d="M113 492v229h598v-229h-598z" />
<glyph unicode="." horiz-adv-x="518" d="M133 0v285h256v-285h-256z" />
<glyph unicode="/" horiz-adv-x="1122" d="M47 0l737 1434h279l-737 -1434h-279z" />
<glyph unicode="0" horiz-adv-x="1191" d="M117 311v813q0 132 112 227t295 95h160q176 0 283.5 -95t107.5 -227v-813q0 -132 -107.5 -227.5t-283.5 -95.5h-160q-183 0 -295 95.5t-112 227.5zM383 367q0 -67 44.5 -105.5t111.5 -38.5h114q67 0 111.5 38.5t44.5 105.5v700q0 67 -44.5 105t-111.5 38h-114 q-67 0 -111.5 -38t-44.5 -105v-700z" />
<glyph unicode="1" horiz-adv-x="911" d="M63 0v236h267v962l-267 -137v235l267 138h264v-1198h256v-236h-787z" />
<glyph unicode="2" horiz-adv-x="1155" d="M113 0v338q0 79 38 149t109 115q19 20 226 137t225 135q71 52 71 138v55q0 67 -44.5 105t-112.5 38h-58q-69 0 -114 -38t-45 -105v-53h-265v110q0 132 109.5 227t290.5 95h104q181 0 290.5 -103t109.5 -249v-181q0 -130 -123 -215q-19 -19 -246 -147t-246 -148 q-53 -41 -53 -122v-45h692v-236h-958z" />
<glyph unicode="3" horiz-adv-x="1181" d="M111 311v99h266v-43q0 -67 45.5 -105.5t112.5 -38.5h112q67 0 112.5 41t45.5 109v100q0 67 -47 105t-119 38h-135v236h108q66 0 109 35.5t43 97.5v92q0 62 -41.5 97.5t-104.5 35.5h-55q-61 0 -102 -35.5t-41 -97.5v-39h-264v95q0 128 108 220.5t285 92.5h100 q170 0 274.5 -93t104.5 -220v-195q0 -110 -96 -193q65 -39 101 -96t36 -119v-215q0 -134 -107 -230.5t-284 -96.5h-160q-182 0 -294.5 95.5t-112.5 227.5z" />
<glyph unicode="4" horiz-adv-x="1083" d="M61 319v236l562 879h264v-879h137v-236h-137v-319h-264v319h-562zM326 555h297v465z" />
<glyph unicode="5" horiz-adv-x="1181" d="M117 311v99h266v-43q0 -67 44.5 -105.5t111.5 -38.5h104q67 0 111.5 40.5t44.5 109.5v170q0 67 -42.5 105t-107.5 38h-477v748h825v-236h-559v-276h242q88 0 162 -27.5t122 -73.5t74.5 -103t26.5 -118v-285q0 -134 -107.5 -230.5t-283.5 -96.5h-150q-183 0 -295 95.5 t-112 227.5z" />
<glyph unicode="6" horiz-adv-x="1191" d="M117 311v813q0 132 112 227t295 95h160q176 0 283.5 -95t107.5 -227v-98h-266v41q0 67 -44.5 105t-111.5 38h-114q-67 0 -111.5 -38t-44.5 -105v-221q79 47 141 47h160q176 0 283.5 -95t107.5 -227v-260q0 -132 -107.5 -227.5t-283.5 -95.5h-160q-183 0 -295 95.5 t-112 227.5zM383 367q0 -67 44.5 -105.5t111.5 -38.5h114q67 0 111.5 38.5t44.5 105.5v147q0 67 -44.5 105t-111.5 38h-114q-67 0 -111.5 -38t-44.5 -105v-147z" />
<glyph unicode="7" horiz-adv-x="1024" d="M78 1200v238h887v-238l-605 -1200h-266l604 1200h-620z" />
<glyph unicode="8" horiz-adv-x="1181" d="M111 311v203q0 69 43 134.5t120 107.5q-61 42 -94 103.5t-33 131.5v133q0 132 105 227t278 95h119q176 0 284.5 -95t108.5 -227v-133q0 -69 -35 -130.5t-98 -104.5q76 -42 118 -107t42 -135v-203q0 -132 -107 -227.5t-284 -95.5h-160q-182 0 -294.5 95.5t-112.5 227.5z M377 367q0 -67 45.5 -105.5t112.5 -38.5h112q67 0 112.5 38.5t45.5 105.5v120q0 65 -45.5 103.5t-112.5 38.5h-112q-67 0 -112.5 -38.5t-45.5 -103.5v-120zM412 1008q0 -67 38.5 -105.5t96.5 -38.5h96q56 0 94.5 38.5t38.5 105.5v59q0 67 -38 105t-95 38h-96 q-58 0 -96.5 -38t-38.5 -105v-59z" />
<glyph unicode="9" horiz-adv-x="1191" d="M117 311v97h266v-41q0 -67 44.5 -105.5t111.5 -38.5h114q67 0 111.5 38.5t44.5 105.5v211q-76 -37 -141 -37h-160q-176 0 -283.5 95.5t-107.5 227.5v260q0 132 107.5 227t283.5 95h160q183 0 295 -95t112 -227v-813q0 -132 -112 -227.5t-295 -95.5h-160 q-176 0 -283.5 95.5t-107.5 227.5zM383 920q0 -67 44.5 -105.5t111.5 -38.5h114q67 0 111.5 38.5t44.5 105.5v147q0 67 -44.5 105t-111.5 38h-114q-67 0 -111.5 -38t-44.5 -105v-147z" />
<glyph unicode=":" horiz-adv-x="518" d="M133 0v285h256v-285h-256zM133 825v285h256v-285h-256z" />
<glyph unicode=";" horiz-adv-x="518" d="M27 -127v-242q97 5 178 49.5t132.5 128t51.5 191.5v285h-256v-285q0 -41 -30.5 -81t-75.5 -46zM133 825v285h256v-285h-256z" />
<glyph unicode="&#x3c;" horiz-adv-x="1062" d="M92 422v289l879 342v-265l-604 -223l604 -217v-264z" />
<glyph unicode="=" horiz-adv-x="972" d="M82 217v229h809v-229h-809zM82 668v229h809v-229h-809z" />
<glyph unicode="&#x3e;" horiz-adv-x="1062" d="M92 84v264l604 217l-604 223v265l879 -342v-289z" />
<glyph unicode="?" horiz-adv-x="1124" d="M98 958v166q0 132 107.5 227t283.5 95h117q183 0 294.5 -95t111.5 -227v-194q0 -134 -103 -217q-9 -12 -108.5 -88.5t-108.5 -87.5q-47 -41 -47 -95v-69h-262v162q0 125 94 192q9 9 120.5 85.5t121.5 90.5q29 26 29 82v82q0 67 -44.5 105t-111.5 38h-72q-69 0 -113.5 -38 t-44.5 -105v-109h-264zM383 0v285h262v-285h-262z" />
<glyph unicode="@" horiz-adv-x="2086" d="M127 -150v1434q0 124 87 211.5t235 87.5h1189q147 0 234.5 -87.5t87.5 -211.5v-985q0 -124 -87.5 -211.5t-234.5 -87.5h-342l-30 98q-123 -110 -265 -110h-100q-140 0 -224.5 83.5t-84.5 198.5v578q0 116 84 199t225 83h572v-903h118q46 0 79.5 31t33.5 82v903 q0 51 -33.5 82t-79.5 31h-1095q-47 0 -80 -31t-33 -82v-1349q0 -52 33 -82.5t80 -30.5h1120v-230h-1167q-146 0 -234 88t-88 211zM848 313q0 -44 30 -71t70 -27h68q56 0 110 22.5t91 61.5v604h-269q-40 0 -70 -27t-30 -71v-492z" />
<glyph unicode="A" horiz-adv-x="1353" d="M61 0l484 1440h264l483 -1440h-266l-102 319h-498l-98 -319h-267zM500 555h350l-178 557z" />
<glyph unicode="B" horiz-adv-x="1259" d="M141 0v1434h549q178 0 285.5 -106t107.5 -257v-92q0 -132 -108 -223q91 -44 142.5 -123.5t51.5 -171.5v-70q0 -163 -107 -277t-284 -114h-637zM408 236h340q68 0 112.5 38t44.5 105v94q0 67 -47.5 106t-118.5 39h-331v-382zM408 854h251q69 0 114.5 36.5t45.5 100.5v68 q0 65 -45.5 102t-114.5 37h-251v-344z" />
<glyph unicode="C" horiz-adv-x="1255" d="M117 311v813q0 132 112 227t295 95h221q178 0 286 -95t108 -227v-172h-265v115q0 67 -45 105t-114 38h-176q-67 0 -111.5 -38t-44.5 -105v-700q0 -67 44.5 -105.5t111.5 -38.5h176q68 0 113.5 38.5t45.5 105.5v120h265v-176q0 -132 -108 -227.5t-286 -95.5h-221 q-183 0 -295 95.5t-112 227.5z" />
<glyph unicode="D" horiz-adv-x="1296" d="M141 0v1434h647q176 0 284 -95t108 -227v-788q0 -132 -108 -228t-284 -96h-647zM408 236h350q68 0 112.5 38t44.5 105v676q0 67 -44.5 105t-112.5 38h-350v-962z" />
<glyph unicode="E" horiz-adv-x="1163" d="M141 0v1436h869v-236h-602v-352h534v-236h-534v-376h622v-236h-889z" />
<glyph unicode="F" horiz-adv-x="1124" d="M141 0v1436h875v-236h-608v-387h571v-235h-571v-578h-267z" />
<glyph unicode="G" horiz-adv-x="1273" d="M117 311v813q0 132 112 227t295 95h240q176 0 283.5 -95t107.5 -227v-172h-264v115q0 67 -44.5 105t-113.5 38h-194q-67 0 -111.5 -38t-44.5 -105v-700q0 -67 44.5 -105.5t111.5 -38.5h194q68 0 113 38.5t45 105.5v172h-262v235h526v-463q0 -132 -107.5 -227.5 t-283.5 -95.5h-240q-183 0 -295 95.5t-112 227.5z" />
<glyph unicode="H" horiz-adv-x="1320" d="M141 0v1436h267v-574h507v574h265v-1436h-265v627h-507v-627h-267z" />
<glyph unicode="I" horiz-adv-x="546" d="M141 0v1436h267v-1436h-267z" />
<glyph unicode="J" horiz-adv-x="565" d="M-123 -193h94q82 0 135.5 47t53.5 128v1452h266v-1452q0 -199 -121.5 -302.5t-333.5 -103.5h-94v231z" />
<glyph unicode="K" horiz-adv-x="1259" d="M141 0v1434h267v-598h139l291 598h292l-356 -699l436 -735h-299l-336 598h-167v-598h-267z" />
<glyph unicode="L" horiz-adv-x="1036" d="M141 0v1436h267v-1200h569v-236h-836z" />
<glyph unicode="M" horiz-adv-x="1574" d="M141 0v1436h277l375 -830l374 830h267v-1436h-265v889l-264 -582h-235l-262 580v-887h-267z" />
<glyph unicode="N" horiz-adv-x="1320" d="M141 0v1436h267l507 -930v930h265v-1436h-269l-503 922v-922h-267z" />
<glyph unicode="O" horiz-adv-x="1271" d="M117 311v813q0 132 112 227t295 95h240q176 0 283.5 -95t107.5 -227v-813q0 -132 -107.5 -227.5t-283.5 -95.5h-240q-183 0 -295 95.5t-112 227.5zM383 367q0 -67 44.5 -105.5t111.5 -38.5h194q68 0 113 38.5t45 105.5v700q0 67 -44.5 105t-113.5 38h-194 q-67 0 -111.5 -38t-44.5 -105v-700z" />
<glyph unicode="P" horiz-adv-x="1243" d="M141 0v1436h598q180 0 290 -93.5t110 -222.5v-305q0 -83 -45.5 -155t-136 -118t-207.5 -46h-342v-496h-267zM408 731h311q66 0 110.5 38.5t44.5 102.5v191q0 64 -46.5 99.5t-118.5 35.5h-301v-467z" />
<glyph unicode="Q" horiz-adv-x="1271" d="M117 311v813q0 132 112 227t295 95h240q176 0 283.5 -95t107.5 -227v-813q0 -117 -85 -207t-230 -110l147 -311l-239 -107l-197 412h-27q-183 0 -295 95.5t-112 227.5zM383 367q0 -67 44.5 -105.5t111.5 -38.5h194q68 0 113 38.5t45 105.5v700q0 67 -44.5 105t-113.5 38 h-194q-67 0 -111.5 -38t-44.5 -105v-700z" />
<glyph unicode="R" horiz-adv-x="1280" d="M141 0v1436h609q180 0 289.5 -93.5t109.5 -222.5v-305q0 -88 -57 -164.5t-156 -115.5l242 -535h-279l-227 504h-264v-504h-267zM408 739h321q67 0 111.5 36t44.5 97v191q0 64 -47 99.5t-119 35.5h-311v-459z" />
<glyph unicode="S" horiz-adv-x="1243" d="M102 311v113h265v-57q0 -67 49.5 -105.5t124.5 -38.5h159q78 0 127.5 35.5t49.5 103.5v48q0 31 -40.5 60.5t-104.5 56.5t-142 57t-156 69.5t-142 86.5t-104.5 116t-40.5 150v131q0 126 102.5 217.5t270.5 91.5h180q181 0 290.5 -94t109.5 -224v-165h-264v108 q0 65 -47 102t-119 37h-103q-67 0 -111 -35t-44 -96v-51q0 -33 31.5 -63.5t82.5 -55t116.5 -53t134 -55t134 -62.5t116.5 -75t82.5 -93t31.5 -116v-150q0 -133 -112.5 -225t-297.5 -92h-205q-191 0 -307.5 95.5t-116.5 227.5z" />
<glyph unicode="T" horiz-adv-x="1067" d="M59 1200v236h949v-236h-328v-1200h-264v1200h-357z" />
<glyph unicode="U" horiz-adv-x="1306" d="M135 311v1125h266v-1069q0 -67 45.5 -105.5t112.5 -38.5h191q67 0 111 38.5t44 105.5v1069h266v-1125q0 -132 -107.5 -227.5t-283.5 -95.5h-237q-182 0 -295 95.5t-113 227.5z" />
<glyph unicode="V" horiz-adv-x="1353" d="M61 1434h267l350 -1094l348 1094h266l-483 -1434h-264z" />
<glyph unicode="W" horiz-adv-x="1994" d="M61 1434h275l260 -1051l268 1051h266l271 -1053l260 1053h272l-401 -1434h-266l-269 958l-268 -958h-264z" />
<glyph unicode="X" horiz-adv-x="1323" d="M61 0l453 748l-403 686h297l268 -455l252 455h293l-398 -707l430 -727h-297l-297 502l-305 -502h-293z" />
<glyph unicode="Y" horiz-adv-x="1288" d="M61 1436h273l315 -615l314 615h264l-445 -873v-563h-264v563z" />
<glyph unicode="Z" horiz-adv-x="1216" d="M113 0v236l688 964h-678v236h973v-236l-664 -964h674v-236h-993z" />
<glyph unicode="[" horiz-adv-x="677" d="M141 -262v1698h469v-238h-204v-1225h210v-235h-475z" />
<glyph unicode="\" horiz-adv-x="1122" d="M47 1434h279l737 -1434h-279z" />
<glyph unicode="]" horiz-adv-x="677" d="M61 -27h211v1225h-204v236h469v-1696h-476v235z" />
<glyph unicode="^" horiz-adv-x="892" d="M61 1061l244 475h262l264 -475h-264l-127 229l-116 -229h-263z" />
<glyph unicode="_" horiz-adv-x="937" d="M0 -125h938v-227h-938v227z" />
<glyph unicode="`" horiz-adv-x="727" d="M74 1391l84 213l493 -220l-71 -182z" />
<glyph unicode="a" horiz-adv-x="1118" d="M104 270v97q0 67 31.5 122t85 91t117.5 58.5t137 31.5l254 30v72q0 66 -40.5 104.5t-100.5 38.5h-43q-58 0 -98.5 -38t-40.5 -103v-12h-256v29q0 146 100 249t264 103h104q166 0 266.5 -104t100.5 -251v-788h-176l-31 100q-121 -112 -264 -112h-100q-140 0 -225 83.5 t-85 198.5zM360 305q0 -40 29.5 -65t69.5 -25h67q56 0 110 22.5t93 59.5v197l-219 -33q-62 -9 -106 -41.5t-44 -75.5v-39z" />
<glyph unicode="b" horiz-adv-x="1128" d="M135 0v1536h256v-463q103 70 213 70h107q141 0 224 -105t83 -254v-436q0 -97 -35.5 -177.5t-106.5 -131.5t-165 -51h-121q-133 0 -250 104l-27 -92h-178zM391 297q34 -38 81.5 -60t96.5 -22h56q59 0 98 39.5t39 107.5v408q0 66 -40.5 105.5t-98.5 39.5h-62 q-102 0 -170 -77v-541z" />
<glyph unicode="c" horiz-adv-x="1083" d="M111 328v469q0 92 44 170t131 127t201 49h125q163 0 262 -101.5t99 -244.5v-78h-256v53q0 67 -41.5 105t-102.5 38h-63q-61 0 -102 -38t-41 -105v-414q0 -67 41 -105t102 -38h63q61 0 102.5 38t41.5 105v50h256v-80q0 -90 -42.5 -167t-126 -125t-192.5 -48h-125 q-170 0 -273 100t-103 240z" />
<glyph unicode="d" horiz-adv-x="1128" d="M111 348v436q0 149 83 254t224 105h106q106 0 213 -70v463h256v-1536h-176l-29 94q-115 -106 -249 -106h-121q-94 0 -165 51t-106.5 131.5t-35.5 177.5zM367 362q0 -68 39 -107.5t98 -39.5h55q49 0 96.5 22t81.5 60v541q-68 77 -170 77h-61q-58 0 -98.5 -39.5 t-40.5 -105.5v-408z" />
<glyph unicode="e" d="M111 328v469q0 92 44 170t131 127t201 49h146q163 0 261.5 -101.5t98.5 -244.5v-330h-626v-109q0 -67 41 -105t102 -38h84q61 0 102 38t41 103v4h256v-34q0 -140 -98.5 -239t-261.5 -99h-146q-170 0 -273 100t-103 240zM367 668h370v104q0 67 -41 105t-102 38h-84 q-61 0 -102 -38t-41 -105v-104z" />
<glyph unicode="f" horiz-adv-x="585" d="M39 901v229h96v31q0 186 116.5 280.5t321.5 94.5v-223q-74 0 -128 -43t-54 -109v-31h174v-229h-174v-901h-256v901h-96z" />
<glyph unicode="g" horiz-adv-x="1128" d="M111 348v436q0 149 83 254t224 105h106q141 0 262 -111l31 98h176v-1232q0 -132 -107.5 -227t-285.5 -95h-82q-167 0 -276 76.5t-127 187.5l-2 15l249 28l7 -12q15 -37 54.5 -59.5t94.5 -22.5h60q69 0 114 37.5t45 105.5v121q-92 -65 -198 -65h-121q-94 0 -165 51 t-106.5 131.5t-35.5 177.5zM367 362q0 -68 39 -107.5t98 -39.5h55q49 0 96.5 22t81.5 60v541q-68 77 -170 77h-61q-58 0 -98.5 -39.5t-40.5 -105.5v-408z" />
<glyph unicode="h" horiz-adv-x="1134" d="M135 0v1536h256v-467q107 74 223 74h78q142 0 225.5 -99t83.5 -243v-801h-256v778q0 66 -39 101.5t-98 35.5h-47q-48 0 -93.5 -21t-76.5 -58v-836h-256z" />
<glyph unicode="i" horiz-adv-x="528" d="M135 0v1130h256v-1130h-256zM135 1251v285h256v-285h-256z" />
<glyph unicode="j" horiz-adv-x="528" d="M-51 -201q79 0 133.5 43t54.5 113v1175h256v-1175q0 -189 -117 -284t-327 -95v223zM135 1251v285h256v-285h-256z" />
<glyph unicode="k" horiz-adv-x="1105" d="M135 0v1536h256v-784h98l236 378h307l-342 -477l395 -653h-290l-303 524h-101v-524h-256z" />
<glyph unicode="l" horiz-adv-x="528" d="M135 0v1536h256v-1536h-256z" />
<glyph unicode="m" horiz-adv-x="1740" d="M135 0v1130h178l29 -100q126 113 272 113h78q159 0 244 -123q133 123 285 123h77q144 0 227 -98.5t83 -243.5v-801h-256v778q0 66 -39 101.5t-99 35.5h-47q-48 0 -93 -20.5t-75 -56.5q0 -6 1 -18.5t1 -18.5v-801h-256v778q0 66 -39 101.5t-98 35.5h-47q-48 0 -93.5 -21 t-76.5 -58v-836h-256z" />
<glyph unicode="n" horiz-adv-x="1134" d="M135 0v1130h178l29 -100q126 113 272 113h78q142 0 225.5 -99t83.5 -243v-801h-256v778q0 66 -39 101.5t-98 35.5h-47q-48 0 -93.5 -21t-76.5 -58v-836h-256z" />
<glyph unicode="o" d="M111 328v469q0 92 44 170t131 127t201 49h146q163 0 261.5 -101.5t98.5 -244.5v-469q0 -67 -25 -128.5t-70 -108.5t-114 -75t-151 -28h-146q-170 0 -273 100t-103 240zM367 358q0 -67 41 -105t102 -38h84q61 0 102 38t41 105v414q0 67 -41 105t-102 38h-84 q-61 0 -102 -38t-41 -105v-414z" />
<glyph unicode="p" horiz-adv-x="1128" d="M135 -424v1554h178l29 -96q122 109 260 109h109q141 0 224 -105t83 -254v-436q0 -97 -35.5 -177.5t-106.5 -131.5t-165 -51h-117q-108 0 -203 67v-479h-256zM391 297q72 -82 176 -82h58q58 0 97.5 39.5t39.5 107.5v408q0 66 -40.5 105.5t-98.5 39.5h-60q-104 0 -172 -77 v-541z" />
<glyph unicode="q" horiz-adv-x="1128" d="M111 348v436q0 149 83 254t224 105h108q138 0 260 -109l31 96h176v-1554h-256v477q-97 -65 -200 -65h-119q-94 0 -165 51t-106.5 131.5t-35.5 177.5zM367 362q0 -68 39.5 -107.5t97.5 -39.5h57q104 0 176 82v541q-68 77 -170 77h-61q-58 0 -98.5 -39.5t-40.5 -105.5v-408 z" />
<glyph unicode="r" horiz-adv-x="784" d="M135 0v1130h178l33 -118q139 129 301 129h113v-232h-150q-64 0 -122.5 -28.5t-96.5 -79.5v-801h-256z" />
<glyph unicode="s" horiz-adv-x="1081" d="M113 301v49h256v-33q0 -46 38.5 -74t96.5 -28h96q51 0 87 23.5t36 60.5v31q0 26 -32 48.5t-83 42t-113 41t-124 50t-113 64.5t-83 90t-32 120v72q0 118 91 201.5t245 83.5h119q154 0 247 -93.5t93 -226.5v-37h-242v27q0 48 -33.5 75t-80.5 27h-72q-43 0 -72.5 -20 t-29.5 -53v-31q0 -27 31 -50.5t80.5 -43t110 -41t120.5 -50.5t109.5 -65.5t80.5 -92.5t31 -124v-61q0 -119 -99.5 -207t-257.5 -88h-141q-163 0 -261.5 92.5t-98.5 220.5z" />
<glyph unicode="t" horiz-adv-x="641" d="M14 903v227h136l75 304h176v-304h185v-227h-185v-534q0 -69 52.5 -113.5t128.5 -44.5v-223q-209 0 -323 95t-114 286v534h-131z" />
<glyph unicode="u" horiz-adv-x="1128" d="M133 330v800h256v-778q0 -66 39 -102.5t98 -36.5h47q93 0 162 72v845h256v-1130h-174l-31 94q-122 -106 -266 -106h-78q-143 0 -226 98.5t-83 243.5z" />
<glyph unicode="v" horiz-adv-x="1032" d="M18 1130h263l239 -819l230 819h264l-348 -1130h-289z" />
<glyph unicode="w" horiz-adv-x="1646" d="M18 1130h263l196 -794l207 794h274l213 -798l195 798h262l-309 -1130h-289l-207 745l-200 -745h-289z" />
<glyph unicode="x" horiz-adv-x="1097" d="M29 0l377 580l-353 550h291l211 -331l197 331h292l-342 -561l367 -569h-291l-227 354l-234 -354h-288z" />
<glyph unicode="y" d="M25 1130h262l266 -759l264 759h262l-544 -1554h-259l148 426z" />
<glyph unicode="z" horiz-adv-x="1007" d="M94 0v227l504 676h-483v227h782v-227l-510 -676h528v-227h-821z" />
<glyph unicode="{" horiz-adv-x="737" d="M51 489v224h25q65 0 110 34.5t45 88.5v262q0 175 112.5 261.5t315.5 86.5h9v-223h-9q-72 0 -121 -34t-49 -91v-277q0 -55 -34.5 -113.5t-92.5 -107.5q57 -47 92 -105.5t35 -113.5v-277q0 -57 49 -90.5t121 -33.5h9v-224h-9q-203 0 -315.5 86.5t-112.5 261.5v263 q0 54 -45 88t-110 34h-25z" />
<glyph unicode="|" horiz-adv-x="538" d="M141 -471v2048h258v-2048h-258z" />
<glyph unicode="}" horiz-adv-x="737" d="M68 -20h8q72 0 121 33.5t49 90.5v277q0 55 35 113.5t92 105.5q-58 49 -92.5 107.5t-34.5 113.5v277q0 57 -49 91t-121 34h-8v223h8q203 0 315.5 -86.5t112.5 -261.5v-262q0 -54 45 -88.5t110 -34.5h25v-224h-25q-65 0 -110 -34t-45 -88v-263q0 -175 -112.5 -261.5 t-315.5 -86.5h-8v224z" />
<glyph unicode="~" horiz-adv-x="970" d="M80 438v113q0 106 34.5 156.5t127.5 50.5q68 0 151 -27t154 -53.5t110 -26.5t39 35v64h195v-138q0 -81 -40 -127.5t-122 -46.5q-77 0 -162.5 25t-152.5 49.5t-99 24.5q-39 0 -39 -48v-51h-196z" />
<glyph unicode="&#xa1;" horiz-adv-x="526" d="M135 -399v1089h256v-1089h-256zM135 846v284h256v-284h-256z" />
<glyph unicode="&#xa2;" horiz-adv-x="1101" d="M111 311v510q0 122 94.5 214.5t251.5 105.5v327h211v-327q149 -15 237 -106.5t88 -213.5v-102h-256v53q0 67 -41 105t-102 38h-84q-61 0 -102 -38t-41 -105v-414q0 -67 41 -105t102 -38h84q61 0 102 38t41 105v50h256v-97q0 -122 -88 -214t-237 -107v-320h-211v320 q-158 13 -252 105.5t-94 215.5z" />
<glyph unicode="&#xa3;" horiz-adv-x="1239" d="M29 608v236h172v280q0 132 112 227t295 95h109q178 0 285.5 -95t107.5 -227v-172h-264v115q0 67 -45.5 105t-114.5 38h-61q-69 0 -114.5 -38t-45.5 -105v-223h235v-236h-235v-372h422v213h264v-449h-1120v236h170v372h-172z" />
<glyph unicode="&#xa5;" horiz-adv-x="1288" d="M61 1436h273l315 -580l314 580h264l-355 -656h240v-229h-330v-135h330v-230h-330v-186h-264v186h-338v230h338v135h-338v229h244z" />
<glyph unicode="&#xa7;" horiz-adv-x="1243" d="M84 -2h266v-43q0 -66 48.5 -103.5t123.5 -37.5h160q77 0 126.5 29.5t49.5 84.5v33q0 32 -40.5 61.5t-105 56.5t-142.5 57.5t-155.5 70.5t-142 88t-105 117.5t-40.5 152.5v86q0 119 78 209q-76 82 -76 189v88q0 126 107 217.5t282 91.5h137q188 0 302 -94t114 -224v-98 h-264v41q0 65 -47 102t-119 37h-92q-67 0 -111.5 -28.5t-44.5 -79.5v-35q0 -35 39.5 -67.5t103 -61t140 -59.5t152.5 -70t139.5 -85t103 -113t39.5 -146v-84q0 -123 -76 -211q88 -85 88 -188v-88q0 -134 -111.5 -225t-297.5 -91h-207q-189 0 -305.5 95t-116.5 227v98z M391 565q0 -29 21.5 -55.5t68 -52.5t88 -44.5t115.5 -48.5t115 -49q45 36 45 101v49q0 26 -23 50.5t-68.5 48t-91 43.5t-115 48.5t-116.5 51.5q-39 -31 -39 -91v-51z" />
<glyph unicode="&#xa8;" horiz-adv-x="849" d="M74 1272v287h258v-287h-258zM520 1272v287h258v-287h-258z" />
<glyph unicode="&#xa9;" horiz-adv-x="1552" d="M119 319v793q0 138 97.5 236t234.5 98h649q137 0 235.5 -98t98.5 -236v-793q0 -136 -98.5 -233.5t-235.5 -97.5h-649q-137 0 -234.5 97.5t-97.5 233.5zM264 319q0 -76 55 -130t132 -54h649q77 0 131.5 54t54.5 130v793q0 78 -55 134.5t-131 56.5h-649q-76 0 -131.5 -56.5 t-55.5 -134.5v-793zM449 502v418q0 100 71 172.5t172 72.5h158q101 0 173.5 -72.5t72.5 -172.5v-93h-148v93q0 39 -28 68.5t-70 29.5h-158q-41 0 -69.5 -29.5t-28.5 -68.5v-418q0 -42 28.5 -71.5t69.5 -29.5h158q42 0 70 29.5t28 71.5v96h148v-96q0 -101 -72.5 -172.5 t-173.5 -71.5h-158q-101 0 -172 71.5t-71 172.5z" />
<glyph unicode="&#xaa;" horiz-adv-x="626" d="M68 983v51q0 59 53.5 101t128.5 53l137 20v43q0 13 -8.5 22t-20.5 9h-88q-8 0 -14 -6t-6 -12v-21h-158v43q0 66 57 108t136 42h67q77 0 134 -51.5t57 -120.5v-441h-119l-14 47q-71 -53 -142 -53h-18q-73 0 -127.5 50t-54.5 116zM223 997q0 -13 10 -21.5t25 -8.5h29 q40 0 100 45v49l-135 -23q-13 -3 -21 -10.5t-8 -15.5v-15z" />
<glyph unicode="&#xab;" horiz-adv-x="1482" d="M96 430v270l621 351v-269l-383 -217l383 -215v-268zM760 430v270l620 351v-269l-383 -217l383 -215v-268z" />
<glyph unicode="&#xad;" horiz-adv-x="821" d="M113 492v229h598v-229h-598z" />
<glyph unicode="&#xae;" horiz-adv-x="1552" d="M119 319v793q0 138 97.5 236t234.5 98h649q137 0 235.5 -98t98.5 -236v-793q0 -136 -98.5 -233.5t-235.5 -97.5h-649q-137 0 -234.5 97.5t-97.5 233.5zM264 319q0 -76 55 -130t132 -54h649q77 0 131.5 54t54.5 130v793q0 78 -55 134.5t-131 56.5h-649q-76 0 -131.5 -56.5 t-55.5 -134.5v-793zM461 262v903h352q113 0 190.5 -66.5t77.5 -166.5v-94q0 -62 -43 -120.5t-110 -86.5l184 -369h-168l-178 350h-156v-350h-149zM610 758h221q42 0 72.5 25t30.5 55v94q0 37 -34.5 61.5t-86.5 24.5h-203v-260z" />
<glyph unicode="&#xaf;" horiz-adv-x="841" d="M123 1321v227h598v-227h-598z" />
<glyph unicode="&#xb0;" horiz-adv-x="942" d="M76 999v148q0 124 95.5 212.5t254.5 88.5h104q155 0 245.5 -88t90.5 -213v-148q0 -125 -90.5 -213t-245.5 -88h-104q-159 0 -254.5 88.5t-95.5 212.5zM332 1024q0 -47 29 -72.5t73 -25.5h74q44 0 73 25.5t29 72.5v96q0 49 -29 75t-73 26h-74q-44 0 -73 -26t-29 -75v-96z " />
<glyph unicode="&#xb2;" horiz-adv-x="710" d="M82 641v201q0 95 86 159q29 22 115 67t118 75q27 23 27 49v31q0 21 -15.5 34t-39.5 13h-33q-24 0 -38.5 -13t-14.5 -34v-62h-191v88q0 80 64.5 138.5t167.5 58.5h57q105 0 169 -62t64 -151v-88q0 -81 -77 -137q-8 -7 -129 -78q-112 -61 -121 -70q-21 -18 -21 -43h359 v-176h-547z" />
<glyph unicode="&#xb3;" horiz-adv-x="718" d="M82 825v82h192v-55q0 -21 15.5 -34t38.5 -13h63q22 0 37.5 14t15.5 37v43q0 23 -16.5 36t-42.5 13h-100v178h88q49 0 49 41v60q0 18 -13 29.5t-34 11.5h-31q-20 0 -32.5 -11t-12.5 -30v-53h-195v79q0 77 64.5 135t167.5 58h55q100 0 161.5 -57.5t61.5 -135.5v-110 q0 -51 -63 -99q38 -24 62 -55.5t24 -60.5v-99q0 -82 -64 -142t-167 -60h-87q-105 0 -171 59t-66 139z" />
<glyph unicode="&#xb4;" horiz-adv-x="727" d="M74 1386l493 222l84 -215l-504 -189z" />
<glyph unicode="&#xb5;" horiz-adv-x="1148" d="M135 -422v1552h256v-778q0 -66 39 -101.5t98 -35.5h47q109 0 181 78v837h256v-1130h-174l-33 104q-135 -116 -297 -116h-80q-6 0 -18.5 1t-18.5 1v-412h-256z" />
<glyph unicode="&#xb6;" horiz-adv-x="1718" d="M104 782v338q0 130 109.5 223t290.5 93h1143v-236h-146v-1601h-264v1601h-162v-1601h-264v862h-315q-177 0 -284.5 95.5t-107.5 225.5z" />
<glyph unicode="&#xb7;" horiz-adv-x="518" d="M133 444v285h256v-285h-256z" />
<glyph unicode="&#xb8;" horiz-adv-x="518" d="M76 -279h131q90 0 90 46q0 21 -20 38t-60 17h-108l77 194h162l-35 -82q133 -41 133 -167q0 -86 -59 -138.5t-188 -52.5h-123v145z" />
<glyph unicode="&#xb9;" horiz-adv-x="624" d="M82 641v176h137v420l-137 -72v185l162 84h166v-617h133v-176h-461z" />
<glyph unicode="&#xba;" horiz-adv-x="626" d="M68 985v279q0 69 57 120.5t135 51.5h92q77 0 134 -51.5t57 -120.5v-279q0 -67 -57 -117.5t-134 -50.5h-92q-78 0 -135 50t-57 118zM223 997q0 -11 10 -18.5t27 -7.5h92q15 0 25 7.5t10 18.5v252q0 14 -10 23.5t-25 9.5h-92q-17 0 -27 -9.5t-10 -23.5v-252z" />
<glyph unicode="&#xbb;" horiz-adv-x="1482" d="M102 82v268l381 215l-381 217v269l621 -351v-270zM766 82v268l381 215l-381 217v269l620 -351v-270z" />
<glyph unicode="&#xbc;" horiz-adv-x="1507" d="M82 641v176h137v420l-137 -72v185l162 84h166v-617h133v-176h-461zM338 0l631 1434h229l-631 -1434h-229zM854 164v153l322 476h176v-453h73v-176h-73v-164h-191v164h-307zM1069 340h92v133z" />
<glyph unicode="&#xbd;" horiz-adv-x="1558" d="M82 641v176h137v420l-137 -72v185l162 84h166v-617h133v-176h-461zM338 0l631 1434h229l-631 -1434h-229zM930 0v201q0 95 86 159q29 22 115 67t118 75q27 23 27 49v31q0 21 -15.5 34t-39.5 13h-33q-24 0 -38.5 -13t-14.5 -34v-62h-191v88q0 80 64.5 138.5t167.5 58.5h57 q105 0 169 -62t64 -151v-88q0 -81 -77 -137q-8 -7 -129 -78q-112 -61 -121 -70q-21 -17 -21 -43h359v-176h-547z" />
<glyph unicode="&#xbe;" horiz-adv-x="1585" d="M82 825v82h192v-55q0 -21 15.5 -34t38.5 -13h63q22 0 37.5 14t15.5 37v43q0 23 -16.5 36t-42.5 13h-100v178h88q49 0 49 41v60q0 18 -13 29.5t-34 11.5h-31q-20 0 -32.5 -11t-12.5 -30v-53h-195v79q0 77 64.5 135t167.5 58h55q100 0 161.5 -57.5t61.5 -135.5v-110 q0 -51 -63 -99q38 -24 62 -55.5t24 -60.5v-99q0 -82 -64 -142t-167 -60h-87q-105 0 -171 59t-66 139zM416 0l631 1434h229l-631 -1434h-229zM932 164v153l321 476h177v-453h73v-176h-73v-164h-191v164h-307zM1147 340h92v133z" />
<glyph unicode="&#xbf;" horiz-adv-x="1124" d="M113 6v195q0 135 102 217q11 13 110 90.5t107 85.5q47 41 47 94v70h262v-162q0 -125 -94 -195q-6 -5 -118 -82t-121 -90q-31 -31 -31 -84v-82q0 -67 45.5 -105t114.5 -38h69q67 0 112.5 38t45.5 105v111h264v-168q0 -132 -107 -226.5t-284 -94.5h-117q-184 0 -295.5 94.5 t-111.5 226.5zM479 846v284h262v-284h-262z" />
<glyph unicode="&#xc0;" horiz-adv-x="1353" d="M61 0l484 1440h264l483 -1440h-266l-102 319h-498l-98 -319h-267zM391 1706l90 231l490 -196l-80 -203zM500 555h350l-178 557z" />
<glyph unicode="&#xc1;" horiz-adv-x="1353" d="M61 0l484 1440h264l483 -1440h-266l-102 319h-498l-98 -319h-267zM408 1741l489 196l88 -231l-498 -168zM500 555h350l-178 557z" />
<glyph unicode="&#xc2;" horiz-adv-x="1353" d="M61 0l484 1440h264l483 -1440h-266l-102 319h-498l-98 -319h-267zM334 1755l323 182h37l324 -165l-78 -218l-264 132l-262 -132zM500 555h350l-178 557z" />
<glyph unicode="&#xc3;" horiz-adv-x="1353" d="M61 0l484 1440h264l483 -1440h-266l-102 319h-498l-98 -319h-267zM330 1575v106q0 109 35.5 161t130.5 52q45 0 97.5 -24t101 -48t83.5 -24q13 0 22 7t9 18v61h209v-135q0 -83 -41 -129.5t-125 -46.5q-49 0 -104.5 21.5t-103.5 43t-79 21.5q-26 0 -26 -37v-47h-209z M500 555h350l-178 557z" />
<glyph unicode="&#xc4;" horiz-adv-x="1353" d="M61 0l484 1440h264l483 -1440h-266l-102 319h-498l-98 -319h-267zM326 1591v285h272v-285h-272zM500 555h350l-178 557zM754 1591v285h272v-285h-272z" />
<glyph unicode="&#xc5;" horiz-adv-x="1353" d="M61 0l435 1292q-46 35 -71.5 86t-25.5 107v43q0 101 76 174.5t199 73.5h35q118 0 191 -73.5t73 -174.5v-43q0 -62 -29.5 -116.5t-81.5 -88.5l430 -1280h-266l-102 319h-498l-98 -319h-267zM500 555h350l-178 557zM590 1497q0 -35 16 -57h158q18 25 18 57v16q0 43 -26 68 t-66 25h-10q-38 0 -64 -25t-26 -68v-16z" />
<glyph unicode="&#xc6;" horiz-adv-x="1873" d="M47 0l756 1436h919v-236h-604v-352h537v-236h-537v-376h625v-236h-889v305h-367l-159 -305h-281zM610 541h244v460z" />
<glyph unicode="&#xc7;" horiz-adv-x="1255" d="M117 311v813q0 132 112 227t295 95h221q178 0 286 -95t108 -227v-172h-265v115q0 67 -45 105t-114 38h-176q-67 0 -111.5 -38t-44.5 -105v-700q0 -67 44.5 -105.5t111.5 -38.5h176q68 0 113.5 38.5t45.5 105.5v120h265v-176q0 -132 -108 -227.5t-286 -95.5h-36l-23 -54 q133 -41 133 -167q0 -86 -59.5 -138.5t-188.5 -52.5h-122v145h131q90 0 90 46q0 21 -20 38t-60 17h-109l66 166h-23q-183 0 -295 95.5t-112 227.5z" />
<glyph unicode="&#xc8;" horiz-adv-x="1163" d="M141 0v1436h869v-236h-602v-352h534v-236h-534v-376h622v-236h-889zM297 1706l90 231l490 -196l-80 -203z" />
<glyph unicode="&#xc9;" horiz-adv-x="1163" d="M141 0v1436h869v-236h-602v-352h534v-236h-534v-376h622v-236h-889zM313 1741l490 196l88 -231l-498 -168z" />
<glyph unicode="&#xca;" horiz-adv-x="1163" d="M141 0v1436h869v-236h-602v-352h534v-236h-534v-376h622v-236h-889zM240 1755l323 182h37l324 -165l-78 -218l-264 132l-263 -132z" />
<glyph unicode="&#xcb;" horiz-adv-x="1163" d="M141 0v1436h869v-236h-602v-352h534v-236h-534v-376h622v-236h-889zM231 1591v285h273v-285h-273zM659 1591v285h273v-285h-273z" />
<glyph unicode="&#xcc;" horiz-adv-x="546" d="M-10 1706l90 231l489 -196l-80 -203zM141 0v1436h267v-1436h-267z" />
<glyph unicode="&#xcd;" horiz-adv-x="546" d="M6 1741l490 196l88 -231l-498 -168zM141 0v1436h267v-1436h-267z" />
<glyph unicode="&#xce;" horiz-adv-x="546" d="M-68 1755l324 182h37l323 -165l-77 -218l-265 132l-262 -132zM141 0v1436h267v-1436h-267z" />
<glyph unicode="&#xcf;" horiz-adv-x="546" d="M-76 1591v285h273v-285h-273zM141 0v1436h267v-1436h-267zM352 1591v285h273v-285h-273z" />
<glyph unicode="&#xd0;" horiz-adv-x="1296" d="M16 627v229h125v578h647q176 0 284 -95t108 -227v-788q0 -132 -108 -228t-284 -96h-647v627h-125zM408 236h350q68 0 112.5 38t44.5 105v676q0 67 -44.5 105t-112.5 38h-350v-342h260v-229h-260v-391z" />
<glyph unicode="&#xd1;" horiz-adv-x="1320" d="M141 0v1436h267l507 -930v930h265v-1436h-269l-503 922v-922h-267zM313 1575v106q0 109 35.5 161t130.5 52q45 0 97.5 -24t101.5 -48t84 -24q13 0 22 7t9 18v61h208v-135q0 -83 -41 -129.5t-124 -46.5q-49 0 -104.5 21.5t-103.5 43t-79 21.5q-27 0 -27 -37v-47h-209z" />
<glyph unicode="&#xd2;" horiz-adv-x="1271" d="M117 311v813q0 132 112 227t295 95h240q176 0 283.5 -95t107.5 -227v-813q0 -132 -107.5 -227.5t-283.5 -95.5h-240q-183 0 -295 95.5t-112 227.5zM352 1706l90 231l490 -196l-80 -203zM383 367q0 -67 44.5 -105.5t111.5 -38.5h194q68 0 113 38.5t45 105.5v700 q0 67 -44.5 105t-113.5 38h-194q-67 0 -111.5 -38t-44.5 -105v-700z" />
<glyph unicode="&#xd3;" horiz-adv-x="1271" d="M117 311v813q0 132 112 227t295 95h240q176 0 283.5 -95t107.5 -227v-813q0 -132 -107.5 -227.5t-283.5 -95.5h-240q-183 0 -295 95.5t-112 227.5zM369 1741l489 196l88 -231l-497 -168zM383 367q0 -67 44.5 -105.5t111.5 -38.5h194q68 0 113 38.5t45 105.5v700 q0 67 -44.5 105t-113.5 38h-194q-67 0 -111.5 -38t-44.5 -105v-700z" />
<glyph unicode="&#xd4;" horiz-adv-x="1271" d="M117 311v813q0 132 112 227t295 95h240q176 0 283.5 -95t107.5 -227v-813q0 -132 -107.5 -227.5t-283.5 -95.5h-240q-183 0 -295 95.5t-112 227.5zM295 1755l323 182h37l324 -165l-78 -218l-264 132l-262 -132zM383 367q0 -67 44.5 -105.5t111.5 -38.5h194q68 0 113 38.5 t45 105.5v700q0 67 -44.5 105t-113.5 38h-194q-67 0 -111.5 -38t-44.5 -105v-700z" />
<glyph unicode="&#xd5;" horiz-adv-x="1271" d="M117 311v813q0 132 112 227t295 95h240q176 0 283.5 -95t107.5 -227v-813q0 -132 -107.5 -227.5t-283.5 -95.5h-240q-183 0 -295 95.5t-112 227.5zM289 1575v106q0 109 35.5 161t130.5 52q55 0 148 -48t134 -48q13 0 22 7t9 18v61h209v-135q0 -83 -41 -129.5t-125 -46.5 q-49 0 -104.5 21.5t-103.5 43t-79 21.5q-26 0 -26 -37v-47h-209zM383 367q0 -67 44.5 -105.5t111.5 -38.5h194q68 0 113 38.5t45 105.5v700q0 67 -44.5 105t-113.5 38h-194q-67 0 -111.5 -38t-44.5 -105v-700z" />
<glyph unicode="&#xd6;" horiz-adv-x="1271" d="M117 311v813q0 132 112 227t295 95h240q176 0 283.5 -95t107.5 -227v-813q0 -132 -107.5 -227.5t-283.5 -95.5h-240q-183 0 -295 95.5t-112 227.5zM287 1591v285h272v-285h-272zM383 367q0 -67 44.5 -105.5t111.5 -38.5h194q68 0 113 38.5t45 105.5v700q0 67 -44.5 105 t-113.5 38h-194q-67 0 -111.5 -38t-44.5 -105v-700zM715 1591v285h272v-285h-272z" />
<glyph unicode="&#xd7;" horiz-adv-x="1042" d="M63 414l295 295l-295 295l162 161l295 -297l297 297l160 -161l-295 -295l295 -295l-160 -160l-297 293l-295 -293z" />
<glyph unicode="&#xd8;" horiz-adv-x="1271" d="M43 -205l170 301q-96 90 -96 215v813q0 132 112 227t295 95h240q113 0 197 -41l131 229h147l-172 -301q88 -88 88 -209v-813q0 -132 -107.5 -227.5t-283.5 -95.5h-240q-113 0 -202 39l-132 -232h-147zM383 391l451 791q-42 28 -101 28h-194q-67 0 -111.5 -38t-44.5 -105 v-676zM446 246q39 -23 93 -23h194q68 0 113 38.5t45 105.5v657z" />
<glyph unicode="&#xd9;" horiz-adv-x="1306" d="M135 311v1125h266v-1069q0 -67 45.5 -105.5t112.5 -38.5h191q67 0 111 38.5t44 105.5v1069h266v-1125q0 -132 -107.5 -227.5t-283.5 -95.5h-237q-182 0 -295 95.5t-113 227.5zM369 1706l90 231l489 -196l-80 -203z" />
<glyph unicode="&#xda;" horiz-adv-x="1306" d="M135 311v1125h266v-1069q0 -67 45.5 -105.5t112.5 -38.5h191q67 0 111 38.5t44 105.5v1069h266v-1125q0 -132 -107.5 -227.5t-283.5 -95.5h-237q-182 0 -295 95.5t-113 227.5zM385 1741l489 196l89 -231l-498 -168z" />
<glyph unicode="&#xdb;" horiz-adv-x="1306" d="M135 311v1125h266v-1069q0 -67 45.5 -105.5t112.5 -38.5h191q67 0 111 38.5t44 105.5v1069h266v-1125q0 -132 -107.5 -227.5t-283.5 -95.5h-237q-182 0 -295 95.5t-113 227.5zM311 1755l324 182h37l323 -165l-77 -218l-265 132l-262 -132z" />
<glyph unicode="&#xdc;" horiz-adv-x="1306" d="M135 311v1125h266v-1069q0 -67 45.5 -105.5t112.5 -38.5h191q67 0 111 38.5t44 105.5v1069h266v-1125q0 -132 -107.5 -227.5t-283.5 -95.5h-237q-182 0 -295 95.5t-113 227.5zM303 1591v285h272v-285h-272zM731 1591v285h273v-285h-273z" />
<glyph unicode="&#xdd;" horiz-adv-x="1288" d="M61 1436h273l315 -615l314 615h264l-445 -873v-563h-264v563zM377 1741l489 196l88 -231l-497 -168z" />
<glyph unicode="&#xde;" horiz-adv-x="1243" d="M141 0v1436h267v-234h331q181 0 290.5 -91.5t109.5 -221.5v-303q0 -131 -106.5 -226.5t-282.5 -95.5h-342v-264h-267zM408 500h311q67 0 111 38.5t44 104.5v188q0 65 -46.5 100.5t-118.5 35.5h-301v-467z" />
<glyph unicode="&#xdf;" horiz-adv-x="1130" d="M119 0v1104q0 140 101.5 241t242.5 101h125q142 0 243 -101t101 -241v-23q0 -50 -15 -90.5t-37 -66t-44 -47.5t-37 -48.5t-15 -56.5v-24q0 -32 26.5 -61.5t64 -57.5t75 -62t64 -89t26.5 -124v-41q0 -128 -102.5 -220.5t-243.5 -92.5h-178v227h178q37 0 63.5 27.5 t26.5 64.5v17q0 23 -26 50.5t-63.5 58t-75 67.5t-63.5 92.5t-26 120.5v37q0 62 23 118t50 88t50 65t23 57v14q0 47 -35 81t-84 34h-49q-49 0 -91 -41.5t-42 -96.5v-1081h-256z" />
<glyph unicode="&#xe0;" horiz-adv-x="1118" d="M104 270v97q0 67 31.5 122t85 91t117.5 58.5t137 31.5l254 30v72q0 66 -40.5 104.5t-100.5 38.5h-43q-58 0 -98.5 -38t-40.5 -103v-12h-256v29q0 146 100 249t264 103h104q166 0 266.5 -104t100.5 -251v-788h-176l-31 100q-121 -112 -264 -112h-100q-140 0 -225 83.5 t-85 198.5zM270 1391l84 213l494 -220l-72 -182zM360 305q0 -40 29.5 -65t69.5 -25h67q56 0 110 22.5t93 59.5v197l-219 -33q-62 -9 -106 -41.5t-44 -75.5v-39z" />
<glyph unicode="&#xe1;" horiz-adv-x="1118" d="M104 270v97q0 67 31.5 122t85 91t117.5 58.5t137 31.5l254 30v72q0 66 -40.5 104.5t-100.5 38.5h-43q-58 0 -98.5 -38t-40.5 -103v-12h-256v29q0 146 100 249t264 103h104q166 0 266.5 -104t100.5 -251v-788h-176l-31 100q-121 -112 -264 -112h-100q-140 0 -225 83.5 t-85 198.5zM270 1386l494 222l84 -215l-504 -189zM360 305q0 -40 29.5 -65t69.5 -25h67q56 0 110 22.5t93 59.5v197l-219 -33q-62 -9 -106 -41.5t-44 -75.5v-39z" />
<glyph unicode="&#xe2;" horiz-adv-x="1118" d="M104 270v97q0 67 31.5 122t85 91t117.5 58.5t137 31.5l254 30v72q0 66 -40.5 104.5t-100.5 38.5h-43q-58 0 -98.5 -38t-40.5 -103v-12h-256v29q0 146 100 249t264 103h104q166 0 266.5 -104t100.5 -251v-788h-176l-31 100q-121 -112 -264 -112h-100q-140 0 -225 83.5 t-85 198.5zM233 1384l308 195h39l305 -182l-70 -195l-256 137l-250 -137zM360 305q0 -40 29.5 -65t69.5 -25h67q56 0 110 22.5t93 59.5v197l-219 -33q-62 -9 -106 -41.5t-44 -75.5v-39z" />
<glyph unicode="&#xe3;" horiz-adv-x="1118" d="M104 270v97q0 67 31.5 122t85 91t117.5 58.5t137 31.5l254 30v72q0 66 -40.5 104.5t-100.5 38.5h-43q-58 0 -98.5 -38t-40.5 -103v-12h-256v29q0 146 100 249t264 103h104q166 0 266.5 -104t100.5 -251v-788h-176l-31 100q-121 -112 -264 -112h-100q-140 0 -225 83.5 t-85 198.5zM219 1239v100q0 106 34 156.5t126 50.5q46 0 102.5 -24.5t105.5 -49t79 -24.5q41 0 41 35v53h194v-127q0 -81 -40.5 -127.5t-121.5 -46.5q-56 0 -115 22.5t-104.5 45t-68.5 22.5q-35 0 -35 -47v-39h-197zM360 305q0 -40 29.5 -65t69.5 -25h67q56 0 110 22.5 t93 59.5v197l-219 -33q-62 -9 -106 -41.5t-44 -75.5v-39z" />
<glyph unicode="&#xe4;" horiz-adv-x="1118" d="M104 270v97q0 67 31.5 122t85 91t117.5 58.5t137 31.5l254 30v72q0 66 -40.5 104.5t-100.5 38.5h-43q-58 0 -98.5 -38t-40.5 -103v-12h-256v29q0 146 100 249t264 103h104q166 0 266.5 -104t100.5 -251v-788h-176l-31 100q-121 -112 -264 -112h-100q-140 0 -225 83.5 t-85 198.5zM207 1272v287h258v-287h-258zM360 305q0 -40 29.5 -65t69.5 -25h67q56 0 110 22.5t93 59.5v197l-219 -33q-62 -9 -106 -41.5t-44 -75.5v-39zM653 1272v287h258v-287h-258z" />
<glyph unicode="&#xe5;" horiz-adv-x="1118" d="M104 270v97q0 67 31.5 122t85 91t117.5 58.5t137 31.5l254 30v72q0 66 -40.5 104.5t-100.5 38.5h-43q-58 0 -98.5 -38t-40.5 -103v-12h-256v29q0 146 100 249t264 103h104q166 0 266.5 -104t100.5 -251v-788h-176l-31 100q-121 -112 -264 -112h-100q-140 0 -225 83.5 t-85 198.5zM274 1485v45q0 101 76 173.5t199 72.5h35q119 0 191.5 -72.5t72.5 -173.5v-45q0 -101 -72.5 -173.5t-191.5 -72.5h-35q-123 0 -199 72.5t-76 173.5zM360 305q0 -40 29.5 -65t69.5 -25h67q56 0 110 22.5t93 59.5v197l-219 -33q-62 -9 -106 -41.5t-44 -75.5v-39z M465 1501q0 -44 26 -69t64 -25h10q40 0 66 25t26 69v15q0 43 -26 67.5t-66 24.5h-10q-38 0 -64 -24.5t-26 -67.5v-15z" />
<glyph unicode="&#xe6;" horiz-adv-x="1720" d="M104 270v97q0 67 31.5 122t85 91t117.5 58.5t137 31.5l252 30v113q0 45 -36.5 73.5t-82.5 28.5h-90q-47 0 -79.5 -26.5t-32.5 -75.5v-29h-256v39q0 133 101 226.5t267 93.5h107q123 0 233 -99q122 99 262 99h111q172 0 275.5 -95t103.5 -227v-354h-625v-109 q0 -67 40 -105t101 -38h84q60 0 102 36.5t42 98.5v10h256v-59q0 -129 -103.5 -221t-275.5 -92h-111q-210 0 -321 131q-64 -62 -138 -96.5t-147 -34.5h-100q-140 0 -225 83.5t-85 198.5zM360 305q0 -40 29.5 -65t69.5 -25h67q118 0 201 80v197l-217 -31q-62 -8 -106 -41 t-44 -76v-39zM985 684h369v88q0 66 -42 104.5t-102 38.5h-84q-56 0 -98.5 -31.5t-42.5 -84.5v-115z" />
<glyph unicode="&#xe7;" horiz-adv-x="1083" d="M111 328v469q0 92 44 170t131 127t201 49h125q163 0 262 -101.5t99 -244.5v-78h-256v53q0 67 -41.5 105t-102.5 38h-63q-61 0 -102 -38t-41 -105v-414q0 -67 41 -105t102 -38h63q61 0 102.5 38t41.5 105v50h256v-80q0 -138 -97.5 -237.5t-257.5 -102.5l-22 -54 q133 -41 133 -167q0 -86 -59.5 -138.5t-188.5 -52.5h-123v145h131q91 0 91 46q0 21 -20 38t-60 17h-109l66 168q-158 9 -252 106.5t-94 231.5z" />
<glyph unicode="&#xe8;" d="M111 328v469q0 92 44 170t131 127t201 49h146q163 0 261.5 -101.5t98.5 -244.5v-330h-626v-109q0 -67 41 -105t102 -38h84q61 0 102 38t41 103v4h256v-34q0 -140 -98.5 -239t-261.5 -99h-146q-170 0 -273 100t-103 240zM264 1391l84 213l494 -220l-72 -182zM367 668h370 v104q0 67 -41 105t-102 38h-84q-61 0 -102 -38t-41 -105v-104z" />
<glyph unicode="&#xe9;" d="M111 328v469q0 92 44 170t131 127t201 49h146q163 0 261.5 -101.5t98.5 -244.5v-330h-626v-109q0 -67 41 -105t102 -38h84q61 0 102 38t41 103v4h256v-34q0 -140 -98.5 -239t-261.5 -99h-146q-170 0 -273 100t-103 240zM264 1386l494 222l84 -215l-504 -189zM367 668h370 v104q0 67 -41 105t-102 38h-84q-61 0 -102 -38t-41 -105v-104z" />
<glyph unicode="&#xea;" d="M111 328v469q0 92 44 170t131 127t201 49h146q163 0 261.5 -101.5t98.5 -244.5v-330h-626v-109q0 -67 41 -105t102 -38h84q61 0 102 38t41 103v4h256v-34q0 -140 -98.5 -239t-261.5 -99h-146q-170 0 -273 100t-103 240zM227 1384l308 195h38l306 -182l-70 -195l-256 137 l-250 -137zM367 668h370v104q0 67 -41 105t-102 38h-84q-61 0 -102 -38t-41 -105v-104z" />
<glyph unicode="&#xeb;" d="M111 328v469q0 92 44 170t131 127t201 49h146q163 0 261.5 -101.5t98.5 -244.5v-330h-626v-109q0 -67 41 -105t102 -38h84q61 0 102 38t41 103v4h256v-34q0 -140 -98.5 -239t-261.5 -99h-146q-170 0 -273 100t-103 240zM201 1272v287h258v-287h-258zM367 668h370v104 q0 67 -41 105t-102 38h-84q-61 0 -102 -38t-41 -105v-104zM647 1272v287h258v-287h-258z" />
<glyph unicode="&#xec;" horiz-adv-x="528" d="M-25 1391l84 213l494 -220l-72 -182zM135 0v1130h256v-1130h-256z" />
<glyph unicode="&#xed;" horiz-adv-x="528" d="M-25 1386l494 222l84 -215l-504 -189zM135 0v1130h256v-1130h-256z" />
<glyph unicode="&#xee;" horiz-adv-x="528" d="M-61 1384l307 195h39l305 -182l-70 -195l-256 137l-250 -137zM135 0v1130h256v-1130h-256z" />
<glyph unicode="&#xef;" horiz-adv-x="528" d="M-88 1272v287h258v-287h-258zM135 0v1130h256v-1130h-256zM358 1272v287h258v-287h-258z" />
<glyph unicode="&#xf0;" horiz-adv-x="1191" d="M117 311v260q0 132 107.5 227t283.5 95h160q58 0 141 -47v229q0 35 -12 62l-140 -148l-61 62l137 145q-40 14 -74 14h-417v236h434q134 0 237 -57l127 133l62 -62l-117 -125q90 -87 90 -202v-822q0 -132 -112 -227.5t-295 -95.5h-160q-176 0 -283.5 95.5t-107.5 227.5z M383 367q0 -67 44.5 -105.5t111.5 -38.5h114q67 0 111.5 38.5t44.5 105.5v147q0 67 -44.5 105t-111.5 38h-114q-67 0 -111.5 -38t-44.5 -105v-147z" />
<glyph unicode="&#xf1;" horiz-adv-x="1134" d="M135 0v1130h178l29 -100q126 113 272 113h78q142 0 225.5 -99t83.5 -243v-801h-256v778q0 66 -39 101.5t-98 35.5h-47q-48 0 -93.5 -21t-76.5 -58v-836h-256zM233 1239v100q0 106 34 156.5t126 50.5q46 0 102.5 -24.5t105.5 -49t79 -24.5q41 0 41 35v53h194v-127 q0 -81 -40 -127.5t-121 -46.5q-56 0 -115.5 22.5t-105 45t-68.5 22.5q-35 0 -35 -47v-39h-197z" />
<glyph unicode="&#xf2;" d="M111 328v469q0 92 44 170t131 127t201 49h146q163 0 261.5 -101.5t98.5 -244.5v-469q0 -67 -25 -128.5t-70 -108.5t-114 -75t-151 -28h-146q-170 0 -273 100t-103 240zM264 1391l84 213l494 -220l-72 -182zM367 358q0 -67 41 -105t102 -38h84q61 0 102 38t41 105v414 q0 67 -41 105t-102 38h-84q-61 0 -102 -38t-41 -105v-414z" />
<glyph unicode="&#xf3;" d="M111 328v469q0 92 44 170t131 127t201 49h146q163 0 261.5 -101.5t98.5 -244.5v-469q0 -67 -25 -128.5t-70 -108.5t-114 -75t-151 -28h-146q-170 0 -273 100t-103 240zM264 1386l494 222l84 -215l-504 -189zM367 358q0 -67 41 -105t102 -38h84q61 0 102 38t41 105v414 q0 67 -41 105t-102 38h-84q-61 0 -102 -38t-41 -105v-414z" />
<glyph unicode="&#xf4;" d="M111 328v469q0 92 44 170t131 127t201 49h146q163 0 261.5 -101.5t98.5 -244.5v-469q0 -67 -25 -128.5t-70 -108.5t-114 -75t-151 -28h-146q-170 0 -273 100t-103 240zM227 1384l308 195h38l306 -182l-70 -195l-256 137l-250 -137zM367 358q0 -67 41 -105t102 -38h84 q61 0 102 38t41 105v414q0 67 -41 105t-102 38h-84q-61 0 -102 -38t-41 -105v-414z" />
<glyph unicode="&#xf5;" d="M111 328v469q0 92 44 170t131 127t201 49h146q163 0 261.5 -101.5t98.5 -244.5v-469q0 -67 -25 -128.5t-70 -108.5t-114 -75t-151 -28h-146q-170 0 -273 100t-103 240zM213 1239v100q0 106 34 156.5t126 50.5q46 0 102 -24.5t105 -49t79 -24.5q41 0 41 35v53h195v-127 q0 -81 -40.5 -127.5t-121.5 -46.5q-56 0 -115.5 22.5t-105 45t-68.5 22.5q-34 0 -34 -47v-39h-197zM367 358q0 -67 41 -105t102 -38h84q61 0 102 38t41 105v414q0 67 -41 105t-102 38h-84q-61 0 -102 -38t-41 -105v-414z" />
<glyph unicode="&#xf6;" d="M111 328v469q0 92 44 170t131 127t201 49h146q163 0 261.5 -101.5t98.5 -244.5v-469q0 -67 -25 -128.5t-70 -108.5t-114 -75t-151 -28h-146q-170 0 -273 100t-103 240zM201 1272v287h258v-287h-258zM367 358q0 -67 41 -105t102 -38h84q61 0 102 38t41 105v414 q0 67 -41 105t-102 38h-84q-61 0 -102 -38t-41 -105v-414zM647 1272v287h258v-287h-258z" />
<glyph unicode="&#xf8;" d="M61 -205l162 283q-112 95 -112 250v469q0 92 44 170t131 127t201 49h146q102 0 176 -41l123 215h110l-153 -270q50 -47 77 -112.5t27 -137.5v-469q0 -67 -25 -128.5t-70 -108.5t-114 -75t-151 -28h-146q-101 0 -184 39l-131 -232h-111zM367 358q0 -18 2 -26l317 555 q-39 28 -92 28h-84q-61 0 -102 -38t-41 -105v-414zM426 238q38 -23 84 -23h84q61 0 102 38t41 105v424z" />
<glyph unicode="&#xf9;" horiz-adv-x="1128" d="M133 330v800h256v-778q0 -66 39 -102.5t98 -36.5h47q93 0 162 72v845h256v-1130h-174l-31 94q-122 -106 -266 -106h-78q-143 0 -226 98.5t-83 243.5zM266 1391l84 213l494 -220l-72 -182z" />
<glyph unicode="&#xfa;" horiz-adv-x="1128" d="M133 330v800h256v-778q0 -66 39 -102.5t98 -36.5h47q93 0 162 72v845h256v-1130h-174l-31 94q-122 -106 -266 -106h-78q-143 0 -226 98.5t-83 243.5zM264 1386l494 222l84 -215l-504 -189z" />
<glyph unicode="&#xfb;" horiz-adv-x="1128" d="M133 330v800h256v-778q0 -66 39 -102.5t98 -36.5h47q93 0 162 72v845h256v-1130h-174l-31 94q-122 -106 -266 -106h-78q-143 0 -226 98.5t-83 243.5zM227 1384l308 195h38l306 -182l-70 -195l-256 137l-250 -137z" />
<glyph unicode="&#xfc;" horiz-adv-x="1128" d="M133 330v800h256v-778q0 -66 39 -102.5t98 -36.5h47q93 0 162 72v845h256v-1130h-174l-31 94q-122 -106 -266 -106h-78q-143 0 -226 98.5t-83 243.5zM203 1272v287h258v-287h-258zM649 1272v287h258v-287h-258z" />
<glyph unicode="&#xfd;" d="M25 1130h262l266 -759l264 759h262l-544 -1554h-259l148 426zM260 1386l494 222l84 -215l-504 -189z" />
<glyph unicode="&#xfe;" horiz-adv-x="1128" d="M135 -424v1960h256v-463q103 70 213 70h107q140 0 223.5 -96t83.5 -230v-504q0 -134 -83.5 -229.5t-223.5 -95.5h-121q-110 0 -199 65v-477h-256zM391 295q29 -37 70 -58.5t82 -21.5h82q59 0 98 39.5t39 107.5v408q0 66 -40.5 105.5t-98.5 39.5h-88q-85 0 -144 -75v-545z " />
<glyph unicode="&#xff;" d="M25 1130h262l266 -759l264 759h262l-544 -1554h-259l148 426zM197 1272v287h258v-287h-258zM643 1272v287h258v-287h-258z" />
<glyph unicode="&#x152;" horiz-adv-x="1910" d="M117 324v790q0 132 112 227t295 95h1235v-236h-602v-352h535v-236h-535v-376h623v-236h-1256q-183 0 -295 96t-112 228zM383 379q0 -67 44.5 -105t111.5 -38h352v964h-352q-67 0 -111.5 -38t-44.5 -105v-678z" />
<glyph unicode="&#x153;" horiz-adv-x="1730" d="M111 328v469q0 92 44 170t131 127t201 49h146q139 0 233 -78q105 78 246 78h145q163 0 262 -101.5t99 -244.5v-330h-625v-135q7 -55 47 -86t95 -31h84q61 0 102 38.5t41 106.5h256v-34q0 -139 -99 -238.5t-262 -99.5h-145q-145 0 -246 75q-94 -75 -233 -75h-146 q-170 0 -273 100t-103 240zM367 358q0 -67 41 -105t102 -38h84q54 0 93 31t48 86v467q0 54 -42 85t-99 31h-84q-61 0 -102 -38t-41 -105v-414zM993 668h369v104q0 67 -41 105t-102 38h-84q-57 0 -99.5 -31.5t-42.5 -86.5v-129z" />
<glyph unicode="&#x178;" horiz-adv-x="1288" d="M61 1436h273l315 -615l314 615h264l-445 -873v-563h-264v563zM295 1591v285h272v-285h-272zM723 1591v285h272v-285h-272z" />
<glyph unicode="&#x2c6;" horiz-adv-x="798" d="M74 1384l307 195h39l305 -182l-70 -195l-256 137l-249 -137z" />
<glyph unicode="&#x2dc;" horiz-adv-x="835" d="M80 1239v100q0 106 34 156.5t126 50.5q46 0 102 -24.5t105 -49t79 -24.5q41 0 41 35v53h195v-127q0 -81 -40.5 -127.5t-121.5 -46.5q-56 0 -115.5 22.5t-105 45t-68.5 22.5q-35 0 -35 -47v-39h-196z" />
<glyph unicode="&#x2000;" horiz-adv-x="968" />
<glyph unicode="&#x2001;" horiz-adv-x="1937" />
<glyph unicode="&#x2002;" horiz-adv-x="968" />
<glyph unicode="&#x2003;" horiz-adv-x="1937" />
<glyph unicode="&#x2004;" horiz-adv-x="645" />
<glyph unicode="&#x2005;" horiz-adv-x="484" />
<glyph unicode="&#x2006;" horiz-adv-x="322" />
<glyph unicode="&#x2007;" horiz-adv-x="322" />
<glyph unicode="&#x2008;" horiz-adv-x="242" />
<glyph unicode="&#x2009;" horiz-adv-x="387" />
<glyph unicode="&#x200a;" horiz-adv-x="107" />
<glyph unicode="&#x2010;" horiz-adv-x="821" d="M113 492v229h598v-229h-598z" />
<glyph unicode="&#x2011;" horiz-adv-x="821" d="M113 492v229h598v-229h-598z" />
<glyph unicode="&#x2012;" horiz-adv-x="821" d="M113 492v229h598v-229h-598z" />
<glyph unicode="&#x2013;" horiz-adv-x="1198" d="M113 492v229h972v-229h-972z" />
<glyph unicode="&#x2014;" horiz-adv-x="1984" d="M113 492v229h1761v-229h-1761z" />
<glyph unicode="&#x2018;" horiz-adv-x="516" d="M88 885v286q0 160 106.5 259.5t256.5 107.5v-240q-46 -6 -76.5 -46t-30.5 -81v-286h-256z" />
<glyph unicode="&#x2019;" horiz-adv-x="516" d="M66 885v241q46 6 75 45.5t29 81.5v285h256v-285q0 -160 -105.5 -260t-254.5 -108z" />
<glyph unicode="&#x201a;" horiz-adv-x="518" d="M27 -127q45 6 75.5 46t30.5 81v285h256v-285q0 -108 -51.5 -191.5t-132.5 -128t-178 -49.5v242z" />
<glyph unicode="&#x201c;" horiz-adv-x="882" d="M66 885v286q0 108 51 191t131.5 127t177.5 49v-240q-46 -6 -75 -46t-29 -81v-286h-256zM483 885v286q0 161 105.5 260t257.5 107v-240q-46 -6 -76.5 -46t-30.5 -81v-286h-256z" />
<glyph unicode="&#x201d;" horiz-adv-x="882" d="M66 885v241q46 6 75 45.5t29 81.5v285h256v-285q0 -160 -105.5 -260t-254.5 -108zM483 885v241q47 6 77 45.5t30 81.5v285h256v-285q0 -160 -107 -260t-256 -108z" />
<glyph unicode="&#x201e;" horiz-adv-x="968" d="M27 -127q45 6 75.5 46t30.5 81v285h256v-285q0 -108 -51.5 -191.5t-132.5 -128t-178 -49.5v242zM477 -127q45 6 76 46t31 81v285h256v-285q0 -107 -51.5 -191t-133 -128.5t-178.5 -49.5v242z" />
<glyph unicode="&#x2022;" horiz-adv-x="690" d="M78 643v105q0 88 61.5 151.5t147.5 63.5h116q86 0 148.5 -63.5t62.5 -151.5v-105q0 -89 -62.5 -153t-148.5 -64h-116q-86 0 -147.5 64t-61.5 153z" />
<glyph unicode="&#x2026;" horiz-adv-x="1556" d="M133 0v285h256v-285h-256zM651 0v285h256v-285h-256zM1171 0v285h256v-285h-256z" />
<glyph unicode="&#x202f;" horiz-adv-x="387" />
<glyph unicode="&#x2039;" horiz-adv-x="819" d="M96 430v270l621 351v-269l-383 -217l383 -215v-268z" />
<glyph unicode="&#x203a;" horiz-adv-x="819" d="M102 82v268l381 215l-381 217v269l621 -351v-270z" />
<glyph unicode="&#x205f;" horiz-adv-x="484" />
<glyph unicode="&#x20ac;" horiz-adv-x="1374" d="M45 455v182h174v168h-174v182h174v137q0 132 112 227t296 95h239q178 0 286 -95t108 -227v-172h-267v115q0 67 -45 105t-112 38h-193q-69 0 -114.5 -38t-45.5 -105v-80h330v-182h-330v-168h330v-182h-330v-88q0 -67 45.5 -105.5t114.5 -38.5h193q67 0 112 38.5t45 105.5 v120h267v-176q0 -132 -108 -227.5t-286 -95.5h-239q-183 0 -295.5 95.5t-112.5 227.5v144h-174z" />
<glyph unicode="&#x2122;" horiz-adv-x="1560" d="M70 1260v145h499v-145h-172v-596h-149v596h-178zM686 664v741h164l227 -451l219 451h162v-741h-147v438l-148 -303h-168l-164 321v-456h-145z" />
<glyph unicode="&#x25fc;" horiz-adv-x="1126" d="M0 0v1126h1126v-1126h-1126z" />
</font>
</defs>
</svg>
