<?xml version="1.0" standalone="no"?>
<!DOCTYPE svg PUBLIC "-//W3C//DTD SVG 1.1//EN" "http://www.w3.org/Graphics/SVG/1.1/DTD/svg11.dtd" >
<svg xmlns="http://www.w3.org/2000/svg">
<metadata></metadata>
<defs>
<font id="boxedbook_italic" horiz-adv-x="1021" >
<font-face units-per-em="2048" ascent="1638" descent="-410" />
<missing-glyph horiz-adv-x="608" />
<glyph unicode="&#xfb01;" horiz-adv-x="972" d="M-111 -422l23 129q83 0 152.5 62.5t82.5 152.5l170 1067h-112l20 131h113l12 72q24 156 133.5 250t257.5 94h312l-21 -131h-319q-78 0 -146.5 -62.5t-81.5 -150.5l-12 -72h514l-178 -1120h-135l155 989h-378l-168 -1067q-24 -156 -134.5 -250t-259.5 -94z" />
<glyph unicode="&#xfb02;" horiz-adv-x="972" d="M-111 -422l23 129q83 0 152.5 62.5t82.5 152.5l168 1067h-110l20 131h113l12 72q24 156 133.5 250t257.5 94h312l-244 -1536h-135l223 1405h-176q-83 0 -153 -62.5t-83 -150.5l-12 -72h195l-21 -131h-196l-168 -1067q-24 -156 -134.5 -250t-259.5 -94z" />
<glyph horiz-adv-x="0" />
<glyph horiz-adv-x="682" />
<glyph horiz-adv-x="0" />
<glyph horiz-adv-x="0" />
<glyph unicode="&#xd;" horiz-adv-x="608" />
<glyph unicode=" "  horiz-adv-x="608" />
<glyph unicode="&#x09;" horiz-adv-x="608" />
<glyph unicode="&#xa0;" horiz-adv-x="608" />
<glyph unicode="!" horiz-adv-x="456" d="M160 0l39 250h137l-39 -250h-137zM227 426l170 1071h138l-170 -1071h-138z" />
<glyph unicode="&#x22;" horiz-adv-x="598" d="M285 1122l53 439h141l-84 -439h-110zM559 1122l55 439h140l-82 -439h-113z" />
<glyph unicode="#" horiz-adv-x="1331" d="M117 356l20 140h225l140 446h-230l21 137h252l110 357h142l-111 -357h420l111 357h141l-111 -357h193l-21 -137h-215l-137 -446h219l-22 -140h-240l-111 -356h-141l111 356h-422l-111 -356h-141l110 356h-202zM504 496h422l137 446h-420z" />
<glyph unicode="$" horiz-adv-x="1120" d="M168 301l18 113h142l-15 -84q-13 -88 41.5 -145.5t149.5 -57.5h53l80 514q-76 38 -127 71t-102.5 81.5t-72.5 109t-9 131.5l20 131q18 113 118 197t230 84h72l35 223h65l-35 -223h31q145 0 224.5 -88t60.5 -213l-21 -137h-141l16 108q12 83 -38.5 137t-137.5 54h-16 l-82 -525q161 -78 224 -124q139 -103 118 -230l-20 -139q-22 -135 -134.5 -218t-271.5 -83h-43l-35 -217h-65l35 217h-62q-154 0 -240 92t-65 221zM469 1044q-11 -70 41.5 -123.5t155.5 -107.5l77 494h-51q-75 0 -137 -48.5t-72 -121.5zM623 127h30q101 0 173.5 50.5 t84.5 139.5l15 89q3 24 -7.5 47.5t-28.5 42t-52.5 40t-63.5 36.5t-76 38z" />
<glyph unicode="%" horiz-adv-x="1337" d="M246 973l41 270q14 82 81.5 142.5t155.5 60.5h72q88 0 134 -60.5t32 -142.5l-41 -270q-12 -84 -77.5 -143.5t-154.5 -59.5h-71q-89 0 -136.5 59.5t-35.5 143.5zM367 0l696 1436h135l-700 -1436h-131zM371 989q-6 -41 14 -69.5t55 -28.5h60q36 0 66 28.5t36 69.5l37 238 q6 41 -15 68.5t-55 27.5h-61q-35 0 -64.5 -28t-35.5 -68zM805 190l43 271q12 82 80.5 142.5t158.5 60.5h70q88 0 133.5 -60t32.5 -143l-43 -271q-12 -84 -77 -143t-154 -59h-70q-90 0 -138 59t-36 143zM930 207q-6 -41 14 -69.5t55 -28.5h62q34 0 64 28.5t36 69.5l39 237 q6 41 -15 69t-57 28h-59q-36 0 -65 -28t-35 -69z" />
<glyph unicode="&#x26;" horiz-adv-x="1181" d="M186 301l39 246q12 75 61.5 140.5t123.5 105.5q-39 38 -56 94.5t-8 118.5l27 159q18 115 112 199t217 84h181q120 0 185.5 -83.5t47.5 -199.5l-14 -88h-135l10 64q10 74 -27 122t-100 48h-166q-63 0 -114.5 -48t-63.5 -122l-19 -109q-12 -75 24.5 -124.5t100.5 -49.5h635 l-18 -133h-137l-68 -424q-21 -129 -122 -221t-236 -92h-213q-137 0 -212.5 92t-54.5 221zM328 326q-12 -88 31.5 -145.5t119.5 -57.5h199q76 0 138 57.5t75 145.5l61 399h-379q-76 0 -138 -58t-75 -147z" />
<glyph unicode="'" horiz-adv-x="321" d="M285 1122l53 439h141l-84 -439h-110z" />
<glyph unicode="(" horiz-adv-x="567" d="M150 121l155 985q26 157 133 248.5t256 91.5h51l-20 -131h-51q-81 0 -149 -60.5t-81 -148.5l-155 -985q-13 -88 35 -147.5t129 -59.5h51l-23 -133h-51q-149 0 -227 92.5t-53 247.5z" />
<glyph unicode=")" horiz-adv-x="567" d="M25 -219l20 133h49q83 0 151 59.5t81 147.5l155 985q15 88 -34 148.5t-132 60.5h-49l23 131h49q150 0 228.5 -92t54.5 -248l-156 -985q-24 -155 -132.5 -247.5t-258.5 -92.5h-49z" />
<glyph unicode="*" horiz-adv-x="907" d="M276 1186l60 137l248 -94l49 307h129l-47 -305l274 92l19 -137l-273 -92l121 -248l-117 -88l-125 250l-202 -252l-88 90l198 246z" />
<glyph unicode="+" horiz-adv-x="821" d="M180 541l23 141h250l45 279h129l-45 -279h249l-22 -141h-250l-43 -277h-131l45 277h-250z" />
<glyph unicode="," horiz-adv-x="438" d="M12 -283l23 142q45 17 78 58t39 83l41 248h133l-39 -248q-19 -116 -96 -190.5t-179 -92.5z" />
<glyph unicode="-" horiz-adv-x="739" d="M193 553l20 135h532l-22 -135h-530z" />
<glyph unicode="." horiz-adv-x="438" d="M152 0l38 248h136l-39 -248h-135z" />
<glyph unicode="/" horiz-adv-x="1034" d="M78 0l932 1434h149l-932 -1434h-149z" />
<glyph unicode="0" horiz-adv-x="1112" d="M199 301l131 832q21 129 126.5 221t245.5 92h172q138 0 214 -92t55 -221l-133 -832q-21 -129 -125 -221t-242 -92h-172q-140 0 -216.5 92t-55.5 221zM346 330q-13 -88 32 -145.5t124 -57.5h151q78 0 142 57.5t77 145.5l123 774q13 88 -31 145.5t-122 57.5h-154 q-78 0 -142 -57.5t-77 -145.5z" />
<glyph unicode="1" horiz-adv-x="790" d="M66 0l22 139h260l182 1153l-282 -149l20 139l285 152h139l-205 -1295h261l-23 -139h-659z" />
<glyph unicode="2" horiz-adv-x="1062" d="M131 0l39 246q26 162 160 270q51 50 256.5 164.5t257.5 165.5q84 74 100 178l12 80q13 88 -31.5 145.5t-123.5 57.5h-109q-79 0 -143.5 -57.5t-77.5 -145.5l-12 -84h-142l19 113q21 129 124.5 221t241.5 92h132q138 0 213 -97t53 -233l-23 -141q-21 -139 -137 -232 q-52 -51 -266 -171t-266 -169q-81 -77 -97 -184l-12 -80h666l-23 -139h-811z" />
<glyph unicode="3" horiz-adv-x="1089" d="M186 303l17 96h141l-10 -67q-13 -88 31.5 -146.5t123.5 -58.5h152q79 0 143.5 61.5t79.5 155.5l21 131q13 90 -36.5 147.5t-135.5 57.5h-123l22 139h111q70 0 127.5 51t69.5 129l20 127q13 77 -25.5 129t-105.5 52h-109q-65 0 -118.5 -52t-65.5 -129l-10 -57h-141l14 84 q18 120 114 206.5t222 86.5h129q125 0 193.5 -86.5t49.5 -206.5l-28 -178q-11 -65 -49.5 -123t-98.5 -96q67 -38 99 -106t20 -146l-31 -189q-21 -134 -125.5 -230.5t-240.5 -96.5h-172q-141 0 -218.5 93t-56.5 222z" />
<glyph unicode="4" horiz-adv-x="966" d="M139 369l23 139l669 926h142l-148 -926h168l-22 -139h-168l-58 -369h-141l58 369h-523zM303 508h381l107 676z" />
<glyph unicode="5" horiz-adv-x="1089" d="M199 303l16 96h141l-10 -67q-13 -88 32 -146.5t124 -58.5h127q79 0 143.5 61.5t79.5 155.5l33 209q13 87 -27 145t-110 58h-414l108 678h664l-21 -140h-524l-61 -401h282q129 0 199 -92.5t49 -218.5l-41 -267q-22 -134 -126.5 -230.5t-241.5 -96.5h-150q-139 0 -216 93 t-56 222z" />
<glyph unicode="6" horiz-adv-x="1112" d="M199 301l131 832q21 129 126.5 221t245.5 92h172q138 0 214 -92t55 -221l-13 -72h-141l6 43q13 88 -31 145.5t-122 57.5h-154q-78 0 -142 -57.5t-77 -145.5l-45 -287q106 76 190 76h172q138 0 214 -92t55 -221l-45 -279q-21 -129 -125 -221t-242 -92h-172 q-140 0 -216.5 92t-55.5 221zM346 330q-13 -88 32 -145.5t124 -57.5h151q78 0 142 57.5t77 145.5l35 221q13 88 -31 145.5t-122 57.5h-154q-74 0 -137.5 -49.5t-75.5 -124.5z" />
<glyph unicode="7" horiz-adv-x="927" d="M135 0l791 1303h-631l22 139h773l-23 -139l-791 -1303h-141z" />
<glyph unicode="8" horiz-adv-x="1089" d="M186 301l31 188q12 84 68.5 156.5t140.5 112.5q-57 41 -81.5 108.5t-12.5 147.5l18 119q21 129 124 221t239 92h123q137 0 212 -92t54 -221l-19 -119q-12 -78 -59.5 -146.5t-118.5 -109.5q70 -40 103.5 -112.5t19.5 -156.5l-31 -188q-21 -129 -124.5 -221t-239.5 -92 h-172q-142 0 -219 92t-56 221zM334 330q-13 -88 31.5 -145.5t123.5 -57.5h152q79 0 142.5 57.5t76.5 145.5l25 147q13 88 -32 145.5t-124 57.5h-151q-79 0 -143 -57.5t-79 -145.5zM473 1022q-13 -88 30 -145.5t118 -57.5h114q73 0 133.5 57.5t75.5 145.5l14 82 q13 88 -29.5 145.5t-115.5 57.5h-115q-75 0 -136.5 -57.5t-74.5 -145.5z" />
<glyph unicode="9" horiz-adv-x="1112" d="M199 301l10 72h143l-6 -43q-13 -88 32 -145.5t124 -57.5h151q78 0 142 57.5t77 145.5l43 280q-103 -69 -190 -69h-172q-137 0 -212 92t-54 221l43 279q21 129 125 221t241 92h172q140 0 218 -92t57 -221l-133 -832q-21 -129 -127 -221t-246 -92h-172q-137 0 -212 92 t-54 221zM434 883q-13 -88 31.5 -145.5t122.5 -57.5h153q71 0 136 51.5t77 124.5l41 248q13 88 -31 145.5t-122 57.5h-154q-78 0 -142 -57.5t-77 -145.5z" />
<glyph unicode=":" horiz-adv-x="438" d="M152 0l38 248h136l-39 -248h-135zM289 862l39 248h135l-39 -248h-135z" />
<glyph unicode=";" horiz-adv-x="438" d="M14 -283q99 16 175.5 91t95.5 192l39 248h-129l-41 -248q-6 -41 -39.5 -82.5t-77.5 -58.5zM289 862l37 248h135l-37 -248h-135z" />
<glyph unicode="&#x3c;" horiz-adv-x="997" d="M170 473l27 166l866 381l-25 -154l-716 -309l622 -297l-26 -156z" />
<glyph unicode="=" horiz-adv-x="845" d="M121 295l20 135h701l-21 -135h-700zM180 684l23 135h700l-22 -135h-701z" />
<glyph unicode="&#x3e;" horiz-adv-x="997" d="M113 104l24 156l715 297l-619 309l23 154l748 -381l-27 -166z" />
<glyph unicode="?" horiz-adv-x="985" d="M227 991l23 142q21 129 124.5 221t239.5 92h136q140 0 217.5 -92t56.5 -221l-29 -166q-15 -108 -104 -191q-25 -27 -126.5 -103t-129.5 -106q-67 -61 -78 -135l-12 -80h-144l21 125q19 119 117 201q23 23 131.5 100t136.5 111q44 44 53 106l17 109q13 88 -32.5 145.5 t-123.5 57.5h-115q-79 0 -143.5 -57.5t-77.5 -145.5l-16 -113h-142zM348 0l37 248h143l-39 -248h-141z" />
<glyph unicode="@" horiz-adv-x="1810" d="M129 -90l207 1309q21 125 115 214t217 89h954q124 0 191.5 -89.5t46.5 -213.5l-146 -918q-21 -125 -115 -213t-217 -88h-219l-4 121q-65 -63 -137 -98t-139 -35h-115q-110 0 -170.5 78.5t-42.5 185.5l96 606q18 106 102.5 184t192.5 78h490l-158 -987h104 q70 0 128.5 54.5t70.5 136.5l139 874q13 80 -28.5 135.5t-110.5 55.5h-913q-71 0 -129 -55t-70 -136l-203 -1268q-12 -81 30 -135.5t112 -54.5h858l-21 -133h-880q-123 0 -190 89t-46 214zM694 272q-10 -62 24.5 -106.5t90.5 -44.5h100q64 0 132.5 38t121.5 103l115 727 h-330q-57 0 -106 -45t-58 -108z" />
<glyph unicode="A" horiz-adv-x="1206" d="M82 0l680 1442h141l221 -1442h-143l-63 426h-498l-195 -426h-143zM485 565h412l-98 680z" />
<glyph unicode="B" horiz-adv-x="1150" d="M174 0l227 1434h459q137 0 211 -95q58 -74 58 -172q0 -28 -5 -57l-18 -117q-10 -70 -51.5 -132t-104.5 -103q87 -38 130 -122q32 -62 32 -132q0 -25 -4 -51l-18 -105q-24 -144 -129 -246t-242 -102h-545zM338 139h387q80 0 144 57.5t79 145.5l19 117q2 18 2 35 q1 68 -39 116q-50 60 -135 60h-373zM444 809h304q79 0 143 54t76 136l14 105q3 18 3 35q0 59 -35 101q-45 54 -124 54h-305z" />
<glyph unicode="C" horiz-adv-x="1159" d="M199 301l131 832q21 129 126.5 221t245.5 92h220q137 0 212 -92q59 -72 59 -166q0 -26 -5 -55l-23 -150h-141l18 121q3 20 3 38q-1 64 -35 108q-44 58 -123 57h-199q-78 0 -142 -57.5t-77 -145.5l-123 -774q-3 -20 -3 -38q0 -64 35 -108q45 -58 124 -57h196 q79 0 144 57.5t78 145.5l20 131h141l-24 -160q-21 -129 -125.5 -221t-241.5 -92h-219q-141 0 -217 92q-60 72 -60 167q0 26 5 54z" />
<glyph unicode="D" horiz-adv-x="1208" d="M174 0l227 1434h568q139 0 213 -92q58 -72 58 -167q0 -27 -5 -55l-127 -807q-21 -129 -125 -221t-242 -92h-567zM338 139h412q79 0 143.5 57.5t77.5 145.5l119 750q3 20 3 38q0 63 -35 107q-45 57 -124 57h-414z" />
<glyph unicode="E" horiz-adv-x="1079" d="M174 0l227 1436h736l-21 -140h-596l-76 -483h547l-22 -139h-547l-84 -535h612l-22 -139h-754z" />
<glyph unicode="F" horiz-adv-x="1046" d="M174 0l227 1436h748l-23 -140h-606l-82 -518h572l-23 -139h-571l-101 -639h-141z" />
<glyph unicode="G" horiz-adv-x="1185" d="M199 301l131 832q21 129 126.5 221t245.5 92h246q138 0 214 -92q60 -72 60 -167q0 -26 -5 -54l-25 -150h-141l18 121q3 20 3 38q0 63 -35 108q-45 57 -124 57h-225q-78 0 -142 -57.5t-77 -145.5l-123 -774q-3 -20 -3 -38q0 -63 35 -108q45 -57 124 -57h223 q79 0 143.5 57.5t77.5 145.5l41 258h-311l20 139h455l-68 -426q-21 -129 -124.5 -221t-241.5 -92h-246q-140 0 -217 92q-60 72 -60 167q0 26 5 54z" />
<glyph unicode="H" horiz-adv-x="1230" d="M174 0l227 1436h142l-99 -625h603l98 625h139l-227 -1436h-139l106 672h-602l-107 -672h-141z" />
<glyph unicode="I" horiz-adv-x="487" d="M174 0l227 1436h142l-228 -1436h-141z" />
<glyph unicode="J" horiz-adv-x="518" d="M-168 -424l23 137h71q98 0 176 71t95 179l233 1471h141l-233 -1471q-27 -176 -147 -281.5t-285 -105.5h-74z" />
<glyph unicode="K" horiz-adv-x="1142" d="M174 0l227 1434h142l-101 -637h187l438 637h158l-484 -699l338 -735h-159l-297 657h-203l-105 -657h-141z" />
<glyph unicode="L" horiz-adv-x="917" d="M174 0l227 1436h142l-205 -1297h549l-23 -139h-690z" />
<glyph unicode="M" horiz-adv-x="1468" d="M174 0l227 1436h148l264 -955l563 955h146l-228 -1436h-141l178 1130l-485 -823h-125l-227 821l-179 -1128h-141z" />
<glyph unicode="N" horiz-adv-x="1230" d="M174 0l227 1436h144l416 -1162l184 1162h139l-227 -1436h-146l-413 1151l-183 -1151h-141z" />
<glyph unicode="O" horiz-adv-x="1185" d="M199 301l131 832q21 129 126.5 221t245.5 92h246q138 0 214 -92q60 -72 60 -167q0 -26 -5 -54l-134 -832q-21 -129 -124.5 -221t-241.5 -92h-246q-141 0 -217 92q-60 72 -60 167q0 26 5 54zM346 330q-3 -20 -3 -38q0 -64 35 -108q45 -58 124 -57h223q79 0 143.5 57.5 t77.5 145.5l123 774q3 20 3 38q0 64 -35 108q-45 58 -124 57h-225q-78 0 -142 -57.5t-77 -145.5z" />
<glyph unicode="P" horiz-adv-x="1116" d="M174 0l227 1436h488q147 0 227 -86q64 -69 65 -161q0 -24 -5 -50l-48 -297q-21 -125 -124.5 -218.5t-239.5 -93.5h-365l-84 -530h-141zM422 670h350q77 0 142 58t77 142l39 240q3 17 3 33q-1 61 -41 101q-50 50 -138 50h-334z" />
<glyph unicode="Q" horiz-adv-x="1185" d="M199 301l131 832q21 129 126.5 221t245.5 92h246q138 0 214 -92q60 -72 60 -167q0 -26 -5 -54l-134 -832q-21 -129 -124.5 -221t-241.5 -92h-4l108 -342l-137 -68l-129 410h-84q-140 0 -217 92q-60 72 -60 167q0 26 5 54zM346 330q-3 -20 -3 -38q0 -63 35 -108 q45 -57 124 -57h223q79 0 143.5 57.5t77.5 145.5l123 774q3 20 3 38q0 63 -35 108q-45 57 -124 57h-225q-78 0 -142 -57.5t-77 -145.5z" />
<glyph unicode="R" horiz-adv-x="1173" d="M174 0l227 1434h510q147 0 227 -86q64 -68 65 -159q0 -24 -5 -50l-47 -297q-15 -94 -94 -175.5t-187 -107.5l156 -559h-149l-154 551h-322l-86 -551h-141zM424 690h375q77 0 141 53.5t74 126.5l39 240q3 17 3 33q0 61 -40 101q-50 50 -139 50h-357z" />
<glyph unicode="S" horiz-adv-x="1120" d="M168 301l18 113h142l-15 -84q-3 -17 -2 -33q-1 -67 43 -113q54 -58 150 -57h149q101 0 173.5 50.5t84.5 139.5l15 89q3 22 -3.5 43t-28 41.5t-40.5 35.5t-59 36.5t-63 33t-73 35.5q-62 29 -107 54.5t-95.5 64t-80.5 78.5q-28 38 -44 92q-9 33 -10 68q0 23 4 46l20 131 q18 113 118 197t230 84h168q144 0 224 -88q64 -71 64 -166q0 -23 -3 -47l-21 -137h-141l16 108q2 16 2 31q-1 63 -41 106q-50 54 -137 54h-133q-75 0 -137 -48.5t-72 -121.5l-14 -93l-2 -20q0 -24 9 -46q12 -32 33 -56t59.5 -50.5t70.5 -43.5t82 -42q159 -78 219 -120 q132 -93 132 -206q0 -16 -3 -32l-20 -139q-22 -135 -134.5 -218t-271.5 -83h-170q-154 0 -240 92q-69 74 -69 172q0 24 4 49z" />
<glyph unicode="T" horiz-adv-x="921" d="M254 1296l22 140h824l-21 -140h-334l-204 -1296h-142l205 1296h-350z" />
<glyph unicode="U" horiz-adv-x="1200" d="M209 301l180 1135h141l-174 -1106q-3 -20 -3 -38q0 -64 35 -108q45 -58 124 -57h217q79 0 142.5 57.5t76.5 145.5l174 1106h144l-179 -1135q-21 -129 -125.5 -221t-240.5 -92h-240q-141 0 -217 92q-60 72 -60 167q0 26 5 54z" />
<glyph unicode="V" horiz-adv-x="1206" d="M309 1434h144l184 -1233l571 1233h144l-678 -1434h-139z" />
<glyph unicode="W" horiz-adv-x="1832" d="M309 1434h150l112 -1211l500 1211h146l118 -1211l496 1211h147l-610 -1434h-141l-127 1161l-494 -1161h-141z" />
<glyph unicode="X" horiz-adv-x="1183" d="M80 0l553 750l-283 684h158l231 -560l400 560h157l-499 -699l305 -735h-158l-254 610l-452 -610h-158z" />
<glyph unicode="Y" horiz-adv-x="1142" d="M309 1436h148l239 -701l447 701h143l-541 -846l-94 -590h-139l92 590z" />
<glyph unicode="Z" horiz-adv-x="1077" d="M106 0l21 139l868 1157h-659l20 140h820l-23 -140l-856 -1157h694l-20 -139h-865z" />
<glyph unicode="[" horiz-adv-x="546" d="M135 -242l266 1678h308l-21 -142h-170l-221 -1396h178l-20 -140h-320z" />
<glyph unicode="\" horiz-adv-x="1034" d="M305 1434h150l477 -1434h-150z" />
<glyph unicode="]" horiz-adv-x="546" d="M16 -242l21 140h180l221 1396h-166l21 142h309l-266 -1678h-320z" />
<glyph unicode="^" horiz-adv-x="745" d="M260 1124l281 412h141l160 -412h-144l-106 279l-189 -279h-143z" />
<glyph unicode="_" horiz-adv-x="792" d="M-41 -260l21 135h794l-20 -135h-795z" />
<glyph unicode="`" horiz-adv-x="645" d="M317 1444l68 127l383 -242l-61 -110z" />
<glyph unicode="a" horiz-adv-x="1034" d="M186 332l74 459q24 142 118 242t214 100h117q130 0 215 -125l45 112h88l-176 -1120h-97l-4 109q-121 -121 -245 -121h-123q-120 0 -184 102q-47 75 -48 172q0 34 6 70zM322 334q-3 -22 -3 -41q1 -65 33 -111q42 -60 117 -61h92q57 0 115.5 35t105.5 98l101 616 q-30 60 -77 95.5t-104 35.5h-92q-75 0 -138.5 -61t-76.5 -152z" />
<glyph unicode="b" horiz-adv-x="1044" d="M162 0l244 1536h135l-80 -506q118 103 231 103h115q121 -1 183 -101q46 -74 46 -170q0 -34 -6 -71l-74 -459q-22 -142 -116.5 -243t-214.5 -101h-123q-126 0 -207 121l-37 -109h-96zM338 250q28 -62 75 -95.5t105 -33.5h90q75 0 137.5 60.5t77.5 152.5l72 454q3 21 3 40 q0 65 -34 112q-44 61 -116 61h-95q-112 0 -217 -127z" />
<glyph unicode="c" horiz-adv-x="1003" d="M188 313l80 492q21 135 123 231.5t234 96.5h120q131 -1 201 -97q53 -73 52 -168q0 -30 -5 -63l-6 -45h-137l6 35q3 20 3 39q0 62 -34 108q-44 58 -120 59h-89q-76 0 -139 -58.5t-76 -147.5l-75 -469q-3 -20 -3 -39q0 -63 34 -108q44 -58 120 -58h88q77 0 139.5 58 t75.5 147l8 36h136l-9 -49q-22 -135 -122 -230t-230 -95h-121q-132 0 -204 95q-55 73 -55 171q0 28 5 59z" />
<glyph unicode="d" horiz-adv-x="1044" d="M190 332l74 459q22 141 116.5 241.5t215.5 100.5h117q109 0 196 -103l80 506h137l-243 -1536h-97l-4 109q-121 -121 -245 -121h-123q-120 0 -183 102q-47 75 -47 172q0 34 6 70zM326 334q-3 -22 -3 -41q1 -65 33 -111q42 -60 117 -61h90q119 0 223 133l99 620 q-30 59 -76.5 93t-101.5 34h-93q-75 0 -138.5 -61t-78.5 -152z" />
<glyph unicode="e" d="M188 313l80 492q21 135 123 231.5t234 96.5h139q130 -1 200 -97q53 -73 54 -168q0 -30 -6 -63l-47 -297h-611l-28 -182q-3 -20 -3 -39q0 -63 34 -108q44 -58 120 -58h107q78 0 142 58.5t73 146.5l2 6h137l-4 -19q-22 -135 -122 -230t-230 -95h-140q-132 0 -204 95 q-55 73 -55 171q0 28 5 59zM375 629h473l26 166q3 19 3 37q-1 65 -35 111q-44 58 -119 58h-107q-76 0 -139 -58.5t-76 -147.5z" />
<glyph unicode="f" horiz-adv-x="512" d="M-111 -422l23 129q83 0 152.5 62.5t82.5 152.5l170 1067h-112l20 131h113l12 72q24 156 134 250t259 94l-22 -131q-83 0 -153 -62.5t-83 -150.5l-12 -72h195l-21 -131h-196l-168 -1067q-24 -156 -134.5 -250t-259.5 -94z" />
<glyph unicode="g" horiz-adv-x="1044" d="M121 -117l2 23h137l-2 -15q-2 -17 -2 -32q0 -60 36 -103q47 -55 126 -55h92q78 0 144 58.5t79 146.5l29 182q-114 -100 -225 -100h-123q-120 0 -182 102q-46 73 -46 167q0 36 7 75l71 459q22 141 116.5 241.5t215.5 100.5h117q128 0 213 -125l39 112h96l-195 -1231 q-21 -129 -124.5 -221t-241.5 -92h-105q-139 0 -216 90q-62 73 -62 169q0 23 4 48zM328 334q-4 -24 -4 -46q0 -62 32 -106q42 -61 117 -61h92q55 0 113 34t108 93l101 622q-28 62 -74.5 96.5t-103.5 34.5h-95q-75 0 -138.5 -61t-76.5 -152z" />
<glyph unicode="h" horiz-adv-x="1034" d="M162 0l244 1536h135l-82 -514q130 111 264 111h55q126 0 190 -89q47 -65 46 -157q0 -33 -6 -70l-129 -817h-136l127 811q3 22 3 41q0 60 -32 98q-43 51 -120 51h-39q-63 0 -129.5 -35t-118.5 -96l-137 -870h-135z" />
<glyph unicode="i" horiz-adv-x="458" d="M162 0l176 1120h135l-176 -1120h-135zM365 1288l41 248h135l-41 -248h-135z" />
<glyph unicode="j" horiz-adv-x="460" d="M-119 -424l21 131q90 0 161 53t84 134l193 1226h135l-192 -1226q-24 -147 -134.5 -232.5t-267.5 -85.5zM365 1288l41 248h135l-41 -248h-135z" />
<glyph unicode="k" horiz-adv-x="964" d="M162 0l244 1536h135l-131 -831h122l363 415h164l-436 -475l315 -645h-154l-274 571h-123l-90 -571h-135z" />
<glyph unicode="l" horiz-adv-x="458" d="M162 0l244 1536h135l-244 -1536h-135z" />
<glyph unicode="m" horiz-adv-x="1613" d="M162 0l176 1120h96l2 -116q138 129 287 129h55q81 0 137.5 -39.5t81.5 -108.5q68 69 149 108.5t159 39.5h53q126 0 189 -89q46 -65 46 -157q0 -33 -6 -70l-129 -817h-137l129 811q3 21 3 41q-1 60 -33 98q-44 51 -120 51h-36q-66 0 -132.5 -36t-117.5 -99l-6 -49 l-129 -817h-136l127 811q3 22 3 41q0 60 -32 98q-43 51 -120 51h-39q-64 0 -130.5 -35t-117.5 -96l-137 -870h-135z" />
<glyph unicode="n" horiz-adv-x="1034" d="M162 0l176 1120h96l2 -116q138 129 287 129h55q126 0 190 -89q47 -65 46 -157q0 -33 -6 -70l-129 -817h-136l127 811q3 22 3 41q0 60 -32 98q-43 51 -120 51h-39q-64 0 -130.5 -35t-117.5 -96l-137 -870h-135z" />
<glyph unicode="o" d="M188 313l80 492q21 135 123 231.5t234 96.5h139q130 0 200 -96q53 -74 53 -171q0 -29 -5 -61l-78 -492q-22 -135 -122 -230t-230 -95h-140q-132 0 -204 95q-55 73 -55 171q0 28 5 59zM326 326q-3 -20 -3 -39q0 -63 34 -108q44 -58 120 -58h107q77 0 140 58t75 147l75 469 q3 20 3 39q0 62 -34 108q-44 58 -120 59h-107q-76 0 -139 -58.5t-76 -147.5z" />
<glyph unicode="p" horiz-adv-x="1044" d="M94 -424l244 1544h96l2 -110q126 123 256 123h115q120 0 183 -101q46 -74 46 -170q0 -34 -6 -71l-74 -459q-22 -142 -116.5 -243t-214.5 -101h-123q-111 0 -193 98l-80 -510h-135zM336 252q30 -62 77 -96.5t105 -34.5h90q74 0 137 60.5t76 152.5l72 454q4 23 4 45 q0 62 -33 107q-43 61 -116 61h-95q-56 0 -113 -34t-106 -93z" />
<glyph unicode="q" horiz-adv-x="1044" d="M190 332l74 459q22 141 116.5 241.5t215.5 100.5h117q127 0 213 -123l39 110h96l-246 -1544h-135l80 512q-111 -100 -223 -100h-123q-120 0 -183 102q-47 75 -47 172q0 34 6 70zM326 334q-3 -22 -3 -41q0 -65 33 -111q42 -61 117 -61h90q59 0 117.5 35.5t105.5 99.5 l99 616q-28 60 -75 94.5t-103 34.5h-93q-75 0 -138.5 -61t-78.5 -152z" />
<glyph unicode="r" horiz-adv-x="688" d="M162 0l176 1120h96l-2 -162q70 79 153 123.5t160 44.5h86l-20 -133h-102q-69 0 -148.5 -53t-138.5 -143l-125 -797h-135z" />
<glyph unicode="s" horiz-adv-x="1003" d="M176 246l10 61h133l-8 -51q-2 -10 -2 -20q0 -44 35 -76q42 -39 111 -39h147q63 0 114 39.5t60 93.5l12 76q3 20 -2 37t-23 32t-32.5 25.5t-49 24t-52 19.5t-60.5 21q-53 18 -89 32.5t-80 40.5t-69 54q-25 30 -39 72q-8 27 -8 56q0 18 3 36l16 103q16 102 104 176t207 74 h121q121 0 189 -75q53 -59 54 -140q0 -23 -5 -48l-8 -53h-129l8 49q2 11 2 21q0 47 -34 77q-42 38 -107 37h-99q-59 0 -108 -37.5t-56 -89.5l-12 -77q-5 -28 4.5 -51.5t26 -39.5t49 -32.5t58 -26t69.5 -24.5q139 -51 192 -88q96 -64 96 -161q0 -16 -3 -34l-15 -96 q-15 -105 -106.5 -180.5t-210.5 -75.5h-168q-124 0 -194 78q-55 62 -56 139q0 20 4 41z" />
<glyph unicode="t" horiz-adv-x="571" d="M193 989l22 131h133l88 314h96l-51 -314h201l-20 -131h-201l-107 -680q-2 -17 -2 -32q0 -59 36 -103q46 -54 132 -55l-20 -131q-158 0 -232 85q-56 64 -55 164q0 34 6 72l109 680h-135z" />
<glyph unicode="u" d="M205 305l129 815h135l-129 -811q-3 -20 -3 -39q0 -61 33 -100q43 -51 119 -51h39q58 0 121.5 33.5t114.5 91.5l137 876h137l-178 -1120h-96l-2 113q-135 -125 -275 -125h-53q-126 0 -189 89q-46 65 -46 157q0 34 6 71z" />
<glyph unicode="v" horiz-adv-x="899" d="M211 1120h141l131 -940l418 940h141l-510 -1120h-151z" />
<glyph unicode="w" horiz-adv-x="1468" d="M211 1120h141l94 -921l390 921h147l104 -925l383 925h140l-473 -1120h-154l-106 901l-383 -901h-152z" />
<glyph unicode="x" horiz-adv-x="980" d="M66 0l438 578l-240 542h156l184 -420l309 420h158l-407 -551l251 -569h-153l-199 446l-344 -446h-153z" />
<glyph unicode="y" horiz-adv-x="935" d="M201 -424l202 428l-188 1116h139l152 -903l430 903h141l-737 -1544h-139z" />
<glyph unicode="z" horiz-adv-x="925" d="M104 0l21 133l674 856h-516l20 131h676l-21 -131l-675 -856h569l-23 -133h-725z" />
<glyph unicode="{" horiz-adv-x="651" d="M154 543l20 133h55q55 5 100 45.5t54 97.5l55 352q20 128 119 201.5t240 73.5h8l-21 -131h-10q-71 0 -130 -41.5t-69 -102.5l-55 -360q-9 -55 -46 -108.5t-91 -94.5q41 -39 61 -91.5t11 -106.5l-58 -361q-9 -62 37 -102.5t119 -40.5h8l-20 -133h-9q-141 0 -216.5 74 t-55.5 202l55 352q9 58 -22 97.5t-84 44.5h-55z" />
<glyph unicode="|" horiz-adv-x="485" d="M100 -471l324 2048h137l-323 -2048h-138z" />
<glyph unicode="}" horiz-adv-x="651" d="M41 -227l20 133h9q74 0 132.5 40.5t67.5 102.5l58 361q7 54 44 106t91 92q-41 41 -61 94.5t-11 108.5l55 360q10 61 -36 102.5t-123 41.5l20 131h8q141 0 215.5 -73.5t53.5 -201.5l-56 -352q-9 -58 22.5 -98t84.5 -45h57l-22 -133h-43q-58 0 -106 -40.5t-58 -101.5 l-55 -352q-21 -129 -119 -202.5t-240 -73.5h-8z" />
<glyph unicode="~" horiz-adv-x="813" d="M160 444l16 93q15 93 47.5 135.5t104.5 42.5q31 0 65 -11.5t56 -24t57 -34.5q98 -65 156 -65q22 0 36 15t17 40l14 80h107l-19 -121q-23 -141 -143 -141q-84 0 -189 67q-101 64 -145 64q-28 0 -41 -19t-18 -59l-11 -62h-110z" />
<glyph unicode="&#xa1;" horiz-adv-x="456" d="M102 -360l168 1056h138l-168 -1056h-138zM297 872l41 248h137l-41 -248h-137z" />
<glyph unicode="&#xa2;" horiz-adv-x="1017" d="M186 301l84 520q21 129 123.5 220.5t239.5 91.5h10l47 307h117l-49 -307q131 -1 204 -93t52 -219l-8 -61h-138l6 35q13 89 -31 147.5t-120 58.5h-107q-76 0 -139 -58.5t-76 -147.5l-75 -469q-13 -89 31 -147t120 -58h107q77 0 139.5 58t75.5 147l6 36h137l-10 -61 q-21 -127 -122 -218.5t-232 -94.5l-50 -305h-114l47 305h-8q-137 0 -212.5 92t-54.5 221z" />
<glyph unicode="&#xa3;" horiz-adv-x="1142" d="M51 0l21 139h157l82 523h-157l22 139h158l53 332q21 129 126.5 221t246.5 92h141q137 0 211 -92t53 -221l-22 -150h-142l19 121q13 88 -32 145.5t-124 57.5h-119q-80 0 -144.5 -57.5t-76.5 -145.5l-49 -303h283l-23 -139h-282l-82 -523h534l35 223h141l-57 -362h-973z " />
<glyph unicode="&#xa5;" horiz-adv-x="1142" d="M233 248l23 137h315l31 188h-317l22 136h266l-264 727h148l241 -682l445 682h143l-475 -727h250l-21 -136h-299l-30 -188h299l-23 -137h-297l-39 -248h-139l39 248h-318z" />
<glyph unicode="&#xa7;" horiz-adv-x="1120" d="M94 -111l12 76h140l-6 -47q-13 -87 41.5 -145t148.5 -58h152q98 0 169.5 48.5t84.5 132.5l8 49q5 32 -12 61t-56.5 56.5t-80 49.5t-102.5 52q-9 4 -13 6q-51 25 -89.5 46t-83.5 51t-75 61.5t-54.5 69.5t-33 83.5t-0.5 96.5l18 106q15 117 113 205q-66 85 -49 196l12 80 q18 114 120 197.5t236 83.5h148q148 0 230 -88.5t63 -212.5l-13 -74h-141l6 45q13 83 -37 137t-137 54h-129q-76 0 -136.5 -46t-70.5 -114l-8 -53q-4 -26 2.5 -51t17.5 -44.5t36 -41.5t45 -37t58 -35.5t61 -32.5t67 -33q75 -36 123.5 -65.5t100 -74t72.5 -98.5t11 -118 l-19 -107q-22 -135 -122 -219q79 -79 65 -182l-12 -78q-20 -133 -133 -216t-271 -83h-172q-154 0 -240 91t-65 220zM385 578q-5 -36 8 -69t34 -57t62.5 -52t72.5 -45t85 -44q17 -9 75 -38.5t87 -47.5q81 49 96 148l15 90q4 26 -6.5 50.5t-29 43.5t-52.5 41t-63 38t-75 38 q-12 6 -42.5 21.5t-47.5 24t-41.5 22.5t-45.5 27t-40 26q-66 -50 -78 -127z" />
<glyph unicode="&#xa8;" horiz-adv-x="708" d="M295 1298l39 248h137l-39 -248h-137zM688 1298l39 248h139l-39 -248h-139z" />
<glyph unicode="&#xa9;" horiz-adv-x="1486" d="M203 305l129 821q22 132 121 226t219 94h600q119 0 190 -94t51 -226l-131 -821q-22 -130 -122.5 -223.5t-219.5 -93.5h-600q-120 0 -189.5 93t-47.5 224zM289 305q-15 -93 33.5 -159t132.5 -66h602q82 0 153 66.5t84 158.5l131 821q14 94 -34.5 162t-130.5 68h-603 q-84 0 -154 -68t-85 -162zM524 459l78 502q15 93 86.5 160t155.5 67h166q86 0 135.5 -67t34.5 -160l-15 -91h-86l15 91q8 55 -20.5 95t-78.5 40h-166q-49 0 -90.5 -40t-50.5 -95l-78 -502q-9 -56 19.5 -94.5t79.5 -38.5h165q51 0 91.5 38.5t48.5 94.5l14 98h88l-14 -98 q-15 -93 -86.5 -159.5t-157.5 -66.5h-166q-86 0 -134.5 66.5t-33.5 159.5z" />
<glyph unicode="&#xaa;" horiz-adv-x="569" d="M236 993l8 60q9 51 57.5 86.5t112.5 46.5l159 24l11 70q3 25 -10.5 41t-36.5 16h-76q-21 0 -38 -11t-20 -26l-4 -26h-96l6 37q9 57 59.5 93t114.5 36h66q63 0 101.5 -45t29.5 -107l-70 -434h-69l-4 53q-71 -59 -140 -59h-39q-60 0 -95.5 43t-26.5 102zM332 1001 q-3 -23 10.5 -39t36.5 -16h45q50 0 117 64l16 106l-156 -29q-25 -5 -43.5 -17.5t-21.5 -29.5z" />
<glyph unicode="&#xab;" horiz-adv-x="1280" d="M180 475l25 160l622 383l-26 -158l-492 -305l396 -303l-25 -158zM676 475l24 160l621 383l-25 -158l-491 -305l395 -303l-24 -158z" />
<glyph unicode="&#xad;" horiz-adv-x="739" d="M193 553l20 135h532l-22 -135h-530z" />
<glyph unicode="&#xae;" horiz-adv-x="1486" d="M203 305l129 821q22 132 121 226t219 94h600q119 0 190 -94t51 -226l-131 -821q-22 -130 -122.5 -223.5t-219.5 -93.5h-600q-120 0 -189.5 93t-47.5 224zM289 305q-15 -93 33.5 -159t132.5 -66h602q82 0 153 66.5t84 158.5l131 821q14 94 -34.5 162t-130.5 68h-603 q-84 0 -154 -68t-85 -162zM506 233l151 955h330q96 0 153 -61t42 -152l-25 -150q-9 -65 -67 -125t-132 -77l117 -390h-100l-115 385h-207l-61 -385h-86zM668 711h262q50 0 92.5 35t48.5 79l25 150q7 51 -28.5 86t-94.5 35h-242z" />
<glyph unicode="&#xaf;" horiz-adv-x="786" d="M342 1315l20 135h533l-23 -135h-530z" />
<glyph unicode="&#xb0;" horiz-adv-x="751" d="M244 1006l35 229q14 87 86.5 150t171.5 63h141q95 0 145.5 -62.5t38.5 -150.5l-37 -229q-14 -88 -84.5 -150.5t-167.5 -62.5h-141q-98 0 -150 62.5t-38 150.5zM381 1020q-6 -42 17 -68t61 -26h127q39 0 70 26t38 68l31 199q6 43 -16.5 68.5t-61.5 25.5h-127 q-38 0 -69.5 -25.5t-38.5 -68.5z" />
<glyph unicode="&#xb2;" horiz-adv-x="643" d="M190 639l25 149q17 98 94 160q37 32 133.5 83.5t137.5 90.5q39 34 47 80l6 43q5 37 -15.5 62.5t-54.5 25.5h-57q-34 0 -62 -25.5t-34 -62.5l-11 -67h-112l12 82q12 75 74.5 130.5t142.5 55.5h70q83 0 126 -57.5t31 -139.5l-12 -73q-12 -82 -82 -140q-39 -35 -139.5 -88 t-140.5 -88q-35 -35 -43 -80l-4 -28h352l-19 -113h-465z" />
<glyph unicode="&#xb3;" horiz-adv-x="649" d="M219 817l12 70h111l-8 -56q-6 -38 13 -64t52 -26h82q35 0 64 28.5t35 68.5l12 65q6 38 -16.5 63t-59.5 27h-86l19 113h79q29 2 52.5 23.5t27.5 52.5l13 73q6 32 -11 55t-45 23h-57q-28 0 -49.5 -23t-26.5 -55l-8 -51h-113l11 66q9 71 67 123.5t133 52.5h70 q74 0 114 -52.5t29 -123.5l-16 -101q-8 -64 -82 -114q36 -24 55 -61.5t13 -75.5l-15 -95q-12 -79 -74.5 -137.5t-144.5 -58.5h-92q-81 0 -126.5 56.5t-33.5 133.5z" />
<glyph unicode="&#xb4;" horiz-adv-x="645" d="M299 1329l457 242l30 -127l-460 -225z" />
<glyph unicode="&#xb5;" horiz-adv-x="1054" d="M94 -422l244 1542h135l-129 -813q-13 -87 31 -136.5t121 -49.5h55q64 0 130 34t116 95l139 870h135l-176 -1120h-96l-4 121q-143 -133 -295 -133h-70q-78 0 -131 35l-70 -445h-135z" />
<glyph unicode="&#xb6;" horiz-adv-x="1413" d="M256 846l45 293q21 125 127.5 211t251.5 86h856l-25 -140h-129l-264 -1667h-141l264 1667h-151l-265 -1667h-141l143 906h-307q-136 0 -210.5 93.5t-53.5 217.5z" />
<glyph unicode="&#xb7;" horiz-adv-x="438" d="M225 467l41 248h135l-41 -248h-135z" />
<glyph unicode="&#xb8;" horiz-adv-x="479" d="M25 -424l16 92h92q63 0 95 24.5t32 63.5q0 29 -21 53.5t-57 24.5h-73l92 176h96l-55 -102q51 -9 78.5 -47.5t27.5 -91.5q0 -84 -56 -138.5t-179 -54.5h-88z" />
<glyph unicode="&#xb9;" horiz-adv-x="563" d="M190 639l19 113h137l88 559l-147 -82l16 119l164 88h98l-106 -684h135l-19 -113h-385z" />
<glyph unicode="&#xba;" horiz-adv-x="569" d="M236 997l47 291q9 61 61.5 106.5t114.5 45.5h90q63 0 101.5 -45t29.5 -107l-47 -291q-9 -61 -61.5 -105t-114.5 -44h-90q-63 0 -101.5 44t-29.5 105zM332 1006q-3 -23 11.5 -39.5t39.5 -16.5h88q25 0 45 16.5t25 39.5l43 272q3 25 -12 42t-40 17h-88q-25 0 -44.5 -17 t-24.5 -42z" />
<glyph unicode="&#xbb;" horiz-adv-x="1280" d="M133 94l27 158l487 303l-393 305l25 158l499 -383l-24 -160zM629 94l24 158l490 303l-393 305l24 158l500 -383l-25 -160z" />
<glyph unicode="&#xbc;" horiz-adv-x="1345" d="M190 639l19 113h137l88 559l-147 -82l16 119l164 88h98l-106 -684h135l-19 -113h-385zM371 0l721 1434h133l-723 -1434h-131zM801 195l16 100l371 504h104l-75 -492h88l-17 -112h-90l-31 -195h-112l30 195h-284zM942 307h162l45 283q-24 -35 -103 -141.5t-104 -141.5z " />
<glyph unicode="&#xbd;" horiz-adv-x="1411" d="M190 639l19 113h137l88 559l-147 -82l16 119l164 88h98l-106 -684h135l-19 -113h-385zM379 0l721 1434h133l-723 -1434h-131zM856 2l25 150q17 97 94 159q37 32 133 83.5t137 90.5q39 34 47 80l6 43q5 37 -15 62.5t-54 25.5h-58q-34 0 -62 -25.5t-34 -62.5l-10 -67h-113 l13 82q12 75 74.5 130.5t142.5 55.5h69q83 0 126.5 -57.5t31.5 -139.5l-12 -73q-12 -82 -82 -140q-39 -35 -140 -88t-141 -88q-35 -35 -43 -80l-4 -28h352l-18 -113h-465z" />
<glyph unicode="&#xbe;" horiz-adv-x="1404" d="M219 817l12 70h111l-8 -56q-6 -38 13 -64t52 -26h82q35 0 64 28.5t35 68.5l12 65q6 38 -16.5 63t-59.5 27h-86l19 113h79q29 2 52.5 23.5t27.5 52.5l13 73q6 32 -11 55t-45 23h-57q-28 0 -49.5 -23t-26.5 -55l-8 -51h-113l11 66q9 71 67 123.5t133 52.5h70 q74 0 114 -52.5t29 -123.5l-16 -101q-8 -64 -82 -114q36 -24 55 -61.5t13 -75.5l-15 -95q-12 -79 -74.5 -137.5t-144.5 -58.5h-92q-81 0 -126.5 56.5t-33.5 133.5zM430 0l721 1434h133l-723 -1434h-131zM860 195l17 100l368 504h105l-76 -492h90l-18 -112h-91l-30 -195h-111 l31 195h-285zM999 307h162l45 283z" />
<glyph unicode="&#xbf;" horiz-adv-x="985" d="M139 -10l27 164q15 107 104 190q28 31 129.5 108t126.5 101q66 63 80 135l12 82h142l-19 -127q-20 -119 -116 -199q-24 -23 -133.5 -100t-137.5 -111q-42 -49 -51 -106l-16 -109q-15 -89 30.5 -146.5t124.5 -57.5h115q78 0 142 57.5t77 146.5l19 111h141l-23 -139 q-21 -129 -124.5 -222.5t-239.5 -93.5h-135q-141 0 -218.5 93.5t-56.5 222.5zM635 874l39 246h141l-39 -246h-141z" />
<glyph unicode="&#xc0;" horiz-adv-x="1206" d="M82 0l680 1442h141l221 -1442h-143l-63 426h-498l-195 -426h-143zM485 565h412l-98 680zM651 1733l72 139l381 -189l-66 -124z" />
<glyph unicode="&#xc1;" horiz-adv-x="1206" d="M82 0l680 1442h141l221 -1442h-143l-63 426h-498l-195 -426h-143zM485 565h412l-98 680zM653 1683l441 189l28 -139l-442 -174z" />
<glyph unicode="&#xc2;" horiz-adv-x="1206" d="M82 0l680 1442h141l221 -1442h-143l-63 426h-498l-195 -426h-143zM485 565h412l-98 680zM588 1688l297 184h28l240 -174l-68 -129l-211 149l-256 -149z" />
<glyph unicode="&#xc3;" horiz-adv-x="1206" d="M82 0l680 1442h141l221 -1442h-143l-63 426h-498l-195 -426h-143zM485 565h412l-98 680zM555 1585l10 62q14 93 48 136.5t104 43.5q35 0 73.5 -17.5t67 -39t66.5 -39t73 -17.5q40 0 50 47l8 56h114l-14 -95q-23 -143 -147 -143q-37 0 -78.5 17t-71.5 37.5t-66.5 37.5 t-64.5 17q-22 0 -32 -16.5t-17 -53.5l-6 -33h-117z" />
<glyph unicode="&#xc4;" horiz-adv-x="1206" d="M82 0l680 1442h141l221 -1442h-143l-63 426h-498l-195 -426h-143zM485 565h412l-98 680zM588 1591l39 246h147l-41 -246h-145zM973 1591l39 246h147l-41 -246h-145z" />
<glyph unicode="&#xc5;" horiz-adv-x="1206" d="M82 0l641 1360q-51 25 -75 78t-13 116l6 35q14 87 81.5 149t156.5 62h22q87 0 133.5 -62t32.5 -149l-6 -35q-11 -63 -50 -115t-96 -77l209 -1362h-143l-63 426h-498l-195 -426h-143zM485 565h412l-98 680zM741 1561q-9 -48 17 -81.5t67 -33.5h11q42 0 76.5 33t43.5 82 l5 22q9 48 -17 81.5t-67 33.5h-11q-41 0 -76 -33t-45 -82z" />
<glyph unicode="&#xc6;" horiz-adv-x="1714" d="M74 0l932 1436h766l-21 -140h-596l-76 -483h545l-20 -139h-547l-84 -535h612l-22 -139h-754l65 418h-376l-271 -418h-153zM588 557h309l100 635z" />
<glyph unicode="&#xc7;" horiz-adv-x="1159" d="M199 301l131 832q21 129 126.5 221t245.5 92h220q137 0 212 -92t54 -221l-23 -150h-141l18 121q13 88 -31.5 145.5t-123.5 57.5h-199q-78 0 -142 -57.5t-77 -145.5l-123 -774q-13 -88 32 -145.5t124 -57.5h196q79 0 144 57.5t78 145.5l20 131h141l-24 -160 q-21 -129 -125.5 -221t-241.5 -92h-57l-43 -80q51 -9 78.5 -47.5t27.5 -91.5q0 -84 -56 -138.5t-179 -54.5h-88l16 92h92q63 0 95 24.5t32 63.5q0 29 -21 53.5t-57 24.5h-73l80 154h-66q-140 0 -216.5 92t-55.5 221z" />
<glyph unicode="&#xc8;" horiz-adv-x="1079" d="M174 0l227 1436h736l-21 -140h-596l-76 -483h547l-22 -139h-547l-84 -535h612l-22 -139h-754zM582 1733l71 139l381 -189l-65 -124z" />
<glyph unicode="&#xc9;" horiz-adv-x="1079" d="M174 0l227 1436h736l-21 -140h-596l-76 -483h547l-22 -139h-547l-84 -535h612l-22 -139h-754zM602 1683l440 189l29 -139l-442 -174z" />
<glyph unicode="&#xca;" horiz-adv-x="1079" d="M174 0l227 1436h736l-21 -140h-596l-76 -483h547l-22 -139h-547l-84 -535h612l-22 -139h-754zM532 1688l297 184h29l240 -174l-68 -129l-211 149l-256 -149z" />
<glyph unicode="&#xcb;" horiz-adv-x="1079" d="M174 0l227 1436h736l-21 -140h-596l-76 -483h547l-22 -139h-547l-84 -535h612l-22 -139h-754zM539 1591l39 246h147l-41 -246h-145zM924 1591l39 246h147l-41 -246h-145z" />
<glyph unicode="&#xcc;" horiz-adv-x="487" d="M174 0l227 1436h142l-228 -1436h-141zM293 1733l72 139l380 -189l-65 -124z" />
<glyph unicode="&#xcd;" horiz-adv-x="487" d="M174 0l227 1436h142l-228 -1436h-141zM295 1683l440 189l29 -139l-442 -174z" />
<glyph unicode="&#xce;" horiz-adv-x="487" d="M174 0l227 1436h142l-228 -1436h-141zM229 1688l297 184h29l240 -174l-68 -129l-211 149l-256 -149z" />
<glyph unicode="&#xcf;" horiz-adv-x="487" d="M174 0l227 1436h142l-228 -1436h-141zM229 1591l39 246h148l-41 -246h-146zM614 1591l39 246h148l-41 -246h-146z" />
<glyph unicode="&#xd0;" horiz-adv-x="1208" d="M137 682l21 135h145l98 617h568q138 0 212.5 -92.5t53.5 -221.5l-127 -807q-21 -129 -125 -221t-242 -92h-567l109 682h-146zM338 139h412q79 0 143.5 57.5t77.5 145.5l119 750q13 88 -32 145t-124 57h-414l-76 -477h308l-23 -135h-305z" />
<glyph unicode="&#xd1;" horiz-adv-x="1230" d="M174 0l227 1436h144l416 -1162l184 1162h139l-227 -1436h-146l-413 1151l-183 -1151h-141zM578 1585l10 62q14 93 47.5 136.5t103.5 43.5q35 0 74 -17.5t67.5 -39t66.5 -39t73 -17.5q39 0 49 47l8 56h115l-14 -95q-23 -143 -148 -143q-47 0 -99 27.5t-99 54.5t-82 27 q-22 0 -33 -17t-17 -53l-6 -33h-116z" />
<glyph unicode="&#xd2;" horiz-adv-x="1185" d="M199 301l131 832q21 129 126.5 221t245.5 92h246q138 0 214 -92t55 -221l-134 -832q-21 -129 -124.5 -221t-241.5 -92h-246q-140 0 -216.5 92t-55.5 221zM346 330q-13 -88 32 -145.5t124 -57.5h223q79 0 143.5 57.5t77.5 145.5l123 774q13 88 -32 145.5t-124 57.5h-225 q-78 0 -142 -57.5t-77 -145.5zM625 1737l71 139l381 -188l-65 -125z" />
<glyph unicode="&#xd3;" horiz-adv-x="1185" d="M199 301l131 832q21 129 126.5 221t245.5 92h246q138 0 214 -92t55 -221l-134 -832q-21 -129 -124.5 -221t-241.5 -92h-246q-140 0 -216.5 92t-55.5 221zM346 330q-13 -88 32 -145.5t124 -57.5h223q79 0 143.5 57.5t77.5 145.5l123 774q13 88 -32 145.5t-124 57.5h-225 q-78 0 -142 -57.5t-77 -145.5zM664 1688l440 188l29 -139l-443 -174z" />
<glyph unicode="&#xd4;" horiz-adv-x="1185" d="M199 301l131 832q21 129 126.5 221t245.5 92h246q138 0 214 -92t55 -221l-134 -832q-21 -129 -124.5 -221t-241.5 -92h-246q-140 0 -216.5 92t-55.5 221zM346 330q-13 -88 32 -145.5t124 -57.5h223q79 0 143.5 57.5t77.5 145.5l123 774q13 88 -32 145.5t-124 57.5h-225 q-78 0 -142 -57.5t-77 -145.5zM580 1692l297 184h28l240 -174l-68 -129l-211 149l-256 -149z" />
<glyph unicode="&#xd5;" horiz-adv-x="1185" d="M199 301l131 832q21 129 126.5 221t245.5 92h246q138 0 214 -92t55 -221l-134 -832q-21 -129 -124.5 -221t-241.5 -92h-246q-140 0 -216.5 92t-55.5 221zM346 330q-13 -88 32 -145.5t124 -57.5h223q79 0 143.5 57.5t77.5 145.5l123 774q13 88 -32 145.5t-124 57.5h-225 q-78 0 -142 -57.5t-77 -145.5zM547 1589l10 62q14 93 48 136.5t104 43.5q35 0 73.5 -17.5t67 -39t66.5 -39t73 -17.5q39 0 49 47l9 56h114l-14 -95q-23 -143 -148 -143q-47 0 -99 27.5t-99 54.5t-82 27q-22 0 -32 -16.5t-17 -53.5l-6 -33h-117z" />
<glyph unicode="&#xd6;" horiz-adv-x="1185" d="M199 301l131 832q21 129 126.5 221t245.5 92h246q138 0 214 -92t55 -221l-134 -832q-21 -129 -124.5 -221t-241.5 -92h-246q-140 0 -216.5 92t-55.5 221zM346 330q-13 -88 32 -145.5t124 -57.5h223q79 0 143.5 57.5t77.5 145.5l123 774q13 88 -32 145.5t-124 57.5h-225 q-78 0 -142 -57.5t-77 -145.5zM580 1595l38 246h148l-41 -246h-145zM965 1595l39 246h147l-41 -246h-145z" />
<glyph unicode="&#xd7;" horiz-adv-x="884" d="M117 371l356 336l-250 337l101 97l249 -338l359 338l72 -97l-359 -337l252 -336l-102 -97l-250 336l-359 -336z" />
<glyph unicode="&#xd8;" horiz-adv-x="1185" d="M57 -205l193 291q-72 91 -51 215l131 832q21 129 126.5 221t245.5 92h246q98 0 166 -49l158 237h94l-195 -295q64 -86 46 -206l-134 -832q-21 -129 -124.5 -221t-241.5 -92h-246q-94 0 -162 43l-155 -236h-97zM346 330q-9 -47 4 -90l676 1022q-45 45 -113 45h-225 q-78 0 -142 -57.5t-77 -145.5zM395 164q43 -37 107 -37h223q79 0 143.5 57.5t77.5 145.5l123 774q6 46 -2 78z" />
<glyph unicode="&#xd9;" horiz-adv-x="1200" d="M209 301l180 1135h141l-174 -1106q-13 -88 32 -145.5t124 -57.5h217q79 0 142.5 57.5t76.5 145.5l174 1106h144l-179 -1135q-21 -129 -125.5 -221t-240.5 -92h-240q-140 0 -216.5 92t-55.5 221zM608 1733l72 139l381 -189l-66 -124z" />
<glyph unicode="&#xda;" horiz-adv-x="1200" d="M209 301l180 1135h141l-174 -1106q-13 -88 32 -145.5t124 -57.5h217q79 0 142.5 57.5t76.5 145.5l174 1106h144l-179 -1135q-21 -129 -125.5 -221t-240.5 -92h-240q-140 0 -216.5 92t-55.5 221zM694 1683l441 189l28 -139l-442 -174z" />
<glyph unicode="&#xdb;" horiz-adv-x="1200" d="M209 301l180 1135h141l-174 -1106q-13 -88 32 -145.5t124 -57.5h217q79 0 142.5 57.5t76.5 145.5l174 1106h144l-179 -1135q-21 -129 -125.5 -221t-240.5 -92h-240q-140 0 -216.5 92t-55.5 221zM586 1688l297 184h28l240 -174l-68 -129l-211 149l-256 -149z" />
<glyph unicode="&#xdc;" horiz-adv-x="1200" d="M209 301l180 1135h141l-174 -1106q-13 -88 32 -145.5t124 -57.5h217q79 0 142.5 57.5t76.5 145.5l174 1106h144l-179 -1135q-21 -129 -125.5 -221t-240.5 -92h-240q-140 0 -216.5 92t-55.5 221zM584 1591l39 246h147l-41 -246h-145zM969 1591l39 246h147l-41 -246h-145z " />
<glyph unicode="&#xdd;" horiz-adv-x="1142" d="M309 1436h148l239 -701l447 701h143l-541 -846l-94 -590h-139l92 590zM631 1683l440 189l29 -139l-443 -174z" />
<glyph unicode="&#xde;" horiz-adv-x="1116" d="M174 0l227 1436h142l-41 -252h348q146 0 227 -86t60 -209l-50 -297q-19 -124 -123 -217.5t-239 -93.5h-367l-43 -281h-141zM381 420h352q77 0 141 58.5t76 142.5l41 239q12 83 -39 133.5t-139 50.5h-332z" />
<glyph unicode="&#xdf;" horiz-adv-x="1034" d="M143 0l181 1137q20 128 115 218.5t210 90.5h101q117 0 185 -90.5t48 -218.5l-4 -25q-18 -101 -109 -184q-41 -38 -64 -69.5t-28 -72.5l-6 -38q-7 -46 11 -80t55 -68q18 -16 26 -23.5t24 -23.5t23.5 -27.5t19 -29t16.5 -34t9.5 -37.5t4 -44.5t-4.5 -50.5l-6 -35 q-19 -124 -106.5 -209.5t-202.5 -85.5h-190l22 133h172q66 0 114.5 48.5t59.5 117.5l2 23q7 40 -9 69.5t-52 67.5q-7 7 -20.5 21t-22 23t-21 23.5t-20.5 26.5t-17.5 28.5t-14 32.5t-8.5 35.5t-3.5 41t4.5 44.5l6 45q17 93 90 174q11 13 35.5 40.5t36 42t23.5 37t16 44.5 l2 19q12 72 -27 124t-104 52h-66q-65 0 -122.5 -55.5t-69.5 -131.5l-178 -1126h-136z" />
<glyph unicode="&#xe0;" horiz-adv-x="1034" d="M186 332l74 459q24 142 118 242t214 100h117q130 0 215 -125l45 112h88l-176 -1120h-97l-4 109q-121 -121 -245 -121h-123q-121 0 -184.5 101.5t-41.5 242.5zM322 334q-13 -92 29.5 -152.5t117.5 -60.5h92q57 0 115.5 35t105.5 98l101 616q-30 60 -77 95.5t-104 35.5h-92 q-75 0 -138.5 -61t-76.5 -152zM516 1444l68 127l383 -242l-62 -110z" />
<glyph unicode="&#xe1;" horiz-adv-x="1034" d="M186 332l74 459q24 142 118 242t214 100h117q130 0 215 -125l45 112h88l-176 -1120h-97l-4 109q-121 -121 -245 -121h-123q-121 0 -184.5 101.5t-41.5 242.5zM322 334q-13 -92 29.5 -152.5t117.5 -60.5h92q57 0 115.5 35t105.5 98l101 616q-30 60 -77 95.5t-104 35.5h-92 q-75 0 -138.5 -61t-76.5 -152zM514 1329l457 242l30 -127l-460 -225z" />
<glyph unicode="&#xe2;" horiz-adv-x="1034" d="M186 332l74 459q24 142 118 242t214 100h117q130 0 215 -125l45 112h88l-176 -1120h-97l-4 109q-121 -121 -245 -121h-123q-121 0 -184.5 101.5t-41.5 242.5zM322 334q-13 -92 29.5 -152.5t117.5 -60.5h92q57 0 115.5 35t105.5 98l101 616q-30 60 -77 95.5t-104 35.5h-92 q-75 0 -138.5 -61t-76.5 -152zM479 1327l275 213h32l207 -205l-63 -114l-182 176l-238 -176z" />
<glyph unicode="&#xe3;" horiz-adv-x="1034" d="M186 332l74 459q24 142 118 242t214 100h117q130 0 215 -125l45 112h88l-176 -1120h-97l-4 109q-121 -121 -245 -121h-123q-121 0 -184.5 101.5t-41.5 242.5zM322 334q-13 -92 29.5 -152.5t117.5 -60.5h92q57 0 115.5 35t105.5 98l101 616q-30 60 -77 95.5t-104 35.5h-92 q-75 0 -138.5 -61t-76.5 -152zM440 1284l9 57q15 91 47 134t100 43q37 0 77.5 -18t70 -39.5t67 -39.5t70.5 -18q22 0 36 14t17 39l8 51h109l-15 -90q-23 -141 -143 -141q-41 0 -84.5 17t-74 38t-65.5 38t-61 17q-23 0 -35 -17.5t-20 -57.5l-4 -27h-109z" />
<glyph unicode="&#xe4;" horiz-adv-x="1034" d="M186 332l74 459q24 142 118 242t214 100h117q130 0 215 -125l45 112h88l-176 -1120h-97l-4 109q-121 -121 -245 -121h-123q-121 0 -184.5 101.5t-41.5 242.5zM322 334q-13 -92 29.5 -152.5t117.5 -60.5h92q57 0 115.5 35t105.5 98l101 616q-30 60 -77 95.5t-104 35.5h-92 q-75 0 -138.5 -61t-76.5 -152zM457 1298l39 248h137l-39 -248h-137zM850 1298l39 248h139l-39 -248h-139z" />
<glyph unicode="&#xe5;" horiz-adv-x="1034" d="M186 332l74 459q24 142 118 242t214 100h117q130 0 215 -125l45 112h88l-176 -1120h-97l-4 109q-121 -121 -245 -121h-123q-121 0 -184.5 101.5t-41.5 242.5zM322 334q-13 -92 29.5 -152.5t117.5 -60.5h92q57 0 115.5 35t105.5 98l101 616q-30 60 -77 95.5t-104 35.5h-92 q-75 0 -138.5 -61t-76.5 -152zM541 1427l6 37q12 85 80 148t157 63h23q85 0 130.5 -62.5t33.5 -148.5l-6 -37q-12 -86 -78.5 -148t-153.5 -62h-20q-90 0 -137 62t-35 148zM647 1436q-6 -50 18.5 -83.5t63.5 -33.5h12q41 0 77 34t42 83l4 22q7 48 -18 81.5t-64 33.5h-12 q-41 0 -76.5 -33.5t-42.5 -81.5z" />
<glyph unicode="&#xe6;" horiz-adv-x="1624" d="M176 252l21 121q18 110 112.5 179.5t220.5 88.5l322 47l22 148q10 61 -27.5 113t-103.5 52h-112q-62 0 -113.5 -38t-60.5 -97l-8 -51h-136l9 55q17 113 111 188t220 75h119q67 0 119.5 -33.5t85.5 -89.5q119 123 262 123h117q135 0 208 -91.5t52 -220.5l-49 -313h-606 l-31 -182q-13 -89 31 -147t120 -58h105q75 0 137.5 57.5t77.5 143.5l2 10h135l-4 -35q-21 -127 -122.5 -218t-235.5 -91h-119q-91 0 -157 43t-95 116q-69 -75 -148.5 -117t-152.5 -42h-113q-111 0 -172 78.5t-43 185.5zM313 268q-9 -61 26.5 -104t92.5 -43h98 q65 0 134.5 38.5t121.5 102.5l45 303l-305 -53q-71 -14 -129 -57.5t-67 -96.5zM981 639h469l27 156q13 89 -31.5 147.5t-120.5 58.5h-104q-72 0 -136.5 -53.5t-76.5 -130.5z" />
<glyph unicode="&#xe7;" horiz-adv-x="1009" d="M188 313l80 492q21 135 123 231.5t234 96.5h120q131 0 200.5 -96.5t47.5 -231.5l-6 -45h-137l6 35q13 89 -31 147.5t-120 58.5h-89q-76 0 -139 -58.5t-76 -147.5l-75 -469q-13 -89 31 -147t120 -58h88q77 0 139.5 58t75.5 147l8 36h136l-9 -49q-22 -135 -122 -230 t-230 -95h-16l-43 -80q51 -9 78.5 -47.5t27.5 -91.5q0 -84 -56 -138.5t-179 -54.5h-88l16 92h92q63 0 95 24.5t32 63.5q0 29 -21 53.5t-57 24.5h-73l80 154h-9q-132 0 -203.5 95t-50.5 230z" />
<glyph unicode="&#xe8;" d="M188 313l80 492q21 135 123 231.5t234 96.5h139q131 0 200.5 -96.5t47.5 -231.5l-47 -297h-611l-28 -182q-13 -89 31 -147t120 -58h107q78 0 142 58.5t73 146.5v6h139l-4 -19q-22 -135 -122 -230t-230 -95h-140q-132 0 -203.5 95t-50.5 230zM375 629h473l26 166 q12 90 -31.5 148t-119.5 58h-107q-76 0 -139 -58.5t-76 -147.5zM502 1444l67 127l383 -242l-61 -110z" />
<glyph unicode="&#xe9;" d="M188 313l80 492q21 135 123 231.5t234 96.5h139q131 0 200.5 -96.5t47.5 -231.5l-47 -297h-611l-28 -182q-13 -89 31 -147t120 -58h107q78 0 142 58.5t73 146.5v6h139l-4 -19q-22 -135 -122 -230t-230 -95h-140q-132 0 -203.5 95t-50.5 230zM375 629h473l26 166 q12 90 -31.5 148t-119.5 58h-107q-76 0 -139 -58.5t-76 -147.5zM492 1329l456 242l31 -127l-461 -225z" />
<glyph unicode="&#xea;" d="M188 313l80 492q21 135 123 231.5t234 96.5h139q131 0 200.5 -96.5t47.5 -231.5l-47 -297h-611l-28 -182q-13 -89 31 -147t120 -58h107q78 0 142 58.5t73 146.5v6h139l-4 -19q-22 -135 -122 -230t-230 -95h-140q-132 0 -203.5 95t-50.5 230zM375 629h473l26 166 q12 90 -31.5 148t-119.5 58h-107q-76 0 -139 -58.5t-76 -147.5zM465 1327l274 213h33l207 -205l-64 -114l-182 176l-237 -176z" />
<glyph unicode="&#xeb;" d="M188 313l80 492q21 135 123 231.5t234 96.5h139q131 0 200.5 -96.5t47.5 -231.5l-47 -297h-611l-28 -182q-13 -89 31 -147t120 -58h107q78 0 142 58.5t73 146.5v6h139l-4 -19q-22 -135 -122 -230t-230 -95h-140q-132 0 -203.5 95t-50.5 230zM375 629h473l26 166 q12 90 -31.5 148t-119.5 58h-107q-76 0 -139 -58.5t-76 -147.5zM451 1298l38 248h138l-39 -248h-137zM844 1298l39 248h139l-39 -248h-139z" />
<glyph unicode="&#xec;" horiz-adv-x="458" d="M162 0l176 1120h135l-176 -1120h-135zM229 1444l68 127l383 -242l-62 -110z" />
<glyph unicode="&#xed;" horiz-adv-x="458" d="M162 0l176 1120h135l-176 -1120h-135zM211 1329l457 242l30 -127l-460 -225z" />
<glyph unicode="&#xee;" horiz-adv-x="458" d="M162 0l176 1120h135l-176 -1120h-135zM184 1327l275 213h33l206 -205l-63 -114l-182 176l-238 -176z" />
<glyph unicode="&#xef;" horiz-adv-x="458" d="M162 0l176 1120h135l-176 -1120h-135zM170 1298l39 248h137l-39 -248h-137zM563 1298l39 248h139l-39 -248h-139z" />
<glyph unicode="&#xf0;" horiz-adv-x="1112" d="M199 301l43 279q21 129 125 221t241 92h172q87 0 170 -80l49 309q9 55 -12 105l-158 -156l-32 47l155 154q-38 35 -94 35h-383l23 139h389q110 0 178 -62l147 146l33 -47l-141 -140q56 -81 41 -192l-135 -850q-21 -129 -127 -221t-246 -92h-172q-137 0 -212 92t-54 221z M346 330q-13 -88 32 -145.5t124 -57.5h151q78 0 142 57.5t77 145.5l35 221q13 88 -31 145.5t-122 57.5h-154q-78 0 -142 -57.5t-77 -145.5z" />
<glyph unicode="&#xf1;" horiz-adv-x="1034" d="M162 0l176 1120h96l2 -116q138 129 287 129h55q126 0 189.5 -89t40.5 -227l-129 -817h-136l127 811q14 88 -29 139t-120 51h-39q-64 0 -130.5 -35t-117.5 -96l-137 -870h-135zM449 1284l8 57q15 91 47 134t100 43q37 0 77.5 -18t70 -39.5t67 -39.5t70.5 -18q22 0 36 14 t17 39l8 51h109l-15 -90q-23 -141 -143 -141q-41 0 -84.5 17t-74 38t-65.5 38t-61 17q-23 0 -35 -17.5t-20 -57.5l-4 -27h-108z" />
<glyph unicode="&#xf2;" d="M188 313l80 492q21 135 123 231.5t234 96.5h139q130 0 199.5 -96t48.5 -232l-78 -492q-22 -135 -122 -230t-230 -95h-140q-132 0 -203.5 95t-50.5 230zM326 326q-13 -89 31 -147t120 -58h107q77 0 140 58t75 147l75 469q13 89 -31 147.5t-120 58.5h-107q-76 0 -139 -58.5 t-76 -147.5zM496 1444l67 127l383 -242l-61 -110z" />
<glyph unicode="&#xf3;" d="M188 313l80 492q21 135 123 231.5t234 96.5h139q130 0 199.5 -96t48.5 -232l-78 -492q-22 -135 -122 -230t-230 -95h-140q-132 0 -203.5 95t-50.5 230zM326 326q-13 -89 31 -147t120 -58h107q77 0 140 58t75 147l75 469q13 89 -31 147.5t-120 58.5h-107q-76 0 -139 -58.5 t-76 -147.5zM492 1329l456 242l31 -127l-461 -225z" />
<glyph unicode="&#xf4;" d="M188 313l80 492q21 135 123 231.5t234 96.5h139q130 0 199.5 -96t48.5 -232l-78 -492q-22 -135 -122 -230t-230 -95h-140q-132 0 -203.5 95t-50.5 230zM326 326q-13 -89 31 -147t120 -58h107q77 0 140 58t75 147l75 469q13 89 -31 147.5t-120 58.5h-107q-76 0 -139 -58.5 t-76 -147.5zM465 1327l274 213h33l207 -205l-64 -114l-182 176l-237 -176z" />
<glyph unicode="&#xf5;" d="M188 313l80 492q21 135 123 231.5t234 96.5h139q130 0 199.5 -96t48.5 -232l-78 -492q-22 -135 -122 -230t-230 -95h-140q-132 0 -203.5 95t-50.5 230zM326 326q-13 -89 31 -147t120 -58h107q77 0 140 58t75 147l75 469q13 89 -31 147.5t-120 58.5h-107q-76 0 -139 -58.5 t-76 -147.5zM424 1284l8 57q14 91 47 134t101 43q47 0 97.5 -29t98.5 -57.5t88 -28.5q22 0 36.5 14t17.5 39l8 51h108l-14 -90q-23 -141 -143 -141q-41 0 -84.5 17t-74 38t-65.5 38t-61 17q-23 0 -35 -17.5t-20 -57.5l-5 -27h-108z" />
<glyph unicode="&#xf6;" d="M188 313l80 492q21 135 123 231.5t234 96.5h139q130 0 199.5 -96t48.5 -232l-78 -492q-22 -135 -122 -230t-230 -95h-140q-132 0 -203.5 95t-50.5 230zM326 326q-13 -89 31 -147t120 -58h107q77 0 140 58t75 147l75 469q13 89 -31 147.5t-120 58.5h-107q-76 0 -139 -58.5 t-76 -147.5zM451 1298l38 248h138l-39 -248h-137zM844 1298l39 248h139l-39 -248h-139z" />
<glyph unicode="&#xf8;" d="M47 -205l193 285q-73 96 -52 233l80 492q21 135 123 231.5t234 96.5h139q88 0 154 -50l157 234h76l-188 -279q68 -92 49 -233l-78 -492q-22 -135 -122 -230t-230 -95h-140q-96 0 -157 49l-164 -242h-74zM326 326q-9 -63 8 -107l497 737q-42 45 -108 45h-107 q-76 0 -139 -58.5t-76 -147.5zM369 162q44 -41 108 -41h107q77 0 140 58t75 147l75 469q9 54 -8 102z" />
<glyph unicode="&#xf9;" d="M205 305l129 815h135l-129 -811q-13 -88 30 -139t119 -51h39q58 0 121.5 33.5t114.5 91.5l137 876h137l-178 -1120h-96l-2 113q-135 -125 -275 -125h-53q-126 0 -189 89t-40 228zM461 1444l67 127l383 -242l-61 -110z" />
<glyph unicode="&#xfa;" d="M205 305l129 815h135l-129 -811q-13 -88 30 -139t119 -51h39q58 0 121.5 33.5t114.5 91.5l137 876h137l-178 -1120h-96l-2 113q-135 -125 -275 -125h-53q-126 0 -189 89t-40 228zM537 1329l456 242l31 -127l-461 -225z" />
<glyph unicode="&#xfb;" d="M205 305l129 815h135l-129 -811q-13 -88 30 -139t119 -51h39q58 0 121.5 33.5t114.5 91.5l137 876h137l-178 -1120h-96l-2 113q-135 -125 -275 -125h-53q-126 0 -189 89t-40 228zM449 1327l274 213h33l207 -205l-64 -114l-182 176l-238 -176z" />
<glyph unicode="&#xfc;" d="M205 305l129 815h135l-129 -811q-13 -88 30 -139t119 -51h39q58 0 121.5 33.5t114.5 91.5l137 876h137l-178 -1120h-96l-2 113q-135 -125 -275 -125h-53q-126 0 -189 89t-40 228zM444 1298l39 248h138l-39 -248h-138zM838 1298l39 248h139l-39 -248h-139z" />
<glyph unicode="&#xfd;" horiz-adv-x="935" d="M201 -424l202 428l-188 1116h139l152 -903l430 903h141l-737 -1544h-139zM449 1329l456 242l31 -127l-461 -225z" />
<glyph unicode="&#xfe;" horiz-adv-x="1044" d="M94 -424l312 1960h135l-80 -504q115 101 231 101h115q121 0 184 -94t41 -226l-80 -504q-21 -132 -114 -226.5t-213 -94.5h-123q-111 0 -193 98l-80 -510h-135zM336 250q58 -129 166 -129h106q74 0 137 60.5t76 152.5l72 454q15 91 -28.5 152t-116.5 61h-109 q-52 0 -105 -33t-98 -91z" />
<glyph unicode="&#xff;" horiz-adv-x="935" d="M201 -424l202 428l-188 1116h139l152 -903l430 903h141l-737 -1544h-139zM408 1298l38 248h138l-39 -248h-137zM801 1298l39 248h139l-39 -248h-139z" />
<glyph unicode="&#x152;" horiz-adv-x="1800" d="M201 313l127 807q21 129 127 222.5t245 93.5h1158l-21 -140h-596l-76 -483h547l-22 -139h-547l-84 -535h612l-22 -139h-1176q-140 0 -216.5 92t-55.5 221zM348 342q-13 -88 32 -145.5t124 -57.5h414l182 1157h-414q-78 0 -142 -58t-77 -146z" />
<glyph unicode="&#x153;" horiz-adv-x="1630" d="M188 313l80 492q21 135 123 231.5t234 96.5h139q72 0 126.5 -31.5t86.5 -87.5q109 119 256 119h139q131 0 200.5 -96.5t47.5 -231.5l-47 -297h-608l-35 -213q-12 -74 35.5 -124t119.5 -50h107q78 0 142 58.5t73 146.5l2 6h137l-4 -19q-22 -135 -122 -230t-230 -95h-139 q-74 0 -130.5 30.5t-89.5 85.5q-48 -55 -113 -85.5t-136 -30.5h-140q-132 0 -203.5 95t-50.5 230zM326 326q-13 -89 31 -147t120 -58h107q74 0 136 53t75 135l79 486q15 89 -29.5 147.5t-121.5 58.5h-107q-76 0 -139 -58.5t-76 -147.5zM983 629h473l27 166q12 90 -32 148 t-120 58h-106q-75 0 -136.5 -54t-76.5 -142z" />
<glyph unicode="&#x178;" horiz-adv-x="1142" d="M309 1436h148l239 -701l447 701h143l-541 -846l-94 -590h-139l92 590zM563 1591l39 246h148l-41 -246h-146zM948 1591l39 246h148l-41 -246h-146z" />
<glyph unicode="&#x2c6;" horiz-adv-x="688" d="M297 1327l274 213h33l207 -205l-63 -114l-183 176l-237 -176z" />
<glyph unicode="&#x2dc;" horiz-adv-x="751" d="M293 1284l8 57q14 91 47 134t101 43q47 0 97.5 -29t98.5 -57.5t88 -28.5q22 0 36 14t17 39l9 51h108l-14 -90q-23 -141 -144 -141q-41 0 -84.5 17t-74 38t-65 38t-60.5 17q-23 0 -35 -17.5t-20 -57.5l-5 -27h-108z" />
<glyph unicode="&#x2000;" horiz-adv-x="938" />
<glyph unicode="&#x2001;" horiz-adv-x="1876" />
<glyph unicode="&#x2002;" horiz-adv-x="938" />
<glyph unicode="&#x2003;" horiz-adv-x="1876" />
<glyph unicode="&#x2004;" horiz-adv-x="625" />
<glyph unicode="&#x2005;" horiz-adv-x="469" />
<glyph unicode="&#x2006;" horiz-adv-x="312" />
<glyph unicode="&#x2007;" horiz-adv-x="312" />
<glyph unicode="&#x2008;" horiz-adv-x="234" />
<glyph unicode="&#x2009;" horiz-adv-x="375" />
<glyph unicode="&#x200a;" horiz-adv-x="104" />
<glyph unicode="&#x2010;" horiz-adv-x="739" d="M193 553l20 135h532l-22 -135h-530z" />
<glyph unicode="&#x2011;" horiz-adv-x="739" d="M193 553l20 135h532l-22 -135h-530z" />
<glyph unicode="&#x2012;" horiz-adv-x="739" d="M193 553l20 135h532l-22 -135h-530z" />
<glyph unicode="&#x2013;" horiz-adv-x="1001" d="M193 553l20 135h793l-21 -135h-792z" />
<glyph unicode="&#x2014;" horiz-adv-x="1474" d="M193 553l20 135h1268l-23 -135h-1265z" />
<glyph unicode="&#x2018;" horiz-adv-x="436" d="M287 1006l41 247q19 116 95 190.5t177 94.5l-22 -143q-45 -17 -77 -58t-38 -84l-41 -247h-135z" />
<glyph unicode="&#x2019;" horiz-adv-x="436" d="M238 1006l22 141q45 17 78 58t39 83l39 250h137l-41 -250q-19 -115 -95.5 -188.5t-178.5 -93.5z" />
<glyph unicode="&#x201a;" horiz-adv-x="438" d="M12 -283l23 142q45 17 78 58t39 83l41 248h133l-39 -248q-19 -116 -96 -190.5t-179 -92.5z" />
<glyph unicode="&#x201c;" horiz-adv-x="688" d="M274 1006l39 247q19 116 96 190.5t179 94.5l-23 -143q-47 -16 -77.5 -56.5t-38.5 -85.5l-39 -247h-136zM555 1006l39 247q19 116 95.5 190.5t178.5 94.5l-22 -143q-47 -16 -79 -57t-38 -85l-39 -247h-135z" />
<glyph unicode="&#x201d;" horiz-adv-x="688" d="M238 1006l22 141q45 17 78 58t39 83l39 250h137l-41 -250q-19 -115 -95.5 -188.5t-178.5 -93.5zM518 1006l23 141q45 17 77.5 58t38.5 83l41 250h133l-38 -250q-19 -114 -96.5 -188t-178.5 -94z" />
<glyph unicode="&#x201e;" horiz-adv-x="733" d="M12 -283l23 142q45 17 78 58t39 83l41 248h133l-39 -248q-19 -116 -96 -190.5t-179 -92.5zM307 -283l23 142q45 17 77.5 58t38.5 83l41 248h134l-39 -248q-19 -116 -96 -190.5t-179 -92.5z" />
<glyph unicode="&#x2022;" horiz-adv-x="577" d="M184 604l15 86q10 72 64.5 125t117.5 53h88q64 0 101.5 -53t25.5 -125l-12 -86q-12 -72 -66.5 -125t-118.5 -53h-88q-63 0 -101 53t-26 125z" />
<glyph unicode="&#x2026;" horiz-adv-x="1314" d="M152 0l38 248h136l-39 -248h-135zM590 0l39 248h135l-39 -248h-135zM1028 0l39 248h135l-39 -248h-135z" />
<glyph unicode="&#x202f;" horiz-adv-x="375" />
<glyph unicode="&#x2039;" horiz-adv-x="784" d="M180 475l25 162l622 381l-26 -158l-492 -305l396 -303l-25 -158z" />
<glyph unicode="&#x203a;" horiz-adv-x="784" d="M133 94l27 158l487 303l-393 305l25 158l499 -381l-24 -162z" />
<glyph unicode="&#x205f;" horiz-adv-x="469" />
<glyph unicode="&#x20ac;" horiz-adv-x="1232" d="M119 471l16 111h154l41 258h-154l19 112h153l29 181q21 129 126.5 221t244.5 92h245q138 0 214 -92t55 -221l-23 -150h-143l18 121q13 88 -32 145.5t-124 57.5h-225q-79 0 -142.5 -57.5t-78.5 -145.5l-25 -152h369l-16 -112h-369l-41 -258h369l-19 -111h-366l-23 -141 q-15 -88 31 -145.5t125 -57.5h225q79 0 142.5 57.5t76.5 145.5l21 131h143l-25 -160q-21 -129 -125 -221t-241 -92h-246q-140 0 -216.5 92t-55.5 221l26 170h-153z" />
<glyph unicode="&#x2122;" horiz-adv-x="1288" d="M262 1327l17 92h419l-16 -92h-162l-98 -629h-88l100 629h-172zM664 698l114 721h94l144 -477l282 477h97l-113 -721h-88l84 525l-229 -381h-97l-118 391l-84 -535h-86z" />
<glyph unicode="&#x25fc;" horiz-adv-x="1116" d="M0 0v1116h1116v-1116h-1116z" />
</font>
</defs>
</svg>
